<svg xmlns="http://www.w3.org/2000/svg" width="264" height="536" viewBox="0 0 264 536"><rect width="264" height="536" fill="#FFFFFF"/><polygon points="20.8,245.2 176.3,217.7 243.2,365.9 87.7,393.3" fill="#EEF2FB" fill-opacity="1.00" stroke="#D5DCEA" stroke-width="0.9" stroke-opacity="1.00"/><polygon points="27.3,245.3 89.4,234.3 112.2,284.8 50.1,295.7" fill="#dee2eb" fill-opacity="1.00" stroke="none" stroke-width="0.9" stroke-opacity="1.00"/><polygon points="30.6,246.4 87.6,236.4 108.9,283.6 51.9,293.7" fill="#d0d4dd" fill-opacity="1.00" stroke="none" stroke-width="0.9" stroke-opacity="1.00"/><polygon points="113.6,245.8 90.3,249.9 83.7,235.3 107.0,231.2" fill="#dee2eb" fill-opacity="1.00" stroke="none" stroke-width="0.9" stroke-opacity="1.00"/><polygon points="110.3,244.6 92.1,247.8 87.0,236.5 105.2,233.3" fill="#d0d4dd" fill-opacity="1.00" stroke="none" stroke-width="0.9" stroke-opacity="1.00"/><polygon points="155.8,235.3 184.0,230.3 204.7,276.2 176.5,281.1" fill="#dee2eb" fill-opacity="1.00" stroke="none" stroke-width="0.9" stroke-opacity="1.00"/><polygon points="159.2,236.5 182.1,232.4 201.3,275.0 178.4,279.1" fill="#d0d4dd" fill-opacity="1.00" stroke="none" stroke-width="0.9" stroke-opacity="1.00"/><polygon points="167.6,314.5 79.5,330.0 68.4,305.5 156.5,289.9" fill="#dee2eb" fill-opacity="1.00" stroke="none" stroke-width="0.9" stroke-opacity="1.00"/><polygon points="164.3,313.3 81.4,327.9 71.8,306.7 154.7,292.0" fill="#d0d4dd" fill-opacity="1.00" stroke="none" stroke-width="0.9" stroke-opacity="1.00"/><polygon points="103.5,334.5 150.9,326.2 159.1,344.2 111.7,352.6" fill="#dee2eb" fill-opacity="1.00" stroke="none" stroke-width="0.9" stroke-opacity="1.00"/><polygon points="106.9,335.7 149.1,328.2 155.8,343.1 113.6,350.5" fill="#d0d4dd" fill-opacity="1.00" stroke="none" stroke-width="0.9" stroke-opacity="1.00"/><polygon points="120.4,380.8 175.2,371.1 178.6,378.5 123.8,388.2" fill="#dee2eb" fill-opacity="1.00" stroke="none" stroke-width="0.9" stroke-opacity="1.00"/><polygon points="123.8,382.0 173.4,373.2 175.2,377.4 125.7,386.1" fill="#d0d4dd" fill-opacity="1.00" stroke="none" stroke-width="0.9" stroke-opacity="1.00"/><polygon points="67.2,343.5 89.4,339.5 108.0,380.7 85.8,384.7" fill="#dee2eb" fill-opacity="1.00" stroke="none" stroke-width="0.9" stroke-opacity="1.00"/><polygon points="70.5,344.6 87.6,341.6 104.7,379.6 87.7,382.6" fill="#d0d4dd" fill-opacity="1.00" stroke="none" stroke-width="0.9" stroke-opacity="1.00"/><polyline points="163.7,191.7 166.6,187.6" fill="none" stroke="#8A93A3" stroke-width="1" stroke-opacity="1.00"/><polyline points="163.7,221.7 166.6,217.6" fill="none" stroke="#8A93A3" stroke-width="1" stroke-opacity="1.00"/><polyline points="163.7,221.7 163.7,191.7" fill="none" stroke="#8A93A3" stroke-width="1" stroke-opacity="1.00"/><polyline points="166.6,217.6 166.6,187.6" fill="none" stroke="#8A93A3" stroke-width="1" stroke-opacity="1.00"/><polyline points="120.7,199.2 163.7,191.7" fill="none" stroke="#8A93A3" stroke-width="1" stroke-opacity="1.00"/><polyline points="120.7,229.2 163.7,221.7" fill="none" stroke="#8A93A3" stroke-width="1" stroke-opacity="1.00"/><polyline points="120.7,229.2 120.7,199.2" fill="none" stroke="#8A93A3" stroke-width="1" stroke-opacity="1.00"/><polyline points="163.7,221.7 163.7,191.7" fill="none" stroke="#8A93A3" stroke-width="1" stroke-opacity="1.00"/><polygon points="174.4,219.8 178.1,215.6 178.1,141.6 174.4,145.8" fill="#fdfdfd" fill-opacity="1.00" stroke="none" stroke-width="0.9" stroke-opacity="1.00"/><polyline points="174.4,145.8 178.1,141.6" fill="none" stroke="#8A93A3" stroke-width="1" stroke-opacity="1.00"/><polyline points="174.4,219.8 178.1,215.6" fill="none" stroke="#8A93A3" stroke-width="1" stroke-opacity="1.00"/><polyline points="174.4,219.8 174.4,145.8" fill="none" stroke="#8A93A3" stroke-width="1" stroke-opacity="1.00"/><polyline points="178.1,215.6 178.1,141.6" fill="none" stroke="#8A93A3" stroke-width="1" stroke-opacity="1.00"/><polygon points="120.7,199.2 163.7,191.7 166.6,187.6 120.8,195.7" fill="#e4e9f2" fill-opacity="1.00" stroke="none" stroke-width="0.9" stroke-opacity="1.00"/><polygon points="163.7,221.7 166.6,217.6 166.6,187.6 163.7,191.7" fill="#fcfcfd" fill-opacity="1.00" stroke="none" stroke-width="0.9" stroke-opacity="1.00"/><polygon points="163.7,151.2 166.6,147.1 166.6,143.7 163.7,147.7" fill="#fcfcfd" fill-opacity="1.00" stroke="none" stroke-width="0.9" stroke-opacity="1.00"/><polygon points="120.7,199.2 163.7,191.7 166.6,187.6 120.8,195.7" fill="none" fill-opacity="1.00" stroke="#8a93a3" stroke-width="0.9" stroke-opacity="1.00"/><polygon points="163.7,221.7 174.4,219.8 174.4,145.8 163.7,147.7" fill="#fefefe" fill-opacity="1.00" stroke="none" stroke-width="0.9" stroke-opacity="1.00"/><polyline points="163.7,147.7 174.4,145.8" fill="none" stroke="#8A93A3" stroke-width="1" stroke-opacity="1.00"/><polyline points="163.7,221.7 174.4,219.8" fill="none" stroke="#8A93A3" stroke-width="1" stroke-opacity="1.00"/><polyline points="163.7,221.7 163.7,147.7" fill="none" stroke="#8A93A3" stroke-width="1" stroke-opacity="1.00"/><polyline points="174.4,219.8 174.4,145.8" fill="none" stroke="#8A93A3" stroke-width="1" stroke-opacity="1.00"/><polygon points="120.7,199.0 163.8,191.4 163.8,150.9 120.7,158.5" fill="#81d0ed" fill-opacity="1.00" stroke="none" stroke-width="0.9" stroke-opacity="1.00"/><polygon points="120.7,229.2 163.7,221.7 163.7,191.7 120.7,199.2" fill="#fefefe" fill-opacity="1.00" stroke="none" stroke-width="0.9" stroke-opacity="1.00"/><polygon points="120.7,158.7 163.7,151.2 163.7,147.7 120.7,155.3" fill="#fefefe" fill-opacity="1.00" stroke="none" stroke-width="0.9" stroke-opacity="1.00"/><polygon points="120.7,229.2 120.8,225.7 120.8,151.8 120.7,155.3" fill="#f6f7f8" fill-opacity="1.00" stroke="none" stroke-width="0.9" stroke-opacity="1.00"/><polyline points="120.7,155.3 120.8,151.8" fill="none" stroke="#8A93A3" stroke-width="1" stroke-opacity="1.00"/><polyline points="120.7,229.2 120.8,225.7" fill="none" stroke="#8A93A3" stroke-width="1" stroke-opacity="1.00"/><polyline points="120.7,229.2 120.7,155.3" fill="none" stroke="#8A93A3" stroke-width="1" stroke-opacity="1.00"/><polyline points="120.8,225.7 120.8,151.8" fill="none" stroke="#8A93A3" stroke-width="1" stroke-opacity="1.00"/><polyline points="120.7,158.5 163.8,150.9" fill="none" stroke="#3EB8E5" stroke-width="1" stroke-opacity="1.00"/><polyline points="120.7,199.0 163.8,191.4" fill="none" stroke="#3EB8E5" stroke-width="1" stroke-opacity="1.00"/><polyline points="120.7,199.0 120.7,158.5" fill="none" stroke="#3EB8E5" stroke-width="1" stroke-opacity="1.00"/><polyline points="163.8,191.4 163.8,150.9" fill="none" stroke="#3EB8E5" stroke-width="1" stroke-opacity="1.00"/><polygon points="24.1,246.3 120.7,229.2 120.7,155.3 24.1,172.3" fill="#fefefe" fill-opacity="1.00" stroke="none" stroke-width="0.9" stroke-opacity="1.00"/><polyline points="24.1,172.3 120.7,155.3" fill="none" stroke="#8A93A3" stroke-width="1" stroke-opacity="1.00"/><polyline points="24.1,246.3 120.7,229.2" fill="none" stroke="#8A93A3" stroke-width="1" stroke-opacity="1.00"/><polyline points="24.1,246.3 24.1,172.3" fill="none" stroke="#8A93A3" stroke-width="1" stroke-opacity="1.00"/><polyline points="120.7,229.2 120.7,155.3" fill="none" stroke="#8A93A3" stroke-width="1" stroke-opacity="1.00"/><polygon points="163.7,147.7 174.4,145.8 178.1,141.6 166.6,143.7" fill="#e4e9f2" fill-opacity="1.00" stroke="none" stroke-width="0.9" stroke-opacity="1.00"/><polyline points="163.7,147.7 166.6,143.7" fill="none" stroke="#8A93A3" stroke-width="1" stroke-opacity="1.00"/><polyline points="163.7,151.2 166.6,147.1" fill="none" stroke="#8A93A3" stroke-width="1" stroke-opacity="1.00"/><polyline points="163.7,151.2 163.7,147.7" fill="none" stroke="#8A93A3" stroke-width="1" stroke-opacity="1.00"/><polyline points="166.6,147.1 166.6,143.7" fill="none" stroke="#8A93A3" stroke-width="1" stroke-opacity="1.00"/><polygon points="163.7,147.7 174.4,145.8 178.1,141.6 166.6,143.7" fill="none" fill-opacity="1.00" stroke="#8a93a3" stroke-width="0.9" stroke-opacity="1.00"/><polygon points="17.5,244.0 24.1,246.3 24.1,172.3 17.5,170.0" fill="#f3f5f6" fill-opacity="1.00" stroke="none" stroke-width="0.9" stroke-opacity="1.00"/><polyline points="17.5,170.0 24.1,172.3" fill="none" stroke="#8A93A3" stroke-width="1" stroke-opacity="1.00"/><polyline points="17.5,244.0 24.1,246.3" fill="none" stroke="#8A93A3" stroke-width="1" stroke-opacity="1.00"/><polyline points="17.5,244.0 17.5,170.0" fill="none" stroke="#8A93A3" stroke-width="1" stroke-opacity="1.00"/><polyline points="24.1,246.3 24.1,172.3" fill="none" stroke="#8A93A3" stroke-width="1" stroke-opacity="1.00"/><polygon points="120.7,155.3 163.7,147.7 166.6,143.7 120.8,151.8" fill="#e4e9f2" fill-opacity="1.00" stroke="none" stroke-width="0.9" stroke-opacity="1.00"/><polygon points="120.7,155.3 163.7,147.7 166.6,143.7 120.8,151.8" fill="none" fill-opacity="1.00" stroke="#8a93a3" stroke-width="0.9" stroke-opacity="1.00"/><polyline points="120.7,155.3 163.7,147.7" fill="none" stroke="#8A93A3" stroke-width="1" stroke-opacity="1.00"/><polyline points="120.7,158.7 163.7,151.2" fill="none" stroke="#8A93A3" stroke-width="1" stroke-opacity="1.00"/><polyline points="120.7,158.7 120.7,155.3" fill="none" stroke="#8A93A3" stroke-width="1" stroke-opacity="1.00"/><polyline points="163.7,151.2 163.7,147.7" fill="none" stroke="#8A93A3" stroke-width="1" stroke-opacity="1.00"/><polygon points="24.1,172.3 120.7,155.3 120.8,151.8 17.5,170.0" fill="#e4e9f2" fill-opacity="1.00" stroke="none" stroke-width="0.9" stroke-opacity="1.00"/><polygon points="24.1,172.3 120.7,155.3 120.8,151.8 17.5,170.0" fill="none" fill-opacity="1.00" stroke="#8a93a3" stroke-width="0.9" stroke-opacity="1.00"/><polygon points="174.4,219.8 226.1,334.1 226.1,260.1 174.4,145.8" fill="#e4e6ea" fill-opacity="1.00" stroke="none" stroke-width="0.9" stroke-opacity="1.00"/><polyline points="174.4,145.8 226.1,260.1" fill="none" stroke="#8A93A3" stroke-width="1" stroke-opacity="1.00"/><polyline points="174.4,219.8 226.1,334.1" fill="none" stroke="#8A93A3" stroke-width="1" stroke-opacity="1.00"/><polyline points="174.4,219.8 174.4,145.8" fill="none" stroke="#8A93A3" stroke-width="1" stroke-opacity="1.00"/><polyline points="226.1,334.1 226.1,260.1" fill="none" stroke="#8A93A3" stroke-width="1" stroke-opacity="1.00"/><polygon points="193.0,280.5 194.4,283.7 194.4,209.7 193.0,206.5" fill="#e4e6ea" fill-opacity="1.00" stroke="none" stroke-width="0.9" stroke-opacity="1.00"/><polygon points="194.4,283.7 207.8,281.4 207.8,207.4 194.4,209.7" fill="#fefefe" fill-opacity="1.00" stroke="none" stroke-width="0.9" stroke-opacity="1.00"/><polyline points="193.0,206.5 194.4,209.7" fill="none" stroke="#8A93A3" stroke-width="1" stroke-opacity="1.00"/><polyline points="193.0,280.5 194.4,283.7" fill="none" stroke="#8A93A3" stroke-width="1" stroke-opacity="1.00"/><polyline points="193.0,280.5 193.0,206.5" fill="none" stroke="#8A93A3" stroke-width="1" stroke-opacity="1.00"/><polyline points="194.4,283.7 194.4,209.7" fill="none" stroke="#8A93A3" stroke-width="1" stroke-opacity="1.00"/><polyline points="161.8,227.8 194.3,222.0" fill="none" stroke="#3EB8E5" stroke-width="1" stroke-opacity="1.00"/><polyline points="161.8,289.3 194.3,283.5" fill="none" stroke="#3EB8E5" stroke-width="1" stroke-opacity="1.00"/><polyline points="161.8,289.3 161.8,227.8" fill="none" stroke="#3EB8E5" stroke-width="1" stroke-opacity="1.00"/><polyline points="194.3,283.5 194.3,222.0" fill="none" stroke="#3EB8E5" stroke-width="1" stroke-opacity="1.00"/><polyline points="194.4,209.7 207.8,207.4" fill="none" stroke="#8A93A3" stroke-width="1" stroke-opacity="1.00"/><polyline points="194.4,283.7 207.8,281.4" fill="none" stroke="#8A93A3" stroke-width="1" stroke-opacity="1.00"/><polyline points="194.4,283.7 194.4,209.7" fill="none" stroke="#8A93A3" stroke-width="1" stroke-opacity="1.00"/><polyline points="207.8,281.4 207.8,207.4" fill="none" stroke="#8A93A3" stroke-width="1" stroke-opacity="1.00"/><polygon points="161.8,289.3 194.3,283.5 194.3,222.0 161.8,227.8" fill="#81d0ed" fill-opacity="1.00" stroke="none" stroke-width="0.9" stroke-opacity="1.00"/><polygon points="161.9,228.0 194.4,222.2 194.4,209.7 161.9,215.5" fill="#fefefe" fill-opacity="1.00" stroke="none" stroke-width="0.9" stroke-opacity="1.00"/><polygon points="160.5,224.7 161.9,228.0 161.9,215.5 160.5,212.2" fill="#e4e6ea" fill-opacity="1.00" stroke="none" stroke-width="0.9" stroke-opacity="1.00"/><polygon points="47.2,309.7 161.9,289.5 161.9,215.5 47.2,235.8" fill="#fefefe" fill-opacity="1.00" stroke="none" stroke-width="0.9" stroke-opacity="1.00"/><polygon points="174.4,145.8 226.1,260.1 232.1,261.1 178.1,141.6" fill="#e4e9f2" fill-opacity="1.00" stroke="none" stroke-width="0.9" stroke-opacity="1.00"/><polyline points="47.2,235.8 161.9,215.5" fill="none" stroke="#8A93A3" stroke-width="1" stroke-opacity="1.00"/><polyline points="47.2,309.7 161.9,289.5" fill="none" stroke="#8A93A3" stroke-width="1" stroke-opacity="1.00"/><polyline points="47.2,309.7 47.2,235.8" fill="none" stroke="#8A93A3" stroke-width="1" stroke-opacity="1.00"/><polyline points="161.9,289.5 161.9,215.5" fill="none" stroke="#8A93A3" stroke-width="1" stroke-opacity="1.00"/><polygon points="174.4,145.8 226.1,260.1 232.1,261.1 178.1,141.6" fill="none" fill-opacity="1.00" stroke="#8a93a3" stroke-width="0.9" stroke-opacity="1.00"/><polygon points="194.4,209.7 207.8,207.4 206.3,204.1 193.0,206.5" fill="#e4e9f2" fill-opacity="1.00" stroke="none" stroke-width="0.9" stroke-opacity="1.00"/><polygon points="194.4,209.7 207.8,207.4 206.3,204.1 193.0,206.5" fill="none" fill-opacity="1.00" stroke="#8a93a3" stroke-width="0.9" stroke-opacity="1.00"/><polyline points="161.9,215.5 194.4,209.7" fill="none" stroke="#8A93A3" stroke-width="1" stroke-opacity="1.00"/><polyline points="161.9,228.0 194.4,222.2" fill="none" stroke="#8A93A3" stroke-width="1" stroke-opacity="1.00"/><polyline points="161.9,228.0 161.9,215.5" fill="none" stroke="#8A93A3" stroke-width="1" stroke-opacity="1.00"/><polyline points="194.4,222.2 194.4,209.7" fill="none" stroke="#8A93A3" stroke-width="1" stroke-opacity="1.00"/><polygon points="45.7,306.5 47.2,309.7 47.2,235.8 45.7,232.5" fill="#e4e6ea" fill-opacity="1.00" stroke="none" stroke-width="0.9" stroke-opacity="1.00"/><polyline points="160.5,212.2 161.9,215.5" fill="none" stroke="#8A93A3" stroke-width="1" stroke-opacity="1.00"/><polyline points="160.5,224.7 161.9,228.0" fill="none" stroke="#8A93A3" stroke-width="1" stroke-opacity="1.00"/><polyline points="160.5,224.7 160.5,212.2" fill="none" stroke="#8A93A3" stroke-width="1" stroke-opacity="1.00"/><polyline points="161.9,228.0 161.9,215.5" fill="none" stroke="#8A93A3" stroke-width="1" stroke-opacity="1.00"/><polyline points="45.7,232.5 47.2,235.8" fill="none" stroke="#8A93A3" stroke-width="1" stroke-opacity="1.00"/><polyline points="45.7,306.5 47.2,309.7" fill="none" stroke="#8A93A3" stroke-width="1" stroke-opacity="1.00"/><polyline points="45.7,306.5 45.7,232.5" fill="none" stroke="#8A93A3" stroke-width="1" stroke-opacity="1.00"/><polyline points="47.2,309.7 47.2,235.8" fill="none" stroke="#8A93A3" stroke-width="1" stroke-opacity="1.00"/><polygon points="161.9,215.5 194.4,209.7 193.0,206.5 160.5,212.2" fill="#e4e9f2" fill-opacity="1.00" stroke="none" stroke-width="0.9" stroke-opacity="1.00"/><polygon points="161.9,215.5 194.4,209.7 193.0,206.5 160.5,212.2" fill="none" fill-opacity="1.00" stroke="#8a93a3" stroke-width="0.9" stroke-opacity="1.00"/><polygon points="47.2,235.8 161.9,215.5 160.5,212.2 45.7,232.5" fill="#e4e9f2" fill-opacity="1.00" stroke="none" stroke-width="0.9" stroke-opacity="1.00"/><polygon points="47.2,235.8 161.9,215.5 160.5,212.2 45.7,232.5" fill="none" fill-opacity="1.00" stroke="#8a93a3" stroke-width="0.9" stroke-opacity="1.00"/><polygon points="226.1,334.1 232.1,335.1 232.1,261.1 226.1,260.1" fill="#f8f9fa" fill-opacity="1.00" stroke="none" stroke-width="0.9" stroke-opacity="1.00"/><polyline points="226.1,260.1 232.1,261.1" fill="none" stroke="#8A93A3" stroke-width="1" stroke-opacity="1.00"/><polyline points="226.1,334.1 232.1,335.1" fill="none" stroke="#8A93A3" stroke-width="1" stroke-opacity="1.00"/><polyline points="226.1,334.1 226.1,260.1" fill="none" stroke="#8A93A3" stroke-width="1" stroke-opacity="1.00"/><polyline points="232.1,335.1 232.1,261.1" fill="none" stroke="#8A93A3" stroke-width="1" stroke-opacity="1.00"/><polyline points="226.4,272.7 235.6,293.1" fill="none" stroke="#3EB8E5" stroke-width="1" stroke-opacity="1.00"/><polyline points="226.4,334.2 235.6,354.6" fill="none" stroke="#3EB8E5" stroke-width="1" stroke-opacity="1.00"/><polyline points="226.4,334.2 226.4,272.7" fill="none" stroke="#3EB8E5" stroke-width="1" stroke-opacity="1.00"/><polyline points="235.6,354.6 235.6,293.1" fill="none" stroke="#3EB8E5" stroke-width="1" stroke-opacity="1.00"/><polygon points="226.1,272.6 235.3,293.0 235.3,280.5 226.1,260.1" fill="#e4e6ea" fill-opacity="1.00" stroke="none" stroke-width="0.9" stroke-opacity="1.00"/><polygon points="226.4,334.2 235.6,354.6 235.6,293.1 226.4,272.7" fill="#67b8d9" fill-opacity="1.00" stroke="none" stroke-width="0.9" stroke-opacity="1.00"/><polygon points="235.3,293.0 241.7,294.9 241.7,282.4 235.3,280.5" fill="#f5f6f7" fill-opacity="1.00" stroke="none" stroke-width="0.9" stroke-opacity="1.00"/><polygon points="235.3,354.5 239.9,364.7 239.9,290.7 235.3,280.5" fill="#e4e6ea" fill-opacity="1.00" stroke="none" stroke-width="0.9" stroke-opacity="1.00"/><polyline points="235.3,280.5 239.9,290.7" fill="none" stroke="#8A93A3" stroke-width="1" stroke-opacity="1.00"/><polyline points="235.3,354.5 239.9,364.7" fill="none" stroke="#8A93A3" stroke-width="1" stroke-opacity="1.00"/><polyline points="235.3,354.5 235.3,280.5" fill="none" stroke="#8A93A3" stroke-width="1" stroke-opacity="1.00"/><polyline points="239.9,364.7 239.9,290.7" fill="none" stroke="#8A93A3" stroke-width="1" stroke-opacity="1.00"/><polyline points="226.1,260.1 235.3,280.5" fill="none" stroke="#8A93A3" stroke-width="1" stroke-opacity="1.00"/><polyline points="226.1,272.6 235.3,293.0" fill="none" stroke="#8A93A3" stroke-width="1" stroke-opacity="1.00"/><polyline points="226.1,272.6 226.1,260.1" fill="none" stroke="#8A93A3" stroke-width="1" stroke-opacity="1.00"/><polyline points="235.3,293.0 235.3,280.5" fill="none" stroke="#8A93A3" stroke-width="1" stroke-opacity="1.00"/><polygon points="239.9,364.7 246.5,367.0 246.5,293.0 239.9,290.7" fill="#f3f5f6" fill-opacity="1.00" stroke="none" stroke-width="0.9" stroke-opacity="1.00"/><polyline points="239.9,290.7 246.5,293.0" fill="none" stroke="#8A93A3" stroke-width="1" stroke-opacity="1.00"/><polyline points="239.9,364.7 246.5,367.0" fill="none" stroke="#8A93A3" stroke-width="1" stroke-opacity="1.00"/><polyline points="239.9,364.7 239.9,290.7" fill="none" stroke="#8A93A3" stroke-width="1" stroke-opacity="1.00"/><polyline points="246.5,367.0 246.5,293.0" fill="none" stroke="#8A93A3" stroke-width="1" stroke-opacity="1.00"/><polygon points="226.1,260.1 235.3,280.5 241.7,282.4 232.1,261.1" fill="#e4e9f2" fill-opacity="1.00" stroke="none" stroke-width="0.9" stroke-opacity="1.00"/><polygon points="226.1,260.1 235.3,280.5 241.7,282.4 232.1,261.1" fill="none" fill-opacity="1.00" stroke="#8a93a3" stroke-width="0.9" stroke-opacity="1.00"/><polyline points="235.3,280.5 241.7,282.4" fill="none" stroke="#8A93A3" stroke-width="1" stroke-opacity="1.00"/><polyline points="235.3,293.0 241.7,294.9" fill="none" stroke="#8A93A3" stroke-width="1" stroke-opacity="1.00"/><polyline points="235.3,293.0 235.3,280.5" fill="none" stroke="#8A93A3" stroke-width="1" stroke-opacity="1.00"/><polyline points="241.7,294.9 241.7,282.4" fill="none" stroke="#8A93A3" stroke-width="1" stroke-opacity="1.00"/><polygon points="235.3,280.5 239.9,290.7 246.5,293.0 241.7,282.4" fill="#e4e9f2" fill-opacity="1.00" stroke="none" stroke-width="0.9" stroke-opacity="1.00"/><polygon points="235.3,280.5 239.9,290.7 246.5,293.0 241.7,282.4" fill="none" fill-opacity="1.00" stroke="#8a93a3" stroke-width="0.9" stroke-opacity="1.00"/><polygon points="90.2,246.1 106.8,243.1 106.8,228.1 90.2,231.1" fill="#e7eefb" fill-opacity="1.00" stroke="#2F6BFF" stroke-width="0.9" stroke-opacity="1.00"/><polygon points="85.6,236.0 90.2,246.1 90.2,231.1 85.6,221.0" fill="#cdd6e7" fill-opacity="1.00" stroke="#2F6BFF" stroke-width="0.9" stroke-opacity="1.00"/><polygon points="102.3,218.0 85.6,221.0 90.2,231.1 106.8,228.1" fill="#e7eefc" fill-opacity="1.00" stroke="#2F6BFF" stroke-width="0.9" stroke-opacity="1.00"/><polygon points="98.8,244.4 106.7,243.0 106.7,229.2 98.8,230.6" fill="#f2f5fc" fill-opacity="1.00" stroke="#2F6BFF" stroke-width="0.9" stroke-opacity="1.00"/><polygon points="98.7,244.0 98.8,244.4 98.8,230.6 98.7,230.2" fill="#d8dde8" fill-opacity="1.00" stroke="#2F6BFF" stroke-width="0.9" stroke-opacity="1.00"/><polygon points="106.5,228.8 98.7,230.2 98.8,230.6 106.7,229.2" fill="#f2f5fd" fill-opacity="1.00" stroke="#2F6BFF" stroke-width="0.9" stroke-opacity="1.00"/><polygon points="90.7,245.8 98.5,244.4 98.5,230.6 90.7,232.0" fill="#f2f5fc" fill-opacity="1.00" stroke="#2F6BFF" stroke-width="0.9" stroke-opacity="1.00"/><polygon points="90.5,245.4 90.7,245.8 90.7,232.0 90.5,231.6" fill="#d8dde8" fill-opacity="1.00" stroke="#2F6BFF" stroke-width="0.9" stroke-opacity="1.00"/><polygon points="98.3,230.2 90.5,231.6 90.7,232.0 98.5,230.6" fill="#f2f5fd" fill-opacity="1.00" stroke="#2F6BFF" stroke-width="0.9" stroke-opacity="1.00"/><polygon points="99.3,238.8 99.8,238.7 99.8,236.3 99.3,236.4" fill="#aeb3bc" fill-opacity="1.00" stroke="#2F6BFF" stroke-width="0.9" stroke-opacity="1.00"/><polygon points="99.1,238.5 99.3,238.8 99.3,236.4 99.1,236.1" fill="#949ba8" fill-opacity="1.00" stroke="#2F6BFF" stroke-width="0.9" stroke-opacity="1.00"/><polygon points="99.6,236.0 99.1,236.1 99.3,236.4 99.8,236.3" fill="#a9aeb8" fill-opacity="1.00" stroke="#2F6BFF" stroke-width="0.9" stroke-opacity="1.00"/><polygon points="97.8,239.1 98.3,239.0 98.3,236.6 97.8,236.7" fill="#aeb3bc" fill-opacity="1.00" stroke="#2F6BFF" stroke-width="0.9" stroke-opacity="1.00"/><polygon points="97.6,238.8 97.8,239.1 97.8,236.7 97.6,236.4" fill="#949ba8" fill-opacity="1.00" stroke="#2F6BFF" stroke-width="0.9" stroke-opacity="1.00"/><polygon points="98.1,236.3 97.6,236.4 97.8,236.7 98.3,236.6" fill="#a9aeb8" fill-opacity="1.00" stroke="#2F6BFF" stroke-width="0.9" stroke-opacity="1.00"/><polygon points="176.6,277.6 198.0,273.8 198.0,210.9 176.6,214.6" fill="#e7eefb" fill-opacity="1.00" stroke="#2F6BFF" stroke-width="0.9" stroke-opacity="1.00"/><polygon points="158.3,237.2 176.6,277.6 176.6,214.6 158.3,174.2" fill="#cdd6e7" fill-opacity="1.00" stroke="#2F6BFF" stroke-width="0.9" stroke-opacity="1.00"/><polygon points="176.6,214.6 198.0,210.9 179.8,170.4 158.3,174.2" fill="#e7eefc" fill-opacity="1.00" stroke="#2F6BFF" stroke-width="0.9" stroke-opacity="1.00"/><polygon points="158.7,234.6 168.8,232.8 168.8,174.9 158.7,176.7" fill="#f2f5fc" fill-opacity="1.00" stroke="#2F6BFF" stroke-width="0.9" stroke-opacity="1.00"/><polygon points="158.0,232.9 158.7,234.6 158.7,176.7 158.0,175.0" fill="#d8dde8" fill-opacity="1.00" stroke="#2F6BFF" stroke-width="0.9" stroke-opacity="1.00"/><polygon points="158.7,176.7 168.8,174.9 168.1,173.2 158.0,175.0" fill="#f2f5fd" fill-opacity="1.00" stroke="#2F6BFF" stroke-width="0.9" stroke-opacity="1.00"/><polygon points="169.2,232.8 179.3,231.0 179.3,173.0 169.2,174.8" fill="#f2f5fc" fill-opacity="1.00" stroke="#2F6BFF" stroke-width="0.9" stroke-opacity="1.00"/><polygon points="168.5,231.1 169.2,232.8 169.2,174.8 168.5,173.1" fill="#d8dde8" fill-opacity="1.00" stroke="#2F6BFF" stroke-width="0.9" stroke-opacity="1.00"/><polygon points="169.2,174.8 179.3,173.0 178.6,171.4 168.5,173.1" fill="#f2f5fd" fill-opacity="1.00" stroke="#2F6BFF" stroke-width="0.9" stroke-opacity="1.00"/><polygon points="167.2,207.8 167.8,207.7 167.8,197.6 167.2,197.8" fill="#aeb3bc" fill-opacity="1.00" stroke="#2F6BFF" stroke-width="0.9" stroke-opacity="1.00"/><polygon points="166.6,206.6 167.2,207.8 167.2,197.8 166.6,196.5" fill="#949ba8" fill-opacity="1.00" stroke="#2F6BFF" stroke-width="0.9" stroke-opacity="1.00"/><polygon points="167.2,197.8 167.8,197.6 167.3,196.4 166.6,196.5" fill="#a9aeb8" fill-opacity="1.00" stroke="#2F6BFF" stroke-width="0.9" stroke-opacity="1.00"/><polygon points="169.1,207.5 169.8,207.4 169.8,197.3 169.1,197.4" fill="#aeb3bc" fill-opacity="1.00" stroke="#2F6BFF" stroke-width="0.9" stroke-opacity="1.00"/><polygon points="168.5,206.2 169.1,207.5 169.1,197.4 168.5,196.2" fill="#949ba8" fill-opacity="1.00" stroke="#2F6BFF" stroke-width="0.9" stroke-opacity="1.00"/><polygon points="169.1,197.4 169.8,197.3 169.2,196.1 168.5,196.2" fill="#a9aeb8" fill-opacity="1.00" stroke="#2F6BFF" stroke-width="0.9" stroke-opacity="1.00"/><polygon points="50.6,288.1 101.7,279.1 101.7,273.1 50.6,282.1" fill="#e7eefb" fill-opacity="1.00" stroke="#2F6BFF" stroke-width="0.9" stroke-opacity="1.00"/><polygon points="32.4,247.9 50.6,288.1 50.6,282.1 32.4,241.9" fill="#cdd6e7" fill-opacity="1.00" stroke="#2F6BFF" stroke-width="0.9" stroke-opacity="1.00"/><polygon points="50.6,282.1 101.7,273.1 83.5,232.8 32.4,241.9" fill="#e7eefc" fill-opacity="1.00" stroke="#2F6BFF" stroke-width="0.9" stroke-opacity="1.00"/><polygon points="48.4,282.5 103.9,272.7 103.9,267.3 48.4,277.1" fill="#f2f5fc" fill-opacity="1.00" stroke="#2F6BFF" stroke-width="0.9" stroke-opacity="1.00"/><polygon points="29.2,239.9 48.4,282.5 48.4,277.1 29.2,234.5" fill="#d8dde8" fill-opacity="1.00" stroke="#2F6BFF" stroke-width="0.9" stroke-opacity="1.00"/><polygon points="48.4,277.1 103.9,267.3 84.7,224.7 29.2,234.5" fill="#f2f5fd" fill-opacity="1.00" stroke="#2F6BFF" stroke-width="0.9" stroke-opacity="1.00"/><polygon points="51.9,275.5 74.1,271.6 74.1,269.2 51.9,273.1" fill="#f2f5fc" fill-opacity="1.00" stroke="#2F6BFF" stroke-width="0.9" stroke-opacity="1.00"/><polygon points="47.3,265.3 51.9,275.5 51.9,273.1 47.3,262.9" fill="#d8dde8" fill-opacity="1.00" stroke="#2F6BFF" stroke-width="0.9" stroke-opacity="1.00"/><polygon points="51.9,273.1 74.1,269.2 69.5,259.0 47.3,262.9" fill="#f2f5fd" fill-opacity="1.00" stroke="#2F6BFF" stroke-width="0.9" stroke-opacity="1.00"/><polygon points="77.4,271.0 99.6,267.1 99.6,264.7 77.4,268.6" fill="#f2f5fc" fill-opacity="1.00" stroke="#2F6BFF" stroke-width="0.9" stroke-opacity="1.00"/><polygon points="72.8,260.8 77.4,271.0 77.4,268.6 72.8,258.4" fill="#d8dde8" fill-opacity="1.00" stroke="#2F6BFF" stroke-width="0.9" stroke-opacity="1.00"/><polygon points="77.4,268.6 99.6,264.7 95.0,254.5 72.8,258.4" fill="#f2f5fd" fill-opacity="1.00" stroke="#2F6BFF" stroke-width="0.9" stroke-opacity="1.00"/><polygon points="50.1,292.2 105.6,282.4 105.6,258.4 50.1,268.2" fill="#e7eefb" fill-opacity="1.00" stroke="#2F6BFF" stroke-width="0.9" stroke-opacity="1.00"/><polygon points="48.6,289.0 50.1,292.2 50.1,268.2 48.6,265.0" fill="#cdd6e7" fill-opacity="1.00" stroke="#2F6BFF" stroke-width="0.9" stroke-opacity="1.00"/><polygon points="50.1,268.2 105.6,258.4 104.1,255.2 48.6,265.0" fill="#e7eefc" fill-opacity="1.00" stroke="#2F6BFF" stroke-width="0.9" stroke-opacity="1.00"/><polygon points="78.8,324.9 160.2,310.5 160.2,299.7 78.8,314.1" fill="#e7eefb" fill-opacity="1.00" stroke="#2F6BFF" stroke-width="0.9" stroke-opacity="1.00"/><polygon points="70.3,306.2 78.8,324.9 78.8,314.1 70.3,295.4" fill="#cdd6e7" fill-opacity="1.00" stroke="#2F6BFF" stroke-width="0.9" stroke-opacity="1.00"/><polygon points="151.8,281.0 70.3,295.4 78.8,314.1 160.2,299.7" fill="#e7eefc" fill-opacity="1.00" stroke="#2F6BFF" stroke-width="0.9" stroke-opacity="1.00"/><polygon points="120.0,305.9 147.7,301.1 147.7,296.0 120.0,300.9" fill="#f2f5fc" fill-opacity="1.00" stroke="#2F6BFF" stroke-width="0.9" stroke-opacity="1.00"/><polygon points="113.5,291.7 120.0,305.9 120.0,300.9 113.5,286.6" fill="#d8dde8" fill-opacity="1.00" stroke="#2F6BFF" stroke-width="0.9" stroke-opacity="1.00"/><polygon points="141.2,281.8 113.5,286.6 120.0,300.9 147.7,296.0" fill="#f2f5fd" fill-opacity="1.00" stroke="#2F6BFF" stroke-width="0.9" stroke-opacity="1.00"/><polygon points="90.7,311.1 118.3,306.2 118.3,301.2 90.7,306.1" fill="#f2f5fc" fill-opacity="1.00" stroke="#2F6BFF" stroke-width="0.9" stroke-opacity="1.00"/><polygon points="84.2,296.9 90.7,311.1 90.7,306.1 84.2,291.8" fill="#d8dde8" fill-opacity="1.00" stroke="#2F6BFF" stroke-width="0.9" stroke-opacity="1.00"/><polygon points="111.9,286.9 84.2,291.8 90.7,306.1 118.3,301.2" fill="#f2f5fd" fill-opacity="1.00" stroke="#2F6BFF" stroke-width="0.9" stroke-opacity="1.00"/><polygon points="71.8,298.6 153.2,284.2 153.2,271.0 71.8,285.4" fill="#e7eefb" fill-opacity="1.00" stroke="#2F6BFF" stroke-width="0.9" stroke-opacity="1.00"/><polygon points="70.3,295.4 71.8,298.6 71.8,285.4 70.3,282.2" fill="#cdd6e7" fill-opacity="1.00" stroke="#2F6BFF" stroke-width="0.9" stroke-opacity="1.00"/><polygon points="151.8,267.8 70.3,282.2 71.8,285.4 153.2,271.0" fill="#e7eefc" fill-opacity="1.00" stroke="#2F6BFF" stroke-width="0.9" stroke-opacity="1.00"/><polygon points="150.0,302.4 160.6,300.5 160.6,292.1 150.0,294.0" fill="#e7eefb" fill-opacity="1.00" stroke="#2F6BFF" stroke-width="0.9" stroke-opacity="1.00"/><polygon points="142.8,286.5 150.0,302.4 150.0,294.0 142.8,278.1" fill="#cdd6e7" fill-opacity="1.00" stroke="#2F6BFF" stroke-width="0.9" stroke-opacity="1.00"/><polygon points="153.4,276.2 142.8,278.1 150.0,294.0 160.6,292.1" fill="#e7eefc" fill-opacity="1.00" stroke="#2F6BFF" stroke-width="0.9" stroke-opacity="1.00"/><polygon points="79.2,314.9 89.8,313.0 89.8,304.6 79.2,306.5" fill="#e7eefb" fill-opacity="1.00" stroke="#2F6BFF" stroke-width="0.9" stroke-opacity="1.00"/><polygon points="72.0,299.0 79.2,314.9 79.2,306.5 72.0,290.6" fill="#cdd6e7" fill-opacity="1.00" stroke="#2F6BFF" stroke-width="0.9" stroke-opacity="1.00"/><polygon points="82.6,288.8 72.0,290.6 79.2,306.5 89.8,304.6" fill="#e7eefc" fill-opacity="1.00" stroke="#2F6BFF" stroke-width="0.9" stroke-opacity="1.00"/><polygon points="111.7,337.4 152.4,330.2 152.4,329.3 111.7,336.5" fill="#f2f5fc" fill-opacity="1.00" stroke="#2F6BFF" stroke-width="0.9" stroke-opacity="1.00"/><polygon points="105.4,323.5 111.7,337.4 111.7,336.5 105.4,322.6" fill="#d8dde8" fill-opacity="1.00" stroke="#2F6BFF" stroke-width="0.9" stroke-opacity="1.00"/><polygon points="111.7,336.5 152.4,329.3 146.2,315.4 105.4,322.6" fill="#f2f5fd" fill-opacity="1.00" stroke="#2F6BFF" stroke-width="0.9" stroke-opacity="1.00"/><polygon points="106.9,336.4 110.1,335.9 110.1,324.2 106.9,324.7" fill="#aeb3bc" fill-opacity="1.00" stroke="#2F6BFF" stroke-width="0.9" stroke-opacity="1.00"/><polygon points="106.4,335.3 106.9,336.4 106.9,324.7 106.4,323.6" fill="#949ba8" fill-opacity="1.00" stroke="#2F6BFF" stroke-width="0.9" stroke-opacity="1.00"/><polygon points="106.9,324.7 110.1,324.2 109.6,323.0 106.4,323.6" fill="#a9aeb8" fill-opacity="1.00" stroke="#2F6BFF" stroke-width="0.9" stroke-opacity="1.00"/><polygon points="142.7,330.1 146.0,329.5 146.0,317.8 142.7,318.4" fill="#aeb3bc" fill-opacity="1.00" stroke="#2F6BFF" stroke-width="0.9" stroke-opacity="1.00"/><polygon points="142.2,329.0 142.7,330.1 142.7,318.4 142.2,317.3" fill="#949ba8" fill-opacity="1.00" stroke="#2F6BFF" stroke-width="0.9" stroke-opacity="1.00"/><polygon points="142.7,318.4 146.0,317.8 145.5,316.7 142.2,317.3" fill="#a9aeb8" fill-opacity="1.00" stroke="#2F6BFF" stroke-width="0.9" stroke-opacity="1.00"/><polygon points="112.4,348.7 115.7,348.1 115.7,336.4 112.4,337.0" fill="#aeb3bc" fill-opacity="1.00" stroke="#2F6BFF" stroke-width="0.9" stroke-opacity="1.00"/><polygon points="111.9,347.6 112.4,348.7 112.4,337.0 111.9,335.8" fill="#949ba8" fill-opacity="1.00" stroke="#2F6BFF" stroke-width="0.9" stroke-opacity="1.00"/><polygon points="112.4,337.0 115.7,336.4 115.2,335.3 111.9,335.8" fill="#a9aeb8" fill-opacity="1.00" stroke="#2F6BFF" stroke-width="0.9" stroke-opacity="1.00"/><polygon points="148.2,342.3 151.5,341.8 151.5,330.0 148.2,330.6" fill="#aeb3bc" fill-opacity="1.00" stroke="#2F6BFF" stroke-width="0.9" stroke-opacity="1.00"/><polygon points="147.7,341.2 148.2,342.3 148.2,330.6 147.7,329.5" fill="#949ba8" fill-opacity="1.00" stroke="#2F6BFF" stroke-width="0.9" stroke-opacity="1.00"/><polygon points="148.2,330.6 151.5,330.0 151.0,328.9 147.7,329.5" fill="#a9aeb8" fill-opacity="1.00" stroke="#2F6BFF" stroke-width="0.9" stroke-opacity="1.00"/><polygon points="85.8,381.2 101.4,378.4 101.4,321.4 85.8,324.2" fill="#e7eefb" fill-opacity="1.00" stroke="#2F6BFF" stroke-width="0.9" stroke-opacity="1.00"/><polygon points="69.6,345.2 85.8,381.2 85.8,324.2 69.6,288.2" fill="#cdd6e7" fill-opacity="1.00" stroke="#2F6BFF" stroke-width="0.9" stroke-opacity="1.00"/><polygon points="85.8,324.2 101.4,321.4 85.2,285.5 69.6,288.2" fill="#e7eefc" fill-opacity="1.00" stroke="#2F6BFF" stroke-width="0.9" stroke-opacity="1.00"/><polygon points="69.9,342.9 77.2,341.6 77.2,289.2 69.9,290.5" fill="#f2f5fc" fill-opacity="1.00" stroke="#2F6BFF" stroke-width="0.9" stroke-opacity="1.00"/><polygon points="69.3,341.4 69.9,342.9 69.9,290.5 69.3,289.0" fill="#d8dde8" fill-opacity="1.00" stroke="#2F6BFF" stroke-width="0.9" stroke-opacity="1.00"/><polygon points="69.9,290.5 77.2,289.2 76.6,287.7 69.3,289.0" fill="#f2f5fd" fill-opacity="1.00" stroke="#2F6BFF" stroke-width="0.9" stroke-opacity="1.00"/><polygon points="77.5,341.6 84.8,340.3 84.8,287.8 77.5,289.1" fill="#f2f5fc" fill-opacity="1.00" stroke="#2F6BFF" stroke-width="0.9" stroke-opacity="1.00"/><polygon points="76.9,340.1 77.5,341.6 77.5,289.1 76.9,287.6" fill="#d8dde8" fill-opacity="1.00" stroke="#2F6BFF" stroke-width="0.9" stroke-opacity="1.00"/><polygon points="77.5,289.1 84.8,287.8 84.2,286.3 76.9,287.6" fill="#f2f5fd" fill-opacity="1.00" stroke="#2F6BFF" stroke-width="0.9" stroke-opacity="1.00"/><polygon points="76.0,319.0 76.4,318.9 76.4,309.8 76.0,309.9" fill="#aeb3bc" fill-opacity="1.00" stroke="#2F6BFF" stroke-width="0.9" stroke-opacity="1.00"/><polygon points="75.5,317.9 76.0,319.0 76.0,309.9 75.5,308.7" fill="#949ba8" fill-opacity="1.00" stroke="#2F6BFF" stroke-width="0.9" stroke-opacity="1.00"/><polygon points="76.0,309.9 76.4,309.8 75.9,308.7 75.5,308.7" fill="#a9aeb8" fill-opacity="1.00" stroke="#2F6BFF" stroke-width="0.9" stroke-opacity="1.00"/><polygon points="77.4,318.7 77.8,318.6 77.8,309.5 77.4,309.6" fill="#aeb3bc" fill-opacity="1.00" stroke="#2F6BFF" stroke-width="0.9" stroke-opacity="1.00"/><polygon points="76.9,317.6 77.4,318.7 77.4,309.6 76.9,308.5" fill="#949ba8" fill-opacity="1.00" stroke="#2F6BFF" stroke-width="0.9" stroke-opacity="1.00"/><polygon points="77.4,309.6 77.8,309.5 77.3,308.4 76.9,308.5" fill="#a9aeb8" fill-opacity="1.00" stroke="#2F6BFF" stroke-width="0.9" stroke-opacity="1.00"/><polygon points="123.4,383.9 171.6,375.4 171.6,356.8 123.4,365.3" fill="#aeb3bc" fill-opacity="1.00" stroke="#2F6BFF" stroke-width="0.9" stroke-opacity="1.00"/><polygon points="122.3,381.5 123.4,383.9 123.4,365.3 122.3,362.9" fill="#949ba8" fill-opacity="1.00" stroke="#2F6BFF" stroke-width="0.9" stroke-opacity="1.00"/><polygon points="123.4,365.3 171.6,356.8 170.5,354.4 122.3,362.9" fill="#a9aeb8" fill-opacity="1.00" stroke="#2F6BFF" stroke-width="0.9" stroke-opacity="1.00"/><polygon points="138.2,376.9 157.5,373.5 157.5,365.4 138.2,368.8" fill="#e7eefb" fill-opacity="1.00" stroke="#2F6BFF" stroke-width="0.9" stroke-opacity="1.00"/><polygon points="137.9,376.1 138.2,376.9 138.2,368.8 137.9,368.0" fill="#cdd6e7" fill-opacity="1.00" stroke="#2F6BFF" stroke-width="0.9" stroke-opacity="1.00"/><polygon points="138.2,368.8 157.5,365.4 157.1,364.5 137.9,368.0" fill="#e7eefc" fill-opacity="1.00" stroke="#2F6BFF" stroke-width="0.9" stroke-opacity="1.00"/><polygon points="17.5,244.0 61.3,341.0 61.3,267.0 17.5,170.0" fill="#e4e6ea" fill-opacity="0.91" stroke="none" stroke-width="0.9" stroke-opacity="0.94"/><polyline points="17.5,170.0 61.3,267.0" fill="none" stroke="#8A93A3" stroke-width="1" stroke-opacity="1.00"/><polyline points="17.5,244.0 61.3,341.0" fill="none" stroke="#8A93A3" stroke-width="1" stroke-opacity="1.00"/><polyline points="17.5,244.0 17.5,170.0" fill="none" stroke="#8A93A3" stroke-width="1" stroke-opacity="1.00"/><polyline points="61.3,341.0 61.3,267.0" fill="none" stroke="#8A93A3" stroke-width="1" stroke-opacity="1.00"/><polygon points="66.1,265.2 24.1,172.3 17.5,170.0 61.3,267.0" fill="#e4e9f2" fill-opacity="1.00" stroke="none" stroke-width="0.9" stroke-opacity="1.00"/><polygon points="66.1,265.2 24.1,172.3 17.5,170.0 61.3,267.0" fill="none" fill-opacity="1.00" stroke="#8a93a3" stroke-width="0.9" stroke-opacity="1.00"/><polygon points="61.3,341.0 66.1,339.2 66.1,265.2 61.3,267.0" fill="#ffffff" fill-opacity="1.00" stroke="none" stroke-width="0.9" stroke-opacity="1.00"/><polyline points="61.3,267.0 66.1,265.2" fill="none" stroke="#8A93A3" stroke-width="1" stroke-opacity="1.00"/><polyline points="61.3,341.0 66.1,339.2" fill="none" stroke="#8A93A3" stroke-width="1" stroke-opacity="1.00"/><polyline points="61.3,341.0 61.3,267.0" fill="none" stroke="#8A93A3" stroke-width="1" stroke-opacity="1.00"/><polyline points="66.1,339.2 66.1,265.2" fill="none" stroke="#8A93A3" stroke-width="1" stroke-opacity="1.00"/><polyline points="61.3,312.5 77.3,348.0" fill="none" stroke="#8A93A3" stroke-width="1" stroke-opacity="1.00"/><polyline points="61.3,341.0 77.3,376.5" fill="none" stroke="#8A93A3" stroke-width="1" stroke-opacity="1.00"/><polyline points="61.3,341.0 61.3,312.5" fill="none" stroke="#8A93A3" stroke-width="1" stroke-opacity="1.00"/><polyline points="77.3,376.5 77.3,348.0" fill="none" stroke="#8A93A3" stroke-width="1" stroke-opacity="1.00"/><polygon points="81.4,344.6 66.1,310.7 61.3,312.5 77.3,348.0" fill="#e4e9f2" fill-opacity="1.00" stroke="none" stroke-width="0.9" stroke-opacity="1.00"/><polygon points="81.4,344.6 66.1,310.7 61.3,312.5 77.3,348.0" fill="none" fill-opacity="1.00" stroke="#8a93a3" stroke-width="0.9" stroke-opacity="1.00"/><polygon points="61.6,312.4 77.6,347.8 77.6,304.3 61.6,268.9" fill="#67b8d9" fill-opacity="1.00" stroke="none" stroke-width="0.9" stroke-opacity="1.00"/><polygon points="61.3,341.0 77.3,376.5 77.3,348.0 61.3,312.5" fill="#e4e6ea" fill-opacity="0.91" stroke="none" stroke-width="0.9" stroke-opacity="0.94"/><polygon points="61.3,269.0 77.3,304.5 77.3,302.5 61.3,267.0" fill="#e4e6ea" fill-opacity="0.91" stroke="none" stroke-width="0.9" stroke-opacity="0.94"/><polyline points="77.3,348.0 81.4,344.6" fill="none" stroke="#8A93A3" stroke-width="1" stroke-opacity="1.00"/><polyline points="77.3,376.5 81.4,373.1" fill="none" stroke="#8A93A3" stroke-width="1" stroke-opacity="1.00"/><polyline points="77.3,376.5 77.3,348.0" fill="none" stroke="#8A93A3" stroke-width="1" stroke-opacity="1.00"/><polyline points="81.4,373.1 81.4,344.6" fill="none" stroke="#8A93A3" stroke-width="1" stroke-opacity="1.00"/><polyline points="61.6,268.9 77.6,304.3" fill="none" stroke="#3EB8E5" stroke-width="1" stroke-opacity="1.00"/><polyline points="61.6,312.4 77.6,347.8" fill="none" stroke="#3EB8E5" stroke-width="1" stroke-opacity="1.00"/><polyline points="61.6,312.4 61.6,268.9" fill="none" stroke="#3EB8E5" stroke-width="1" stroke-opacity="1.00"/><polyline points="77.6,347.8 77.6,304.3" fill="none" stroke="#3EB8E5" stroke-width="1" stroke-opacity="1.00"/><polygon points="77.3,376.5 81.4,373.1 81.4,344.6 77.3,348.0" fill="#fefefe" fill-opacity="1.00" stroke="none" stroke-width="0.9" stroke-opacity="1.00"/><polygon points="77.3,304.5 81.4,301.1 81.4,299.2 77.3,302.5" fill="#fefefe" fill-opacity="1.00" stroke="none" stroke-width="0.9" stroke-opacity="1.00"/><polygon points="85.9,395.4 246.5,367.0 246.5,293.0 85.9,321.4" fill="#fefefe" fill-opacity="0.15" stroke="none" stroke-width="0.9" stroke-opacity="0.41"/><polygon points="81.4,299.2 66.1,265.2 61.3,267.0 77.3,302.5" fill="#e4e9f2" fill-opacity="1.00" stroke="none" stroke-width="0.9" stroke-opacity="1.00"/><polyline points="85.9,321.4 246.5,293.0" fill="none" stroke="#8A93A3" stroke-width="1" stroke-opacity="1.00"/><polyline points="85.9,395.4 246.5,367.0" fill="none" stroke="#8A93A3" stroke-width="1" stroke-opacity="1.00"/><polyline points="85.9,395.4 85.9,321.4" fill="none" stroke="#8A93A3" stroke-width="1" stroke-opacity="1.00"/><polyline points="246.5,367.0 246.5,293.0" fill="none" stroke="#8A93A3" stroke-width="1" stroke-opacity="1.00"/><polygon points="81.4,299.2 66.1,265.2 61.3,267.0 77.3,302.5" fill="none" fill-opacity="1.00" stroke="#8a93a3" stroke-width="0.9" stroke-opacity="1.00"/><polyline points="61.3,267.0 77.3,302.5" fill="none" stroke="#8A93A3" stroke-width="1" stroke-opacity="1.00"/><polyline points="61.3,269.0 77.3,304.5" fill="none" stroke="#8A93A3" stroke-width="1" stroke-opacity="1.00"/><polyline points="61.3,269.0 61.3,267.0" fill="none" stroke="#8A93A3" stroke-width="1" stroke-opacity="1.00"/><polyline points="77.3,304.5 77.3,302.5" fill="none" stroke="#8A93A3" stroke-width="1" stroke-opacity="1.00"/><polygon points="77.3,376.5 85.9,395.4 85.9,321.4 77.3,302.5" fill="#e4e6ea" fill-opacity="0.91" stroke="none" stroke-width="0.9" stroke-opacity="0.94"/><polyline points="77.3,302.5 85.9,321.4" fill="none" stroke="#8A93A3" stroke-width="1" stroke-opacity="1.00"/><polyline points="77.3,376.5 85.9,395.4" fill="none" stroke="#8A93A3" stroke-width="1" stroke-opacity="1.00"/><polyline points="77.3,376.5 77.3,302.5" fill="none" stroke="#8A93A3" stroke-width="1" stroke-opacity="1.00"/><polyline points="85.9,395.4 85.9,321.4" fill="none" stroke="#8A93A3" stroke-width="1" stroke-opacity="1.00"/><polygon points="85.9,395.4 89.6,391.2 89.6,317.3 85.9,321.4" fill="#fdfdfd" fill-opacity="1.00" stroke="none" stroke-width="0.9" stroke-opacity="1.00"/><polyline points="85.9,321.4 89.6,317.3" fill="none" stroke="#8A93A3" stroke-width="1" stroke-opacity="1.00"/><polyline points="85.9,395.4 89.6,391.2" fill="none" stroke="#8A93A3" stroke-width="1" stroke-opacity="1.00"/><polyline points="85.9,395.4 85.9,321.4" fill="none" stroke="#8A93A3" stroke-width="1" stroke-opacity="1.00"/><polyline points="89.6,391.2 89.6,317.3" fill="none" stroke="#8A93A3" stroke-width="1" stroke-opacity="1.00"/><polyline points="77.3,302.5 81.4,299.2" fill="none" stroke="#8A93A3" stroke-width="1" stroke-opacity="1.00"/><polyline points="77.3,304.5 81.4,301.1" fill="none" stroke="#8A93A3" stroke-width="1" stroke-opacity="1.00"/><polyline points="77.3,304.5 77.3,302.5" fill="none" stroke="#8A93A3" stroke-width="1" stroke-opacity="1.00"/><polyline points="81.4,301.1 81.4,299.2" fill="none" stroke="#8A93A3" stroke-width="1" stroke-opacity="1.00"/><polygon points="239.9,290.7 89.6,317.3 85.9,321.4 246.5,293.0" fill="#e4e9f2" fill-opacity="1.00" stroke="none" stroke-width="0.9" stroke-opacity="1.00"/><polygon points="239.9,290.7 89.6,317.3 85.9,321.4 246.5,293.0" fill="none" fill-opacity="1.00" stroke="#8a93a3" stroke-width="0.9" stroke-opacity="1.00"/><polygon points="89.6,317.3 81.4,299.2 77.3,302.5 85.9,321.4" fill="#e4e9f2" fill-opacity="1.00" stroke="none" stroke-width="0.9" stroke-opacity="1.00"/><polygon points="89.6,317.3 81.4,299.2 77.3,302.5 85.9,321.4" fill="none" fill-opacity="1.00" stroke="#8a93a3" stroke-width="0.9" stroke-opacity="1.00"/><text x="172.9" y="373.8" font-family="Helvetica" font-size="9" font-weight="bold" text-anchor="middle" fill="none" stroke="#FFFFFF" stroke-width="3">PC</text><text x="172.9" y="373.8" font-family="Helvetica" font-size="9" font-weight="bold" text-anchor="middle" fill="#C8770A">PC</text><text x="55.3" y="317.1" font-family="Helvetica" font-size="9" font-weight="bold" text-anchor="middle" fill="none" stroke="#FFFFFF" stroke-width="3">PC</text><text x="55.3" y="317.1" font-family="Helvetica" font-size="9" font-weight="bold" text-anchor="middle" fill="#C8770A">PC</text><text x="232.7" y="312.7" font-family="Helvetica" font-size="9" font-weight="bold" text-anchor="middle" fill="none" stroke="#FFFFFF" stroke-width="3">I</text><text x="232.7" y="312.7" font-family="Helvetica" font-size="9" font-weight="bold" text-anchor="middle" fill="#1E7FBF">I</text><text x="135.9" y="380.3" font-family="Helvetica" font-size="9" font-weight="bold" text-anchor="middle" fill="none" stroke="#FFFFFF" stroke-width="3">RJ</text><text x="135.9" y="380.3" font-family="Helvetica" font-size="9" font-weight="bold" text-anchor="middle" fill="#7B3FC4">RJ</text><text x="145.3" y="260.7" font-family="Helvetica" font-size="9" font-weight="bold" text-anchor="middle" fill="none" stroke="#FFFFFF" stroke-width="3">I</text><text x="145.3" y="260.7" font-family="Helvetica" font-size="9" font-weight="bold" text-anchor="middle" fill="#1E7FBF">I</text><text x="105.9" y="225.6" font-family="Helvetica" font-size="9" font-weight="bold" text-anchor="middle" fill="none" stroke="#FFFFFF" stroke-width="3">PC</text><text x="105.9" y="225.6" font-family="Helvetica" font-size="9" font-weight="bold" text-anchor="middle" fill="#C8770A">PC</text></svg>