<svg xmlns="http://www.w3.org/2000/svg" width="264" height="536" viewBox="0 0 264 536"><rect width="264" height="536" fill="#FFFFFF"/><polygon points="9.0,233.4 173.8,195.3 255.0,374.8 90.2,412.9" fill="#EEF2FB" fill-opacity="1.00" stroke="#D5DCEA" stroke-width="0.9" stroke-opacity="1.00"/><polygon points="15.9,233.3 81.8,218.1 109.5,279.2 43.5,294.5" fill="#dee2eb" fill-opacity="1.00" stroke="none" stroke-width="0.9" stroke-opacity="1.00"/><polygon points="19.5,234.6 79.9,220.7 105.8,277.9 45.4,291.9" fill="#d0d4dd" fill-opacity="1.00" stroke="none" stroke-width="0.9" stroke-opacity="1.00"/><polygon points="108.4,231.4 83.7,237.2 75.7,219.5 100.4,213.8" fill="#dee2eb" fill-opacity="1.00" stroke="none" stroke-width="0.9" stroke-opacity="1.00"/><polygon points="104.8,230.1 85.6,234.6 79.4,220.8 98.6,216.4" fill="#d0d4dd" fill-opacity="1.00" stroke="none" stroke-width="0.9" stroke-opacity="1.00"/><polygon points="153.0,217.4 182.9,210.5 208.0,266.0 178.2,272.9" fill="#dee2eb" fill-opacity="1.00" stroke="none" stroke-width="0.9" stroke-opacity="1.00"/><polygon points="156.7,218.7 181.0,213.1 204.4,264.7 180.0,270.3" fill="#d0d4dd" fill-opacity="1.00" stroke="none" stroke-width="0.9" stroke-opacity="1.00"/><polygon points="170.7,314.0 77.3,335.6 63.9,305.9 157.3,284.3" fill="#dee2eb" fill-opacity="1.00" stroke="none" stroke-width="0.9" stroke-opacity="1.00"/><polygon points="167.1,312.7 79.2,333.0 67.5,307.2 155.4,286.9" fill="#d0d4dd" fill-opacity="1.00" stroke="none" stroke-width="0.9" stroke-opacity="1.00"/><polygon points="103.4,340.4 153.6,328.8 163.5,350.7 113.3,362.3" fill="#dee2eb" fill-opacity="1.00" stroke="none" stroke-width="0.9" stroke-opacity="1.00"/><polygon points="107.0,341.8 151.7,331.4 159.9,349.4 115.1,359.7" fill="#d0d4dd" fill-opacity="1.00" stroke="none" stroke-width="0.9" stroke-opacity="1.00"/><polygon points="124.5,396.6 182.5,383.2 186.6,392.1 128.5,405.6" fill="#dee2eb" fill-opacity="1.00" stroke="none" stroke-width="0.9" stroke-opacity="1.00"/><polygon points="128.1,397.9 180.7,385.8 183.0,390.8 130.4,403.0" fill="#d0d4dd" fill-opacity="1.00" stroke="none" stroke-width="0.9" stroke-opacity="1.00"/><polygon points="65.0,352.4 88.5,347.0 111.1,396.9 87.6,402.3" fill="#dee2eb" fill-opacity="1.00" stroke="none" stroke-width="0.9" stroke-opacity="1.00"/><polygon points="68.6,353.7 86.7,349.5 107.5,395.5 89.5,399.7" fill="#d0d4dd" fill-opacity="1.00" stroke="none" stroke-width="0.9" stroke-opacity="1.00"/><polyline points="160.6,171.6 163.5,166.6" fill="none" stroke="#8A93A3" stroke-width="1" stroke-opacity="1.00"/><polyline points="160.6,200.5 163.5,195.5" fill="none" stroke="#8A93A3" stroke-width="1" stroke-opacity="1.00"/><polyline points="160.6,200.5 160.6,171.6" fill="none" stroke="#8A93A3" stroke-width="1" stroke-opacity="1.00"/><polyline points="163.5,195.5 163.5,166.6" fill="none" stroke="#8A93A3" stroke-width="1" stroke-opacity="1.00"/><polyline points="115.0,182.2 160.6,171.6" fill="none" stroke="#8A93A3" stroke-width="1" stroke-opacity="1.00"/><polyline points="115.0,211.0 160.6,200.5" fill="none" stroke="#8A93A3" stroke-width="1" stroke-opacity="1.00"/><polyline points="115.0,211.0 115.0,182.2" fill="none" stroke="#8A93A3" stroke-width="1" stroke-opacity="1.00"/><polyline points="160.6,200.5 160.6,171.6" fill="none" stroke="#8A93A3" stroke-width="1" stroke-opacity="1.00"/><polyline points="114.8,177.9 115.0,182.2" fill="none" stroke="#8A93A3" stroke-width="1" stroke-opacity="1.00"/><polyline points="114.8,206.7 115.0,211.0" fill="none" stroke="#8A93A3" stroke-width="1" stroke-opacity="1.00"/><polyline points="114.8,206.7 114.8,177.9" fill="none" stroke="#8A93A3" stroke-width="1" stroke-opacity="1.00"/><polyline points="115.0,211.0 115.0,182.2" fill="none" stroke="#8A93A3" stroke-width="1" stroke-opacity="1.00"/><polygon points="171.9,197.9 175.7,192.7 175.7,131.0 171.9,136.2" fill="#fdfdfd" fill-opacity="1.00" stroke="none" stroke-width="0.9" stroke-opacity="1.00"/><polyline points="171.9,136.2 175.7,131.0" fill="none" stroke="#8A93A3" stroke-width="1" stroke-opacity="1.00"/><polyline points="171.9,197.9 175.7,192.7" fill="none" stroke="#8A93A3" stroke-width="1" stroke-opacity="1.00"/><polyline points="171.9,197.9 171.9,136.2" fill="none" stroke="#8A93A3" stroke-width="1" stroke-opacity="1.00"/><polyline points="175.7,192.7 175.7,131.0" fill="none" stroke="#8A93A3" stroke-width="1" stroke-opacity="1.00"/><polygon points="160.6,200.5 163.5,195.5 163.5,166.6 160.6,171.6" fill="#fcfcfd" fill-opacity="1.00" stroke="none" stroke-width="0.9" stroke-opacity="1.00"/><polygon points="160.6,200.5 171.9,197.9 171.9,136.2 160.6,138.8" fill="#fefefe" fill-opacity="1.00" stroke="none" stroke-width="0.9" stroke-opacity="1.00"/><polyline points="160.6,138.8 171.9,136.2" fill="none" stroke="#8A93A3" stroke-width="1" stroke-opacity="1.00"/><polyline points="160.6,200.5 171.9,197.9" fill="none" stroke="#8A93A3" stroke-width="1" stroke-opacity="1.00"/><polyline points="160.6,200.5 160.6,138.8" fill="none" stroke="#8A93A3" stroke-width="1" stroke-opacity="1.00"/><polyline points="171.9,197.9 171.9,136.2" fill="none" stroke="#8A93A3" stroke-width="1" stroke-opacity="1.00"/><polygon points="115.0,182.2 160.6,171.6 163.5,166.6 114.8,177.9" fill="#e4e9f2" fill-opacity="1.00" stroke="none" stroke-width="0.9" stroke-opacity="1.00"/><polygon points="115.0,182.2 160.6,171.6 163.5,166.6 114.8,177.9" fill="none" fill-opacity="1.00" stroke="#8a93a3" stroke-width="0.9" stroke-opacity="1.00"/><polygon points="115.0,181.9 160.7,171.3 160.7,138.5 115.0,149.1" fill="#81d0ed" fill-opacity="1.00" stroke="none" stroke-width="0.9" stroke-opacity="1.00"/><polygon points="115.0,211.0 160.6,200.5 160.6,171.6 115.0,182.2" fill="#fefefe" fill-opacity="1.00" stroke="none" stroke-width="0.9" stroke-opacity="1.00"/><polygon points="114.8,206.7 115.0,211.0 115.0,182.2 114.8,177.9" fill="#dfe2e7" fill-opacity="1.00" stroke="none" stroke-width="0.9" stroke-opacity="1.00"/><polyline points="115.0,149.1 160.7,138.5" fill="none" stroke="#3EB8E5" stroke-width="1" stroke-opacity="1.00"/><polyline points="115.0,181.9 160.7,171.3" fill="none" stroke="#3EB8E5" stroke-width="1" stroke-opacity="1.00"/><polyline points="115.0,181.9 115.0,149.1" fill="none" stroke="#3EB8E5" stroke-width="1" stroke-opacity="1.00"/><polyline points="160.7,171.3 160.7,138.5" fill="none" stroke="#3EB8E5" stroke-width="1" stroke-opacity="1.00"/><polygon points="12.6,234.7 115.0,211.0 115.0,149.4 12.6,173.0" fill="#fefefe" fill-opacity="1.00" stroke="none" stroke-width="0.9" stroke-opacity="1.00"/><polyline points="12.6,173.0 115.0,149.4" fill="none" stroke="#8A93A3" stroke-width="1" stroke-opacity="1.00"/><polyline points="12.6,234.7 115.0,211.0" fill="none" stroke="#8A93A3" stroke-width="1" stroke-opacity="1.00"/><polyline points="12.6,234.7 12.6,173.0" fill="none" stroke="#8A93A3" stroke-width="1" stroke-opacity="1.00"/><polyline points="115.0,211.0 115.0,149.4" fill="none" stroke="#8A93A3" stroke-width="1" stroke-opacity="1.00"/><polygon points="160.6,138.8 171.9,136.2 175.7,131.0 163.5,133.8" fill="#e4e9f2" fill-opacity="1.00" stroke="none" stroke-width="0.9" stroke-opacity="1.00"/><polygon points="160.6,138.8 171.9,136.2 175.7,131.0 163.5,133.8" fill="none" fill-opacity="1.00" stroke="#8a93a3" stroke-width="0.9" stroke-opacity="1.00"/><polygon points="5.3,232.0 12.6,234.7 12.6,173.0 5.3,170.4" fill="#f4f5f7" fill-opacity="1.00" stroke="none" stroke-width="0.9" stroke-opacity="1.00"/><polyline points="5.3,170.4 12.6,173.0" fill="none" stroke="#8A93A3" stroke-width="1" stroke-opacity="1.00"/><polyline points="5.3,232.0 12.6,234.7" fill="none" stroke="#8A93A3" stroke-width="1" stroke-opacity="1.00"/><polyline points="5.3,232.0 5.3,170.4" fill="none" stroke="#8A93A3" stroke-width="1" stroke-opacity="1.00"/><polyline points="12.6,234.7 12.6,173.0" fill="none" stroke="#8A93A3" stroke-width="1" stroke-opacity="1.00"/><polygon points="12.6,173.0 115.0,149.4 114.8,145.1 5.3,170.4" fill="#e4e9f2" fill-opacity="1.00" stroke="none" stroke-width="0.9" stroke-opacity="1.00"/><polygon points="12.6,173.0 115.0,149.4 114.8,145.1 5.3,170.4" fill="none" fill-opacity="1.00" stroke="#8a93a3" stroke-width="0.9" stroke-opacity="1.00"/><polygon points="171.9,197.9 234.6,336.4 234.6,274.7 171.9,136.2" fill="#e4e7eb" fill-opacity="1.00" stroke="none" stroke-width="0.9" stroke-opacity="1.00"/><polyline points="171.9,136.2 234.6,274.7" fill="none" stroke="#8A93A3" stroke-width="1" stroke-opacity="1.00"/><polyline points="171.9,197.9 234.6,336.4" fill="none" stroke="#8A93A3" stroke-width="1" stroke-opacity="1.00"/><polyline points="171.9,197.9 171.9,136.2" fill="none" stroke="#8A93A3" stroke-width="1" stroke-opacity="1.00"/><polyline points="234.6,336.4 234.6,274.7" fill="none" stroke="#8A93A3" stroke-width="1" stroke-opacity="1.00"/><polygon points="195.7,271.7 197.5,275.6 197.5,213.9 195.7,210.0" fill="#e4e7eb" fill-opacity="1.00" stroke="none" stroke-width="0.9" stroke-opacity="1.00"/><polygon points="197.5,275.6 211.7,272.3 211.7,210.7 197.5,213.9" fill="#fefefe" fill-opacity="1.00" stroke="none" stroke-width="0.9" stroke-opacity="1.00"/><polyline points="195.7,210.0 197.5,213.9" fill="none" stroke="#8A93A3" stroke-width="1" stroke-opacity="1.00"/><polyline points="195.7,271.7 197.5,275.6" fill="none" stroke="#8A93A3" stroke-width="1" stroke-opacity="1.00"/><polyline points="195.7,271.7 195.7,210.0" fill="none" stroke="#8A93A3" stroke-width="1" stroke-opacity="1.00"/><polyline points="197.5,275.6 197.5,213.9" fill="none" stroke="#8A93A3" stroke-width="1" stroke-opacity="1.00"/><polyline points="197.5,213.9 211.7,210.7" fill="none" stroke="#8A93A3" stroke-width="1" stroke-opacity="1.00"/><polyline points="197.5,275.6 211.7,272.3" fill="none" stroke="#8A93A3" stroke-width="1" stroke-opacity="1.00"/><polyline points="197.5,275.6 197.5,213.9" fill="none" stroke="#8A93A3" stroke-width="1" stroke-opacity="1.00"/><polyline points="211.7,272.3 211.7,210.7" fill="none" stroke="#8A93A3" stroke-width="1" stroke-opacity="1.00"/><polyline points="162.9,224.2 197.4,216.2" fill="none" stroke="#3EB8E5" stroke-width="1" stroke-opacity="1.00"/><polyline points="162.9,283.3 197.4,275.4" fill="none" stroke="#3EB8E5" stroke-width="1" stroke-opacity="1.00"/><polyline points="162.9,283.3 162.9,224.2" fill="none" stroke="#3EB8E5" stroke-width="1" stroke-opacity="1.00"/><polyline points="197.4,275.4 197.4,216.2" fill="none" stroke="#3EB8E5" stroke-width="1" stroke-opacity="1.00"/><polygon points="162.9,283.3 197.4,275.4 197.4,216.2 162.9,224.2" fill="#81d0ed" fill-opacity="1.00" stroke="none" stroke-width="0.9" stroke-opacity="1.00"/><polygon points="163.0,224.4 197.5,216.5 197.5,213.9 163.0,221.9" fill="#fefefe" fill-opacity="1.00" stroke="none" stroke-width="0.9" stroke-opacity="1.00"/><polygon points="161.3,220.5 163.0,224.4 163.0,221.9 161.3,218.0" fill="#e4e7eb" fill-opacity="1.00" stroke="none" stroke-width="0.9" stroke-opacity="1.00"/><polygon points="41.4,311.7 163.0,283.6 163.0,221.9 41.4,250.0" fill="#fefefe" fill-opacity="1.00" stroke="none" stroke-width="0.9" stroke-opacity="1.00"/><polygon points="171.9,136.2 234.6,274.7 241.2,275.7 175.7,131.0" fill="#e4e9f2" fill-opacity="1.00" stroke="none" stroke-width="0.9" stroke-opacity="1.00"/><polyline points="41.4,250.0 163.0,221.9" fill="none" stroke="#8A93A3" stroke-width="1" stroke-opacity="1.00"/><polyline points="41.4,311.7 163.0,283.6" fill="none" stroke="#8A93A3" stroke-width="1" stroke-opacity="1.00"/><polyline points="41.4,311.7 41.4,250.0" fill="none" stroke="#8A93A3" stroke-width="1" stroke-opacity="1.00"/><polyline points="163.0,283.6 163.0,221.9" fill="none" stroke="#8A93A3" stroke-width="1" stroke-opacity="1.00"/><polygon points="171.9,136.2 234.6,274.7 241.2,275.7 175.7,131.0" fill="none" fill-opacity="1.00" stroke="#8a93a3" stroke-width="0.9" stroke-opacity="1.00"/><polygon points="197.5,213.9 211.7,210.7 209.9,206.7 195.7,210.0" fill="#e4e9f2" fill-opacity="1.00" stroke="none" stroke-width="0.9" stroke-opacity="1.00"/><polygon points="197.5,213.9 211.7,210.7 209.9,206.7 195.7,210.0" fill="none" fill-opacity="1.00" stroke="#8a93a3" stroke-width="0.9" stroke-opacity="1.00"/><polygon points="39.6,307.8 41.4,311.7 41.4,250.0 39.6,246.1" fill="#e4e7eb" fill-opacity="1.00" stroke="none" stroke-width="0.9" stroke-opacity="1.00"/><polygon points="163.0,221.9 197.5,213.9 195.7,210.0 161.3,218.0" fill="#e4e9f2" fill-opacity="1.00" stroke="none" stroke-width="0.9" stroke-opacity="1.00"/><polyline points="39.6,246.1 41.4,250.0" fill="none" stroke="#8A93A3" stroke-width="1" stroke-opacity="1.00"/><polyline points="39.6,307.8 41.4,311.7" fill="none" stroke="#8A93A3" stroke-width="1" stroke-opacity="1.00"/><polyline points="39.6,307.8 39.6,246.1" fill="none" stroke="#8A93A3" stroke-width="1" stroke-opacity="1.00"/><polyline points="41.4,311.7 41.4,250.0" fill="none" stroke="#8A93A3" stroke-width="1" stroke-opacity="1.00"/><polygon points="163.0,221.9 197.5,213.9 195.7,210.0 161.3,218.0" fill="none" fill-opacity="1.00" stroke="#8a93a3" stroke-width="0.9" stroke-opacity="1.00"/><polyline points="163.0,221.9 197.5,213.9" fill="none" stroke="#8A93A3" stroke-width="1" stroke-opacity="1.00"/><polyline points="163.0,224.4 197.5,216.5" fill="none" stroke="#8A93A3" stroke-width="1" stroke-opacity="1.00"/><polyline points="163.0,224.4 163.0,221.9" fill="none" stroke="#8A93A3" stroke-width="1" stroke-opacity="1.00"/><polyline points="197.5,216.5 197.5,213.9" fill="none" stroke="#8A93A3" stroke-width="1" stroke-opacity="1.00"/><polyline points="161.3,218.0 163.0,221.9" fill="none" stroke="#8A93A3" stroke-width="1" stroke-opacity="1.00"/><polyline points="161.3,220.5 163.0,224.4" fill="none" stroke="#8A93A3" stroke-width="1" stroke-opacity="1.00"/><polyline points="161.3,220.5 161.3,218.0" fill="none" stroke="#8A93A3" stroke-width="1" stroke-opacity="1.00"/><polyline points="163.0,224.4 163.0,221.9" fill="none" stroke="#8A93A3" stroke-width="1" stroke-opacity="1.00"/><polygon points="41.4,250.0 163.0,221.9 161.3,218.0 39.6,246.1" fill="#e4e9f2" fill-opacity="1.00" stroke="none" stroke-width="0.9" stroke-opacity="1.00"/><polygon points="41.4,250.0 163.0,221.9 161.3,218.0 39.6,246.1" fill="none" fill-opacity="1.00" stroke="#8a93a3" stroke-width="0.9" stroke-opacity="1.00"/><polygon points="234.6,336.4 241.2,337.4 241.2,275.7 234.6,274.7" fill="#f8f9fa" fill-opacity="1.00" stroke="none" stroke-width="0.9" stroke-opacity="1.00"/><polyline points="234.6,274.7 241.2,275.7" fill="none" stroke="#8A93A3" stroke-width="1" stroke-opacity="1.00"/><polyline points="234.6,336.4 241.2,337.4" fill="none" stroke="#8A93A3" stroke-width="1" stroke-opacity="1.00"/><polyline points="234.6,336.4 234.6,274.7" fill="none" stroke="#8A93A3" stroke-width="1" stroke-opacity="1.00"/><polyline points="241.2,337.4 241.2,275.7" fill="none" stroke="#8A93A3" stroke-width="1" stroke-opacity="1.00"/><polyline points="235.0,277.3 246.2,302.1" fill="none" stroke="#3EB8E5" stroke-width="1" stroke-opacity="1.00"/><polyline points="235.0,336.5 246.2,361.2" fill="none" stroke="#3EB8E5" stroke-width="1" stroke-opacity="1.00"/><polyline points="235.0,336.5 235.0,277.3" fill="none" stroke="#3EB8E5" stroke-width="1" stroke-opacity="1.00"/><polyline points="246.2,361.2 246.2,302.1" fill="none" stroke="#3EB8E5" stroke-width="1" stroke-opacity="1.00"/><polygon points="234.6,277.3 245.8,301.9 245.8,299.4 234.6,274.7" fill="#e4e7eb" fill-opacity="1.00" stroke="none" stroke-width="0.9" stroke-opacity="1.00"/><polygon points="235.0,336.5 246.2,361.2 246.2,302.1 235.0,277.3" fill="#67b8da" fill-opacity="1.00" stroke="none" stroke-width="0.9" stroke-opacity="1.00"/><polygon points="245.8,301.9 252.8,304.0 252.8,301.5 245.8,299.4" fill="#f5f6f8" fill-opacity="1.00" stroke="none" stroke-width="0.9" stroke-opacity="1.00"/><polygon points="245.8,361.1 251.4,373.4 251.4,311.8 245.8,299.4" fill="#e4e7eb" fill-opacity="1.00" stroke="none" stroke-width="0.9" stroke-opacity="1.00"/><polyline points="245.8,299.4 251.4,311.8" fill="none" stroke="#8A93A3" stroke-width="1" stroke-opacity="1.00"/><polyline points="245.8,361.1 251.4,373.4" fill="none" stroke="#8A93A3" stroke-width="1" stroke-opacity="1.00"/><polyline points="245.8,361.1 245.8,299.4" fill="none" stroke="#8A93A3" stroke-width="1" stroke-opacity="1.00"/><polyline points="251.4,373.4 251.4,311.8" fill="none" stroke="#8A93A3" stroke-width="1" stroke-opacity="1.00"/><polygon points="251.4,373.4 258.7,376.1 258.7,314.4 251.4,311.8" fill="#f4f5f7" fill-opacity="1.00" stroke="none" stroke-width="0.9" stroke-opacity="1.00"/><polyline points="251.4,311.8 258.7,314.4" fill="none" stroke="#8A93A3" stroke-width="1" stroke-opacity="1.00"/><polyline points="251.4,373.4 258.7,376.1" fill="none" stroke="#8A93A3" stroke-width="1" stroke-opacity="1.00"/><polyline points="251.4,373.4 251.4,311.8" fill="none" stroke="#8A93A3" stroke-width="1" stroke-opacity="1.00"/><polyline points="258.7,376.1 258.7,314.4" fill="none" stroke="#8A93A3" stroke-width="1" stroke-opacity="1.00"/><polyline points="234.6,274.7 245.8,299.4" fill="none" stroke="#8A93A3" stroke-width="1" stroke-opacity="1.00"/><polyline points="234.6,277.3 245.8,301.9" fill="none" stroke="#8A93A3" stroke-width="1" stroke-opacity="1.00"/><polyline points="234.6,277.3 234.6,274.7" fill="none" stroke="#8A93A3" stroke-width="1" stroke-opacity="1.00"/><polyline points="245.8,301.9 245.8,299.4" fill="none" stroke="#8A93A3" stroke-width="1" stroke-opacity="1.00"/><polygon points="234.6,274.7 245.8,299.4 252.8,301.5 241.2,275.7" fill="#e4e9f2" fill-opacity="1.00" stroke="none" stroke-width="0.9" stroke-opacity="1.00"/><polygon points="234.6,274.7 245.8,299.4 252.8,301.5 241.2,275.7" fill="none" fill-opacity="1.00" stroke="#8a93a3" stroke-width="0.9" stroke-opacity="1.00"/><polyline points="245.8,299.4 252.8,301.5" fill="none" stroke="#8A93A3" stroke-width="1" stroke-opacity="1.00"/><polyline points="245.8,301.9 252.8,304.0" fill="none" stroke="#8A93A3" stroke-width="1" stroke-opacity="1.00"/><polyline points="245.8,301.9 245.8,299.4" fill="none" stroke="#8A93A3" stroke-width="1" stroke-opacity="1.00"/><polyline points="252.8,304.0 252.8,301.5" fill="none" stroke="#8A93A3" stroke-width="1" stroke-opacity="1.00"/><polygon points="245.8,299.4 251.4,311.8 258.7,314.4 252.8,301.5" fill="#e4e9f2" fill-opacity="1.00" stroke="none" stroke-width="0.9" stroke-opacity="1.00"/><polygon points="245.8,299.4 251.4,311.8 258.7,314.4 252.8,301.5" fill="none" fill-opacity="1.00" stroke="#8a93a3" stroke-width="0.9" stroke-opacity="1.00"/><polygon points="83.3,232.5 101.0,228.4 101.0,214.0 83.3,218.1" fill="#e7eefb" fill-opacity="1.00" stroke="#2F6BFF" stroke-width="0.9" stroke-opacity="1.00"/><polygon points="77.8,220.2 83.3,232.5 83.3,218.1 77.8,205.8" fill="#cdd6e8" fill-opacity="1.00" stroke="#2F6BFF" stroke-width="0.9" stroke-opacity="1.00"/><polygon points="95.5,201.7 77.8,205.8 83.3,218.1 101.0,214.0" fill="#e7eefc" fill-opacity="1.00" stroke="#2F6BFF" stroke-width="0.9" stroke-opacity="1.00"/><polygon points="92.6,230.3 100.9,228.4 100.9,215.1 92.6,217.1" fill="#f2f5fc" fill-opacity="1.00" stroke="#2F6BFF" stroke-width="0.9" stroke-opacity="1.00"/><polygon points="92.4,229.8 92.6,230.3 92.6,217.1 92.4,216.6" fill="#d8dde9" fill-opacity="1.00" stroke="#2F6BFF" stroke-width="0.9" stroke-opacity="1.00"/><polygon points="100.7,214.6 92.4,216.6 92.6,217.1 100.9,215.1" fill="#f2f5fd" fill-opacity="1.00" stroke="#2F6BFF" stroke-width="0.9" stroke-opacity="1.00"/><polygon points="83.9,232.3 92.2,230.4 92.2,217.1 83.9,219.1" fill="#f2f5fc" fill-opacity="1.00" stroke="#2F6BFF" stroke-width="0.9" stroke-opacity="1.00"/><polygon points="83.7,231.8 83.9,232.3 83.9,219.1 83.7,218.6" fill="#d8dde9" fill-opacity="1.00" stroke="#2F6BFF" stroke-width="0.9" stroke-opacity="1.00"/><polygon points="92.0,216.6 83.7,218.6 83.9,219.1 92.2,217.1" fill="#f2f5fd" fill-opacity="1.00" stroke="#2F6BFF" stroke-width="0.9" stroke-opacity="1.00"/><polygon points="93.0,225.0 93.6,224.9 93.6,222.6 93.0,222.7" fill="#aeb3bc" fill-opacity="1.00" stroke="#2F6BFF" stroke-width="0.9" stroke-opacity="1.00"/><polygon points="92.9,224.6 93.0,225.0 93.0,222.7 92.9,222.3" fill="#949ba9" fill-opacity="1.00" stroke="#2F6BFF" stroke-width="0.9" stroke-opacity="1.00"/><polygon points="93.4,222.2 92.9,222.3 93.0,222.7 93.6,222.6" fill="#a9aeb8" fill-opacity="1.00" stroke="#2F6BFF" stroke-width="0.9" stroke-opacity="1.00"/><polygon points="91.5,225.4 92.0,225.3 92.0,223.0 91.5,223.1" fill="#aeb3bc" fill-opacity="1.00" stroke="#2F6BFF" stroke-width="0.9" stroke-opacity="1.00"/><polygon points="91.3,225.0 91.5,225.4 91.5,223.1 91.3,222.7" fill="#949ba9" fill-opacity="1.00" stroke="#2F6BFF" stroke-width="0.9" stroke-opacity="1.00"/><polygon points="91.8,222.6 91.3,222.7 91.5,223.1 92.0,223.0" fill="#a9aeb8" fill-opacity="1.00" stroke="#2F6BFF" stroke-width="0.9" stroke-opacity="1.00"/><polygon points="178.0,268.7 200.7,263.4 200.7,202.8 178.0,208.1" fill="#e7eefb" fill-opacity="1.00" stroke="#2F6BFF" stroke-width="0.9" stroke-opacity="1.00"/><polygon points="155.8,219.7 178.0,268.7 178.0,208.1 155.8,159.1" fill="#cdd6e8" fill-opacity="1.00" stroke="#2F6BFF" stroke-width="0.9" stroke-opacity="1.00"/><polygon points="178.0,208.1 200.7,202.8 178.6,153.8 155.8,159.1" fill="#e7eefc" fill-opacity="1.00" stroke="#2F6BFF" stroke-width="0.9" stroke-opacity="1.00"/><polygon points="156.3,217.2 167.0,214.7 167.0,158.9 156.3,161.4" fill="#f2f5fc" fill-opacity="1.00" stroke="#2F6BFF" stroke-width="0.9" stroke-opacity="1.00"/><polygon points="155.3,215.1 156.3,217.2 156.3,161.4 155.3,159.4" fill="#d8dde9" fill-opacity="1.00" stroke="#2F6BFF" stroke-width="0.9" stroke-opacity="1.00"/><polygon points="156.3,161.4 167.0,158.9 166.0,156.9 155.3,159.4" fill="#f2f5fd" fill-opacity="1.00" stroke="#2F6BFF" stroke-width="0.9" stroke-opacity="1.00"/><polygon points="167.4,214.6 178.1,212.1 178.1,156.4 167.4,158.8" fill="#f2f5fc" fill-opacity="1.00" stroke="#2F6BFF" stroke-width="0.9" stroke-opacity="1.00"/><polygon points="166.5,212.6 167.4,214.6 167.4,158.8 166.5,156.8" fill="#d8dde9" fill-opacity="1.00" stroke="#2F6BFF" stroke-width="0.9" stroke-opacity="1.00"/><polygon points="167.4,158.8 178.1,156.4 177.2,154.3 166.5,156.8" fill="#f2f5fd" fill-opacity="1.00" stroke="#2F6BFF" stroke-width="0.9" stroke-opacity="1.00"/><polygon points="165.1,190.4 165.8,190.2 165.8,180.6 165.1,180.7" fill="#aeb3bc" fill-opacity="1.00" stroke="#2F6BFF" stroke-width="0.9" stroke-opacity="1.00"/><polygon points="164.4,188.9 165.1,190.4 165.1,180.7 164.4,179.2" fill="#949ba9" fill-opacity="1.00" stroke="#2F6BFF" stroke-width="0.9" stroke-opacity="1.00"/><polygon points="165.1,180.7 165.8,180.6 165.1,179.0 164.4,179.2" fill="#a9aeb8" fill-opacity="1.00" stroke="#2F6BFF" stroke-width="0.9" stroke-opacity="1.00"/><polygon points="167.2,189.9 167.9,189.8 167.9,180.1 167.2,180.2" fill="#aeb3bc" fill-opacity="1.00" stroke="#2F6BFF" stroke-width="0.9" stroke-opacity="1.00"/><polygon points="166.5,188.4 167.2,189.9 167.2,180.2 166.5,178.7" fill="#949ba9" fill-opacity="1.00" stroke="#2F6BFF" stroke-width="0.9" stroke-opacity="1.00"/><polygon points="167.2,180.2 167.9,180.1 167.2,178.6 166.5,178.7" fill="#a9aeb8" fill-opacity="1.00" stroke="#2F6BFF" stroke-width="0.9" stroke-opacity="1.00"/><polygon points="43.7,285.1 97.8,272.6 97.8,266.8 43.7,279.4" fill="#e7eefb" fill-opacity="1.00" stroke="#2F6BFF" stroke-width="0.9" stroke-opacity="1.00"/><polygon points="21.6,236.3 43.7,285.1 43.7,279.4 21.6,230.6" fill="#cdd6e8" fill-opacity="1.00" stroke="#2F6BFF" stroke-width="0.9" stroke-opacity="1.00"/><polygon points="43.7,279.4 97.8,266.8 75.7,218.0 21.6,230.6" fill="#e7eefc" fill-opacity="1.00" stroke="#2F6BFF" stroke-width="0.9" stroke-opacity="1.00"/><polygon points="41.3,279.9 100.2,266.3 100.2,261.1 41.3,274.7" fill="#f2f5fc" fill-opacity="1.00" stroke="#2F6BFF" stroke-width="0.9" stroke-opacity="1.00"/><polygon points="18.0,228.3 41.3,279.9 41.3,274.7 18.0,223.1" fill="#d8dde9" fill-opacity="1.00" stroke="#2F6BFF" stroke-width="0.9" stroke-opacity="1.00"/><polygon points="41.3,274.7 100.2,261.1 76.8,209.5 18.0,223.1" fill="#f2f5fd" fill-opacity="1.00" stroke="#2F6BFF" stroke-width="0.9" stroke-opacity="1.00"/><polygon points="44.9,272.6 68.5,267.2 68.5,264.9 44.9,270.3" fill="#f2f5fc" fill-opacity="1.00" stroke="#2F6BFF" stroke-width="0.9" stroke-opacity="1.00"/><polygon points="39.3,260.3 44.9,272.6 44.9,270.3 39.3,258.0" fill="#d8dde9" fill-opacity="1.00" stroke="#2F6BFF" stroke-width="0.9" stroke-opacity="1.00"/><polygon points="44.9,270.3 68.5,264.9 62.9,252.6 39.3,258.0" fill="#f2f5fd" fill-opacity="1.00" stroke="#2F6BFF" stroke-width="0.9" stroke-opacity="1.00"/><polygon points="72.0,266.4 95.6,260.9 95.6,258.6 72.0,264.1" fill="#f2f5fc" fill-opacity="1.00" stroke="#2F6BFF" stroke-width="0.9" stroke-opacity="1.00"/><polygon points="66.4,254.0 72.0,266.4 72.0,264.1 66.4,251.7" fill="#d8dde9" fill-opacity="1.00" stroke="#2F6BFF" stroke-width="0.9" stroke-opacity="1.00"/><polygon points="72.0,264.1 95.6,258.6 90.0,246.3 66.4,251.7" fill="#f2f5fd" fill-opacity="1.00" stroke="#2F6BFF" stroke-width="0.9" stroke-opacity="1.00"/><polygon points="43.3,290.2 102.2,276.6 102.2,253.5 43.3,267.1" fill="#e7eefb" fill-opacity="1.00" stroke="#2F6BFF" stroke-width="0.9" stroke-opacity="1.00"/><polygon points="41.6,286.2 43.3,290.2 43.3,267.1 41.6,263.2" fill="#cdd6e8" fill-opacity="1.00" stroke="#2F6BFF" stroke-width="0.9" stroke-opacity="1.00"/><polygon points="43.3,267.1 102.2,253.5 100.4,249.6 41.6,263.2" fill="#e7eefc" fill-opacity="1.00" stroke="#2F6BFF" stroke-width="0.9" stroke-opacity="1.00"/><polygon points="76.2,329.3 162.6,309.4 162.6,299.0 76.2,318.9" fill="#e7eefb" fill-opacity="1.00" stroke="#2F6BFF" stroke-width="0.9" stroke-opacity="1.00"/><polygon points="66.0,306.6 76.2,329.3 76.2,318.9 66.0,296.2" fill="#cdd6e8" fill-opacity="1.00" stroke="#2F6BFF" stroke-width="0.9" stroke-opacity="1.00"/><polygon points="152.3,276.3 66.0,296.2 76.2,318.9 162.6,299.0" fill="#e7eefc" fill-opacity="1.00" stroke="#2F6BFF" stroke-width="0.9" stroke-opacity="1.00"/><polygon points="119.8,307.8 149.2,301.0 149.2,296.1 119.8,302.9" fill="#f2f5fc" fill-opacity="1.00" stroke="#2F6BFF" stroke-width="0.9" stroke-opacity="1.00"/><polygon points="112.0,290.5 119.8,307.8 119.8,302.9 112.0,285.7" fill="#d8dde9" fill-opacity="1.00" stroke="#2F6BFF" stroke-width="0.9" stroke-opacity="1.00"/><polygon points="141.4,278.9 112.0,285.7 119.8,302.9 149.2,296.1" fill="#f2f5fd" fill-opacity="1.00" stroke="#2F6BFF" stroke-width="0.9" stroke-opacity="1.00"/><polygon points="88.7,315.0 118.1,308.2 118.1,303.3 88.7,310.1" fill="#f2f5fc" fill-opacity="1.00" stroke="#2F6BFF" stroke-width="0.9" stroke-opacity="1.00"/><polygon points="80.9,297.7 88.7,315.0 88.7,310.1 80.9,292.8" fill="#d8dde9" fill-opacity="1.00" stroke="#2F6BFF" stroke-width="0.9" stroke-opacity="1.00"/><polygon points="110.3,286.1 80.9,292.8 88.7,310.1 118.1,303.3" fill="#f2f5fd" fill-opacity="1.00" stroke="#2F6BFF" stroke-width="0.9" stroke-opacity="1.00"/><polygon points="67.8,300.2 154.1,280.2 154.1,267.5 67.8,287.5" fill="#e7eefb" fill-opacity="1.00" stroke="#2F6BFF" stroke-width="0.9" stroke-opacity="1.00"/><polygon points="66.0,296.2 67.8,300.2 67.8,287.5 66.0,283.5" fill="#cdd6e8" fill-opacity="1.00" stroke="#2F6BFF" stroke-width="0.9" stroke-opacity="1.00"/><polygon points="152.3,263.6 66.0,283.5 67.8,287.5 154.1,267.5" fill="#e7eefc" fill-opacity="1.00" stroke="#2F6BFF" stroke-width="0.9" stroke-opacity="1.00"/><polygon points="151.8,302.6 163.0,300.0 163.0,291.9 151.8,294.5" fill="#e7eefb" fill-opacity="1.00" stroke="#2F6BFF" stroke-width="0.9" stroke-opacity="1.00"/><polygon points="143.1,283.3 151.8,302.6 151.8,294.5 143.1,275.2" fill="#cdd6e8" fill-opacity="1.00" stroke="#2F6BFF" stroke-width="0.9" stroke-opacity="1.00"/><polygon points="154.3,272.6 143.1,275.2 151.8,294.5 163.0,291.9" fill="#e7eefc" fill-opacity="1.00" stroke="#2F6BFF" stroke-width="0.9" stroke-opacity="1.00"/><polygon points="76.7,319.9 87.9,317.3 87.9,309.3 76.7,311.9" fill="#e7eefb" fill-opacity="1.00" stroke="#2F6BFF" stroke-width="0.9" stroke-opacity="1.00"/><polygon points="68.0,300.7 76.7,319.9 76.7,311.9 68.0,292.6" fill="#cdd6e8" fill-opacity="1.00" stroke="#2F6BFF" stroke-width="0.9" stroke-opacity="1.00"/><polygon points="79.2,290.0 68.0,292.6 76.7,311.9 87.9,309.3" fill="#e7eefc" fill-opacity="1.00" stroke="#2F6BFF" stroke-width="0.9" stroke-opacity="1.00"/><polygon points="113.1,346.7 156.2,336.8 156.2,335.9 113.1,345.9" fill="#f2f5fc" fill-opacity="1.00" stroke="#2F6BFF" stroke-width="0.9" stroke-opacity="1.00"/><polygon points="105.4,329.9 113.1,346.7 113.1,345.9 105.4,329.1" fill="#d8dde9" fill-opacity="1.00" stroke="#2F6BFF" stroke-width="0.9" stroke-opacity="1.00"/><polygon points="113.1,345.9 156.2,335.9 148.6,319.1 105.4,329.1" fill="#f2f5fd" fill-opacity="1.00" stroke="#2F6BFF" stroke-width="0.9" stroke-opacity="1.00"/><polygon points="107.1,342.7 110.5,341.9 110.5,330.6 107.1,331.4" fill="#aeb3bc" fill-opacity="1.00" stroke="#2F6BFF" stroke-width="0.9" stroke-opacity="1.00"/><polygon points="106.5,341.3 107.1,342.7 107.1,331.4 106.5,330.1" fill="#949ba9" fill-opacity="1.00" stroke="#2F6BFF" stroke-width="0.9" stroke-opacity="1.00"/><polygon points="107.1,331.4 110.5,330.6 109.9,329.3 106.5,330.1" fill="#a9aeb8" fill-opacity="1.00" stroke="#2F6BFF" stroke-width="0.9" stroke-opacity="1.00"/><polygon points="145.1,333.9 148.5,333.1 148.5,321.8 145.1,322.6" fill="#aeb3bc" fill-opacity="1.00" stroke="#2F6BFF" stroke-width="0.9" stroke-opacity="1.00"/><polygon points="144.5,332.5 145.1,333.9 145.1,322.6 144.5,321.3" fill="#949ba9" fill-opacity="1.00" stroke="#2F6BFF" stroke-width="0.9" stroke-opacity="1.00"/><polygon points="145.1,322.6 148.5,321.8 147.9,320.5 144.5,321.3" fill="#a9aeb8" fill-opacity="1.00" stroke="#2F6BFF" stroke-width="0.9" stroke-opacity="1.00"/><polygon points="113.8,357.5 117.2,356.7 117.2,345.4 113.8,346.2" fill="#aeb3bc" fill-opacity="1.00" stroke="#2F6BFF" stroke-width="0.9" stroke-opacity="1.00"/><polygon points="113.2,356.1 113.8,357.5 113.8,346.2 113.2,344.9" fill="#949ba9" fill-opacity="1.00" stroke="#2F6BFF" stroke-width="0.9" stroke-opacity="1.00"/><polygon points="113.8,346.2 117.2,345.4 116.6,344.1 113.2,344.9" fill="#a9aeb8" fill-opacity="1.00" stroke="#2F6BFF" stroke-width="0.9" stroke-opacity="1.00"/><polygon points="151.8,348.7 155.2,347.9 155.2,336.6 151.8,337.4" fill="#aeb3bc" fill-opacity="1.00" stroke="#2F6BFF" stroke-width="0.9" stroke-opacity="1.00"/><polygon points="151.2,347.3 151.8,348.7 151.8,337.4 151.2,336.1" fill="#949ba9" fill-opacity="1.00" stroke="#2F6BFF" stroke-width="0.9" stroke-opacity="1.00"/><polygon points="151.8,337.4 155.2,336.6 154.6,335.3 151.2,336.1" fill="#a9aeb8" fill-opacity="1.00" stroke="#2F6BFF" stroke-width="0.9" stroke-opacity="1.00"/><polygon points="87.4,398.0 103.9,394.2 103.9,339.4 87.4,343.2" fill="#e7eefb" fill-opacity="1.00" stroke="#2F6BFF" stroke-width="0.9" stroke-opacity="1.00"/><polygon points="67.7,354.5 87.4,398.0 87.4,343.2 67.7,299.7" fill="#cdd6e8" fill-opacity="1.00" stroke="#2F6BFF" stroke-width="0.9" stroke-opacity="1.00"/><polygon points="87.4,343.2 103.9,339.4 84.2,295.9 67.7,299.7" fill="#e7eefc" fill-opacity="1.00" stroke="#2F6BFF" stroke-width="0.9" stroke-opacity="1.00"/><polygon points="68.0,352.2 75.8,350.4 75.8,300.0 68.0,301.8" fill="#f2f5fc" fill-opacity="1.00" stroke="#2F6BFF" stroke-width="0.9" stroke-opacity="1.00"/><polygon points="67.2,350.4 68.0,352.2 68.0,301.8 67.2,300.0" fill="#d8dde9" fill-opacity="1.00" stroke="#2F6BFF" stroke-width="0.9" stroke-opacity="1.00"/><polygon points="68.0,301.8 75.8,300.0 75.0,298.2 67.2,300.0" fill="#f2f5fd" fill-opacity="1.00" stroke="#2F6BFF" stroke-width="0.9" stroke-opacity="1.00"/><polygon points="76.1,350.4 83.8,348.6 83.8,298.1 76.1,299.9" fill="#f2f5fc" fill-opacity="1.00" stroke="#2F6BFF" stroke-width="0.9" stroke-opacity="1.00"/><polygon points="75.3,348.6 76.1,350.4 76.1,299.9 75.3,298.1" fill="#d8dde9" fill-opacity="1.00" stroke="#2F6BFF" stroke-width="0.9" stroke-opacity="1.00"/><polygon points="76.1,299.9 83.8,298.1 83.0,296.3 75.3,298.1" fill="#f2f5fd" fill-opacity="1.00" stroke="#2F6BFF" stroke-width="0.9" stroke-opacity="1.00"/><polygon points="74.3,328.5 74.8,328.3 74.8,319.6 74.3,319.7" fill="#aeb3bc" fill-opacity="1.00" stroke="#2F6BFF" stroke-width="0.9" stroke-opacity="1.00"/><polygon points="73.7,327.1 74.3,328.5 74.3,319.7 73.7,318.3" fill="#949ba9" fill-opacity="1.00" stroke="#2F6BFF" stroke-width="0.9" stroke-opacity="1.00"/><polygon points="74.3,319.7 74.8,319.6 74.2,318.2 73.7,318.3" fill="#a9aeb8" fill-opacity="1.00" stroke="#2F6BFF" stroke-width="0.9" stroke-opacity="1.00"/><polygon points="75.8,328.1 76.3,328.0 76.3,319.2 75.8,319.3" fill="#aeb3bc" fill-opacity="1.00" stroke="#2F6BFF" stroke-width="0.9" stroke-opacity="1.00"/><polygon points="75.2,326.8 75.8,328.1 75.8,319.3 75.2,318.0" fill="#949ba9" fill-opacity="1.00" stroke="#2F6BFF" stroke-width="0.9" stroke-opacity="1.00"/><polygon points="75.8,319.3 76.3,319.2 75.7,317.9 75.2,318.0" fill="#a9aeb8" fill-opacity="1.00" stroke="#2F6BFF" stroke-width="0.9" stroke-opacity="1.00"/><polygon points="127.9,400.3 178.9,388.5 178.9,370.6 127.9,382.4" fill="#aeb3bc" fill-opacity="1.00" stroke="#2F6BFF" stroke-width="0.9" stroke-opacity="1.00"/><polygon points="126.5,397.3 127.9,400.3 127.9,382.4 126.5,379.5" fill="#949ba9" fill-opacity="1.00" stroke="#2F6BFF" stroke-width="0.9" stroke-opacity="1.00"/><polygon points="127.9,382.4 178.9,370.6 177.6,367.7 126.5,379.5" fill="#a9aeb8" fill-opacity="1.00" stroke="#2F6BFF" stroke-width="0.9" stroke-opacity="1.00"/><polygon points="143.6,392.7 164.0,388.0 164.0,380.1 143.6,384.9" fill="#e7eefb" fill-opacity="1.00" stroke="#2F6BFF" stroke-width="0.9" stroke-opacity="1.00"/><polygon points="143.2,391.7 143.6,392.7 143.6,384.9 143.2,383.9" fill="#cdd6e8" fill-opacity="1.00" stroke="#2F6BFF" stroke-width="0.9" stroke-opacity="1.00"/><polygon points="143.6,384.9 164.0,380.1 163.6,379.2 143.2,383.9" fill="#e7eefc" fill-opacity="1.00" stroke="#2F6BFF" stroke-width="0.9" stroke-opacity="1.00"/><polygon points="5.3,232.0 58.5,349.5 58.5,287.9 5.3,170.4" fill="#e4e7eb" fill-opacity="0.90" stroke="none" stroke-width="0.9" stroke-opacity="0.93"/><polyline points="5.3,170.4 58.5,287.9" fill="none" stroke="#8A93A3" stroke-width="1" stroke-opacity="1.00"/><polyline points="5.3,232.0 58.5,349.5" fill="none" stroke="#8A93A3" stroke-width="1" stroke-opacity="1.00"/><polyline points="5.3,232.0 5.3,170.4" fill="none" stroke="#8A93A3" stroke-width="1" stroke-opacity="1.00"/><polyline points="58.5,349.5 58.5,287.9" fill="none" stroke="#8A93A3" stroke-width="1" stroke-opacity="1.00"/><polygon points="63.5,285.5 12.6,173.0 5.3,170.4 58.5,287.9" fill="#e4e9f2" fill-opacity="1.00" stroke="none" stroke-width="0.9" stroke-opacity="1.00"/><polygon points="63.5,285.5 12.6,173.0 5.3,170.4 58.5,287.9" fill="none" fill-opacity="1.00" stroke="#8a93a3" stroke-width="0.9" stroke-opacity="1.00"/><polygon points="58.5,349.5 63.5,347.2 63.5,285.5 58.5,287.9" fill="#ffffff" fill-opacity="1.00" stroke="none" stroke-width="0.9" stroke-opacity="1.00"/><polyline points="58.5,287.9 63.5,285.5" fill="none" stroke="#8A93A3" stroke-width="1" stroke-opacity="1.00"/><polyline points="58.5,349.5 63.5,347.2" fill="none" stroke="#8A93A3" stroke-width="1" stroke-opacity="1.00"/><polyline points="58.5,349.5 58.5,287.9" fill="none" stroke="#8A93A3" stroke-width="1" stroke-opacity="1.00"/><polyline points="63.5,347.2 63.5,285.5" fill="none" stroke="#8A93A3" stroke-width="1" stroke-opacity="1.00"/><polyline points="58.5,322.1 78.0,365.1" fill="none" stroke="#8A93A3" stroke-width="1" stroke-opacity="1.00"/><polyline points="58.5,349.5 78.0,392.5" fill="none" stroke="#8A93A3" stroke-width="1" stroke-opacity="1.00"/><polyline points="58.5,349.5 58.5,322.1" fill="none" stroke="#8A93A3" stroke-width="1" stroke-opacity="1.00"/><polyline points="78.0,392.5 78.0,365.1" fill="none" stroke="#8A93A3" stroke-width="1" stroke-opacity="1.00"/><polygon points="82.1,360.9 63.5,319.8 58.5,322.1 78.0,365.1" fill="#e4e9f2" fill-opacity="1.00" stroke="none" stroke-width="0.9" stroke-opacity="1.00"/><polygon points="82.1,360.9 63.5,319.8 58.5,322.1 78.0,365.1" fill="none" fill-opacity="1.00" stroke="#8a93a3" stroke-width="0.9" stroke-opacity="1.00"/><polygon points="58.8,322.0 78.2,364.9 78.2,330.6 58.8,287.8" fill="#67b8da" fill-opacity="1.00" stroke="none" stroke-width="0.9" stroke-opacity="1.00"/><polygon points="58.5,349.5 78.0,392.5 78.0,365.1 58.5,322.1" fill="#e4e7eb" fill-opacity="0.90" stroke="none" stroke-width="0.9" stroke-opacity="0.93"/><polyline points="78.0,365.1 82.1,360.9" fill="none" stroke="#8A93A3" stroke-width="1" stroke-opacity="1.00"/><polyline points="78.0,392.5 82.1,388.3" fill="none" stroke="#8A93A3" stroke-width="1" stroke-opacity="1.00"/><polyline points="78.0,392.5 78.0,365.1" fill="none" stroke="#8A93A3" stroke-width="1" stroke-opacity="1.00"/><polyline points="82.1,388.3 82.1,360.9" fill="none" stroke="#8A93A3" stroke-width="1" stroke-opacity="1.00"/><polyline points="58.8,287.8 78.2,330.6" fill="none" stroke="#3EB8E5" stroke-width="1" stroke-opacity="1.00"/><polyline points="58.8,322.0 78.2,364.9" fill="none" stroke="#3EB8E5" stroke-width="1" stroke-opacity="1.00"/><polyline points="58.8,322.0 58.8,287.8" fill="none" stroke="#3EB8E5" stroke-width="1" stroke-opacity="1.00"/><polyline points="78.2,364.9 78.2,330.6" fill="none" stroke="#3EB8E5" stroke-width="1" stroke-opacity="1.00"/><polygon points="78.0,392.5 82.1,388.3 82.1,360.9 78.0,365.1" fill="#fefefe" fill-opacity="1.00" stroke="none" stroke-width="0.9" stroke-opacity="1.00"/><polygon points="88.3,415.5 258.7,376.1 258.7,314.4 88.3,353.8" fill="#fefefe" fill-opacity="0.15" stroke="none" stroke-width="0.9" stroke-opacity="0.41"/><polyline points="88.3,353.8 258.7,314.4" fill="none" stroke="#8A93A3" stroke-width="1" stroke-opacity="1.00"/><polyline points="88.3,415.5 258.7,376.1" fill="none" stroke="#8A93A3" stroke-width="1" stroke-opacity="1.00"/><polyline points="88.3,415.5 88.3,353.8" fill="none" stroke="#8A93A3" stroke-width="1" stroke-opacity="1.00"/><polyline points="258.7,376.1 258.7,314.4" fill="none" stroke="#8A93A3" stroke-width="1" stroke-opacity="1.00"/><polygon points="78.0,392.5 88.3,415.5 88.3,353.8 78.0,330.9" fill="#e4e7eb" fill-opacity="0.90" stroke="none" stroke-width="0.9" stroke-opacity="0.93"/><polyline points="78.0,330.9 88.3,353.8" fill="none" stroke="#8A93A3" stroke-width="1" stroke-opacity="1.00"/><polyline points="78.0,392.5 88.3,415.5" fill="none" stroke="#8A93A3" stroke-width="1" stroke-opacity="1.00"/><polyline points="78.0,392.5 78.0,330.9" fill="none" stroke="#8A93A3" stroke-width="1" stroke-opacity="1.00"/><polyline points="88.3,415.5 88.3,353.8" fill="none" stroke="#8A93A3" stroke-width="1" stroke-opacity="1.00"/><polygon points="88.3,415.5 92.1,410.3 92.1,348.6 88.3,353.8" fill="#fdfdfd" fill-opacity="1.00" stroke="none" stroke-width="0.9" stroke-opacity="1.00"/><polyline points="88.3,353.8 92.1,348.6" fill="none" stroke="#8A93A3" stroke-width="1" stroke-opacity="1.00"/><polyline points="88.3,415.5 92.1,410.3" fill="none" stroke="#8A93A3" stroke-width="1" stroke-opacity="1.00"/><polyline points="88.3,415.5 88.3,353.8" fill="none" stroke="#8A93A3" stroke-width="1" stroke-opacity="1.00"/><polyline points="92.1,410.3 92.1,348.6" fill="none" stroke="#8A93A3" stroke-width="1" stroke-opacity="1.00"/><polygon points="251.4,311.8 92.1,348.6 88.3,353.8 258.7,314.4" fill="#e4e9f2" fill-opacity="1.00" stroke="none" stroke-width="0.9" stroke-opacity="1.00"/><polygon points="251.4,311.8 92.1,348.6 88.3,353.8 258.7,314.4" fill="none" fill-opacity="1.00" stroke="#8a93a3" stroke-width="0.9" stroke-opacity="1.00"/><polygon points="92.1,348.6 82.1,326.7 78.0,330.9 88.3,353.8" fill="#e4e9f2" fill-opacity="1.00" stroke="none" stroke-width="0.9" stroke-opacity="1.00"/><polygon points="92.1,348.6 82.1,326.7 78.0,330.9 88.3,353.8" fill="none" fill-opacity="1.00" stroke="#8a93a3" stroke-width="0.9" stroke-opacity="1.00"/><text x="180.5" y="387.8" font-family="Helvetica" font-size="9" font-weight="bold" text-anchor="middle" fill="none" stroke="#FFFFFF" stroke-width="3">PC</text><text x="180.5" y="387.8" font-family="Helvetica" font-size="9" font-weight="bold" text-anchor="middle" fill="#C8770A">PC</text><text x="50.9" y="321.7" font-family="Helvetica" font-size="9" font-weight="bold" text-anchor="middle" fill="none" stroke="#FFFFFF" stroke-width="3">PC</text><text x="50.9" y="321.7" font-family="Helvetica" font-size="9" font-weight="bold" text-anchor="middle" fill="#C8770A">PC</text><text x="242.3" y="318.0" font-family="Helvetica" font-size="9" font-weight="bold" text-anchor="middle" fill="none" stroke="#FFFFFF" stroke-width="3">I</text><text x="242.3" y="318.0" font-family="Helvetica" font-size="9" font-weight="bold" text-anchor="middle" fill="#1E7FBF">I</text><text x="141.2" y="396.9" font-family="Helvetica" font-size="9" font-weight="bold" text-anchor="middle" fill="none" stroke="#FFFFFF" stroke-width="3">RJ</text><text x="141.2" y="396.9" font-family="Helvetica" font-size="9" font-weight="bold" text-anchor="middle" fill="#7B3FC4">RJ</text><text x="145.3" y="256.8" font-family="Helvetica" font-size="9" font-weight="bold" text-anchor="middle" fill="none" stroke="#FFFFFF" stroke-width="3">I</text><text x="145.3" y="256.8" font-family="Helvetica" font-size="9" font-weight="bold" text-anchor="middle" fill="#1E7FBF">I</text><text x="99.2" y="208.3" font-family="Helvetica" font-size="9" font-weight="bold" text-anchor="middle" fill="none" stroke="#FFFFFF" stroke-width="3">PC</text><text x="99.2" y="208.3" font-family="Helvetica" font-size="9" font-weight="bold" text-anchor="middle" fill="#C8770A">PC</text></svg>