<svg xmlns="http://www.w3.org/2000/svg" width="264" height="536" viewBox="0 0 264 536"><g opacity="0.50"><rect width="264" height="536" fill="#FFFFFF"/><polygon points="51.2,144.9 212.8,144.9 212.8,391.1 51.2,391.1" fill="#EEF2FB" fill-opacity="1.00" stroke="#D5DCEA" stroke-width="0.9" stroke-opacity="1.00"/><polygon points="57.4,146.9 122.0,146.9 122.0,230.7 57.4,230.7" fill="#dee2eb" fill-opacity="1.00" stroke="none" stroke-width="0.9" stroke-opacity="1.00"/><polygon points="60.1,149.5 119.3,149.5 119.3,228.0 60.1,228.0" fill="#d0d4dd" fill-opacity="1.00" stroke="none" stroke-width="0.9" stroke-opacity="1.00"/><polygon points="140.3,171.1 116.0,171.1 116.0,146.9 140.3,146.9" fill="#dee2eb" fill-opacity="1.00" stroke="none" stroke-width="0.9" stroke-opacity="1.00"/><polygon points="137.6,168.4 118.7,168.4 118.7,149.5 137.6,149.5" fill="#d0d4dd" fill-opacity="1.00" stroke="none" stroke-width="0.9" stroke-opacity="1.00"/><polygon points="185.5,166.5 214.7,166.5 214.7,242.6 185.5,242.6" fill="#dee2eb" fill-opacity="1.00" stroke="none" stroke-width="0.9" stroke-opacity="1.00"/><polygon points="188.1,169.2 212.0,169.2 212.0,239.9 188.1,239.9" fill="#d0d4dd" fill-opacity="1.00" stroke="none" stroke-width="0.9" stroke-opacity="1.00"/><polygon points="162.4,291.5 70.9,291.5 70.9,250.7 162.4,250.7" fill="#dee2eb" fill-opacity="1.00" stroke="none" stroke-width="0.9" stroke-opacity="1.00"/><polygon points="159.7,288.8 73.5,288.8 73.5,253.4 159.7,253.4" fill="#d0d4dd" fill-opacity="1.00" stroke="none" stroke-width="0.9" stroke-opacity="1.00"/><polygon points="92.0,304.9 141.2,304.9 141.2,334.9 92.0,334.9" fill="#dee2eb" fill-opacity="1.00" stroke="none" stroke-width="0.9" stroke-opacity="1.00"/><polygon points="94.7,307.6 138.5,307.6 138.5,332.2 94.7,332.2" fill="#d0d4dd" fill-opacity="1.00" stroke="none" stroke-width="0.9" stroke-opacity="1.00"/><polygon points="88.2,380.7 145.1,380.7 145.1,393.0 88.2,393.0" fill="#dee2eb" fill-opacity="1.00" stroke="none" stroke-width="0.9" stroke-opacity="1.00"/><polygon points="90.8,383.4 142.4,383.4 142.4,390.3 90.8,390.3" fill="#d0d4dd" fill-opacity="1.00" stroke="none" stroke-width="0.9" stroke-opacity="1.00"/><polygon points="53.2,308.8 76.2,308.8 76.2,377.2 53.2,377.2" fill="#dee2eb" fill-opacity="1.00" stroke="none" stroke-width="0.9" stroke-opacity="1.00"/><polygon points="55.9,311.5 73.5,311.5 73.5,374.5 55.9,374.5" fill="#d0d4dd" fill-opacity="1.00" stroke="none" stroke-width="0.9" stroke-opacity="1.00"/><polygon points="53.9,360.3 53.9,302.6 48.5,302.6 48.5,360.3" fill="#78cded" fill-opacity="1.00" stroke="none" stroke-width="0.9" stroke-opacity="1.00"/><polygon points="53.9,360.3 53.9,302.6 48.5,302.6 48.5,360.3" fill="none" fill-opacity="1.00" stroke="#8A93A3" stroke-width="0.9" stroke-opacity="1.00"/><polygon points="155.1,147.6 201.2,147.6 201.2,142.2 155.1,142.2" fill="#78cded" fill-opacity="1.00" stroke="none" stroke-width="0.9" stroke-opacity="1.00"/><polygon points="155.1,147.6 201.2,147.6 201.2,142.2 155.1,142.2" fill="none" fill-opacity="1.00" stroke="#8A93A3" stroke-width="0.9" stroke-opacity="1.00"/><polygon points="53.9,147.6 210.1,147.6 215.5,142.2 48.5,142.2" fill="#12161d" fill-opacity="1.00" stroke="none" stroke-width="0.9" stroke-opacity="1.00"/><polygon points="210.1,147.6 210.1,337.6 215.5,340.7 215.5,142.2" fill="#12161d" fill-opacity="1.00" stroke="none" stroke-width="0.9" stroke-opacity="1.00"/><polygon points="210.1,371.4 210.1,388.4 215.5,393.8 215.5,376.1" fill="#12161d" fill-opacity="1.00" stroke="none" stroke-width="0.9" stroke-opacity="1.00"/><polygon points="210.1,337.6 210.1,371.4 215.5,376.1 215.5,340.7" fill="#6ecaec" fill-opacity="1.00" stroke="none" stroke-width="0.9" stroke-opacity="1.00"/><polygon points="210.1,388.4 53.9,388.4 48.5,393.8 215.5,393.8" fill="#12161d" fill-opacity="1.00" stroke="none" stroke-width="0.9" stroke-opacity="1.00"/><polygon points="53.9,388.4 53.9,147.6 48.5,142.2 48.5,393.8" fill="#12161d" fill-opacity="1.00" stroke="none" stroke-width="0.9" stroke-opacity="1.00"/><polygon points="48.5,251.5 167.8,251.5 167.8,246.1 48.5,246.1" fill="#12161d" fill-opacity="1.00" stroke="none" stroke-width="0.9" stroke-opacity="1.00"/><polygon points="201.5,251.5 215.5,251.5 215.5,246.1 201.5,246.1" fill="#12161d" fill-opacity="1.00" stroke="none" stroke-width="0.9" stroke-opacity="1.00"/><polygon points="167.8,251.5 201.5,251.5 201.5,246.1 167.8,246.1" fill="#6ecaec" fill-opacity="1.00" stroke="none" stroke-width="0.9" stroke-opacity="1.00"/><polygon points="53.9,147.6 210.1,147.6 215.5,142.2 48.5,142.2" fill="none" fill-opacity="1.00" stroke="#12161d" stroke-width="0.9" stroke-opacity="1.00"/><polygon points="210.1,147.6 210.1,337.6 215.5,340.7 215.5,142.2" fill="none" fill-opacity="1.00" stroke="#12161d" stroke-width="0.9" stroke-opacity="1.00"/><polygon points="210.1,371.4 210.1,388.4 215.5,393.8 215.5,376.1" fill="none" fill-opacity="1.00" stroke="#12161d" stroke-width="0.9" stroke-opacity="1.00"/><polygon points="210.1,337.6 210.1,371.4 215.5,376.1 215.5,340.7" fill="none" fill-opacity="1.00" stroke="#37a2ca" stroke-width="0.9" stroke-opacity="1.00"/><polygon points="210.1,388.4 53.9,388.4 48.5,393.8 215.5,393.8" fill="none" fill-opacity="1.00" stroke="#12161d" stroke-width="0.9" stroke-opacity="1.00"/><polygon points="53.9,388.4 53.9,147.6 48.5,142.2 48.5,393.8" fill="none" fill-opacity="1.00" stroke="#12161d" stroke-width="0.9" stroke-opacity="1.00"/><polygon points="48.5,251.5 167.8,251.5 167.8,246.1 48.5,246.1" fill="none" fill-opacity="1.00" stroke="#12161d" stroke-width="0.9" stroke-opacity="1.00"/><polygon points="201.5,251.5 215.5,251.5 215.5,246.1 201.5,246.1" fill="none" fill-opacity="1.00" stroke="#12161d" stroke-width="0.9" stroke-opacity="1.00"/><polygon points="167.8,251.5 201.5,251.5 201.5,246.1 167.8,246.1" fill="none" fill-opacity="1.00" stroke="#37a2ca" stroke-width="0.9" stroke-opacity="1.00"/></g><g opacity="0.50"><rect width="264" height="536" fill="#E7EAF0"/><g transform="translate(0 -546.7)"><rect x="6" y="0.0" width="252" height="525.3" fill="#FFFFFF" stroke="#D5DCEA" stroke-width="1"/><rect x="6" y="0.0" width="252" height="26" fill="#2F6BFF"/><text x="18" y="18.0" font-family="Helvetica" font-size="12" font-weight="bold" fill="#FFFFFF">PLAN — T2, 27 m²</text><g transform="translate(16 40)"><rect width="232" height="273" fill="#FFFFFF"/><polygon points="45.0,28.4 187.0,28.4 187.0,244.6 45.0,244.6" fill="#EEF2FB" fill-opacity="1.00" stroke="#D5DCEA" stroke-width="0.9" stroke-opacity="1.00"/><polygon points="50.4,30.0 107.2,30.0 107.2,103.7 50.4,103.7" fill="#dee2eb" fill-opacity="1.00" stroke="none" stroke-width="0.9" stroke-opacity="1.00"/><polygon points="52.8,32.4 104.8,32.4 104.8,101.4 52.8,101.4" fill="#d0d4dd" fill-opacity="1.00" stroke="none" stroke-width="0.9" stroke-opacity="1.00"/><polygon points="123.3,51.3 102.0,51.3 102.0,30.0 123.3,30.0" fill="#dee2eb" fill-opacity="1.00" stroke="none" stroke-width="0.9" stroke-opacity="1.00"/><polygon points="120.9,49.0 104.3,49.0 104.3,32.4 120.9,32.4" fill="#d0d4dd" fill-opacity="1.00" stroke="none" stroke-width="0.9" stroke-opacity="1.00"/><polygon points="163.0,47.3 188.7,47.3 188.7,114.2 163.0,114.2" fill="#dee2eb" fill-opacity="1.00" stroke="none" stroke-width="0.9" stroke-opacity="1.00"/><polygon points="165.3,49.6 186.3,49.6 186.3,111.8 165.3,111.8" fill="#d0d4dd" fill-opacity="1.00" stroke="none" stroke-width="0.9" stroke-opacity="1.00"/><polygon points="142.7,157.1 62.3,157.1 62.3,121.3 142.7,121.3" fill="#dee2eb" fill-opacity="1.00" stroke="none" stroke-width="0.9" stroke-opacity="1.00"/><polygon points="140.3,154.8 64.6,154.8 64.6,123.7 140.3,123.7" fill="#d0d4dd" fill-opacity="1.00" stroke="none" stroke-width="0.9" stroke-opacity="1.00"/><polygon points="80.9,168.9 124.1,168.9 124.1,195.3 80.9,195.3" fill="#dee2eb" fill-opacity="1.00" stroke="none" stroke-width="0.9" stroke-opacity="1.00"/><polygon points="83.2,171.3 121.7,171.3 121.7,192.9 83.2,192.9" fill="#d0d4dd" fill-opacity="1.00" stroke="none" stroke-width="0.9" stroke-opacity="1.00"/><polygon points="77.5,235.5 127.5,235.5 127.5,246.3 77.5,246.3" fill="#dee2eb" fill-opacity="1.00" stroke="none" stroke-width="0.9" stroke-opacity="1.00"/><polygon points="79.8,237.9 125.1,237.9 125.1,244.0 79.8,244.0" fill="#d0d4dd" fill-opacity="1.00" stroke="none" stroke-width="0.9" stroke-opacity="1.00"/><polygon points="46.7,172.3 67.0,172.3 67.0,232.5 46.7,232.5" fill="#dee2eb" fill-opacity="1.00" stroke="none" stroke-width="0.9" stroke-opacity="1.00"/><polygon points="49.1,174.7 64.6,174.7 64.6,230.1 49.1,230.1" fill="#d0d4dd" fill-opacity="1.00" stroke="none" stroke-width="0.9" stroke-opacity="1.00"/><polygon points="47.4,217.6 47.4,166.9 42.7,166.9 42.7,217.6" fill="#78cded" fill-opacity="1.00" stroke="none" stroke-width="0.9" stroke-opacity="1.00"/><polygon points="47.4,217.6 47.4,166.9 42.7,166.9 42.7,217.6" fill="none" fill-opacity="1.00" stroke="#8A93A3" stroke-width="0.9" stroke-opacity="1.00"/><polygon points="136.3,30.7 176.8,30.7 176.8,26.0 136.3,26.0" fill="#78cded" fill-opacity="1.00" stroke="none" stroke-width="0.9" stroke-opacity="1.00"/><polygon points="136.3,30.7 176.8,30.7 176.8,26.0 136.3,26.0" fill="none" fill-opacity="1.00" stroke="#8A93A3" stroke-width="0.9" stroke-opacity="1.00"/><polygon points="47.4,30.7 184.6,30.7 189.3,26.0 42.7,26.0" fill="#12161d" fill-opacity="1.00" stroke="none" stroke-width="0.9" stroke-opacity="1.00"/><polygon points="184.6,30.7 184.6,197.7 189.3,200.4 189.3,26.0" fill="#12161d" fill-opacity="1.00" stroke="none" stroke-width="0.9" stroke-opacity="1.00"/><polygon points="184.6,227.4 184.6,242.3 189.3,247.0 189.3,231.5" fill="#12161d" fill-opacity="1.00" stroke="none" stroke-width="0.9" stroke-opacity="1.00"/><polygon points="184.6,197.7 184.6,227.4 189.3,231.5 189.3,200.4" fill="#6ecaec" fill-opacity="1.00" stroke="none" stroke-width="0.9" stroke-opacity="1.00"/><polygon points="184.6,242.3 47.4,242.3 42.7,247.0 189.3,247.0" fill="#12161d" fill-opacity="1.00" stroke="none" stroke-width="0.9" stroke-opacity="1.00"/><polygon points="47.4,242.3 47.4,30.7 42.7,26.0 42.7,247.0" fill="#12161d" fill-opacity="1.00" stroke="none" stroke-width="0.9" stroke-opacity="1.00"/><polygon points="42.7,122.0 147.4,122.0 147.4,117.2 42.7,117.2" fill="#12161d" fill-opacity="1.00" stroke="none" stroke-width="0.9" stroke-opacity="1.00"/><polygon points="177.1,122.0 189.3,122.0 189.3,117.2 177.1,117.2" fill="#12161d" fill-opacity="1.00" stroke="none" stroke-width="0.9" stroke-opacity="1.00"/><polygon points="147.4,122.0 177.1,122.0 177.1,117.2 147.4,117.2" fill="#6ecaec" fill-opacity="1.00" stroke="none" stroke-width="0.9" stroke-opacity="1.00"/><polygon points="47.4,30.7 184.6,30.7 189.3,26.0 42.7,26.0" fill="none" fill-opacity="1.00" stroke="#12161d" stroke-width="0.9" stroke-opacity="1.00"/><polygon points="184.6,30.7 184.6,197.7 189.3,200.4 189.3,26.0" fill="none" fill-opacity="1.00" stroke="#12161d" stroke-width="0.9" stroke-opacity="1.00"/><polygon points="184.6,227.4 184.6,242.3 189.3,247.0 189.3,231.5" fill="none" fill-opacity="1.00" stroke="#12161d" stroke-width="0.9" stroke-opacity="1.00"/><polygon points="184.6,197.7 184.6,227.4 189.3,231.5 189.3,200.4" fill="none" fill-opacity="1.00" stroke="#37a2ca" stroke-width="0.9" stroke-opacity="1.00"/><polygon points="184.6,242.3 47.4,242.3 42.7,247.0 189.3,247.0" fill="none" fill-opacity="1.00" stroke="#12161d" stroke-width="0.9" stroke-opacity="1.00"/><polygon points="47.4,242.3 47.4,30.7 42.7,26.0 42.7,247.0" fill="none" fill-opacity="1.00" stroke="#12161d" stroke-width="0.9" stroke-opacity="1.00"/><polygon points="42.7,122.0 147.4,122.0 147.4,117.2 42.7,117.2" fill="none" fill-opacity="1.00" stroke="#12161d" stroke-width="0.9" stroke-opacity="1.00"/><polygon points="177.1,122.0 189.3,122.0 189.3,117.2 177.1,117.2" fill="none" fill-opacity="1.00" stroke="#12161d" stroke-width="0.9" stroke-opacity="1.00"/><polygon points="147.4,122.0 177.1,122.0 177.1,117.2 147.4,117.2" fill="none" fill-opacity="1.00" stroke="#37a2ca" stroke-width="0.9" stroke-opacity="1.00"/><text x="122.8" y="247.6" font-family="Helvetica" font-size="9.0" font-weight="bold" text-anchor="middle" fill="none" stroke="#FFFFFF" stroke-width="3" opacity="1.00">PC</text><text x="122.8" y="247.6" font-family="Helvetica" font-size="9.0" font-weight="bold" text-anchor="middle" fill="#C8770A" opacity="1.00">PC</text><text x="45.0" y="142.9" font-family="Helvetica" font-size="9.0" font-weight="bold" text-anchor="middle" fill="none" stroke="#FFFFFF" stroke-width="3" opacity="1.00">PC</text><text x="45.0" y="142.9" font-family="Helvetica" font-size="9.0" font-weight="bold" text-anchor="middle" fill="#C8770A" opacity="1.00">PC</text><text x="187.0" y="213.9" font-family="Helvetica" font-size="9.0" font-weight="bold" text-anchor="middle" fill="none" stroke="#FFFFFF" stroke-width="3" opacity="1.00">I</text><text x="187.0" y="213.9" font-family="Helvetica" font-size="9.0" font-weight="bold" text-anchor="middle" fill="#1E7FBF" opacity="1.00">I</text><text x="89.0" y="247.6" font-family="Helvetica" font-size="9.0" font-weight="bold" text-anchor="middle" fill="none" stroke="#FFFFFF" stroke-width="3" opacity="1.00">RJ</text><text x="89.0" y="247.6" font-family="Helvetica" font-size="9.0" font-weight="bold" text-anchor="middle" fill="#7B3FC4" opacity="1.00">RJ</text><text x="132.9" y="122.6" font-family="Helvetica" font-size="9.0" font-weight="bold" text-anchor="middle" fill="none" stroke="#FFFFFF" stroke-width="3" opacity="1.00">I</text><text x="132.9" y="122.6" font-family="Helvetica" font-size="9.0" font-weight="bold" text-anchor="middle" fill="#1E7FBF" opacity="1.00">I</text><text x="122.8" y="31.4" font-family="Helvetica" font-size="9.0" font-weight="bold" text-anchor="middle" fill="none" stroke="#FFFFFF" stroke-width="3" opacity="1.00">PC</text><text x="122.8" y="31.4" font-family="Helvetica" font-size="9.0" font-weight="bold" text-anchor="middle" fill="#C8770A" opacity="1.00">PC</text></g><circle cx="24" cy="327.0" r="4" fill="#2F6BFF"/><rect x="34" y="323.5" width="111" height="7" rx="3.5" fill="#C9D0DC"/><circle cx="24" cy="343.0" r="4" fill="#E8A13B"/><rect x="34" y="339.5" width="93" height="7" rx="3.5" fill="#C9D0DC"/><circle cx="24" cy="359.0" r="4" fill="#3EB8E5"/><rect x="34" y="355.5" width="75" height="7" rx="3.5" fill="#C9D0DC"/><rect x="100" y="449.3" width="158" height="56" fill="none" stroke="#C9D0DC" stroke-width="1"/><line x1="100" y1="467.3" x2="258" y2="467.3" stroke="#C9D0DC" stroke-width="1"/><text x="108" y="462.3" font-family="Helvetica" font-size="8" font-weight="bold" fill="#5A6472">ECHOPLAN</text><rect x="108" y="475.3" width="111" height="5" rx="2.5" fill="#D5DCEA"/><rect x="108" y="485.3" width="97" height="5" rx="2.5" fill="#D5DCEA"/><rect x="108" y="495.3" width="83" height="5" rx="2.5" fill="#D5DCEA"/><rect x="6" y="557.4" width="252" height="525.3" fill="#FFFFFF" stroke="#D5DCEA" stroke-width="1"/><rect x="6" y="557.4" width="252" height="26" fill="#2F6BFF"/><text x="18" y="575.4" font-family="Helvetica" font-size="12" font-weight="bold" fill="#FFFFFF">FOURNITURES</text><rect x="18" y="593.4" width="14" height="14" rx="3" fill="#EDF1F8" stroke="#D5DCEA" stroke-width="0.8"/><rect x="38" y="597.9" width="90" height="7" rx="3.5" fill="#C9D0DC"/><rect x="202" y="597.9" width="44" height="7" rx="3.5" fill="#9AA5B5"/><rect x="18" y="613.4" width="14" height="14" rx="3" fill="#EDF1F8" stroke="#D5DCEA" stroke-width="0.8"/><rect x="38" y="617.9" width="127" height="7" rx="3.5" fill="#C9D0DC"/><rect x="202" y="617.9" width="44" height="7" rx="3.5" fill="#9AA5B5"/><rect x="18" y="633.4" width="14" height="14" rx="3" fill="#EDF1F8" stroke="#D5DCEA" stroke-width="0.8"/><rect x="38" y="637.9" width="164" height="7" rx="3.5" fill="#C9D0DC"/><rect x="202" y="637.9" width="44" height="7" rx="3.5" fill="#9AA5B5"/><rect x="18" y="653.4" width="14" height="14" rx="3" fill="#EDF1F8" stroke="#D5DCEA" stroke-width="0.8"/><rect x="38" y="657.9" width="108" height="7" rx="3.5" fill="#C9D0DC"/><rect x="202" y="657.9" width="44" height="7" rx="3.5" fill="#9AA5B5"/><rect x="18" y="673.4" width="14" height="14" rx="3" fill="#EDF1F8" stroke="#D5DCEA" stroke-width="0.8"/><rect x="38" y="677.9" width="145" height="7" rx="3.5" fill="#C9D0DC"/><rect x="202" y="677.9" width="44" height="7" rx="3.5" fill="#9AA5B5"/><rect x="18" y="693.4" width="14" height="14" rx="3" fill="#EDF1F8" stroke="#D5DCEA" stroke-width="0.8"/><rect x="38" y="697.9" width="90" height="7" rx="3.5" fill="#C9D0DC"/><rect x="202" y="697.9" width="44" height="7" rx="3.5" fill="#9AA5B5"/><rect x="18" y="713.4" width="14" height="14" rx="3" fill="#EDF1F8" stroke="#D5DCEA" stroke-width="0.8"/><rect x="38" y="717.9" width="127" height="7" rx="3.5" fill="#C9D0DC"/><rect x="202" y="717.9" width="44" height="7" rx="3.5" fill="#9AA5B5"/><rect x="18" y="733.4" width="14" height="14" rx="3" fill="#EDF1F8" stroke="#D5DCEA" stroke-width="0.8"/><rect x="38" y="737.9" width="164" height="7" rx="3.5" fill="#C9D0DC"/><rect x="202" y="737.9" width="44" height="7" rx="3.5" fill="#9AA5B5"/><rect x="18" y="753.4" width="14" height="14" rx="3" fill="#EDF1F8" stroke="#D5DCEA" stroke-width="0.8"/><rect x="38" y="757.9" width="108" height="7" rx="3.5" fill="#C9D0DC"/><rect x="202" y="757.9" width="44" height="7" rx="3.5" fill="#9AA5B5"/><rect x="18" y="773.4" width="14" height="14" rx="3" fill="#EDF1F8" stroke="#D5DCEA" stroke-width="0.8"/><rect x="38" y="777.9" width="145" height="7" rx="3.5" fill="#C9D0DC"/><rect x="202" y="777.9" width="44" height="7" rx="3.5" fill="#9AA5B5"/><rect x="18" y="793.4" width="14" height="14" rx="3" fill="#EDF1F8" stroke="#D5DCEA" stroke-width="0.8"/><rect x="38" y="797.9" width="90" height="7" rx="3.5" fill="#C9D0DC"/><rect x="202" y="797.9" width="44" height="7" rx="3.5" fill="#9AA5B5"/><rect x="18" y="813.4" width="14" height="14" rx="3" fill="#EDF1F8" stroke="#D5DCEA" stroke-width="0.8"/><rect x="38" y="817.9" width="127" height="7" rx="3.5" fill="#C9D0DC"/><rect x="202" y="817.9" width="44" height="7" rx="3.5" fill="#9AA5B5"/><rect x="18" y="833.4" width="14" height="14" rx="3" fill="#EDF1F8" stroke="#D5DCEA" stroke-width="0.8"/><rect x="38" y="837.9" width="164" height="7" rx="3.5" fill="#C9D0DC"/><rect x="202" y="837.9" width="44" height="7" rx="3.5" fill="#9AA5B5"/><line x1="18" y1="871.4" x2="246" y2="871.4" stroke="#9AA5B5" stroke-width="1" stroke-dasharray="3 3"/><rect x="168" y="881.4" width="78" height="12" rx="6" fill="#2F6BFF"/></g></g><rect x="0" y="478" width="264" height="58" fill="#2F6BFF"/><g opacity="1.00"><text x="132" y="514.0" font-family="Helvetica" font-size="30.0" font-weight="bold" letter-spacing="0.5" text-anchor="middle" fill="#FFFFFF">LE DOSSIER</text></g><rect x="0" y="532" width="264" height="4" fill="#FFFFFF" fill-opacity="0.25"/><rect x="0" y="532" width="257.3" height="4" fill="#FFFFFF"/></svg>