<svg xmlns="http://www.w3.org/2000/svg" width="264" height="536" viewBox="0 0 264 536"><g opacity="1.00"><rect width="264" height="536" fill="#FFFFFF"/><polygon points="19.0,243.3 182.8,218.2 245.0,371.8 81.2,397.0" fill="#EEF2FB" fill-opacity="1.00" stroke="#D5DCEA" stroke-width="0.9" stroke-opacity="1.00"/><polygon points="25.7,243.6 91.2,233.5 112.4,285.9 46.9,295.9" fill="#dee2eb" fill-opacity="1.00" stroke="none" stroke-width="0.9" stroke-opacity="1.00"/><polygon points="29.1,244.8 89.2,235.6 109.0,284.6 49.0,293.8" fill="#d0d4dd" fill-opacity="1.00" stroke="none" stroke-width="0.9" stroke-opacity="1.00"/><polygon points="115.9,245.8 91.3,249.6 85.2,234.4 109.8,230.7" fill="#dee2eb" fill-opacity="1.00" stroke="none" stroke-width="0.9" stroke-opacity="1.00"/><polygon points="112.5,244.5 93.4,247.5 88.6,235.7 107.7,232.8" fill="#d0d4dd" fill-opacity="1.00" stroke="none" stroke-width="0.9" stroke-opacity="1.00"/><polygon points="160.5,235.9 190.2,231.3 209.4,278.9 179.8,283.4" fill="#dee2eb" fill-opacity="1.00" stroke="none" stroke-width="0.9" stroke-opacity="1.00"/><polygon points="163.9,237.1 188.1,233.4 206.0,277.6 181.8,281.3" fill="#d0d4dd" fill-opacity="1.00" stroke="none" stroke-width="0.9" stroke-opacity="1.00"/><polygon points="168.7,317.5 75.9,331.7 65.6,306.3 158.4,292.1" fill="#dee2eb" fill-opacity="1.00" stroke="none" stroke-width="0.9" stroke-opacity="1.00"/><polygon points="165.3,316.2 78.0,329.6 69.0,307.6 156.4,294.2" fill="#d0d4dd" fill-opacity="1.00" stroke="none" stroke-width="0.9" stroke-opacity="1.00"/><polygon points="100.8,336.9 150.7,329.2 158.3,347.9 108.4,355.6" fill="#dee2eb" fill-opacity="1.00" stroke="none" stroke-width="0.9" stroke-opacity="1.00"/><polygon points="104.2,338.1 148.6,331.3 154.9,346.7 110.4,353.5" fill="#d0d4dd" fill-opacity="1.00" stroke="none" stroke-width="0.9" stroke-opacity="1.00"/><polygon points="116.0,384.8 173.7,375.9 176.9,383.6 119.1,392.4" fill="#dee2eb" fill-opacity="1.00" stroke="none" stroke-width="0.9" stroke-opacity="1.00"/><polygon points="119.4,386.0 171.7,378.0 173.4,382.3 121.2,390.3" fill="#d0d4dd" fill-opacity="1.00" stroke="none" stroke-width="0.9" stroke-opacity="1.00"/><polygon points="62.4,345.3 85.8,341.7 103.1,384.4 79.7,388.0" fill="#dee2eb" fill-opacity="1.00" stroke="none" stroke-width="0.9" stroke-opacity="1.00"/><polygon points="65.8,346.6 83.7,343.8 99.7,383.2 81.7,385.9" fill="#d0d4dd" fill-opacity="1.00" stroke="none" stroke-width="0.9" stroke-opacity="1.00"/><polyline points="169.4,190.4 172.7,186.3" fill="none" stroke="#8A93A3" stroke-width="1" stroke-opacity="1.00"/><polyline points="169.4,222.0 172.7,217.9" fill="none" stroke="#8A93A3" stroke-width="1" stroke-opacity="1.00"/><polyline points="169.4,222.0 169.4,190.4" fill="none" stroke="#8A93A3" stroke-width="1" stroke-opacity="1.00"/><polyline points="172.7,217.9 172.7,186.3" fill="none" stroke="#8A93A3" stroke-width="1" stroke-opacity="1.00"/><polyline points="124.2,197.3 169.4,190.4" fill="none" stroke="#8A93A3" stroke-width="1" stroke-opacity="1.00"/><polyline points="124.2,229.0 169.4,222.0" fill="none" stroke="#8A93A3" stroke-width="1" stroke-opacity="1.00"/><polyline points="124.2,229.0 124.2,197.3" fill="none" stroke="#8A93A3" stroke-width="1" stroke-opacity="1.00"/><polyline points="169.4,222.0 169.4,190.4" fill="none" stroke="#8A93A3" stroke-width="1" stroke-opacity="1.00"/><polygon points="180.7,220.3 184.8,216.1 184.8,136.9 180.7,141.1" fill="#fdfdfd" fill-opacity="1.00" stroke="none" stroke-width="0.9" stroke-opacity="1.00"/><polygon points="124.2,197.3 169.4,190.4 172.7,186.3 124.4,193.7" fill="#e4e9f2" fill-opacity="1.00" stroke="none" stroke-width="0.9" stroke-opacity="1.00"/><polyline points="180.7,141.1 184.8,136.9" fill="none" stroke="#8A93A3" stroke-width="1" stroke-opacity="1.00"/><polyline points="180.7,220.3 184.8,216.1" fill="none" stroke="#8A93A3" stroke-width="1" stroke-opacity="1.00"/><polyline points="180.7,220.3 180.7,141.1" fill="none" stroke="#8A93A3" stroke-width="1" stroke-opacity="1.00"/><polyline points="184.8,216.1 184.8,136.9" fill="none" stroke="#8A93A3" stroke-width="1" stroke-opacity="1.00"/><polygon points="124.2,197.3 169.4,190.4 172.7,186.3 124.4,193.7" fill="none" fill-opacity="1.00" stroke="#8a93a3" stroke-width="0.9" stroke-opacity="1.00"/><polygon points="169.4,222.0 172.7,217.9 172.7,186.3 169.4,190.4" fill="#fdfcfc" fill-opacity="1.00" stroke="none" stroke-width="0.9" stroke-opacity="1.00"/><polygon points="169.4,147.6 172.7,143.5 172.7,138.8 169.4,142.9" fill="#fdfcfc" fill-opacity="1.00" stroke="none" stroke-width="0.9" stroke-opacity="1.00"/><polygon points="169.4,222.0 180.7,220.3 180.7,141.1 169.4,142.9" fill="#fefefd" fill-opacity="1.00" stroke="none" stroke-width="0.9" stroke-opacity="1.00"/><polyline points="169.4,142.9 180.7,141.1" fill="none" stroke="#8A93A3" stroke-width="1" stroke-opacity="1.00"/><polyline points="169.4,222.0 180.7,220.3" fill="none" stroke="#8A93A3" stroke-width="1" stroke-opacity="1.00"/><polyline points="169.4,222.0 169.4,142.9" fill="none" stroke="#8A93A3" stroke-width="1" stroke-opacity="1.00"/><polyline points="180.7,220.3 180.7,141.1" fill="none" stroke="#8A93A3" stroke-width="1" stroke-opacity="1.00"/><polygon points="124.2,197.1 169.6,190.1 169.6,147.4 124.2,154.3" fill="#7fcfec" fill-opacity="1.00" stroke="none" stroke-width="0.9" stroke-opacity="1.00"/><polygon points="124.2,229.0 169.4,222.0 169.4,190.4 124.2,197.3" fill="#fefefd" fill-opacity="1.00" stroke="none" stroke-width="0.9" stroke-opacity="1.00"/><polygon points="124.2,154.5 169.4,147.6 169.4,142.9 124.2,149.8" fill="#fefefd" fill-opacity="1.00" stroke="none" stroke-width="0.9" stroke-opacity="1.00"/><polygon points="124.2,229.0 124.4,225.4 124.4,146.2 124.2,149.8" fill="#f8f6f4" fill-opacity="1.00" stroke="none" stroke-width="0.9" stroke-opacity="1.00"/><polyline points="124.2,149.8 124.4,146.2" fill="none" stroke="#8A93A3" stroke-width="1" stroke-opacity="1.00"/><polyline points="124.2,229.0 124.4,225.4" fill="none" stroke="#8A93A3" stroke-width="1" stroke-opacity="1.00"/><polyline points="124.2,229.0 124.2,149.8" fill="none" stroke="#8A93A3" stroke-width="1" stroke-opacity="1.00"/><polyline points="124.4,225.4 124.4,146.2" fill="none" stroke="#8A93A3" stroke-width="1" stroke-opacity="1.00"/><polyline points="124.2,154.3 169.6,147.4" fill="none" stroke="#3EB8E5" stroke-width="1" stroke-opacity="1.00"/><polyline points="124.2,197.1 169.6,190.1" fill="none" stroke="#3EB8E5" stroke-width="1" stroke-opacity="1.00"/><polyline points="124.2,197.1 124.2,154.3" fill="none" stroke="#3EB8E5" stroke-width="1" stroke-opacity="1.00"/><polyline points="169.6,190.1 169.6,147.4" fill="none" stroke="#3EB8E5" stroke-width="1" stroke-opacity="1.00"/><polygon points="22.4,244.6 124.2,229.0 124.2,149.8 22.4,165.4" fill="#fefefd" fill-opacity="1.00" stroke="none" stroke-width="0.9" stroke-opacity="1.00"/><polyline points="22.4,165.4 124.2,149.8" fill="none" stroke="#8A93A3" stroke-width="1" stroke-opacity="1.00"/><polyline points="22.4,244.6 124.2,229.0" fill="none" stroke="#8A93A3" stroke-width="1" stroke-opacity="1.00"/><polyline points="22.4,244.6 22.4,165.4" fill="none" stroke="#8A93A3" stroke-width="1" stroke-opacity="1.00"/><polyline points="124.2,229.0 124.2,149.8" fill="none" stroke="#8A93A3" stroke-width="1" stroke-opacity="1.00"/><polygon points="169.4,142.9 180.7,141.1 184.8,136.9 172.7,138.8" fill="#e4e9f2" fill-opacity="1.00" stroke="none" stroke-width="0.9" stroke-opacity="1.00"/><polyline points="169.4,142.9 172.7,138.8" fill="none" stroke="#8A93A3" stroke-width="1" stroke-opacity="1.00"/><polyline points="169.4,147.6 172.7,143.5" fill="none" stroke="#8A93A3" stroke-width="1" stroke-opacity="1.00"/><polyline points="169.4,147.6 169.4,142.9" fill="none" stroke="#8A93A3" stroke-width="1" stroke-opacity="1.00"/><polyline points="172.7,143.5 172.7,138.8" fill="none" stroke="#8A93A3" stroke-width="1" stroke-opacity="1.00"/><polygon points="15.6,242.1 22.4,244.6 22.4,165.4 15.6,162.9" fill="#f4f2ef" fill-opacity="1.00" stroke="none" stroke-width="0.9" stroke-opacity="1.00"/><polygon points="169.4,142.9 180.7,141.1 184.8,136.9 172.7,138.8" fill="none" fill-opacity="1.00" stroke="#8a93a3" stroke-width="0.9" stroke-opacity="1.00"/><polyline points="15.6,162.9 22.4,165.4" fill="none" stroke="#8A93A3" stroke-width="1" stroke-opacity="1.00"/><polyline points="15.6,242.1 22.4,244.6" fill="none" stroke="#8A93A3" stroke-width="1" stroke-opacity="1.00"/><polyline points="15.6,242.1 15.6,162.9" fill="none" stroke="#8A93A3" stroke-width="1" stroke-opacity="1.00"/><polyline points="22.4,244.6 22.4,165.4" fill="none" stroke="#8A93A3" stroke-width="1" stroke-opacity="1.00"/><polygon points="124.2,149.8 169.4,142.9 172.7,138.8 124.4,146.2" fill="#e4e9f2" fill-opacity="1.00" stroke="none" stroke-width="0.9" stroke-opacity="1.00"/><polygon points="124.2,149.8 169.4,142.9 172.7,138.8 124.4,146.2" fill="none" fill-opacity="1.00" stroke="#8a93a3" stroke-width="0.9" stroke-opacity="1.00"/><polyline points="124.2,149.8 169.4,142.9" fill="none" stroke="#8A93A3" stroke-width="1" stroke-opacity="1.00"/><polyline points="124.2,154.5 169.4,147.6" fill="none" stroke="#8A93A3" stroke-width="1" stroke-opacity="1.00"/><polyline points="124.2,154.5 124.2,149.8" fill="none" stroke="#8A93A3" stroke-width="1" stroke-opacity="1.00"/><polyline points="169.4,147.6 169.4,142.9" fill="none" stroke="#8A93A3" stroke-width="1" stroke-opacity="1.00"/><polygon points="22.4,165.4 124.2,149.8 124.4,146.2 15.6,162.9" fill="#e4e9f2" fill-opacity="1.00" stroke="none" stroke-width="0.9" stroke-opacity="1.00"/><polygon points="22.4,165.4 124.2,149.8 124.4,146.2 15.6,162.9" fill="none" fill-opacity="1.00" stroke="#8a93a3" stroke-width="0.9" stroke-opacity="1.00"/><polygon points="164.1,291.1 198.3,285.8 197.0,282.4 162.7,287.7" fill="#6ecaec" fill-opacity="1.00" stroke="none" stroke-width="0.9" stroke-opacity="1.00"/><polygon points="164.1,291.1 198.3,285.8 197.0,282.4 162.7,287.7" fill="none" fill-opacity="1.00" stroke="#37a2ca" stroke-width="0.9" stroke-opacity="1.00"/><polyline points="164.1,291.1 198.3,285.8" fill="none" stroke="#37a2ca" stroke-width="1" stroke-opacity="1.00"/><polyline points="164.1,291.7 198.3,286.4" fill="none" stroke="#37a2ca" stroke-width="1" stroke-opacity="1.00"/><polyline points="164.1,291.7 164.1,291.1" fill="none" stroke="#37a2ca" stroke-width="1" stroke-opacity="1.00"/><polyline points="198.3,286.4 198.3,285.8" fill="none" stroke="#37a2ca" stroke-width="1" stroke-opacity="1.00"/><polyline points="162.7,287.7 164.1,291.1" fill="none" stroke="#37a2ca" stroke-width="1" stroke-opacity="1.00"/><polyline points="162.7,288.3 164.1,291.7" fill="none" stroke="#37a2ca" stroke-width="1" stroke-opacity="1.00"/><polyline points="162.7,288.3 162.7,287.7" fill="none" stroke="#37a2ca" stroke-width="1" stroke-opacity="1.00"/><polyline points="164.1,291.7 164.1,291.1" fill="none" stroke="#37a2ca" stroke-width="1" stroke-opacity="1.00"/><polygon points="180.7,220.3 228.8,338.9 228.8,259.7 180.7,141.1" fill="#e7e2db" fill-opacity="1.00" stroke="none" stroke-width="0.9" stroke-opacity="1.00"/><polyline points="180.7,141.1 228.8,259.7" fill="none" stroke="#8A93A3" stroke-width="1" stroke-opacity="1.00"/><polyline points="180.7,220.3 228.8,338.9" fill="none" stroke="#8A93A3" stroke-width="1" stroke-opacity="1.00"/><polyline points="180.7,220.3 180.7,141.1" fill="none" stroke="#8A93A3" stroke-width="1" stroke-opacity="1.00"/><polyline points="228.8,338.9 228.8,259.7" fill="none" stroke="#8A93A3" stroke-width="1" stroke-opacity="1.00"/><polygon points="197.0,283.1 198.3,286.4 198.3,207.3 197.0,203.9" fill="#e7e2db" fill-opacity="1.00" stroke="none" stroke-width="0.9" stroke-opacity="1.00"/><polygon points="164.1,291.7 198.3,286.4 198.3,221.5 164.1,226.8" fill="none" fill-opacity="1.00" stroke="#E8A13B" stroke-width="0.9" stroke-opacity="1.00"/><polygon points="198.3,286.4 212.4,284.3 212.4,205.1 198.3,207.3" fill="#fefefd" fill-opacity="1.00" stroke="none" stroke-width="0.9" stroke-opacity="1.00"/><polyline points="197.0,203.9 198.3,207.3" fill="none" stroke="#8A93A3" stroke-width="1" stroke-opacity="1.00"/><polyline points="197.0,283.1 198.3,286.4" fill="none" stroke="#8A93A3" stroke-width="1" stroke-opacity="1.00"/><polyline points="197.0,283.1 197.0,203.9" fill="none" stroke="#8A93A3" stroke-width="1" stroke-opacity="1.00"/><polyline points="198.3,286.4 198.3,207.3" fill="none" stroke="#8A93A3" stroke-width="1" stroke-opacity="1.00"/><polyline points="198.3,207.3 212.4,205.1" fill="none" stroke="#8A93A3" stroke-width="1" stroke-opacity="1.00"/><polyline points="198.3,286.4 212.4,284.3" fill="none" stroke="#8A93A3" stroke-width="1" stroke-opacity="1.00"/><polyline points="198.3,286.4 198.3,207.3" fill="none" stroke="#8A93A3" stroke-width="1" stroke-opacity="1.00"/><polyline points="212.4,284.3 212.4,205.1" fill="none" stroke="#8A93A3" stroke-width="1" stroke-opacity="1.00"/><polygon points="164.1,226.8 198.3,221.5 198.3,207.3 164.1,212.5" fill="#fefefd" fill-opacity="1.00" stroke="none" stroke-width="0.9" stroke-opacity="1.00"/><polygon points="164.1,291.7 198.3,286.4 198.3,285.8 164.1,291.1" fill="#7fcfec" fill-opacity="1.00" stroke="none" stroke-width="0.9" stroke-opacity="1.00"/><polygon points="162.7,223.4 164.1,226.8 164.1,212.5 162.7,209.2" fill="#e7e2db" fill-opacity="1.00" stroke="none" stroke-width="0.9" stroke-opacity="1.00"/><polygon points="162.7,288.3 164.1,291.7 164.1,291.1 162.7,287.7" fill="#6cb5cb" fill-opacity="1.00" stroke="none" stroke-width="0.9" stroke-opacity="1.00"/><polygon points="43.2,310.3 164.1,291.7 164.1,212.5 43.2,231.1" fill="#fefefd" fill-opacity="1.00" stroke="none" stroke-width="0.9" stroke-opacity="1.00"/><polyline points="43.2,231.1 164.1,212.5" fill="none" stroke="#8A93A3" stroke-width="1" stroke-opacity="1.00"/><polyline points="43.2,310.3 164.1,291.7" fill="none" stroke="#8A93A3" stroke-width="1" stroke-opacity="1.00"/><polyline points="43.2,310.3 43.2,231.1" fill="none" stroke="#8A93A3" stroke-width="1" stroke-opacity="1.00"/><polyline points="164.1,291.7 164.1,212.5" fill="none" stroke="#8A93A3" stroke-width="1" stroke-opacity="1.00"/><polygon points="180.7,141.1 228.8,259.7 235.0,260.8 184.8,136.9" fill="#e4e9f2" fill-opacity="1.00" stroke="none" stroke-width="0.9" stroke-opacity="1.00"/><polygon points="180.7,141.1 228.8,259.7 235.0,260.8 184.8,136.9" fill="none" fill-opacity="1.00" stroke="#8a93a3" stroke-width="0.9" stroke-opacity="1.00"/><polygon points="198.3,207.3 212.4,205.1 211.1,201.7 197.0,203.9" fill="#e4e9f2" fill-opacity="1.00" stroke="none" stroke-width="0.9" stroke-opacity="1.00"/><polygon points="198.3,207.3 212.4,205.1 211.1,201.7 197.0,203.9" fill="none" fill-opacity="1.00" stroke="#8a93a3" stroke-width="0.9" stroke-opacity="1.00"/><polygon points="41.8,306.9 43.2,310.3 43.2,231.1 41.8,227.7" fill="#e7e2db" fill-opacity="1.00" stroke="none" stroke-width="0.9" stroke-opacity="1.00"/><polyline points="41.8,227.7 43.2,231.1" fill="none" stroke="#8A93A3" stroke-width="1" stroke-opacity="1.00"/><polyline points="41.8,306.9 43.2,310.3" fill="none" stroke="#8A93A3" stroke-width="1" stroke-opacity="1.00"/><polyline points="41.8,306.9 41.8,227.7" fill="none" stroke="#8A93A3" stroke-width="1" stroke-opacity="1.00"/><polyline points="43.2,310.3 43.2,231.1" fill="none" stroke="#8A93A3" stroke-width="1" stroke-opacity="1.00"/><polyline points="164.1,212.5 198.3,207.3" fill="none" stroke="#8A93A3" stroke-width="1" stroke-opacity="1.00"/><polyline points="164.1,226.8 198.3,221.5" fill="none" stroke="#8A93A3" stroke-width="1" stroke-opacity="1.00"/><polyline points="164.1,226.8 164.1,212.5" fill="none" stroke="#8A93A3" stroke-width="1" stroke-opacity="1.00"/><polyline points="198.3,221.5 198.3,207.3" fill="none" stroke="#8A93A3" stroke-width="1" stroke-opacity="1.00"/><polyline points="162.7,209.2 164.1,212.5" fill="none" stroke="#8A93A3" stroke-width="1" stroke-opacity="1.00"/><polyline points="162.7,223.4 164.1,226.8" fill="none" stroke="#8A93A3" stroke-width="1" stroke-opacity="1.00"/><polyline points="162.7,223.4 162.7,209.2" fill="none" stroke="#8A93A3" stroke-width="1" stroke-opacity="1.00"/><polyline points="164.1,226.8 164.1,212.5" fill="none" stroke="#8A93A3" stroke-width="1" stroke-opacity="1.00"/><polygon points="164.1,212.5 198.3,207.3 197.0,203.9 162.7,209.2" fill="#e4e9f2" fill-opacity="1.00" stroke="none" stroke-width="0.9" stroke-opacity="1.00"/><polygon points="164.1,212.5 198.3,207.3 197.0,203.9 162.7,209.2" fill="none" fill-opacity="1.00" stroke="#8a93a3" stroke-width="0.9" stroke-opacity="1.00"/><polygon points="43.2,231.1 164.1,212.5 162.7,209.2 41.8,227.7" fill="#e4e9f2" fill-opacity="1.00" stroke="none" stroke-width="0.9" stroke-opacity="1.00"/><polygon points="43.2,231.1 164.1,212.5 162.7,209.2 41.8,227.7" fill="none" fill-opacity="1.00" stroke="#8a93a3" stroke-width="0.9" stroke-opacity="1.00"/><polyline points="228.8,338.2 237.3,359.4" fill="none" stroke="#37a2ca" stroke-width="1" stroke-opacity="1.00"/><polyline points="228.8,338.9 237.3,360.0" fill="none" stroke="#37a2ca" stroke-width="1" stroke-opacity="1.00"/><polyline points="228.8,338.9 228.8,338.2" fill="none" stroke="#37a2ca" stroke-width="1" stroke-opacity="1.00"/><polyline points="237.3,360.0 237.3,359.4" fill="none" stroke="#37a2ca" stroke-width="1" stroke-opacity="1.00"/><polygon points="228.8,338.2 237.3,359.4 243.9,361.4 235.0,339.3" fill="#6ecaec" fill-opacity="1.00" stroke="none" stroke-width="0.9" stroke-opacity="1.00"/><polygon points="228.8,338.2 237.3,359.4 243.9,361.4 235.0,339.3" fill="none" fill-opacity="1.00" stroke="#37a2ca" stroke-width="0.9" stroke-opacity="1.00"/><polyline points="237.3,359.4 243.9,361.4" fill="none" stroke="#37a2ca" stroke-width="1" stroke-opacity="1.00"/><polyline points="237.3,360.0 243.9,362.1" fill="none" stroke="#37a2ca" stroke-width="1" stroke-opacity="1.00"/><polyline points="237.3,360.0 237.3,359.4" fill="none" stroke="#37a2ca" stroke-width="1" stroke-opacity="1.00"/><polyline points="243.9,362.1 243.9,361.4" fill="none" stroke="#37a2ca" stroke-width="1" stroke-opacity="1.00"/><polygon points="228.8,338.9 235.0,340.0 235.0,260.8 228.8,259.7" fill="#f8f7f5" fill-opacity="1.00" stroke="none" stroke-width="0.9" stroke-opacity="1.00"/><polyline points="228.8,259.7 235.0,260.8" fill="none" stroke="#8A93A3" stroke-width="1" stroke-opacity="1.00"/><polyline points="228.8,338.9 235.0,340.0" fill="none" stroke="#8A93A3" stroke-width="1" stroke-opacity="1.00"/><polyline points="228.8,338.9 228.8,259.7" fill="none" stroke="#8A93A3" stroke-width="1" stroke-opacity="1.00"/><polyline points="235.0,340.0 235.0,260.8" fill="none" stroke="#8A93A3" stroke-width="1" stroke-opacity="1.00"/><polygon points="228.8,338.9 237.3,360.0 237.3,295.1 228.8,274.0" fill="none" fill-opacity="1.00" stroke="#E8A13B" stroke-width="0.9" stroke-opacity="1.00"/><polygon points="228.8,274.0 237.3,295.1 237.3,280.8 228.8,259.7" fill="#e7e2db" fill-opacity="1.00" stroke="none" stroke-width="0.9" stroke-opacity="1.00"/><polygon points="228.8,338.9 237.3,360.0 237.3,359.4 228.8,338.2" fill="#6cb5cb" fill-opacity="1.00" stroke="none" stroke-width="0.9" stroke-opacity="1.00"/><polygon points="237.3,295.1 243.9,297.1 243.9,282.9 237.3,280.8" fill="#f6f4f1" fill-opacity="1.00" stroke="none" stroke-width="0.9" stroke-opacity="1.00"/><polygon points="237.3,360.0 243.9,362.1 243.9,361.4 237.3,359.4" fill="#78c5e0" fill-opacity="1.00" stroke="none" stroke-width="0.9" stroke-opacity="1.00"/><polygon points="237.3,360.0 241.6,370.6 241.6,291.4 237.3,280.8" fill="#e7e2db" fill-opacity="1.00" stroke="none" stroke-width="0.9" stroke-opacity="1.00"/><polyline points="237.3,280.8 241.6,291.4" fill="none" stroke="#8A93A3" stroke-width="1" stroke-opacity="1.00"/><polyline points="237.3,360.0 241.6,370.6" fill="none" stroke="#8A93A3" stroke-width="1" stroke-opacity="1.00"/><polyline points="237.3,360.0 237.3,280.8" fill="none" stroke="#8A93A3" stroke-width="1" stroke-opacity="1.00"/><polyline points="241.6,370.6 241.6,291.4" fill="none" stroke="#8A93A3" stroke-width="1" stroke-opacity="1.00"/><polyline points="228.8,259.7 237.3,280.8" fill="none" stroke="#8A93A3" stroke-width="1" stroke-opacity="1.00"/><polyline points="228.8,274.0 237.3,295.1" fill="none" stroke="#8A93A3" stroke-width="1" stroke-opacity="1.00"/><polyline points="228.8,274.0 228.8,259.7" fill="none" stroke="#8A93A3" stroke-width="1" stroke-opacity="1.00"/><polyline points="237.3,295.1 237.3,280.8" fill="none" stroke="#8A93A3" stroke-width="1" stroke-opacity="1.00"/><polygon points="241.6,370.6 248.4,373.1 248.4,293.9 241.6,291.4" fill="#f4f2ef" fill-opacity="1.00" stroke="none" stroke-width="0.9" stroke-opacity="1.00"/><polyline points="241.6,291.4 248.4,293.9" fill="none" stroke="#8A93A3" stroke-width="1" stroke-opacity="1.00"/><polyline points="241.6,370.6 248.4,373.1" fill="none" stroke="#8A93A3" stroke-width="1" stroke-opacity="1.00"/><polyline points="241.6,370.6 241.6,291.4" fill="none" stroke="#8A93A3" stroke-width="1" stroke-opacity="1.00"/><polyline points="248.4,373.1 248.4,293.9" fill="none" stroke="#8A93A3" stroke-width="1" stroke-opacity="1.00"/><polygon points="228.8,259.7 237.3,280.8 243.9,282.9 235.0,260.8" fill="#e4e9f2" fill-opacity="1.00" stroke="none" stroke-width="0.9" stroke-opacity="1.00"/><polygon points="228.8,259.7 237.3,280.8 243.9,282.9 235.0,260.8" fill="none" fill-opacity="1.00" stroke="#8a93a3" stroke-width="0.9" stroke-opacity="1.00"/><polyline points="237.3,280.8 243.9,282.9" fill="none" stroke="#8A93A3" stroke-width="1" stroke-opacity="1.00"/><polyline points="237.3,295.1 243.9,297.1" fill="none" stroke="#8A93A3" stroke-width="1" stroke-opacity="1.00"/><polyline points="237.3,295.1 237.3,280.8" fill="none" stroke="#8A93A3" stroke-width="1" stroke-opacity="1.00"/><polyline points="243.9,297.1 243.9,282.9" fill="none" stroke="#8A93A3" stroke-width="1" stroke-opacity="1.00"/><polygon points="237.3,280.8 241.6,291.4 248.4,293.9 243.9,282.9" fill="#e4e9f2" fill-opacity="1.00" stroke="none" stroke-width="0.9" stroke-opacity="1.00"/><polygon points="237.3,280.8 241.6,291.4 248.4,293.9 243.9,282.9" fill="none" fill-opacity="1.00" stroke="#8a93a3" stroke-width="0.9" stroke-opacity="1.00"/><polygon points="91.4,245.6 108.9,243.0 108.9,227.1 91.4,229.8" fill="#e7eefa" fill-opacity="1.00" stroke="#2F6BFF" stroke-width="0.9" stroke-opacity="1.00"/><polygon points="87.1,235.2 91.4,245.6 91.4,229.8 87.1,219.3" fill="#d0d2d8" fill-opacity="1.00" stroke="#2F6BFF" stroke-width="0.9" stroke-opacity="1.00"/><polygon points="104.7,216.6 87.1,219.3 91.4,229.8 108.9,227.1" fill="#e7eefc" fill-opacity="1.00" stroke="#2F6BFF" stroke-width="0.9" stroke-opacity="1.00"/><polygon points="100.5,244.1 108.8,242.8 108.8,228.2 100.5,229.5" fill="#f1f5fb" fill-opacity="1.00" stroke="#2F6BFF" stroke-width="0.9" stroke-opacity="1.00"/><polygon points="100.3,243.6 100.5,244.1 100.5,229.5 100.3,229.1" fill="#dad9d9" fill-opacity="1.00" stroke="#2F6BFF" stroke-width="0.9" stroke-opacity="1.00"/><polygon points="108.6,227.8 100.3,229.1 100.5,229.5 108.8,228.2" fill="#f2f5fd" fill-opacity="1.00" stroke="#2F6BFF" stroke-width="0.9" stroke-opacity="1.00"/><polygon points="91.9,245.4 100.2,244.1 100.2,229.6 91.9,230.8" fill="#f1f5fb" fill-opacity="1.00" stroke="#2F6BFF" stroke-width="0.9" stroke-opacity="1.00"/><polygon points="91.7,245.0 91.9,245.4 91.9,230.8 91.7,230.4" fill="#dad9d9" fill-opacity="1.00" stroke="#2F6BFF" stroke-width="0.9" stroke-opacity="1.00"/><polygon points="100.0,229.1 91.7,230.4 91.9,230.8 100.2,229.6" fill="#f2f5fd" fill-opacity="1.00" stroke="#2F6BFF" stroke-width="0.9" stroke-opacity="1.00"/><polygon points="100.9,238.2 101.5,238.1 101.5,235.6 100.9,235.7" fill="#adb1ba" fill-opacity="1.00" stroke="#2F6BFF" stroke-width="0.9" stroke-opacity="1.00"/><polygon points="100.8,237.9 100.9,238.2 100.9,235.7 100.8,235.4" fill="#99989b" fill-opacity="1.00" stroke="#2F6BFF" stroke-width="0.9" stroke-opacity="1.00"/><polygon points="101.3,235.3 100.8,235.4 100.9,235.7 101.5,235.6" fill="#a9aeb8" fill-opacity="1.00" stroke="#2F6BFF" stroke-width="0.9" stroke-opacity="1.00"/><polygon points="99.4,238.5 99.9,238.4 99.9,235.8 99.4,235.9" fill="#adb1ba" fill-opacity="1.00" stroke="#2F6BFF" stroke-width="0.9" stroke-opacity="1.00"/><polygon points="99.2,238.1 99.4,238.5 99.4,235.9 99.2,235.6" fill="#99989b" fill-opacity="1.00" stroke="#2F6BFF" stroke-width="0.9" stroke-opacity="1.00"/><polygon points="99.8,235.5 99.2,235.6 99.4,235.9 99.9,235.8" fill="#a9aeb8" fill-opacity="1.00" stroke="#2F6BFF" stroke-width="0.9" stroke-opacity="1.00"/><polygon points="180.0,279.8 202.6,276.3 202.6,209.8 180.0,213.3" fill="#e7eefa" fill-opacity="1.00" stroke="#2F6BFF" stroke-width="0.9" stroke-opacity="1.00"/><polygon points="163.0,237.9 180.0,279.8 180.0,213.3 163.0,171.4" fill="#d0d2d8" fill-opacity="1.00" stroke="#2F6BFF" stroke-width="0.9" stroke-opacity="1.00"/><polygon points="180.0,213.3 202.6,209.8 185.6,167.9 163.0,171.4" fill="#e7eefc" fill-opacity="1.00" stroke="#2F6BFF" stroke-width="0.9" stroke-opacity="1.00"/><polygon points="163.5,235.2 174.1,233.5 174.1,172.4 163.5,174.0" fill="#f1f5fb" fill-opacity="1.00" stroke="#2F6BFF" stroke-width="0.9" stroke-opacity="1.00"/><polygon points="162.8,233.4 163.5,235.2 163.5,174.0 162.8,172.3" fill="#dad9d9" fill-opacity="1.00" stroke="#2F6BFF" stroke-width="0.9" stroke-opacity="1.00"/><polygon points="163.5,174.0 174.1,172.4 173.4,170.6 162.8,172.3" fill="#f2f5fd" fill-opacity="1.00" stroke="#2F6BFF" stroke-width="0.9" stroke-opacity="1.00"/><polygon points="174.5,233.5 185.2,231.8 185.2,170.7 174.5,172.3" fill="#f1f5fb" fill-opacity="1.00" stroke="#2F6BFF" stroke-width="0.9" stroke-opacity="1.00"/><polygon points="173.8,231.7 174.5,233.5 174.5,172.3 173.8,170.6" fill="#dad9d9" fill-opacity="1.00" stroke="#2F6BFF" stroke-width="0.9" stroke-opacity="1.00"/><polygon points="174.5,172.3 185.2,170.7 184.5,168.9 173.8,170.6" fill="#f2f5fd" fill-opacity="1.00" stroke="#2F6BFF" stroke-width="0.9" stroke-opacity="1.00"/><polygon points="172.4,207.1 173.1,207.0 173.1,196.4 172.4,196.5" fill="#adb1ba" fill-opacity="1.00" stroke="#2F6BFF" stroke-width="0.9" stroke-opacity="1.00"/><polygon points="171.9,205.9 172.4,207.1 172.4,196.5 171.9,195.2" fill="#99989b" fill-opacity="1.00" stroke="#2F6BFF" stroke-width="0.9" stroke-opacity="1.00"/><polygon points="172.4,196.5 173.1,196.4 172.6,195.1 171.9,195.2" fill="#a9aeb8" fill-opacity="1.00" stroke="#2F6BFF" stroke-width="0.9" stroke-opacity="1.00"/><polygon points="174.5,206.8 175.1,206.7 175.1,196.1 174.5,196.2" fill="#adb1ba" fill-opacity="1.00" stroke="#2F6BFF" stroke-width="0.9" stroke-opacity="1.00"/><polygon points="173.9,205.5 174.5,206.8 174.5,196.2 173.9,194.9" fill="#99989b" fill-opacity="1.00" stroke="#2F6BFF" stroke-width="0.9" stroke-opacity="1.00"/><polygon points="174.5,196.2 175.1,196.1 174.6,194.8 173.9,194.9" fill="#a9aeb8" fill-opacity="1.00" stroke="#2F6BFF" stroke-width="0.9" stroke-opacity="1.00"/><polygon points="47.9,288.1 101.7,279.9 101.7,273.5 47.9,281.8" fill="#f3daa4" fill-opacity="1.00" stroke="#2F6BFF" stroke-width="0.9" stroke-opacity="1.00"/><polygon points="31.0,246.3 47.9,288.1 47.9,281.8 31.0,240.0" fill="#dcbf85" fill-opacity="1.00" stroke="#2F6BFF" stroke-width="0.9" stroke-opacity="1.00"/><polygon points="47.9,281.8 101.7,273.5 84.8,231.7 31.0,240.0" fill="#f4d9a1" fill-opacity="1.00" stroke="#2F6BFF" stroke-width="0.9" stroke-opacity="1.00"/><polygon points="45.6,282.1 104.1,273.2 104.1,267.5 45.6,276.4" fill="#f8eacc" fill-opacity="1.00" stroke="#2F6BFF" stroke-width="0.9" stroke-opacity="1.00"/><polygon points="27.7,238.0 45.6,282.1 45.6,276.4 27.7,232.3" fill="#e1ceac" fill-opacity="1.00" stroke="#2F6BFF" stroke-width="0.9" stroke-opacity="1.00"/><polygon points="45.6,276.4 104.1,267.5 86.2,223.3 27.7,232.3" fill="#f9eacb" fill-opacity="1.00" stroke="#2F6BFF" stroke-width="0.9" stroke-opacity="1.00"/><polygon points="49.3,274.8 72.7,271.3 72.7,268.7 49.3,272.3" fill="#f8eacc" fill-opacity="1.00" stroke="#2F6BFF" stroke-width="0.9" stroke-opacity="1.00"/><polygon points="45.0,264.3 49.3,274.8 49.3,272.3 45.0,261.7" fill="#e1ceac" fill-opacity="1.00" stroke="#2F6BFF" stroke-width="0.9" stroke-opacity="1.00"/><polygon points="49.3,272.3 72.7,268.7 68.4,258.2 45.0,261.7" fill="#f9eacb" fill-opacity="1.00" stroke="#2F6BFF" stroke-width="0.9" stroke-opacity="1.00"/><polygon points="76.2,270.7 99.6,267.1 99.6,264.6 76.2,268.2" fill="#f8eacc" fill-opacity="1.00" stroke="#2F6BFF" stroke-width="0.9" stroke-opacity="1.00"/><polygon points="71.9,260.2 76.2,270.7 76.2,268.2 71.9,257.6" fill="#e1ceac" fill-opacity="1.00" stroke="#2F6BFF" stroke-width="0.9" stroke-opacity="1.00"/><polygon points="76.2,268.2 99.6,264.6 95.3,254.0 71.9,257.6" fill="#f9eacb" fill-opacity="1.00" stroke="#2F6BFF" stroke-width="0.9" stroke-opacity="1.00"/><polygon points="47.1,292.3 105.6,283.3 105.6,258.0 47.1,267.0" fill="#f3daa4" fill-opacity="1.00" stroke="#2F6BFF" stroke-width="0.9" stroke-opacity="1.00"/><polygon points="45.8,288.9 47.1,292.3 47.1,267.0 45.8,263.6" fill="#dcbf85" fill-opacity="1.00" stroke="#2F6BFF" stroke-width="0.9" stroke-opacity="1.00"/><polygon points="47.1,267.0 105.6,258.0 104.2,254.6 45.8,263.6" fill="#f4d9a1" fill-opacity="1.00" stroke="#2F6BFF" stroke-width="0.9" stroke-opacity="1.00"/><polygon points="75.4,326.5 161.2,313.3 161.2,301.9 75.4,315.1" fill="#f3daa4" fill-opacity="1.00" stroke="#2F6BFF" stroke-width="0.9" stroke-opacity="1.00"/><polygon points="67.6,307.0 75.4,326.5 75.4,315.1 67.6,295.6" fill="#dcbf85" fill-opacity="1.00" stroke="#2F6BFF" stroke-width="0.9" stroke-opacity="1.00"/><polygon points="153.4,282.5 67.6,295.6 75.4,315.1 161.2,301.9" fill="#f4d9a1" fill-opacity="1.00" stroke="#2F6BFF" stroke-width="0.9" stroke-opacity="1.00"/><polygon points="118.9,307.5 148.0,303.0 148.0,297.7 118.9,302.2" fill="#f8eacc" fill-opacity="1.00" stroke="#2F6BFF" stroke-width="0.9" stroke-opacity="1.00"/><polygon points="112.9,292.7 118.9,307.5 118.9,302.2 112.9,287.4" fill="#e1ceac" fill-opacity="1.00" stroke="#2F6BFF" stroke-width="0.9" stroke-opacity="1.00"/><polygon points="142.0,282.9 112.9,287.4 118.9,302.2 148.0,297.7" fill="#f9eacb" fill-opacity="1.00" stroke="#2F6BFF" stroke-width="0.9" stroke-opacity="1.00"/><polygon points="88.0,312.2 117.1,307.8 117.1,302.4 88.0,306.9" fill="#f8eacc" fill-opacity="1.00" stroke="#2F6BFF" stroke-width="0.9" stroke-opacity="1.00"/><polygon points="82.0,297.4 88.0,312.2 88.0,306.9 82.0,292.1" fill="#e1ceac" fill-opacity="1.00" stroke="#2F6BFF" stroke-width="0.9" stroke-opacity="1.00"/><polygon points="111.1,287.7 82.0,292.1 88.0,306.9 117.1,302.4" fill="#f9eacb" fill-opacity="1.00" stroke="#2F6BFF" stroke-width="0.9" stroke-opacity="1.00"/><polygon points="68.9,299.0 154.7,285.8 154.7,271.9 68.9,285.1" fill="#f3daa4" fill-opacity="1.00" stroke="#2F6BFF" stroke-width="0.9" stroke-opacity="1.00"/><polygon points="67.6,295.6 68.9,299.0 68.9,285.1 67.6,281.7" fill="#dcbf85" fill-opacity="1.00" stroke="#2F6BFF" stroke-width="0.9" stroke-opacity="1.00"/><polygon points="153.4,268.5 67.6,281.7 68.9,285.1 154.7,271.9" fill="#f4d9a1" fill-opacity="1.00" stroke="#2F6BFF" stroke-width="0.9" stroke-opacity="1.00"/><polygon points="150.4,304.4 161.6,302.7 161.6,293.9 150.4,295.6" fill="#f3daa4" fill-opacity="1.00" stroke="#2F6BFF" stroke-width="0.9" stroke-opacity="1.00"/><polygon points="143.7,288.0 150.4,304.4 150.4,295.6 143.7,279.1" fill="#dcbf85" fill-opacity="1.00" stroke="#2F6BFF" stroke-width="0.9" stroke-opacity="1.00"/><polygon points="154.9,277.4 143.7,279.1 150.4,295.6 161.6,293.9" fill="#f4d9a1" fill-opacity="1.00" stroke="#2F6BFF" stroke-width="0.9" stroke-opacity="1.00"/><polygon points="75.8,315.9 86.9,314.2 86.9,305.3 75.8,307.0" fill="#f3daa4" fill-opacity="1.00" stroke="#2F6BFF" stroke-width="0.9" stroke-opacity="1.00"/><polygon points="69.1,299.4 75.8,315.9 75.8,307.0 69.1,290.6" fill="#dcbf85" fill-opacity="1.00" stroke="#2F6BFF" stroke-width="0.9" stroke-opacity="1.00"/><polygon points="80.3,288.8 69.1,290.6 75.8,307.0 86.9,305.3" fill="#f4d9a1" fill-opacity="1.00" stroke="#2F6BFF" stroke-width="0.9" stroke-opacity="1.00"/><polygon points="108.6,339.6 151.5,333.0 151.5,332.1 108.6,338.7" fill="#f1f5fb" fill-opacity="1.00" stroke="#2F6BFF" stroke-width="0.9" stroke-opacity="1.00"/><polygon points="102.7,325.2 108.6,339.6 108.6,338.7 102.7,324.3" fill="#dad9d9" fill-opacity="1.00" stroke="#2F6BFF" stroke-width="0.9" stroke-opacity="1.00"/><polygon points="108.6,338.7 151.5,332.1 145.6,317.7 102.7,324.3" fill="#f2f5fd" fill-opacity="1.00" stroke="#2F6BFF" stroke-width="0.9" stroke-opacity="1.00"/><polygon points="104.2,338.9 107.6,338.4 107.6,326.0 104.2,326.5" fill="#adb1ba" fill-opacity="1.00" stroke="#2F6BFF" stroke-width="0.9" stroke-opacity="1.00"/><polygon points="103.7,337.7 104.2,338.9 104.2,326.5 103.7,325.4" fill="#99989b" fill-opacity="1.00" stroke="#2F6BFF" stroke-width="0.9" stroke-opacity="1.00"/><polygon points="104.2,326.5 107.6,326.0 107.1,324.8 103.7,325.4" fill="#a9aeb8" fill-opacity="1.00" stroke="#2F6BFF" stroke-width="0.9" stroke-opacity="1.00"/><polygon points="141.9,333.1 145.3,332.6 145.3,320.2 141.9,320.7" fill="#adb1ba" fill-opacity="1.00" stroke="#2F6BFF" stroke-width="0.9" stroke-opacity="1.00"/><polygon points="141.4,331.9 141.9,333.1 141.9,320.7 141.4,319.6" fill="#99989b" fill-opacity="1.00" stroke="#2F6BFF" stroke-width="0.9" stroke-opacity="1.00"/><polygon points="141.9,320.7 145.3,320.2 144.9,319.0 141.4,319.6" fill="#a9aeb8" fill-opacity="1.00" stroke="#2F6BFF" stroke-width="0.9" stroke-opacity="1.00"/><polygon points="109.3,351.6 112.7,351.0 112.7,338.7 109.3,339.2" fill="#adb1ba" fill-opacity="1.00" stroke="#2F6BFF" stroke-width="0.9" stroke-opacity="1.00"/><polygon points="108.8,350.4 109.3,351.6 109.3,339.2 108.8,338.0" fill="#99989b" fill-opacity="1.00" stroke="#2F6BFF" stroke-width="0.9" stroke-opacity="1.00"/><polygon points="109.3,339.2 112.7,338.7 112.3,337.5 108.8,338.0" fill="#a9aeb8" fill-opacity="1.00" stroke="#2F6BFF" stroke-width="0.9" stroke-opacity="1.00"/><polygon points="147.0,345.8 150.5,345.2 150.5,332.9 147.0,333.4" fill="#adb1ba" fill-opacity="1.00" stroke="#2F6BFF" stroke-width="0.9" stroke-opacity="1.00"/><polygon points="146.6,344.6 147.0,345.8 147.0,333.4 146.6,332.2" fill="#99989b" fill-opacity="1.00" stroke="#2F6BFF" stroke-width="0.9" stroke-opacity="1.00"/><polygon points="147.0,333.4 150.5,332.9 150.0,331.7 146.6,332.2" fill="#a9aeb8" fill-opacity="1.00" stroke="#2F6BFF" stroke-width="0.9" stroke-opacity="1.00"/><polygon points="79.9,384.4 96.2,381.9 96.2,321.8 79.9,324.3" fill="#e7eefa" fill-opacity="1.00" stroke="#2F6BFF" stroke-width="0.9" stroke-opacity="1.00"/><polygon points="64.8,347.2 79.9,384.4 79.9,324.3 64.8,287.0" fill="#d0d2d8" fill-opacity="1.00" stroke="#2F6BFF" stroke-width="0.9" stroke-opacity="1.00"/><polygon points="79.9,324.3 96.2,321.8 81.2,284.5 64.8,287.0" fill="#e7eefc" fill-opacity="1.00" stroke="#2F6BFF" stroke-width="0.9" stroke-opacity="1.00"/><polygon points="65.1,344.7 72.8,343.5 72.8,288.2 65.1,289.4" fill="#f1f5fb" fill-opacity="1.00" stroke="#2F6BFF" stroke-width="0.9" stroke-opacity="1.00"/><polygon points="64.5,343.2 65.1,344.7 65.1,289.4 64.5,287.8" fill="#dad9d9" fill-opacity="1.00" stroke="#2F6BFF" stroke-width="0.9" stroke-opacity="1.00"/><polygon points="65.1,289.4 72.8,288.2 72.2,286.6 64.5,287.8" fill="#f2f5fd" fill-opacity="1.00" stroke="#2F6BFF" stroke-width="0.9" stroke-opacity="1.00"/><polygon points="73.1,343.5 80.8,342.3 80.8,287.0 73.1,288.1" fill="#f1f5fb" fill-opacity="1.00" stroke="#2F6BFF" stroke-width="0.9" stroke-opacity="1.00"/><polygon points="72.5,342.0 73.1,343.5 73.1,288.1 72.5,286.6" fill="#dad9d9" fill-opacity="1.00" stroke="#2F6BFF" stroke-width="0.9" stroke-opacity="1.00"/><polygon points="73.1,288.1 80.8,287.0 80.2,285.4 72.5,286.6" fill="#f2f5fd" fill-opacity="1.00" stroke="#2F6BFF" stroke-width="0.9" stroke-opacity="1.00"/><polygon points="71.5,319.6 72.0,319.6 72.0,309.9 71.5,310.0" fill="#adb1ba" fill-opacity="1.00" stroke="#2F6BFF" stroke-width="0.9" stroke-opacity="1.00"/><polygon points="71.1,318.5 71.5,319.6 71.5,310.0 71.1,308.9" fill="#99989b" fill-opacity="1.00" stroke="#2F6BFF" stroke-width="0.9" stroke-opacity="1.00"/><polygon points="71.5,310.0 72.0,309.9 71.5,308.8 71.1,308.9" fill="#a9aeb8" fill-opacity="1.00" stroke="#2F6BFF" stroke-width="0.9" stroke-opacity="1.00"/><polygon points="73.0,319.4 73.5,319.3 73.5,309.7 73.0,309.8" fill="#adb1ba" fill-opacity="1.00" stroke="#2F6BFF" stroke-width="0.9" stroke-opacity="1.00"/><polygon points="72.5,318.3 73.0,319.4 73.0,309.8 72.5,308.6" fill="#99989b" fill-opacity="1.00" stroke="#2F6BFF" stroke-width="0.9" stroke-opacity="1.00"/><polygon points="73.0,309.8 73.5,309.7 73.0,308.6 72.5,308.6" fill="#a9aeb8" fill-opacity="1.00" stroke="#2F6BFF" stroke-width="0.9" stroke-opacity="1.00"/><polygon points="119.0,388.0 169.7,380.2 169.7,360.6 119.0,368.4" fill="#adb1ba" fill-opacity="1.00" stroke="#2F6BFF" stroke-width="0.9" stroke-opacity="1.00"/><polygon points="118.0,385.5 119.0,388.0 119.0,368.4 118.0,365.8" fill="#99989b" fill-opacity="1.00" stroke="#2F6BFF" stroke-width="0.9" stroke-opacity="1.00"/><polygon points="119.0,368.4 169.7,360.6 168.7,358.1 118.0,365.8" fill="#a9aeb8" fill-opacity="1.00" stroke="#2F6BFF" stroke-width="0.9" stroke-opacity="1.00"/><polygon points="134.6,381.0 154.8,377.9 154.8,369.3 134.6,372.4" fill="#e7eefa" fill-opacity="1.00" stroke="#2F6BFF" stroke-width="0.9" stroke-opacity="1.00"/><polygon points="134.2,380.2 134.6,381.0 134.6,372.4 134.2,371.5" fill="#d0d2d8" fill-opacity="1.00" stroke="#2F6BFF" stroke-width="0.9" stroke-opacity="1.00"/><polygon points="134.6,372.4 154.8,369.3 154.5,368.4 134.2,371.5" fill="#e7eefc" fill-opacity="1.00" stroke="#2F6BFF" stroke-width="0.9" stroke-opacity="1.00"/><polygon points="15.6,242.1 56.3,342.7 56.3,263.5 15.6,162.9" fill="#e7e2db" fill-opacity="0.94" stroke="none" stroke-width="0.9" stroke-opacity="0.96"/><polyline points="15.6,162.9 56.3,263.5" fill="none" stroke="#8A93A3" stroke-width="1" stroke-opacity="1.00"/><polyline points="15.6,242.1 56.3,342.7" fill="none" stroke="#8A93A3" stroke-width="1" stroke-opacity="1.00"/><polyline points="15.6,242.1 15.6,162.9" fill="none" stroke="#8A93A3" stroke-width="1" stroke-opacity="1.00"/><polyline points="56.3,342.7 56.3,263.5" fill="none" stroke="#8A93A3" stroke-width="1" stroke-opacity="1.00"/><polygon points="61.4,261.7 22.4,165.4 15.6,162.9 56.3,263.5" fill="#e4e9f2" fill-opacity="1.00" stroke="none" stroke-width="0.9" stroke-opacity="1.00"/><polygon points="61.4,261.7 22.4,165.4 15.6,162.9 56.3,263.5" fill="none" fill-opacity="1.00" stroke="#8a93a3" stroke-width="0.9" stroke-opacity="1.00"/><polygon points="56.3,342.7 61.4,340.9 61.4,261.7 56.3,263.5" fill="#ffffff" fill-opacity="1.00" stroke="none" stroke-width="0.9" stroke-opacity="1.00"/><polyline points="56.3,263.5 61.4,261.7" fill="none" stroke="#8A93A3" stroke-width="1" stroke-opacity="1.00"/><polyline points="56.3,342.7 61.4,340.9" fill="none" stroke="#8A93A3" stroke-width="1" stroke-opacity="1.00"/><polyline points="56.3,342.7 56.3,263.5" fill="none" stroke="#8A93A3" stroke-width="1" stroke-opacity="1.00"/><polyline points="61.4,340.9 61.4,261.7" fill="none" stroke="#8A93A3" stroke-width="1" stroke-opacity="1.00"/><polyline points="56.3,312.6 71.2,349.4" fill="none" stroke="#8A93A3" stroke-width="1" stroke-opacity="1.00"/><polyline points="56.3,342.7 71.2,379.5" fill="none" stroke="#8A93A3" stroke-width="1" stroke-opacity="1.00"/><polyline points="56.3,342.7 56.3,312.6" fill="none" stroke="#8A93A3" stroke-width="1" stroke-opacity="1.00"/><polyline points="71.2,379.5 71.2,349.4" fill="none" stroke="#8A93A3" stroke-width="1" stroke-opacity="1.00"/><polygon points="75.7,346.0 61.4,310.8 56.3,312.6 71.2,349.4" fill="#e4e9f2" fill-opacity="1.00" stroke="none" stroke-width="0.9" stroke-opacity="1.00"/><polygon points="75.7,346.0 61.4,310.8 56.3,312.6 71.2,349.4" fill="none" fill-opacity="1.00" stroke="#8a93a3" stroke-width="0.9" stroke-opacity="1.00"/><polygon points="56.6,312.5 71.5,349.2 71.5,303.2 56.6,266.5" fill="#6cb5cb" fill-opacity="1.00" stroke="none" stroke-width="0.9" stroke-opacity="1.00"/><polygon points="56.3,342.7 71.2,379.5 71.2,349.4 56.3,312.6" fill="#e7e2db" fill-opacity="0.94" stroke="none" stroke-width="0.9" stroke-opacity="0.96"/><polygon points="56.3,266.6 71.2,303.4 71.2,300.3 56.3,263.5" fill="#e7e2db" fill-opacity="0.94" stroke="none" stroke-width="0.9" stroke-opacity="0.96"/><polyline points="71.2,349.4 75.7,346.0" fill="none" stroke="#8A93A3" stroke-width="1" stroke-opacity="1.00"/><polyline points="71.2,379.5 75.7,376.1" fill="none" stroke="#8A93A3" stroke-width="1" stroke-opacity="1.00"/><polyline points="71.2,379.5 71.2,349.4" fill="none" stroke="#8A93A3" stroke-width="1" stroke-opacity="1.00"/><polyline points="75.7,376.1 75.7,346.0" fill="none" stroke="#8A93A3" stroke-width="1" stroke-opacity="1.00"/><polyline points="56.6,266.5 71.5,303.2" fill="none" stroke="#3EB8E5" stroke-width="1" stroke-opacity="1.00"/><polyline points="56.6,312.5 71.5,349.2" fill="none" stroke="#3EB8E5" stroke-width="1" stroke-opacity="1.00"/><polyline points="56.6,312.5 56.6,266.5" fill="none" stroke="#3EB8E5" stroke-width="1" stroke-opacity="1.00"/><polyline points="71.5,349.2 71.5,303.2" fill="none" stroke="#3EB8E5" stroke-width="1" stroke-opacity="1.00"/><polygon points="71.2,379.5 75.7,376.1 75.7,346.0 71.2,349.4" fill="#fefefe" fill-opacity="1.00" stroke="none" stroke-width="0.9" stroke-opacity="1.00"/><polygon points="71.2,303.4 75.7,300.1 75.7,296.9 71.2,300.3" fill="#fefefe" fill-opacity="1.00" stroke="none" stroke-width="0.9" stroke-opacity="1.00"/><polygon points="75.7,296.9 61.4,261.7 56.3,263.5 71.2,300.3" fill="#e4e9f2" fill-opacity="1.00" stroke="none" stroke-width="0.9" stroke-opacity="1.00"/><polygon points="75.7,296.9 61.4,261.7 56.3,263.5 71.2,300.3" fill="none" fill-opacity="1.00" stroke="#8a93a3" stroke-width="0.9" stroke-opacity="1.00"/><polyline points="56.3,263.5 71.2,300.3" fill="none" stroke="#8A93A3" stroke-width="1" stroke-opacity="1.00"/><polyline points="56.3,266.6 71.2,303.4" fill="none" stroke="#8A93A3" stroke-width="1" stroke-opacity="1.00"/><polyline points="56.3,266.6 56.3,263.5" fill="none" stroke="#8A93A3" stroke-width="1" stroke-opacity="1.00"/><polyline points="71.2,303.4 71.2,300.3" fill="none" stroke="#8A93A3" stroke-width="1" stroke-opacity="1.00"/><polygon points="79.2,399.1 248.4,373.1 248.4,293.9 79.2,319.9" fill="#fefefd" fill-opacity="0.15" stroke="none" stroke-width="0.9" stroke-opacity="0.41"/><polyline points="79.2,319.9 248.4,293.9" fill="none" stroke="#8A93A3" stroke-width="1" stroke-opacity="1.00"/><polyline points="79.2,399.1 248.4,373.1" fill="none" stroke="#8A93A3" stroke-width="1" stroke-opacity="1.00"/><polyline points="79.2,399.1 79.2,319.9" fill="none" stroke="#8A93A3" stroke-width="1" stroke-opacity="1.00"/><polyline points="248.4,373.1 248.4,293.9" fill="none" stroke="#8A93A3" stroke-width="1" stroke-opacity="1.00"/><polygon points="71.2,379.5 79.2,399.1 79.2,319.9 71.2,300.3" fill="#e7e2db" fill-opacity="0.94" stroke="none" stroke-width="0.9" stroke-opacity="0.96"/><polyline points="71.2,300.3 79.2,319.9" fill="none" stroke="#8A93A3" stroke-width="1" stroke-opacity="1.00"/><polyline points="71.2,379.5 79.2,399.1" fill="none" stroke="#8A93A3" stroke-width="1" stroke-opacity="1.00"/><polyline points="71.2,379.5 71.2,300.3" fill="none" stroke="#8A93A3" stroke-width="1" stroke-opacity="1.00"/><polyline points="79.2,399.1 79.2,319.9" fill="none" stroke="#8A93A3" stroke-width="1" stroke-opacity="1.00"/><polygon points="79.2,399.1 83.3,394.9 83.3,315.7 79.2,319.9" fill="#fdfdfd" fill-opacity="1.00" stroke="none" stroke-width="0.9" stroke-opacity="1.00"/><polyline points="79.2,319.9 83.3,315.7" fill="none" stroke="#8A93A3" stroke-width="1" stroke-opacity="1.00"/><polyline points="79.2,399.1 83.3,394.9" fill="none" stroke="#8A93A3" stroke-width="1" stroke-opacity="1.00"/><polyline points="79.2,399.1 79.2,319.9" fill="none" stroke="#8A93A3" stroke-width="1" stroke-opacity="1.00"/><polyline points="83.3,394.9 83.3,315.7" fill="none" stroke="#8A93A3" stroke-width="1" stroke-opacity="1.00"/><polyline points="71.2,300.3 75.7,296.9" fill="none" stroke="#8A93A3" stroke-width="1" stroke-opacity="1.00"/><polyline points="71.2,303.4 75.7,300.1" fill="none" stroke="#8A93A3" stroke-width="1" stroke-opacity="1.00"/><polyline points="71.2,303.4 71.2,300.3" fill="none" stroke="#8A93A3" stroke-width="1" stroke-opacity="1.00"/><polyline points="75.7,300.1 75.7,296.9" fill="none" stroke="#8A93A3" stroke-width="1" stroke-opacity="1.00"/><polygon points="241.6,291.4 83.3,315.7 79.2,319.9 248.4,293.9" fill="#e4e9f2" fill-opacity="1.00" stroke="none" stroke-width="0.9" stroke-opacity="1.00"/><polygon points="241.6,291.4 83.3,315.7 79.2,319.9 248.4,293.9" fill="none" fill-opacity="1.00" stroke="#8a93a3" stroke-width="0.9" stroke-opacity="1.00"/><polygon points="83.3,315.7 75.7,296.9 71.2,300.3 79.2,319.9" fill="#e4e9f2" fill-opacity="1.00" stroke="none" stroke-width="0.9" stroke-opacity="1.00"/><polygon points="83.3,315.7 75.7,296.9 71.2,300.3 79.2,319.9" fill="none" fill-opacity="1.00" stroke="#8a93a3" stroke-width="0.9" stroke-opacity="1.00"/></g><rect x="0" y="478" width="264" height="58" fill="#2F6BFF"/><g opacity="0.25"><text x="132" y="523.0" font-family="Helvetica" font-size="30.0" font-weight="bold" letter-spacing="0.5" text-anchor="middle" fill="#FFFFFF">LES PRISES</text></g><rect x="0" y="532" width="264" height="4" fill="#FFFFFF" fill-opacity="0.25"/><rect x="0" y="532" width="86.9" height="4" fill="#FFFFFF"/></svg>