<svg xmlns="http://www.w3.org/2000/svg" width="264" height="536" viewBox="0 0 264 536"><g opacity="1.00"><rect width="264" height="536" fill="#FFFFFF"/><polygon points="12.4,246.6 176.1,216.1 251.6,369.7 87.9,400.2" fill="#EEF2FB" fill-opacity="1.00" stroke="#D5DCEA" stroke-width="0.9" stroke-opacity="1.00"/><polygon points="19.2,246.6 84.7,234.4 110.4,286.7 44.9,298.9" fill="#dee2eb" fill-opacity="1.00" stroke="none" stroke-width="0.9" stroke-opacity="1.00"/><polygon points="22.8,247.8 82.8,236.6 106.9,285.6 46.8,296.7" fill="#d0d4dd" fill-opacity="1.00" stroke="none" stroke-width="0.9" stroke-opacity="1.00"/><polygon points="110.7,246.1 86.1,250.6 78.7,235.5 103.2,231.0" fill="#dee2eb" fill-opacity="1.00" stroke="none" stroke-width="0.9" stroke-opacity="1.00"/><polygon points="107.1,244.9 88.0,248.5 82.2,236.7 101.3,233.1" fill="#d0d4dd" fill-opacity="1.00" stroke="none" stroke-width="0.9" stroke-opacity="1.00"/><polygon points="155.1,234.7 184.7,229.1 208.0,276.7 178.4,282.2" fill="#dee2eb" fill-opacity="1.00" stroke="none" stroke-width="0.9" stroke-opacity="1.00"/><polygon points="158.6,235.8 182.8,231.3 204.5,275.5 180.3,280.0" fill="#d0d4dd" fill-opacity="1.00" stroke="none" stroke-width="0.9" stroke-opacity="1.00"/><polygon points="170.0,317.0 77.2,334.3 64.7,308.9 157.5,291.6" fill="#dee2eb" fill-opacity="1.00" stroke="none" stroke-width="0.9" stroke-opacity="1.00"/><polygon points="166.4,315.9 79.1,332.1 68.3,310.0 155.6,293.8" fill="#d0d4dd" fill-opacity="1.00" stroke="none" stroke-width="0.9" stroke-opacity="1.00"/><polygon points="102.8,338.7 152.7,329.4 161.9,348.1 112.0,357.4" fill="#dee2eb" fill-opacity="1.00" stroke="none" stroke-width="0.9" stroke-opacity="1.00"/><polygon points="106.3,339.9 150.8,331.6 158.3,347.0 113.9,355.3" fill="#d0d4dd" fill-opacity="1.00" stroke="none" stroke-width="0.9" stroke-opacity="1.00"/><polygon points="122.1,386.7 179.8,376.0 183.6,383.7 125.9,394.4" fill="#dee2eb" fill-opacity="1.00" stroke="none" stroke-width="0.9" stroke-opacity="1.00"/><polygon points="125.7,387.9 177.9,378.2 180.0,382.5 127.8,392.2" fill="#d0d4dd" fill-opacity="1.00" stroke="none" stroke-width="0.9" stroke-opacity="1.00"/><polygon points="64.6,348.5 88.0,344.1 109.0,386.8 85.6,391.2" fill="#dee2eb" fill-opacity="1.00" stroke="none" stroke-width="0.9" stroke-opacity="1.00"/><polygon points="68.1,349.6 86.1,346.3 105.4,385.6 87.5,389.0" fill="#d0d4dd" fill-opacity="1.00" stroke="none" stroke-width="0.9" stroke-opacity="1.00"/><polyline points="162.9,188.3 166.0,184.0" fill="none" stroke="#8A93A3" stroke-width="1" stroke-opacity="1.00"/><polyline points="162.9,220.4 166.0,216.1" fill="none" stroke="#8A93A3" stroke-width="1" stroke-opacity="1.00"/><polyline points="162.9,220.4 162.9,188.3" fill="none" stroke="#8A93A3" stroke-width="1" stroke-opacity="1.00"/><polyline points="166.0,216.1 166.0,184.0" fill="none" stroke="#8A93A3" stroke-width="1" stroke-opacity="1.00"/><polyline points="117.7,196.7 162.9,188.3" fill="none" stroke="#8A93A3" stroke-width="1" stroke-opacity="1.00"/><polyline points="117.7,228.8 162.9,220.4" fill="none" stroke="#8A93A3" stroke-width="1" stroke-opacity="1.00"/><polyline points="117.7,228.8 117.7,196.7" fill="none" stroke="#8A93A3" stroke-width="1" stroke-opacity="1.00"/><polyline points="162.9,220.4 162.9,188.3" fill="none" stroke="#8A93A3" stroke-width="1" stroke-opacity="1.00"/><polyline points="117.6,193.0 117.7,196.7" fill="none" stroke="#8A93A3" stroke-width="1" stroke-opacity="1.00"/><polyline points="117.6,225.1 117.7,228.8" fill="none" stroke="#8A93A3" stroke-width="1" stroke-opacity="1.00"/><polyline points="117.6,225.1 117.6,193.0" fill="none" stroke="#8A93A3" stroke-width="1" stroke-opacity="1.00"/><polyline points="117.7,228.8 117.7,196.7" fill="none" stroke="#8A93A3" stroke-width="1" stroke-opacity="1.00"/><polygon points="174.2,218.3 178.0,213.9 178.0,133.6 174.2,138.0" fill="#fdfdfc" fill-opacity="1.00" stroke="none" stroke-width="0.9" stroke-opacity="1.00"/><polyline points="174.2,138.0 178.0,133.6" fill="none" stroke="#8A93A3" stroke-width="1" stroke-opacity="1.00"/><polyline points="174.2,218.3 178.0,213.9" fill="none" stroke="#8A93A3" stroke-width="1" stroke-opacity="1.00"/><polyline points="174.2,218.3 174.2,138.0" fill="none" stroke="#8A93A3" stroke-width="1" stroke-opacity="1.00"/><polyline points="178.0,213.9 178.0,133.6" fill="none" stroke="#8A93A3" stroke-width="1" stroke-opacity="1.00"/><polygon points="117.7,196.7 162.9,188.3 166.0,184.0 117.6,193.0" fill="#e4e9f2" fill-opacity="1.00" stroke="none" stroke-width="0.9" stroke-opacity="1.00"/><polygon points="162.9,220.4 166.0,216.1 166.0,184.0 162.9,188.3" fill="#fcfcfb" fill-opacity="1.00" stroke="none" stroke-width="0.9" stroke-opacity="1.00"/><polygon points="162.9,144.9 166.0,140.7 166.0,135.9 162.9,140.1" fill="#fcfcfb" fill-opacity="1.00" stroke="none" stroke-width="0.9" stroke-opacity="1.00"/><polygon points="117.7,196.7 162.9,188.3 166.0,184.0 117.6,193.0" fill="none" fill-opacity="1.00" stroke="#8a93a3" stroke-width="0.9" stroke-opacity="1.00"/><polygon points="162.9,220.4 174.2,218.3 174.2,138.0 162.9,140.1" fill="#fefefe" fill-opacity="1.00" stroke="none" stroke-width="0.9" stroke-opacity="1.00"/><polyline points="162.9,140.1 174.2,138.0" fill="none" stroke="#8A93A3" stroke-width="1" stroke-opacity="1.00"/><polyline points="162.9,220.4 174.2,218.3" fill="none" stroke="#8A93A3" stroke-width="1" stroke-opacity="1.00"/><polyline points="162.9,220.4 162.9,140.1" fill="none" stroke="#8A93A3" stroke-width="1" stroke-opacity="1.00"/><polyline points="174.2,218.3 174.2,138.0" fill="none" stroke="#8A93A3" stroke-width="1" stroke-opacity="1.00"/><polygon points="117.7,196.5 163.1,188.0 163.1,144.7 117.7,153.1" fill="#7fcfed" fill-opacity="1.00" stroke="none" stroke-width="0.9" stroke-opacity="1.00"/><polygon points="117.7,228.8 162.9,220.4 162.9,188.3 117.7,196.7" fill="#fefefe" fill-opacity="1.00" stroke="none" stroke-width="0.9" stroke-opacity="1.00"/><polygon points="117.7,153.3 162.9,144.9 162.9,140.1 117.7,148.5" fill="#fefefe" fill-opacity="1.00" stroke="none" stroke-width="0.9" stroke-opacity="1.00"/><polygon points="117.6,225.1 117.7,228.8 117.7,196.7 117.6,193.0" fill="#e3ddd6" fill-opacity="1.00" stroke="none" stroke-width="0.9" stroke-opacity="1.00"/><polygon points="117.6,149.7 117.7,153.3 117.7,148.5 117.6,144.9" fill="#e3ddd6" fill-opacity="1.00" stroke="none" stroke-width="0.9" stroke-opacity="1.00"/><polyline points="117.7,153.1 163.1,144.7" fill="none" stroke="#3EB8E5" stroke-width="1" stroke-opacity="1.00"/><polyline points="117.7,196.5 163.1,188.0" fill="none" stroke="#3EB8E5" stroke-width="1" stroke-opacity="1.00"/><polyline points="117.7,196.5 117.7,153.1" fill="none" stroke="#3EB8E5" stroke-width="1" stroke-opacity="1.00"/><polyline points="163.1,188.0 163.1,144.7" fill="none" stroke="#3EB8E5" stroke-width="1" stroke-opacity="1.00"/><polygon points="15.9,247.7 117.7,228.8 117.7,148.5 15.9,167.5" fill="#fefefe" fill-opacity="1.00" stroke="none" stroke-width="0.9" stroke-opacity="1.00"/><polyline points="15.9,167.5 117.7,148.5" fill="none" stroke="#8A93A3" stroke-width="1" stroke-opacity="1.00"/><polyline points="15.9,247.7 117.7,228.8" fill="none" stroke="#8A93A3" stroke-width="1" stroke-opacity="1.00"/><polyline points="15.9,247.7 15.9,167.5" fill="none" stroke="#8A93A3" stroke-width="1" stroke-opacity="1.00"/><polyline points="117.7,228.8 117.7,148.5" fill="none" stroke="#8A93A3" stroke-width="1" stroke-opacity="1.00"/><polygon points="162.9,140.1 174.2,138.0 178.0,133.6 166.0,135.9" fill="#e4e9f2" fill-opacity="1.00" stroke="none" stroke-width="0.9" stroke-opacity="1.00"/><polyline points="162.9,140.1 166.0,135.9" fill="none" stroke="#8A93A3" stroke-width="1" stroke-opacity="1.00"/><polyline points="162.9,144.9 166.0,140.7" fill="none" stroke="#8A93A3" stroke-width="1" stroke-opacity="1.00"/><polyline points="162.9,144.9 162.9,140.1" fill="none" stroke="#8A93A3" stroke-width="1" stroke-opacity="1.00"/><polyline points="166.0,140.7 166.0,135.9" fill="none" stroke="#8A93A3" stroke-width="1" stroke-opacity="1.00"/><polygon points="162.9,140.1 174.2,138.0 178.0,133.6 166.0,135.9" fill="none" fill-opacity="1.00" stroke="#8a93a3" stroke-width="0.9" stroke-opacity="1.00"/><polygon points="8.8,245.4 15.9,247.7 15.9,167.5 8.8,165.1" fill="#f5f3f0" fill-opacity="1.00" stroke="none" stroke-width="0.9" stroke-opacity="1.00"/><polygon points="117.7,148.5 162.9,140.1 166.0,135.9 117.6,144.9" fill="#e4e9f2" fill-opacity="1.00" stroke="none" stroke-width="0.9" stroke-opacity="1.00"/><polyline points="8.8,165.1 15.9,167.5" fill="none" stroke="#8A93A3" stroke-width="1" stroke-opacity="1.00"/><polyline points="8.8,245.4 15.9,247.7" fill="none" stroke="#8A93A3" stroke-width="1" stroke-opacity="1.00"/><polyline points="8.8,245.4 8.8,165.1" fill="none" stroke="#8A93A3" stroke-width="1" stroke-opacity="1.00"/><polyline points="15.9,247.7 15.9,167.5" fill="none" stroke="#8A93A3" stroke-width="1" stroke-opacity="1.00"/><polygon points="117.7,148.5 162.9,140.1 166.0,135.9 117.6,144.9" fill="none" fill-opacity="1.00" stroke="#8a93a3" stroke-width="0.9" stroke-opacity="1.00"/><polyline points="117.7,148.5 162.9,140.1" fill="none" stroke="#8A93A3" stroke-width="1" stroke-opacity="1.00"/><polyline points="117.7,153.3 162.9,144.9" fill="none" stroke="#8A93A3" stroke-width="1" stroke-opacity="1.00"/><polyline points="117.7,153.3 117.7,148.5" fill="none" stroke="#8A93A3" stroke-width="1" stroke-opacity="1.00"/><polyline points="162.9,144.9 162.9,140.1" fill="none" stroke="#8A93A3" stroke-width="1" stroke-opacity="1.00"/><polyline points="117.6,144.9 117.7,148.5" fill="none" stroke="#8A93A3" stroke-width="1" stroke-opacity="1.00"/><polyline points="117.6,149.7 117.7,153.3" fill="none" stroke="#8A93A3" stroke-width="1" stroke-opacity="1.00"/><polyline points="117.6,149.7 117.6,144.9" fill="none" stroke="#8A93A3" stroke-width="1" stroke-opacity="1.00"/><polyline points="117.7,153.3 117.7,148.5" fill="none" stroke="#8A93A3" stroke-width="1" stroke-opacity="1.00"/><polygon points="15.9,167.5 117.7,148.5 117.6,144.9 8.8,165.1" fill="#e4e9f2" fill-opacity="1.00" stroke="none" stroke-width="0.9" stroke-opacity="1.00"/><polygon points="15.9,167.5 117.7,148.5 117.6,144.9 8.8,165.1" fill="none" fill-opacity="1.00" stroke="#8a93a3" stroke-width="0.9" stroke-opacity="1.00"/><polygon points="163.2,290.4 197.4,284.0 195.8,280.7 161.5,287.0" fill="#6ecaec" fill-opacity="1.00" stroke="none" stroke-width="0.9" stroke-opacity="1.00"/><polygon points="163.2,290.4 197.4,284.0 195.8,280.7 161.5,287.0" fill="none" fill-opacity="1.00" stroke="#37a2ca" stroke-width="0.9" stroke-opacity="1.00"/><polyline points="163.2,290.4 197.4,284.0" fill="none" stroke="#37a2ca" stroke-width="1" stroke-opacity="1.00"/><polyline points="163.2,291.0 197.4,284.7" fill="none" stroke="#37a2ca" stroke-width="1" stroke-opacity="1.00"/><polyline points="163.2,291.0 163.2,290.4" fill="none" stroke="#37a2ca" stroke-width="1" stroke-opacity="1.00"/><polyline points="197.4,284.7 197.4,284.0" fill="none" stroke="#37a2ca" stroke-width="1" stroke-opacity="1.00"/><polyline points="161.5,287.0 163.2,290.4" fill="none" stroke="#37a2ca" stroke-width="1" stroke-opacity="1.00"/><polyline points="161.5,287.7 163.2,291.0" fill="none" stroke="#37a2ca" stroke-width="1" stroke-opacity="1.00"/><polyline points="161.5,287.7 161.5,287.0" fill="none" stroke="#37a2ca" stroke-width="1" stroke-opacity="1.00"/><polyline points="163.2,291.0 163.2,290.4" fill="none" stroke="#37a2ca" stroke-width="1" stroke-opacity="1.00"/><polygon points="174.2,218.3 232.5,336.8 232.5,256.6 174.2,138.0" fill="#e7e3dc" fill-opacity="1.00" stroke="none" stroke-width="0.9" stroke-opacity="1.00"/><polyline points="174.2,138.0 232.5,256.6" fill="none" stroke="#8A93A3" stroke-width="1" stroke-opacity="1.00"/><polyline points="174.2,218.3 232.5,336.8" fill="none" stroke="#8A93A3" stroke-width="1" stroke-opacity="1.00"/><polyline points="174.2,218.3 174.2,138.0" fill="none" stroke="#8A93A3" stroke-width="1" stroke-opacity="1.00"/><polyline points="232.5,336.8 232.5,256.6" fill="none" stroke="#8A93A3" stroke-width="1" stroke-opacity="1.00"/><polygon points="195.8,281.3 197.4,284.7 197.4,204.4 195.8,201.1" fill="#e7e3dc" fill-opacity="1.00" stroke="none" stroke-width="0.9" stroke-opacity="1.00"/><polygon points="197.4,284.7 211.5,282.0 211.5,201.8 197.4,204.4" fill="#fefefe" fill-opacity="1.00" stroke="none" stroke-width="0.9" stroke-opacity="1.00"/><polyline points="195.8,201.1 197.4,204.4" fill="none" stroke="#8A93A3" stroke-width="1" stroke-opacity="1.00"/><polyline points="195.8,281.3 197.4,284.7" fill="none" stroke="#8A93A3" stroke-width="1" stroke-opacity="1.00"/><polyline points="195.8,281.3 195.8,201.1" fill="none" stroke="#8A93A3" stroke-width="1" stroke-opacity="1.00"/><polyline points="197.4,284.7 197.4,204.4" fill="none" stroke="#8A93A3" stroke-width="1" stroke-opacity="1.00"/><polygon points="163.2,291.0 197.4,284.7 197.4,218.9 163.2,225.2" fill="none" fill-opacity="1.00" stroke="#E8A13B" stroke-width="0.9" stroke-opacity="1.00"/><polyline points="197.4,204.4 211.5,201.8" fill="none" stroke="#8A93A3" stroke-width="1" stroke-opacity="1.00"/><polyline points="197.4,284.7 211.5,282.0" fill="none" stroke="#8A93A3" stroke-width="1" stroke-opacity="1.00"/><polyline points="197.4,284.7 197.4,204.4" fill="none" stroke="#8A93A3" stroke-width="1" stroke-opacity="1.00"/><polyline points="211.5,282.0 211.5,201.8" fill="none" stroke="#8A93A3" stroke-width="1" stroke-opacity="1.00"/><polygon points="163.2,225.2 197.4,218.9 197.4,204.4 163.2,210.8" fill="#fefefe" fill-opacity="1.00" stroke="none" stroke-width="0.9" stroke-opacity="1.00"/><polygon points="163.2,291.0 197.4,284.7 197.4,284.0 163.2,290.4" fill="#7fcfed" fill-opacity="1.00" stroke="none" stroke-width="0.9" stroke-opacity="1.00"/><polygon points="161.5,221.9 163.2,225.2 163.2,210.8 161.5,207.4" fill="#e7e3dc" fill-opacity="1.00" stroke="none" stroke-width="0.9" stroke-opacity="1.00"/><polygon points="161.5,287.7 163.2,291.0 163.2,290.4 161.5,287.0" fill="#6db6cc" fill-opacity="1.00" stroke="none" stroke-width="0.9" stroke-opacity="1.00"/><polygon points="174.2,138.0 232.5,256.6 238.9,257.5 178.0,133.6" fill="#e4e9f2" fill-opacity="1.00" stroke="none" stroke-width="0.9" stroke-opacity="1.00"/><polygon points="174.2,138.0 232.5,256.6 238.9,257.5 178.0,133.6" fill="none" fill-opacity="1.00" stroke="#8a93a3" stroke-width="0.9" stroke-opacity="1.00"/><polygon points="42.3,313.6 163.2,291.0 163.2,210.8 42.3,233.3" fill="#fefefe" fill-opacity="1.00" stroke="none" stroke-width="0.9" stroke-opacity="1.00"/><polyline points="42.3,233.3 163.2,210.8" fill="none" stroke="#8A93A3" stroke-width="1" stroke-opacity="1.00"/><polyline points="42.3,313.6 163.2,291.0" fill="none" stroke="#8A93A3" stroke-width="1" stroke-opacity="1.00"/><polyline points="42.3,313.6 42.3,233.3" fill="none" stroke="#8A93A3" stroke-width="1" stroke-opacity="1.00"/><polyline points="163.2,291.0 163.2,210.8" fill="none" stroke="#8A93A3" stroke-width="1" stroke-opacity="1.00"/><polygon points="197.4,204.4 211.5,201.8 209.9,198.4 195.8,201.1" fill="#e4e9f2" fill-opacity="1.00" stroke="none" stroke-width="0.9" stroke-opacity="1.00"/><polygon points="197.4,204.4 211.5,201.8 209.9,198.4 195.8,201.1" fill="none" fill-opacity="1.00" stroke="#8a93a3" stroke-width="0.9" stroke-opacity="1.00"/><polyline points="163.2,210.8 197.4,204.4" fill="none" stroke="#8A93A3" stroke-width="1" stroke-opacity="1.00"/><polyline points="163.2,225.2 197.4,218.9" fill="none" stroke="#8A93A3" stroke-width="1" stroke-opacity="1.00"/><polyline points="163.2,225.2 163.2,210.8" fill="none" stroke="#8A93A3" stroke-width="1" stroke-opacity="1.00"/><polyline points="197.4,218.9 197.4,204.4" fill="none" stroke="#8A93A3" stroke-width="1" stroke-opacity="1.00"/><polyline points="161.5,207.4 163.2,210.8" fill="none" stroke="#8A93A3" stroke-width="1" stroke-opacity="1.00"/><polyline points="161.5,221.9 163.2,225.2" fill="none" stroke="#8A93A3" stroke-width="1" stroke-opacity="1.00"/><polyline points="161.5,221.9 161.5,207.4" fill="none" stroke="#8A93A3" stroke-width="1" stroke-opacity="1.00"/><polyline points="163.2,225.2 163.2,210.8" fill="none" stroke="#8A93A3" stroke-width="1" stroke-opacity="1.00"/><polygon points="163.2,210.8 197.4,204.4 195.8,201.1 161.5,207.4" fill="#e4e9f2" fill-opacity="1.00" stroke="none" stroke-width="0.9" stroke-opacity="1.00"/><polygon points="163.2,210.8 197.4,204.4 195.8,201.1 161.5,207.4" fill="none" fill-opacity="1.00" stroke="#8a93a3" stroke-width="0.9" stroke-opacity="1.00"/><polygon points="40.7,310.2 42.3,313.6 42.3,233.3 40.7,230.0" fill="#e7e3dc" fill-opacity="1.00" stroke="none" stroke-width="0.9" stroke-opacity="1.00"/><polyline points="40.7,230.0 42.3,233.3" fill="none" stroke="#8A93A3" stroke-width="1" stroke-opacity="1.00"/><polyline points="40.7,310.2 42.3,313.6" fill="none" stroke="#8A93A3" stroke-width="1" stroke-opacity="1.00"/><polyline points="40.7,310.2 40.7,230.0" fill="none" stroke="#8A93A3" stroke-width="1" stroke-opacity="1.00"/><polyline points="42.3,313.6 42.3,233.3" fill="none" stroke="#8A93A3" stroke-width="1" stroke-opacity="1.00"/><polyline points="232.5,336.2 242.9,357.3" fill="none" stroke="#37a2ca" stroke-width="1" stroke-opacity="1.00"/><polyline points="232.5,336.8 242.9,357.9" fill="none" stroke="#37a2ca" stroke-width="1" stroke-opacity="1.00"/><polyline points="232.5,336.8 232.5,336.2" fill="none" stroke="#37a2ca" stroke-width="1" stroke-opacity="1.00"/><polyline points="242.9,357.9 242.9,357.3" fill="none" stroke="#37a2ca" stroke-width="1" stroke-opacity="1.00"/><polygon points="232.5,336.2 242.9,357.3 249.7,359.2 238.9,337.1" fill="#6ecaec" fill-opacity="1.00" stroke="none" stroke-width="0.9" stroke-opacity="1.00"/><polygon points="232.5,336.2 242.9,357.3 249.7,359.2 238.9,337.1" fill="none" fill-opacity="1.00" stroke="#37a2ca" stroke-width="0.9" stroke-opacity="1.00"/><polygon points="42.3,233.3 163.2,210.8 161.5,207.4 40.7,230.0" fill="#e4e9f2" fill-opacity="1.00" stroke="none" stroke-width="0.9" stroke-opacity="1.00"/><polygon points="42.3,233.3 163.2,210.8 161.5,207.4 40.7,230.0" fill="none" fill-opacity="1.00" stroke="#8a93a3" stroke-width="0.9" stroke-opacity="1.00"/><polyline points="242.9,357.3 249.7,359.2" fill="none" stroke="#37a2ca" stroke-width="1" stroke-opacity="1.00"/><polyline points="242.9,357.9 249.7,359.8" fill="none" stroke="#37a2ca" stroke-width="1" stroke-opacity="1.00"/><polyline points="242.9,357.9 242.9,357.3" fill="none" stroke="#37a2ca" stroke-width="1" stroke-opacity="1.00"/><polyline points="249.7,359.8 249.7,359.2" fill="none" stroke="#37a2ca" stroke-width="1" stroke-opacity="1.00"/><polygon points="232.5,336.8 238.9,337.7 238.9,257.5 232.5,256.6" fill="#f9f8f6" fill-opacity="1.00" stroke="none" stroke-width="0.9" stroke-opacity="1.00"/><polyline points="232.5,256.6 238.9,257.5" fill="none" stroke="#8A93A3" stroke-width="1" stroke-opacity="1.00"/><polyline points="232.5,336.8 238.9,337.7" fill="none" stroke="#8A93A3" stroke-width="1" stroke-opacity="1.00"/><polyline points="232.5,336.8 232.5,256.6" fill="none" stroke="#8A93A3" stroke-width="1" stroke-opacity="1.00"/><polyline points="238.9,337.7 238.9,257.5" fill="none" stroke="#8A93A3" stroke-width="1" stroke-opacity="1.00"/><polygon points="232.5,336.8 242.9,357.9 242.9,292.1 232.5,271.0" fill="none" fill-opacity="1.00" stroke="#E8A13B" stroke-width="0.9" stroke-opacity="1.00"/><polygon points="232.5,271.0 242.9,292.1 242.9,277.7 232.5,256.6" fill="#e7e3dc" fill-opacity="1.00" stroke="none" stroke-width="0.9" stroke-opacity="1.00"/><polygon points="232.5,336.8 242.9,357.9 242.9,357.3 232.5,336.2" fill="#6db6cc" fill-opacity="1.00" stroke="none" stroke-width="0.9" stroke-opacity="1.00"/><polygon points="242.9,292.1 249.7,294.0 249.7,279.6 242.9,277.7" fill="#f6f5f2" fill-opacity="1.00" stroke="none" stroke-width="0.9" stroke-opacity="1.00"/><polygon points="242.9,357.9 249.7,359.8 249.7,359.2 242.9,357.3" fill="#79c6e1" fill-opacity="1.00" stroke="none" stroke-width="0.9" stroke-opacity="1.00"/><polygon points="242.9,357.9 248.1,368.5 248.1,288.3 242.9,277.7" fill="#e7e3dc" fill-opacity="1.00" stroke="none" stroke-width="0.9" stroke-opacity="1.00"/><polyline points="242.9,277.7 248.1,288.3" fill="none" stroke="#8A93A3" stroke-width="1" stroke-opacity="1.00"/><polyline points="242.9,357.9 248.1,368.5" fill="none" stroke="#8A93A3" stroke-width="1" stroke-opacity="1.00"/><polyline points="242.9,357.9 242.9,277.7" fill="none" stroke="#8A93A3" stroke-width="1" stroke-opacity="1.00"/><polyline points="248.1,368.5 248.1,288.3" fill="none" stroke="#8A93A3" stroke-width="1" stroke-opacity="1.00"/><polyline points="232.5,256.6 242.9,277.7" fill="none" stroke="#8A93A3" stroke-width="1" stroke-opacity="1.00"/><polyline points="232.5,271.0 242.9,292.1" fill="none" stroke="#8A93A3" stroke-width="1" stroke-opacity="1.00"/><polyline points="232.5,271.0 232.5,256.6" fill="none" stroke="#8A93A3" stroke-width="1" stroke-opacity="1.00"/><polyline points="242.9,292.1 242.9,277.7" fill="none" stroke="#8A93A3" stroke-width="1" stroke-opacity="1.00"/><polygon points="248.1,368.5 255.2,370.9 255.2,290.6 248.1,288.3" fill="#f5f3f0" fill-opacity="1.00" stroke="none" stroke-width="0.9" stroke-opacity="1.00"/><polyline points="248.1,288.3 255.2,290.6" fill="none" stroke="#8A93A3" stroke-width="1" stroke-opacity="1.00"/><polyline points="248.1,368.5 255.2,370.9" fill="none" stroke="#8A93A3" stroke-width="1" stroke-opacity="1.00"/><polyline points="248.1,368.5 248.1,288.3" fill="none" stroke="#8A93A3" stroke-width="1" stroke-opacity="1.00"/><polyline points="255.2,370.9 255.2,290.6" fill="none" stroke="#8A93A3" stroke-width="1" stroke-opacity="1.00"/><polygon points="232.5,256.6 242.9,277.7 249.7,279.6 238.9,257.5" fill="#e4e9f2" fill-opacity="1.00" stroke="none" stroke-width="0.9" stroke-opacity="1.00"/><polygon points="232.5,256.6 242.9,277.7 249.7,279.6 238.9,257.5" fill="none" fill-opacity="1.00" stroke="#8a93a3" stroke-width="0.9" stroke-opacity="1.00"/><polyline points="242.9,277.7 249.7,279.6" fill="none" stroke="#8A93A3" stroke-width="1" stroke-opacity="1.00"/><polyline points="242.9,292.1 249.7,294.0" fill="none" stroke="#8A93A3" stroke-width="1" stroke-opacity="1.00"/><polyline points="242.9,292.1 242.9,277.7" fill="none" stroke="#8A93A3" stroke-width="1" stroke-opacity="1.00"/><polyline points="249.7,294.0 249.7,279.6" fill="none" stroke="#8A93A3" stroke-width="1" stroke-opacity="1.00"/><polygon points="242.9,277.7 248.1,288.3 255.2,290.6 249.7,279.6" fill="#e4e9f2" fill-opacity="1.00" stroke="none" stroke-width="0.9" stroke-opacity="1.00"/><polygon points="242.9,277.7 248.1,288.3 255.2,290.6 249.7,279.6" fill="none" fill-opacity="1.00" stroke="#8a93a3" stroke-width="0.9" stroke-opacity="1.00"/><polygon points="85.8,246.7 103.4,243.4 103.4,227.4 85.8,230.6" fill="#e7eefb" fill-opacity="1.00" stroke="#2F6BFF" stroke-width="0.9" stroke-opacity="1.00"/><polygon points="80.7,236.2 85.8,246.7 85.8,230.6 80.7,220.1" fill="#d1d3d9" fill-opacity="1.00" stroke="#2F6BFF" stroke-width="0.9" stroke-opacity="1.00"/><polygon points="98.2,216.9 80.7,220.1 85.8,230.6 103.4,227.4" fill="#e7eefc" fill-opacity="1.00" stroke="#2F6BFF" stroke-width="0.9" stroke-opacity="1.00"/><polygon points="95.0,244.8 103.3,243.3 103.3,228.5 95.0,230.0" fill="#f1f5fc" fill-opacity="1.00" stroke="#2F6BFF" stroke-width="0.9" stroke-opacity="1.00"/><polygon points="94.8,244.4 95.0,244.8 95.0,230.0 94.8,229.6" fill="#dbdada" fill-opacity="1.00" stroke="#2F6BFF" stroke-width="0.9" stroke-opacity="1.00"/><polygon points="103.0,228.1 94.8,229.6 95.0,230.0 103.3,228.5" fill="#f2f5fd" fill-opacity="1.00" stroke="#2F6BFF" stroke-width="0.9" stroke-opacity="1.00"/><polygon points="86.4,246.4 94.7,244.9 94.7,230.1 86.4,231.6" fill="#f1f5fc" fill-opacity="1.00" stroke="#2F6BFF" stroke-width="0.9" stroke-opacity="1.00"/><polygon points="86.2,246.0 86.4,246.4 86.4,231.6 86.2,231.2" fill="#dbdada" fill-opacity="1.00" stroke="#2F6BFF" stroke-width="0.9" stroke-opacity="1.00"/><polygon points="94.4,229.7 86.2,231.2 86.4,231.6 94.7,230.1" fill="#f2f5fd" fill-opacity="1.00" stroke="#2F6BFF" stroke-width="0.9" stroke-opacity="1.00"/><polygon points="95.5,238.8 96.0,238.7 96.0,236.2 95.5,236.3" fill="#adb1bb" fill-opacity="1.00" stroke="#2F6BFF" stroke-width="0.9" stroke-opacity="1.00"/><polygon points="95.3,238.5 95.5,238.8 95.5,236.3 95.3,236.0" fill="#9a999c" fill-opacity="1.00" stroke="#2F6BFF" stroke-width="0.9" stroke-opacity="1.00"/><polygon points="95.8,235.9 95.3,236.0 95.5,236.3 96.0,236.2" fill="#a9aeb8" fill-opacity="1.00" stroke="#2F6BFF" stroke-width="0.9" stroke-opacity="1.00"/><polygon points="93.9,239.1 94.4,239.0 94.4,236.5 93.9,236.6" fill="#adb1bb" fill-opacity="1.00" stroke="#2F6BFF" stroke-width="0.9" stroke-opacity="1.00"/><polygon points="93.7,238.8 93.9,239.1 93.9,236.6 93.7,236.3" fill="#9a999c" fill-opacity="1.00" stroke="#2F6BFF" stroke-width="0.9" stroke-opacity="1.00"/><polygon points="94.3,236.2 93.7,236.3 93.9,236.6 94.4,236.5" fill="#a9aeb8" fill-opacity="1.00" stroke="#2F6BFF" stroke-width="0.9" stroke-opacity="1.00"/><polygon points="178.3,278.5 200.9,274.3 200.9,206.9 178.3,211.1" fill="#e7eefb" fill-opacity="1.00" stroke="#2F6BFF" stroke-width="0.9" stroke-opacity="1.00"/><polygon points="157.7,236.6 178.3,278.5 178.3,211.1 157.7,169.2" fill="#d1d3d9" fill-opacity="1.00" stroke="#2F6BFF" stroke-width="0.9" stroke-opacity="1.00"/><polygon points="178.3,211.1 200.9,206.9 180.3,165.0 157.7,169.2" fill="#e7eefc" fill-opacity="1.00" stroke="#2F6BFF" stroke-width="0.9" stroke-opacity="1.00"/><polygon points="158.2,233.8 168.8,231.9 168.8,169.9 158.2,171.8" fill="#f1f5fc" fill-opacity="1.00" stroke="#2F6BFF" stroke-width="0.9" stroke-opacity="1.00"/><polygon points="157.3,232.1 158.2,233.8 158.2,171.8 157.3,170.1" fill="#dbdada" fill-opacity="1.00" stroke="#2F6BFF" stroke-width="0.9" stroke-opacity="1.00"/><polygon points="158.2,171.8 168.8,169.9 168.0,168.1 157.3,170.1" fill="#f2f5fd" fill-opacity="1.00" stroke="#2F6BFF" stroke-width="0.9" stroke-opacity="1.00"/><polygon points="169.3,231.8 179.9,229.8 179.9,167.8 169.3,169.8" fill="#f1f5fc" fill-opacity="1.00" stroke="#2F6BFF" stroke-width="0.9" stroke-opacity="1.00"/><polygon points="168.4,230.1 169.3,231.8 169.3,169.8 168.4,168.0" fill="#dbdada" fill-opacity="1.00" stroke="#2F6BFF" stroke-width="0.9" stroke-opacity="1.00"/><polygon points="169.3,169.8 179.9,167.8 179.0,166.1 168.4,168.0" fill="#f2f5fd" fill-opacity="1.00" stroke="#2F6BFF" stroke-width="0.9" stroke-opacity="1.00"/><polygon points="167.0,205.2 167.7,205.0 167.7,194.3 167.0,194.4" fill="#adb1bb" fill-opacity="1.00" stroke="#2F6BFF" stroke-width="0.9" stroke-opacity="1.00"/><polygon points="166.4,203.9 167.0,205.2 167.0,194.4 166.4,193.1" fill="#9a999c" fill-opacity="1.00" stroke="#2F6BFF" stroke-width="0.9" stroke-opacity="1.00"/><polygon points="167.0,194.4 167.7,194.3 167.1,193.0 166.4,193.1" fill="#a9aeb8" fill-opacity="1.00" stroke="#2F6BFF" stroke-width="0.9" stroke-opacity="1.00"/><polygon points="169.1,204.8 169.8,204.7 169.8,193.9 169.1,194.0" fill="#adb1bb" fill-opacity="1.00" stroke="#2F6BFF" stroke-width="0.9" stroke-opacity="1.00"/><polygon points="168.4,203.5 169.1,204.8 169.1,194.0 168.4,192.7" fill="#9a999c" fill-opacity="1.00" stroke="#2F6BFF" stroke-width="0.9" stroke-opacity="1.00"/><polygon points="169.1,194.0 169.8,193.9 169.1,192.6 168.4,192.7" fill="#a9aeb8" fill-opacity="1.00" stroke="#2F6BFF" stroke-width="0.9" stroke-opacity="1.00"/><polygon points="45.3,291.0 99.1,281.0 99.1,274.6 45.3,284.6" fill="#f3daa5" fill-opacity="1.00" stroke="#2F6BFF" stroke-width="0.9" stroke-opacity="1.00"/><polygon points="24.8,249.2 45.3,291.0 45.3,284.6 24.8,242.8" fill="#ddc087" fill-opacity="1.00" stroke="#2F6BFF" stroke-width="0.9" stroke-opacity="1.00"/><polygon points="45.3,284.6 99.1,274.6 78.6,232.8 24.8,242.8" fill="#f4d9a1" fill-opacity="1.00" stroke="#2F6BFF" stroke-width="0.9" stroke-opacity="1.00"/><polygon points="42.9,285.0 101.4,274.1 101.4,268.3 42.9,279.2" fill="#f8eacd" fill-opacity="1.00" stroke="#2F6BFF" stroke-width="0.9" stroke-opacity="1.00"/><polygon points="21.2,240.8 42.9,285.0 42.9,279.2 21.2,235.1" fill="#e1cfad" fill-opacity="1.00" stroke="#2F6BFF" stroke-width="0.9" stroke-opacity="1.00"/><polygon points="42.9,279.2 101.4,268.3 79.7,224.2 21.2,235.1" fill="#f9eacb" fill-opacity="1.00" stroke="#2F6BFF" stroke-width="0.9" stroke-opacity="1.00"/><polygon points="46.6,277.5 70.0,273.2 70.0,270.6 46.6,274.9" fill="#f8eacd" fill-opacity="1.00" stroke="#2F6BFF" stroke-width="0.9" stroke-opacity="1.00"/><polygon points="41.4,267.0 46.6,277.5 46.6,274.9 41.4,264.4" fill="#e1cfad" fill-opacity="1.00" stroke="#2F6BFF" stroke-width="0.9" stroke-opacity="1.00"/><polygon points="46.6,274.9 70.0,270.6 64.8,260.0 41.4,264.4" fill="#f9eacb" fill-opacity="1.00" stroke="#2F6BFF" stroke-width="0.9" stroke-opacity="1.00"/><polygon points="73.5,272.5 96.9,268.1 96.9,265.6 73.5,269.9" fill="#f8eacd" fill-opacity="1.00" stroke="#2F6BFF" stroke-width="0.9" stroke-opacity="1.00"/><polygon points="68.3,261.9 73.5,272.5 73.5,269.9 68.3,259.4" fill="#e1cfad" fill-opacity="1.00" stroke="#2F6BFF" stroke-width="0.9" stroke-opacity="1.00"/><polygon points="73.5,269.9 96.9,265.6 91.7,255.0 68.3,259.4" fill="#f9eacb" fill-opacity="1.00" stroke="#2F6BFF" stroke-width="0.9" stroke-opacity="1.00"/><polygon points="44.8,295.3 103.3,284.4 103.3,258.7 44.8,269.6" fill="#f3daa5" fill-opacity="1.00" stroke="#2F6BFF" stroke-width="0.9" stroke-opacity="1.00"/><polygon points="43.2,291.9 44.8,295.3 44.8,269.6 43.2,266.2" fill="#ddc087" fill-opacity="1.00" stroke="#2F6BFF" stroke-width="0.9" stroke-opacity="1.00"/><polygon points="44.8,269.6 103.3,258.7 101.7,255.3 43.2,266.2" fill="#f4d9a1" fill-opacity="1.00" stroke="#2F6BFF" stroke-width="0.9" stroke-opacity="1.00"/><polygon points="76.3,329.0 162.1,313.0 162.1,301.4 76.3,317.4" fill="#f3daa5" fill-opacity="1.00" stroke="#2F6BFF" stroke-width="0.9" stroke-opacity="1.00"/><polygon points="66.7,309.5 76.3,329.0 76.3,317.4 66.7,298.0" fill="#ddc087" fill-opacity="1.00" stroke="#2F6BFF" stroke-width="0.9" stroke-opacity="1.00"/><polygon points="152.5,282.0 66.7,298.0 76.3,317.4 162.1,301.4" fill="#f4d9a1" fill-opacity="1.00" stroke="#2F6BFF" stroke-width="0.9" stroke-opacity="1.00"/><polygon points="119.6,308.4 148.8,303.0 148.8,297.6 119.6,303.0" fill="#f8eacd" fill-opacity="1.00" stroke="#2F6BFF" stroke-width="0.9" stroke-opacity="1.00"/><polygon points="112.3,293.6 119.6,308.4 119.6,303.0 112.3,288.2" fill="#e1cfad" fill-opacity="1.00" stroke="#2F6BFF" stroke-width="0.9" stroke-opacity="1.00"/><polygon points="141.5,282.8 112.3,288.2 119.6,303.0 148.8,297.6" fill="#f9eacb" fill-opacity="1.00" stroke="#2F6BFF" stroke-width="0.9" stroke-opacity="1.00"/><polygon points="88.7,314.2 117.9,308.7 117.9,303.3 88.7,308.8" fill="#f8eacd" fill-opacity="1.00" stroke="#2F6BFF" stroke-width="0.9" stroke-opacity="1.00"/><polygon points="81.5,299.4 88.7,314.2 88.7,308.8 81.5,294.0" fill="#e1cfad" fill-opacity="1.00" stroke="#2F6BFF" stroke-width="0.9" stroke-opacity="1.00"/><polygon points="110.6,288.6 81.5,294.0 88.7,308.8 117.9,303.3" fill="#f9eacb" fill-opacity="1.00" stroke="#2F6BFF" stroke-width="0.9" stroke-opacity="1.00"/><polygon points="68.4,301.4 154.2,285.4 154.2,271.3 68.4,287.2" fill="#f3daa5" fill-opacity="1.00" stroke="#2F6BFF" stroke-width="0.9" stroke-opacity="1.00"/><polygon points="66.7,298.0 68.4,301.4 68.4,287.2 66.7,283.9" fill="#ddc087" fill-opacity="1.00" stroke="#2F6BFF" stroke-width="0.9" stroke-opacity="1.00"/><polygon points="152.5,267.9 66.7,283.9 68.4,287.2 154.2,271.3" fill="#f4d9a1" fill-opacity="1.00" stroke="#2F6BFF" stroke-width="0.9" stroke-opacity="1.00"/><polygon points="151.3,304.4 162.5,302.3 162.5,293.3 151.3,295.4" fill="#f3daa5" fill-opacity="1.00" stroke="#2F6BFF" stroke-width="0.9" stroke-opacity="1.00"/><polygon points="143.2,287.9 151.3,304.4 151.3,295.4 143.2,278.9" fill="#ddc087" fill-opacity="1.00" stroke="#2F6BFF" stroke-width="0.9" stroke-opacity="1.00"/><polygon points="154.4,276.8 143.2,278.9 151.3,295.4 162.5,293.3" fill="#f4d9a1" fill-opacity="1.00" stroke="#2F6BFF" stroke-width="0.9" stroke-opacity="1.00"/><polygon points="76.7,318.3 87.8,316.2 87.8,307.2 76.7,309.3" fill="#f3daa5" fill-opacity="1.00" stroke="#2F6BFF" stroke-width="0.9" stroke-opacity="1.00"/><polygon points="68.6,301.8 76.7,318.3 76.7,309.3 68.6,292.8" fill="#ddc087" fill-opacity="1.00" stroke="#2F6BFF" stroke-width="0.9" stroke-opacity="1.00"/><polygon points="79.8,290.7 68.6,292.8 76.7,309.3 87.8,307.2" fill="#f4d9a1" fill-opacity="1.00" stroke="#2F6BFF" stroke-width="0.9" stroke-opacity="1.00"/><polygon points="111.9,341.3 154.8,333.3 154.8,332.3 111.9,340.3" fill="#f1f5fc" fill-opacity="1.00" stroke="#2F6BFF" stroke-width="0.9" stroke-opacity="1.00"/><polygon points="104.8,326.8 111.9,341.3 111.9,340.3 104.8,325.9" fill="#dbdada" fill-opacity="1.00" stroke="#2F6BFF" stroke-width="0.9" stroke-opacity="1.00"/><polygon points="111.9,340.3 154.8,332.3 147.7,317.9 104.8,325.9" fill="#f2f5fd" fill-opacity="1.00" stroke="#2F6BFF" stroke-width="0.9" stroke-opacity="1.00"/><polygon points="106.4,340.7 109.8,340.0 109.8,327.5 106.4,328.1" fill="#adb1bb" fill-opacity="1.00" stroke="#2F6BFF" stroke-width="0.9" stroke-opacity="1.00"/><polygon points="105.8,339.5 106.4,340.7 106.4,328.1 105.8,327.0" fill="#9a999c" fill-opacity="1.00" stroke="#2F6BFF" stroke-width="0.9" stroke-opacity="1.00"/><polygon points="106.4,328.1 109.8,327.5 109.2,326.3 105.8,327.0" fill="#a9aeb8" fill-opacity="1.00" stroke="#2F6BFF" stroke-width="0.9" stroke-opacity="1.00"/><polygon points="144.1,333.6 147.5,333.0 147.5,320.5 144.1,321.1" fill="#adb1bb" fill-opacity="1.00" stroke="#2F6BFF" stroke-width="0.9" stroke-opacity="1.00"/><polygon points="143.5,332.5 144.1,333.6 144.1,321.1 143.5,319.9" fill="#9a999c" fill-opacity="1.00" stroke="#2F6BFF" stroke-width="0.9" stroke-opacity="1.00"/><polygon points="144.1,321.1 147.5,320.5 147.0,319.3 143.5,319.9" fill="#a9aeb8" fill-opacity="1.00" stroke="#2F6BFF" stroke-width="0.9" stroke-opacity="1.00"/><polygon points="112.6,353.3 116.0,352.7 116.0,340.2 112.6,340.8" fill="#adb1bb" fill-opacity="1.00" stroke="#2F6BFF" stroke-width="0.9" stroke-opacity="1.00"/><polygon points="112.0,352.2 112.6,353.3 112.6,340.8 112.0,339.7" fill="#9a999c" fill-opacity="1.00" stroke="#2F6BFF" stroke-width="0.9" stroke-opacity="1.00"/><polygon points="112.6,340.8 116.0,340.2 115.5,339.0 112.0,339.7" fill="#a9aeb8" fill-opacity="1.00" stroke="#2F6BFF" stroke-width="0.9" stroke-opacity="1.00"/><polygon points="150.3,346.3 153.8,345.7 153.8,333.1 150.3,333.8" fill="#adb1bb" fill-opacity="1.00" stroke="#2F6BFF" stroke-width="0.9" stroke-opacity="1.00"/><polygon points="149.8,345.2 150.3,346.3 150.3,333.8 149.8,332.6" fill="#9a999c" fill-opacity="1.00" stroke="#2F6BFF" stroke-width="0.9" stroke-opacity="1.00"/><polygon points="150.3,333.8 153.8,333.1 153.2,332.0 149.8,332.6" fill="#a9aeb8" fill-opacity="1.00" stroke="#2F6BFF" stroke-width="0.9" stroke-opacity="1.00"/><polygon points="85.5,387.5 101.9,384.5 101.9,323.5 85.5,326.5" fill="#e7eefb" fill-opacity="1.00" stroke="#2F6BFF" stroke-width="0.9" stroke-opacity="1.00"/><polygon points="67.2,350.3 85.5,387.5 85.5,326.5 67.2,289.3" fill="#d1d3d9" fill-opacity="1.00" stroke="#2F6BFF" stroke-width="0.9" stroke-opacity="1.00"/><polygon points="85.5,326.5 101.9,323.5 83.5,286.2 67.2,289.3" fill="#e7eefc" fill-opacity="1.00" stroke="#2F6BFF" stroke-width="0.9" stroke-opacity="1.00"/><polygon points="67.5,347.8 75.2,346.3 75.2,290.2 67.5,291.7" fill="#f1f5fc" fill-opacity="1.00" stroke="#2F6BFF" stroke-width="0.9" stroke-opacity="1.00"/><polygon points="66.7,346.2 67.5,347.8 67.5,291.7 66.7,290.1" fill="#dbdada" fill-opacity="1.00" stroke="#2F6BFF" stroke-width="0.9" stroke-opacity="1.00"/><polygon points="67.5,291.7 75.2,290.2 74.4,288.7 66.7,290.1" fill="#f2f5fd" fill-opacity="1.00" stroke="#2F6BFF" stroke-width="0.9" stroke-opacity="1.00"/><polygon points="75.5,346.3 83.2,344.8 83.2,288.7 75.5,290.2" fill="#f1f5fc" fill-opacity="1.00" stroke="#2F6BFF" stroke-width="0.9" stroke-opacity="1.00"/><polygon points="74.8,344.7 75.5,346.3 75.5,290.2 74.8,288.6" fill="#dbdada" fill-opacity="1.00" stroke="#2F6BFF" stroke-width="0.9" stroke-opacity="1.00"/><polygon points="75.5,290.2 83.2,288.7 82.5,287.2 74.8,288.6" fill="#f2f5fd" fill-opacity="1.00" stroke="#2F6BFF" stroke-width="0.9" stroke-opacity="1.00"/><polygon points="73.8,322.2 74.3,322.1 74.3,312.3 73.8,312.4" fill="#adb1bb" fill-opacity="1.00" stroke="#2F6BFF" stroke-width="0.9" stroke-opacity="1.00"/><polygon points="73.2,321.0 73.8,322.2 73.8,312.4 73.2,311.3" fill="#9a999c" fill-opacity="1.00" stroke="#2F6BFF" stroke-width="0.9" stroke-opacity="1.00"/><polygon points="73.8,312.4 74.3,312.3 73.7,311.2 73.2,311.3" fill="#a9aeb8" fill-opacity="1.00" stroke="#2F6BFF" stroke-width="0.9" stroke-opacity="1.00"/><polygon points="75.3,321.9 75.8,321.8 75.8,312.0 75.3,312.1" fill="#adb1bb" fill-opacity="1.00" stroke="#2F6BFF" stroke-width="0.9" stroke-opacity="1.00"/><polygon points="74.7,320.7 75.3,321.9 75.3,312.1 74.7,311.0" fill="#9a999c" fill-opacity="1.00" stroke="#2F6BFF" stroke-width="0.9" stroke-opacity="1.00"/><polygon points="75.3,312.1 75.8,312.0 75.2,310.9 74.7,311.0" fill="#a9aeb8" fill-opacity="1.00" stroke="#2F6BFF" stroke-width="0.9" stroke-opacity="1.00"/><polygon points="125.4,389.9 176.1,380.5 176.1,360.6 125.4,370.0" fill="#adb1bb" fill-opacity="1.00" stroke="#2F6BFF" stroke-width="0.9" stroke-opacity="1.00"/><polygon points="124.1,387.4 125.4,389.9 125.4,370.0 124.1,367.5" fill="#9a999c" fill-opacity="1.00" stroke="#2F6BFF" stroke-width="0.9" stroke-opacity="1.00"/><polygon points="125.4,370.0 176.1,360.6 174.8,358.1 124.1,367.5" fill="#a9aeb8" fill-opacity="1.00" stroke="#2F6BFF" stroke-width="0.9" stroke-opacity="1.00"/><polygon points="141.0,382.4 161.3,378.6 161.3,369.8 141.0,373.6" fill="#e7eefb" fill-opacity="1.00" stroke="#2F6BFF" stroke-width="0.9" stroke-opacity="1.00"/><polygon points="140.6,381.5 141.0,382.4 141.0,373.6 140.6,372.8" fill="#d1d3d9" fill-opacity="1.00" stroke="#2F6BFF" stroke-width="0.9" stroke-opacity="1.00"/><polygon points="141.0,373.6 161.3,369.8 160.9,369.0 140.6,372.8" fill="#e7eefc" fill-opacity="1.00" stroke="#2F6BFF" stroke-width="0.9" stroke-opacity="1.00"/><polygon points="8.8,245.4 58.2,346.0 58.2,265.7 8.8,165.1" fill="#e7e3dc" fill-opacity="0.88" stroke="none" stroke-width="0.9" stroke-opacity="0.91"/><polyline points="8.8,165.1 58.2,265.7" fill="none" stroke="#8A93A3" stroke-width="1" stroke-opacity="1.00"/><polyline points="8.8,245.4 58.2,346.0" fill="none" stroke="#8A93A3" stroke-width="1" stroke-opacity="1.00"/><polyline points="8.8,245.4 8.8,165.1" fill="none" stroke="#8A93A3" stroke-width="1" stroke-opacity="1.00"/><polyline points="58.2,346.0 58.2,265.7" fill="none" stroke="#8A93A3" stroke-width="1" stroke-opacity="1.00"/><polygon points="63.2,263.7 15.9,167.5 8.8,165.1 58.2,265.7" fill="#e4e9f2" fill-opacity="1.00" stroke="none" stroke-width="0.9" stroke-opacity="1.00"/><polygon points="63.2,263.7 15.9,167.5 8.8,165.1 58.2,265.7" fill="none" fill-opacity="1.00" stroke="#8a93a3" stroke-width="0.9" stroke-opacity="1.00"/><polygon points="58.2,346.0 63.2,344.0 63.2,263.7 58.2,265.7" fill="#ffffff" fill-opacity="1.00" stroke="none" stroke-width="0.9" stroke-opacity="1.00"/><polyline points="58.2,265.7 63.2,263.7" fill="none" stroke="#8A93A3" stroke-width="1" stroke-opacity="1.00"/><polyline points="58.2,346.0 63.2,344.0" fill="none" stroke="#8A93A3" stroke-width="1" stroke-opacity="1.00"/><polyline points="58.2,346.0 58.2,265.7" fill="none" stroke="#8A93A3" stroke-width="1" stroke-opacity="1.00"/><polyline points="63.2,344.0 63.2,263.7" fill="none" stroke="#8A93A3" stroke-width="1" stroke-opacity="1.00"/><polyline points="58.2,315.5 76.3,352.3" fill="none" stroke="#8A93A3" stroke-width="1" stroke-opacity="1.00"/><polyline points="58.2,346.0 76.3,382.7" fill="none" stroke="#8A93A3" stroke-width="1" stroke-opacity="1.00"/><polyline points="58.2,346.0 58.2,315.5" fill="none" stroke="#8A93A3" stroke-width="1" stroke-opacity="1.00"/><polyline points="76.3,382.7 76.3,352.3" fill="none" stroke="#8A93A3" stroke-width="1" stroke-opacity="1.00"/><polygon points="80.5,348.7 63.2,313.5 58.2,315.5 76.3,352.3" fill="#e4e9f2" fill-opacity="1.00" stroke="none" stroke-width="0.9" stroke-opacity="1.00"/><polygon points="80.5,348.7 63.2,313.5 58.2,315.5 76.3,352.3" fill="none" fill-opacity="1.00" stroke="#8a93a3" stroke-width="0.9" stroke-opacity="1.00"/><polygon points="58.5,315.3 76.6,352.0 76.6,305.5 58.5,268.8" fill="#6db6cc" fill-opacity="1.00" stroke="none" stroke-width="0.9" stroke-opacity="1.00"/><polygon points="58.2,346.0 76.3,382.7 76.3,352.3 58.2,315.5" fill="#e7e3dc" fill-opacity="0.88" stroke="none" stroke-width="0.9" stroke-opacity="0.91"/><polygon points="58.2,268.9 76.3,305.7 76.3,302.5 58.2,265.7" fill="#e7e3dc" fill-opacity="0.88" stroke="none" stroke-width="0.9" stroke-opacity="0.91"/><polyline points="76.3,352.3 80.5,348.7" fill="none" stroke="#8A93A3" stroke-width="1" stroke-opacity="1.00"/><polyline points="76.3,382.7 80.5,379.2" fill="none" stroke="#8A93A3" stroke-width="1" stroke-opacity="1.00"/><polyline points="76.3,382.7 76.3,352.3" fill="none" stroke="#8A93A3" stroke-width="1" stroke-opacity="1.00"/><polyline points="80.5,379.2 80.5,348.7" fill="none" stroke="#8A93A3" stroke-width="1" stroke-opacity="1.00"/><polyline points="58.5,268.8 76.6,305.5" fill="none" stroke="#3EB8E5" stroke-width="1" stroke-opacity="1.00"/><polyline points="58.5,315.3 76.6,352.0" fill="none" stroke="#3EB8E5" stroke-width="1" stroke-opacity="1.00"/><polyline points="58.5,315.3 58.5,268.8" fill="none" stroke="#3EB8E5" stroke-width="1" stroke-opacity="1.00"/><polyline points="76.6,352.0 76.6,305.5" fill="none" stroke="#3EB8E5" stroke-width="1" stroke-opacity="1.00"/><polygon points="76.3,382.7 80.5,379.2 80.5,348.7 76.3,352.3" fill="#fefefe" fill-opacity="1.00" stroke="none" stroke-width="0.9" stroke-opacity="1.00"/><polygon points="76.3,305.7 80.5,302.2 80.5,299.0 76.3,302.5" fill="#fefefe" fill-opacity="1.00" stroke="none" stroke-width="0.9" stroke-opacity="1.00"/><polygon points="86.0,402.4 255.2,370.9 255.2,290.6 86.0,322.1" fill="#fefefe" fill-opacity="0.15" stroke="none" stroke-width="0.9" stroke-opacity="0.41"/><polyline points="86.0,322.1 255.2,290.6" fill="none" stroke="#8A93A3" stroke-width="1" stroke-opacity="1.00"/><polyline points="86.0,402.4 255.2,370.9" fill="none" stroke="#8A93A3" stroke-width="1" stroke-opacity="1.00"/><polyline points="86.0,402.4 86.0,322.1" fill="none" stroke="#8A93A3" stroke-width="1" stroke-opacity="1.00"/><polyline points="255.2,370.9 255.2,290.6" fill="none" stroke="#8A93A3" stroke-width="1" stroke-opacity="1.00"/><polygon points="80.5,299.0 63.2,263.7 58.2,265.7 76.3,302.5" fill="#e4e9f2" fill-opacity="1.00" stroke="none" stroke-width="0.9" stroke-opacity="1.00"/><polygon points="80.5,299.0 63.2,263.7 58.2,265.7 76.3,302.5" fill="none" fill-opacity="1.00" stroke="#8a93a3" stroke-width="0.9" stroke-opacity="1.00"/><polyline points="58.2,265.7 76.3,302.5" fill="none" stroke="#8A93A3" stroke-width="1" stroke-opacity="1.00"/><polyline points="58.2,268.9 76.3,305.7" fill="none" stroke="#8A93A3" stroke-width="1" stroke-opacity="1.00"/><polyline points="58.2,268.9 58.2,265.7" fill="none" stroke="#8A93A3" stroke-width="1" stroke-opacity="1.00"/><polyline points="76.3,305.7 76.3,302.5" fill="none" stroke="#8A93A3" stroke-width="1" stroke-opacity="1.00"/><polygon points="76.3,382.7 86.0,402.4 86.0,322.1 76.3,302.5" fill="#e7e3dc" fill-opacity="0.88" stroke="none" stroke-width="0.9" stroke-opacity="0.91"/><polyline points="76.3,302.5 86.0,322.1" fill="none" stroke="#8A93A3" stroke-width="1" stroke-opacity="1.00"/><polyline points="76.3,382.7 86.0,402.4" fill="none" stroke="#8A93A3" stroke-width="1" stroke-opacity="1.00"/><polyline points="76.3,382.7 76.3,302.5" fill="none" stroke="#8A93A3" stroke-width="1" stroke-opacity="1.00"/><polyline points="86.0,402.4 86.0,322.1" fill="none" stroke="#8A93A3" stroke-width="1" stroke-opacity="1.00"/><polygon points="86.0,402.4 89.8,398.0 89.8,317.7 86.0,322.1" fill="#fdfdfc" fill-opacity="1.00" stroke="none" stroke-width="0.9" stroke-opacity="1.00"/><polyline points="86.0,322.1 89.8,317.7" fill="none" stroke="#8A93A3" stroke-width="1" stroke-opacity="1.00"/><polyline points="86.0,402.4 89.8,398.0" fill="none" stroke="#8A93A3" stroke-width="1" stroke-opacity="1.00"/><polyline points="86.0,402.4 86.0,322.1" fill="none" stroke="#8A93A3" stroke-width="1" stroke-opacity="1.00"/><polyline points="89.8,398.0 89.8,317.7" fill="none" stroke="#8A93A3" stroke-width="1" stroke-opacity="1.00"/><polyline points="76.3,302.5 80.5,299.0" fill="none" stroke="#8A93A3" stroke-width="1" stroke-opacity="1.00"/><polyline points="76.3,305.7 80.5,302.2" fill="none" stroke="#8A93A3" stroke-width="1" stroke-opacity="1.00"/><polyline points="76.3,305.7 76.3,302.5" fill="none" stroke="#8A93A3" stroke-width="1" stroke-opacity="1.00"/><polyline points="80.5,302.2 80.5,299.0" fill="none" stroke="#8A93A3" stroke-width="1" stroke-opacity="1.00"/><polygon points="248.1,288.3 89.8,317.7 86.0,322.1 255.2,290.6" fill="#e4e9f2" fill-opacity="1.00" stroke="none" stroke-width="0.9" stroke-opacity="1.00"/><polygon points="248.1,288.3 89.8,317.7 86.0,322.1 255.2,290.6" fill="none" fill-opacity="1.00" stroke="#8a93a3" stroke-width="0.9" stroke-opacity="1.00"/><polygon points="89.8,317.7 80.5,299.0 76.3,302.5 86.0,322.1" fill="#e4e9f2" fill-opacity="1.00" stroke="none" stroke-width="0.9" stroke-opacity="1.00"/><polygon points="89.8,317.7 80.5,299.0 76.3,302.5 86.0,322.1" fill="none" fill-opacity="1.00" stroke="#8a93a3" stroke-width="0.9" stroke-opacity="1.00"/><text x="177.5" y="378.5" font-family="Helvetica" font-size="9.0" font-weight="bold" text-anchor="middle" fill="none" stroke="#FFFFFF" stroke-width="3" opacity="1.00">PC</text><text x="177.5" y="378.5" font-family="Helvetica" font-size="9.0" font-weight="bold" text-anchor="middle" fill="#C8770A" opacity="1.00">PC</text><text x="51.3" y="320.7" font-family="Helvetica" font-size="9.0" font-weight="bold" text-anchor="middle" fill="none" stroke="#FFFFFF" stroke-width="3" opacity="1.00">PC</text><text x="51.3" y="320.7" font-family="Helvetica" font-size="9.0" font-weight="bold" text-anchor="middle" fill="#C8770A" opacity="1.00">PC</text><text x="239.8" y="313.4" font-family="Helvetica" font-size="9.0" font-weight="bold" text-anchor="middle" fill="none" stroke="#FFFFFF" stroke-width="3" opacity="1.00">I</text><text x="239.8" y="313.4" font-family="Helvetica" font-size="9.0" font-weight="bold" text-anchor="middle" fill="#1E7FBF" opacity="1.00">I</text><text x="138.6" y="385.7" font-family="Helvetica" font-size="9.0" font-weight="bold" text-anchor="middle" fill="none" stroke="#FFFFFF" stroke-width="3" opacity="1.00">RJ</text><text x="138.6" y="385.7" font-family="Helvetica" font-size="9.0" font-weight="bold" text-anchor="middle" fill="#7B3FC4" opacity="1.00">RJ</text><text x="145.6" y="260.2" font-family="Helvetica" font-size="8.5" font-weight="bold" text-anchor="middle" fill="none" stroke="#FFFFFF" stroke-width="3" opacity="0.86">I</text><text x="145.6" y="260.2" font-family="Helvetica" font-size="8.5" font-weight="bold" text-anchor="middle" fill="#1E7FBF" opacity="0.86">I</text><circle cx="145.6" cy="256.2" r="18.0" fill="none" stroke="#1E7FBF" stroke-width="0.00" opacity="0.00"/><text x="102.1" y="224.8" font-family="Helvetica" font-size="7.5" font-weight="bold" text-anchor="middle" fill="none" stroke="#FFFFFF" stroke-width="3" opacity="0.58">PC</text><text x="102.1" y="224.8" font-family="Helvetica" font-size="7.5" font-weight="bold" text-anchor="middle" fill="#C8770A" opacity="0.58">PC</text><circle cx="102.1" cy="220.8" r="13.6" fill="none" stroke="#C8770A" stroke-width="0.69" opacity="0.23"/></g><rect x="0" y="478" width="264" height="58" fill="#2F6BFF"/><g opacity="1.00"><text x="132" y="514.0" font-family="Helvetica" font-size="30.0" font-weight="bold" letter-spacing="0.5" text-anchor="middle" fill="#FFFFFF">LES PRISES</text></g><rect x="0" y="532" width="264" height="4" fill="#FFFFFF" fill-opacity="0.25"/><rect x="0" y="532" width="110.3" height="4" fill="#FFFFFF"/></svg>