<svg xmlns="http://www.w3.org/2000/svg" width="264" height="536" viewBox="0 0 264 536"><g opacity="0.00"><rect width="264" height="536" fill="#FFFFFF"/><polygon points="46.7,150.9 209.4,145.7 217.3,392.8 54.6,397.9" fill="#EEF2FB" fill-opacity="1.00" stroke="#D5DCEA" stroke-width="0.9" stroke-opacity="1.00"/><polygon points="53.0,152.6 118.0,150.5 120.7,234.7 55.7,236.8" fill="#dee2eb" fill-opacity="1.00" stroke="none" stroke-width="0.9" stroke-opacity="1.00"/><polygon points="55.8,155.2 115.4,153.3 117.9,232.1 58.3,234.0" fill="#d0d4dd" fill-opacity="1.00" stroke="none" stroke-width="0.9" stroke-opacity="1.00"/><polygon points="137.2,174.3 112.8,175.0 112.0,150.7 136.4,150.0" fill="#dee2eb" fill-opacity="1.00" stroke="none" stroke-width="0.9" stroke-opacity="1.00"/><polygon points="134.4,171.7 115.4,172.3 114.8,153.3 133.8,152.7" fill="#d0d4dd" fill-opacity="1.00" stroke="none" stroke-width="0.9" stroke-opacity="1.00"/><polygon points="182.6,168.2 212.0,167.3 214.4,243.7 185.0,244.6" fill="#dee2eb" fill-opacity="1.00" stroke="none" stroke-width="0.9" stroke-opacity="1.00"/><polygon points="185.4,170.8 209.4,170.0 211.6,241.1 187.6,241.8" fill="#d0d4dd" fill-opacity="1.00" stroke="none" stroke-width="0.9" stroke-opacity="1.00"/><polygon points="163.3,294.4 71.2,297.3 69.9,256.4 162.0,253.5" fill="#dee2eb" fill-opacity="1.00" stroke="none" stroke-width="0.9" stroke-opacity="1.00"/><polygon points="160.5,291.8 73.8,294.5 72.7,259.0 159.4,256.3" fill="#d0d4dd" fill-opacity="1.00" stroke="none" stroke-width="0.9" stroke-opacity="1.00"/><polygon points="92.9,310.2 142.5,308.6 143.4,338.7 93.9,340.3" fill="#dee2eb" fill-opacity="1.00" stroke="none" stroke-width="0.9" stroke-opacity="1.00"/><polygon points="95.7,312.8 139.9,311.4 140.6,336.1 96.5,337.5" fill="#d0d4dd" fill-opacity="1.00" stroke="none" stroke-width="0.9" stroke-opacity="1.00"/><polygon points="91.5,386.3 148.8,384.5 149.2,396.9 91.9,398.7" fill="#dee2eb" fill-opacity="1.00" stroke="none" stroke-width="0.9" stroke-opacity="1.00"/><polygon points="94.3,388.9 146.2,387.3 146.4,394.2 94.5,395.9" fill="#d0d4dd" fill-opacity="1.00" stroke="none" stroke-width="0.9" stroke-opacity="1.00"/><polygon points="53.9,315.3 77.2,314.5 79.4,383.2 56.1,384.0" fill="#dee2eb" fill-opacity="1.00" stroke="none" stroke-width="0.9" stroke-opacity="1.00"/><polygon points="56.7,317.9 74.5,317.3 76.6,380.6 58.7,381.2" fill="#d0d4dd" fill-opacity="1.00" stroke="none" stroke-width="0.9" stroke-opacity="1.00"/><polygon points="206.7,148.5 212.0,142.9 212.0,142.2 206.7,147.8" fill="#fffffe" fill-opacity="1.00" stroke="none" stroke-width="0.9" stroke-opacity="1.00"/><polygon points="43.9,148.3 49.5,153.5 49.5,152.8 43.9,147.5" fill="#f1eeea" fill-opacity="1.00" stroke="none" stroke-width="0.9" stroke-opacity="1.00"/><polygon points="49.5,153.5 206.7,148.5 206.7,147.8 49.5,152.8" fill="#fcfbfb" fill-opacity="1.00" stroke="none" stroke-width="0.9" stroke-opacity="1.00"/><polyline points="206.7,147.8 212.0,142.2" fill="none" stroke="#8A93A3" stroke-width="1" stroke-opacity="1.00"/><polyline points="206.7,148.5 212.0,142.9" fill="none" stroke="#8A93A3" stroke-width="1" stroke-opacity="1.00"/><polyline points="206.7,148.5 206.7,147.8" fill="none" stroke="#8A93A3" stroke-width="1" stroke-opacity="1.00"/><polyline points="212.0,142.9 212.0,142.2" fill="none" stroke="#8A93A3" stroke-width="1" stroke-opacity="1.00"/><polyline points="43.9,147.5 49.5,152.8" fill="none" stroke="#8A93A3" stroke-width="1" stroke-opacity="1.00"/><polyline points="43.9,148.3 49.5,153.5" fill="none" stroke="#8A93A3" stroke-width="1" stroke-opacity="1.00"/><polyline points="43.9,148.3 43.9,147.5" fill="none" stroke="#8A93A3" stroke-width="1" stroke-opacity="1.00"/><polyline points="49.5,153.5 49.5,152.8" fill="none" stroke="#8A93A3" stroke-width="1" stroke-opacity="1.00"/><polyline points="49.5,152.8 206.7,147.8" fill="none" stroke="#8A93A3" stroke-width="1" stroke-opacity="1.00"/><polyline points="49.5,153.5 206.7,148.5" fill="none" stroke="#8A93A3" stroke-width="1" stroke-opacity="1.00"/><polyline points="49.5,153.5 49.5,152.8" fill="none" stroke="#8A93A3" stroke-width="1" stroke-opacity="1.00"/><polyline points="206.7,148.5 206.7,147.8" fill="none" stroke="#8A93A3" stroke-width="1" stroke-opacity="1.00"/><polygon points="167.5,254.0 201.5,252.9 201.3,247.5 167.3,248.6" fill="#6ecaec" fill-opacity="1.00" stroke="none" stroke-width="0.9" stroke-opacity="1.00"/><polygon points="49.5,152.8 206.7,147.8 212.0,142.2 43.9,147.5" fill="#3a3e46" fill-opacity="1.00" stroke="none" stroke-width="0.9" stroke-opacity="1.00"/><polyline points="167.3,248.6 167.5,254.0" fill="none" stroke="#37a2ca" stroke-width="1" stroke-opacity="1.00"/><polyline points="167.3,248.7 167.5,254.1" fill="none" stroke="#37a2ca" stroke-width="1" stroke-opacity="1.00"/><polyline points="167.3,248.7 167.3,248.6" fill="none" stroke="#37a2ca" stroke-width="1" stroke-opacity="1.00"/><polyline points="167.5,254.1 167.5,254.0" fill="none" stroke="#37a2ca" stroke-width="1" stroke-opacity="1.00"/><polyline points="167.5,254.0 201.5,252.9" fill="none" stroke="#37a2ca" stroke-width="1" stroke-opacity="1.00"/><polyline points="167.5,254.1 201.5,253.0" fill="none" stroke="#37a2ca" stroke-width="1" stroke-opacity="1.00"/><polyline points="167.5,254.1 167.5,254.0" fill="none" stroke="#37a2ca" stroke-width="1" stroke-opacity="1.00"/><polyline points="201.5,253.0 201.5,252.9" fill="none" stroke="#37a2ca" stroke-width="1" stroke-opacity="1.00"/><polygon points="167.5,254.0 201.5,252.9 201.3,247.5 167.3,248.6" fill="none" fill-opacity="1.00" stroke="#37a2ca" stroke-width="0.9" stroke-opacity="1.00"/><polygon points="49.5,152.8 206.7,147.8 212.0,142.2 43.9,147.5" fill="none" fill-opacity="1.00" stroke="#292e37" stroke-width="0.9" stroke-opacity="1.00"/><polygon points="206.7,148.5 212.8,339.2 212.8,338.5 206.7,147.8" fill="#e3ded6" fill-opacity="1.00" stroke="none" stroke-width="0.9" stroke-opacity="1.00"/><polygon points="201.3,247.6 201.5,253.0 201.5,252.3 201.3,246.9" fill="#e3ded6" fill-opacity="1.00" stroke="none" stroke-width="0.9" stroke-opacity="1.00"/><polygon points="167.3,248.7 167.5,254.1 167.5,254.0 167.3,248.6" fill="#6ab1c6" fill-opacity="1.00" stroke="none" stroke-width="0.9" stroke-opacity="1.00"/><polygon points="201.5,253.0 215.5,252.5 215.5,251.8 201.5,252.3" fill="#fcfbfb" fill-opacity="1.00" stroke="none" stroke-width="0.9" stroke-opacity="1.00"/><polygon points="167.5,254.1 201.5,253.0 201.5,252.9 167.5,254.0" fill="#7ecdea" fill-opacity="1.00" stroke="none" stroke-width="0.9" stroke-opacity="1.00"/><polyline points="206.7,147.8 212.8,338.5" fill="none" stroke="#8A93A3" stroke-width="1" stroke-opacity="1.00"/><polyline points="206.7,148.5 212.8,339.2" fill="none" stroke="#8A93A3" stroke-width="1" stroke-opacity="1.00"/><polyline points="206.7,148.5 206.7,147.8" fill="none" stroke="#8A93A3" stroke-width="1" stroke-opacity="1.00"/><polyline points="212.8,339.2 212.8,338.5" fill="none" stroke="#8A93A3" stroke-width="1" stroke-opacity="1.00"/><polygon points="47.3,252.5 47.4,257.9 47.4,257.2 47.3,251.8" fill="#e3ded6" fill-opacity="1.00" stroke="none" stroke-width="0.9" stroke-opacity="1.00"/><polygon points="47.4,257.9 167.5,254.1 167.5,253.4 47.4,257.2" fill="#fcfbfb" fill-opacity="1.00" stroke="none" stroke-width="0.9" stroke-opacity="1.00"/><polygon points="167.5,254.1 201.5,253.0 201.5,252.3 167.5,253.4" fill="none" fill-opacity="1.00" stroke="#E8A13B" stroke-width="0.9" stroke-opacity="1.00"/><polyline points="201.3,246.9 201.5,252.3" fill="none" stroke="#8A93A3" stroke-width="1" stroke-opacity="1.00"/><polyline points="201.3,247.6 201.5,253.0" fill="none" stroke="#8A93A3" stroke-width="1" stroke-opacity="1.00"/><polyline points="201.3,247.6 201.3,246.9" fill="none" stroke="#8A93A3" stroke-width="1" stroke-opacity="1.00"/><polyline points="201.5,253.0 201.5,252.3" fill="none" stroke="#8A93A3" stroke-width="1" stroke-opacity="1.00"/><polyline points="201.5,252.3 215.5,251.8" fill="none" stroke="#8A93A3" stroke-width="1" stroke-opacity="1.00"/><polyline points="201.5,253.0 215.5,252.5" fill="none" stroke="#8A93A3" stroke-width="1" stroke-opacity="1.00"/><polyline points="201.5,253.0 201.5,252.3" fill="none" stroke="#8A93A3" stroke-width="1" stroke-opacity="1.00"/><polyline points="215.5,252.5 215.5,251.8" fill="none" stroke="#8A93A3" stroke-width="1" stroke-opacity="1.00"/><polyline points="47.3,251.8 47.4,257.2" fill="none" stroke="#8A93A3" stroke-width="1" stroke-opacity="1.00"/><polyline points="47.3,252.5 47.4,257.9" fill="none" stroke="#8A93A3" stroke-width="1" stroke-opacity="1.00"/><polyline points="47.3,252.5 47.3,251.8" fill="none" stroke="#8A93A3" stroke-width="1" stroke-opacity="1.00"/><polyline points="47.4,257.9 47.4,257.2" fill="none" stroke="#8A93A3" stroke-width="1" stroke-opacity="1.00"/><polyline points="47.4,257.2 167.5,253.4" fill="none" stroke="#8A93A3" stroke-width="1" stroke-opacity="1.00"/><polyline points="47.4,257.9 167.5,254.1" fill="none" stroke="#8A93A3" stroke-width="1" stroke-opacity="1.00"/><polyline points="47.4,257.9 47.4,257.2" fill="none" stroke="#8A93A3" stroke-width="1" stroke-opacity="1.00"/><polyline points="167.5,254.1 167.5,253.4" fill="none" stroke="#8A93A3" stroke-width="1" stroke-opacity="1.00"/><polygon points="206.7,147.8 212.8,338.5 218.4,341.4 212.0,142.2" fill="#3a3e46" fill-opacity="1.00" stroke="none" stroke-width="0.9" stroke-opacity="1.00"/><polygon points="201.5,252.3 215.5,251.8 215.3,246.4 201.3,246.9" fill="#3a3e46" fill-opacity="1.00" stroke="none" stroke-width="0.9" stroke-opacity="1.00"/><polygon points="212.8,339.1 213.9,373.1 219.5,377.6 218.4,342.1" fill="#6ecaec" fill-opacity="1.00" stroke="none" stroke-width="0.9" stroke-opacity="1.00"/><polygon points="206.7,147.8 212.8,338.5 218.4,341.4 212.0,142.2" fill="none" fill-opacity="1.00" stroke="#292e37" stroke-width="0.9" stroke-opacity="1.00"/><polygon points="47.4,257.2 167.5,253.4 167.3,247.9 47.3,251.8" fill="#3a3e46" fill-opacity="1.00" stroke="none" stroke-width="0.9" stroke-opacity="1.00"/><polyline points="212.8,339.1 213.9,373.1" fill="none" stroke="#37a2ca" stroke-width="1" stroke-opacity="1.00"/><polyline points="212.8,339.2 213.9,373.2" fill="none" stroke="#37a2ca" stroke-width="1" stroke-opacity="1.00"/><polyline points="212.8,339.2 212.8,339.1" fill="none" stroke="#37a2ca" stroke-width="1" stroke-opacity="1.00"/><polyline points="213.9,373.2 213.9,373.1" fill="none" stroke="#37a2ca" stroke-width="1" stroke-opacity="1.00"/><polygon points="201.5,252.3 215.5,251.8 215.3,246.4 201.3,246.9" fill="none" fill-opacity="1.00" stroke="#292e37" stroke-width="0.9" stroke-opacity="1.00"/><polygon points="212.8,339.1 213.9,373.1 219.5,377.6 218.4,342.1" fill="none" fill-opacity="1.00" stroke="#37a2ca" stroke-width="0.9" stroke-opacity="1.00"/><polygon points="47.4,257.2 167.5,253.4 167.3,247.9 47.3,251.8" fill="none" fill-opacity="1.00" stroke="#292e37" stroke-width="0.9" stroke-opacity="1.00"/><polyline points="213.9,373.1 219.5,377.6" fill="none" stroke="#37a2ca" stroke-width="1" stroke-opacity="1.00"/><polyline points="213.9,373.2 219.5,377.6" fill="none" stroke="#37a2ca" stroke-width="1" stroke-opacity="1.00"/><polyline points="213.9,373.2 213.9,373.1" fill="none" stroke="#37a2ca" stroke-width="1" stroke-opacity="1.00"/><polyline points="219.5,377.6 219.5,377.6" fill="none" stroke="#37a2ca" stroke-width="1" stroke-opacity="1.00"/><polygon points="212.8,339.2 218.4,342.1 218.4,341.4 212.8,338.5" fill="#f5f3f0" fill-opacity="1.00" stroke="none" stroke-width="0.9" stroke-opacity="1.00"/><polyline points="212.8,338.5 218.4,341.4" fill="none" stroke="#8A93A3" stroke-width="1" stroke-opacity="1.00"/><polyline points="212.8,339.2 218.4,342.1" fill="none" stroke="#8A93A3" stroke-width="1" stroke-opacity="1.00"/><polyline points="212.8,339.2 212.8,338.5" fill="none" stroke="#8A93A3" stroke-width="1" stroke-opacity="1.00"/><polyline points="218.4,342.1 218.4,341.4" fill="none" stroke="#8A93A3" stroke-width="1" stroke-opacity="1.00"/><polygon points="212.8,339.2 213.9,373.2 213.9,373.1 212.8,339.1" fill="#6ab1c6" fill-opacity="1.00" stroke="none" stroke-width="0.9" stroke-opacity="1.00"/><polygon points="212.8,339.2 213.9,373.2 213.9,372.4 212.8,338.5" fill="none" fill-opacity="1.00" stroke="#E8A13B" stroke-width="0.9" stroke-opacity="1.00"/><polygon points="213.9,373.2 219.5,377.6 219.5,377.6 213.9,373.1" fill="#76c2db" fill-opacity="1.00" stroke="none" stroke-width="0.9" stroke-opacity="1.00"/><polygon points="213.9,373.2 214.5,390.1 214.5,389.4 213.9,372.4" fill="#e3ded6" fill-opacity="1.00" stroke="none" stroke-width="0.9" stroke-opacity="1.00"/><polyline points="213.9,372.4 214.5,389.4" fill="none" stroke="#8A93A3" stroke-width="1" stroke-opacity="1.00"/><polyline points="213.9,373.2 214.5,390.1" fill="none" stroke="#8A93A3" stroke-width="1" stroke-opacity="1.00"/><polyline points="213.9,373.2 213.9,372.4" fill="none" stroke="#8A93A3" stroke-width="1" stroke-opacity="1.00"/><polyline points="214.5,390.1 214.5,389.4" fill="none" stroke="#8A93A3" stroke-width="1" stroke-opacity="1.00"/><polygon points="214.5,390.1 220.1,395.4 220.1,394.7 214.5,389.4" fill="#f1eeea" fill-opacity="1.00" stroke="none" stroke-width="0.9" stroke-opacity="1.00"/><polyline points="214.5,389.4 220.1,394.7" fill="none" stroke="#8A93A3" stroke-width="1" stroke-opacity="1.00"/><polyline points="214.5,390.1 220.1,395.4" fill="none" stroke="#8A93A3" stroke-width="1" stroke-opacity="1.00"/><polyline points="214.5,390.1 214.5,389.4" fill="none" stroke="#8A93A3" stroke-width="1" stroke-opacity="1.00"/><polyline points="220.1,395.4 220.1,394.7" fill="none" stroke="#8A93A3" stroke-width="1" stroke-opacity="1.00"/><polygon points="213.9,372.4 214.5,389.4 220.1,394.7 219.5,376.9" fill="#3a3e46" fill-opacity="1.00" stroke="none" stroke-width="0.9" stroke-opacity="1.00"/><polygon points="213.9,372.4 214.5,389.4 220.1,394.7 219.5,376.9" fill="none" fill-opacity="1.00" stroke="#292e37" stroke-width="0.9" stroke-opacity="1.00"/><polygon points="114.2,169.1 131.6,168.5 131.6,168.5 114.2,169.0" fill="#e5ebf8" fill-opacity="0.01" stroke="#2F6BFF" stroke-width="0.9" stroke-opacity="0.01"/><polygon points="113.6,152.2 114.2,169.1 114.2,169.0 113.6,152.2" fill="#cdced3" fill-opacity="0.01" stroke="#2F6BFF" stroke-width="0.9" stroke-opacity="0.01"/><polygon points="131.1,151.6 113.6,152.2 114.2,169.0 131.6,168.5" fill="#e7eefc" fill-opacity="0.01" stroke="#2F6BFF" stroke-width="0.9" stroke-opacity="0.01"/><polygon points="123.1,169.5 131.3,169.2 131.3,169.2 123.1,169.4" fill="#eff2f9" fill-opacity="0.01" stroke="#2F6BFF" stroke-width="0.9" stroke-opacity="0.01"/><polygon points="123.1,168.8 123.1,169.5 123.1,169.4 123.1,168.7" fill="#d7d5d4" fill-opacity="0.01" stroke="#2F6BFF" stroke-width="0.9" stroke-opacity="0.01"/><polygon points="131.3,168.5 123.1,168.7 123.1,169.4 131.3,169.2" fill="#f2f5fd" fill-opacity="0.01" stroke="#2F6BFF" stroke-width="0.9" stroke-opacity="0.01"/><polygon points="114.6,169.8 122.7,169.5 122.7,169.4 114.6,169.7" fill="#eff2f9" fill-opacity="0.01" stroke="#2F6BFF" stroke-width="0.9" stroke-opacity="0.01"/><polygon points="114.5,169.1 114.6,169.8 114.6,169.7 114.5,169.0" fill="#d7d5d4" fill-opacity="0.01" stroke="#2F6BFF" stroke-width="0.9" stroke-opacity="0.01"/><polygon points="122.7,168.7 114.5,169.0 114.6,169.7 122.7,169.4" fill="#f2f5fd" fill-opacity="0.01" stroke="#2F6BFF" stroke-width="0.9" stroke-opacity="0.01"/><polygon points="124.0,169.2 123.4,169.3 123.5,169.8 124.0,169.8" fill="#a9aeb8" fill-opacity="0.01" stroke="#2F6BFF" stroke-width="0.9" stroke-opacity="0.01"/><polygon points="122.4,169.3 121.9,169.3 121.9,169.8 122.4,169.8" fill="#a9aeb8" fill-opacity="0.01" stroke="#2F6BFF" stroke-width="0.9" stroke-opacity="0.01"/><polygon points="151.2,141.8 151.4,147.2 151.4,147.1 151.2,141.7" fill="#6ab1c6" fill-opacity="1.00" stroke="none" stroke-width="0.9" stroke-opacity="1.00"/><polygon points="151.4,147.2 197.8,145.7 197.8,145.7 151.4,147.1" fill="#7ecdea" fill-opacity="1.00" stroke="none" stroke-width="0.9" stroke-opacity="1.00"/><polygon points="151.4,147.1 197.8,145.7 197.7,140.3 151.2,141.7" fill="#78cded" fill-opacity="1.00" stroke="none" stroke-width="0.9" stroke-opacity="1.00"/><polyline points="151.2,141.7 151.4,147.1" fill="none" stroke="#8A93A3" stroke-width="1" stroke-opacity="1.00"/><polyline points="151.2,141.8 151.4,147.2" fill="none" stroke="#8A93A3" stroke-width="1" stroke-opacity="1.00"/><polyline points="151.2,141.8 151.2,141.7" fill="none" stroke="#8A93A3" stroke-width="1" stroke-opacity="1.00"/><polyline points="151.4,147.2 151.4,147.1" fill="none" stroke="#8A93A3" stroke-width="1" stroke-opacity="1.00"/><polyline points="151.4,147.1 197.8,145.7" fill="none" stroke="#8A93A3" stroke-width="1" stroke-opacity="1.00"/><polyline points="151.4,147.2 197.8,145.7" fill="none" stroke="#8A93A3" stroke-width="1" stroke-opacity="1.00"/><polyline points="151.4,147.2 151.4,147.1" fill="none" stroke="#8A93A3" stroke-width="1" stroke-opacity="1.00"/><polyline points="197.8,145.7 197.8,145.7" fill="none" stroke="#8A93A3" stroke-width="1" stroke-opacity="1.00"/><polygon points="151.4,147.1 197.8,145.7 197.7,140.3 151.2,141.7" fill="none" fill-opacity="1.00" stroke="#8A93A3" stroke-width="0.9" stroke-opacity="1.00"/><polygon points="49.1,306.3 50.9,364.2 50.9,364.2 49.1,306.3" fill="#6ab1c6" fill-opacity="1.00" stroke="none" stroke-width="0.9" stroke-opacity="1.00"/><polygon points="56.4,364.0 54.5,306.1 49.1,306.3 50.9,364.2" fill="#78cded" fill-opacity="1.00" stroke="none" stroke-width="0.9" stroke-opacity="1.00"/><polyline points="49.1,306.3 50.9,364.2" fill="none" stroke="#8A93A3" stroke-width="1" stroke-opacity="1.00"/><polyline points="49.1,306.3 50.9,364.2" fill="none" stroke="#8A93A3" stroke-width="1" stroke-opacity="1.00"/><polyline points="49.1,306.3 49.1,306.3" fill="none" stroke="#8A93A3" stroke-width="1" stroke-opacity="1.00"/><polyline points="50.9,364.2 50.9,364.2" fill="none" stroke="#8A93A3" stroke-width="1" stroke-opacity="1.00"/><polygon points="56.4,364.0 54.5,306.1 49.1,306.3 50.9,364.2" fill="none" fill-opacity="1.00" stroke="#8A93A3" stroke-width="0.9" stroke-opacity="1.00"/><polygon points="50.9,364.2 56.4,364.1 56.4,364.0 50.9,364.2" fill="#7ecdea" fill-opacity="1.00" stroke="none" stroke-width="0.9" stroke-opacity="1.00"/><polyline points="50.9,364.2 56.4,364.0" fill="none" stroke="#8A93A3" stroke-width="1" stroke-opacity="1.00"/><polyline points="50.9,364.2 56.4,364.1" fill="none" stroke="#8A93A3" stroke-width="1" stroke-opacity="1.00"/><polyline points="50.9,364.2 50.9,364.2" fill="none" stroke="#8A93A3" stroke-width="1" stroke-opacity="1.00"/><polyline points="56.4,364.1 56.4,364.0" fill="none" stroke="#8A93A3" stroke-width="1" stroke-opacity="1.00"/><polygon points="43.9,148.3 52.0,400.7 52.0,400.0 43.9,147.5" fill="#e3ded6" fill-opacity="1.00" stroke="none" stroke-width="0.9" stroke-opacity="1.00"/><polyline points="43.9,147.5 52.0,400.0" fill="none" stroke="#8A93A3" stroke-width="1" stroke-opacity="1.00"/><polyline points="43.9,148.3 52.0,400.7" fill="none" stroke="#8A93A3" stroke-width="1" stroke-opacity="1.00"/><polyline points="43.9,148.3 43.9,147.5" fill="none" stroke="#8A93A3" stroke-width="1" stroke-opacity="1.00"/><polyline points="52.0,400.7 52.0,400.0" fill="none" stroke="#8A93A3" stroke-width="1" stroke-opacity="1.00"/><polygon points="57.3,394.4 49.5,152.8 43.9,147.5 52.0,400.0" fill="#3a3e46" fill-opacity="1.00" stroke="none" stroke-width="0.9" stroke-opacity="1.00"/><polygon points="57.3,394.4 49.5,152.8 43.9,147.5 52.0,400.0" fill="none" fill-opacity="1.00" stroke="#292e37" stroke-width="0.9" stroke-opacity="1.00"/><polygon points="52.0,400.7 57.3,395.1 57.3,394.4 52.0,400.0" fill="#fffffe" fill-opacity="1.00" stroke="none" stroke-width="0.9" stroke-opacity="1.00"/><polygon points="52.0,400.7 220.1,395.4 220.1,394.7 52.0,400.0" fill="#fcfbfb" fill-opacity="1.00" stroke="none" stroke-width="0.9" stroke-opacity="1.00"/><polyline points="52.0,400.0 57.3,394.4" fill="none" stroke="#8A93A3" stroke-width="1" stroke-opacity="1.00"/><polyline points="52.0,400.7 57.3,395.1" fill="none" stroke="#8A93A3" stroke-width="1" stroke-opacity="1.00"/><polyline points="52.0,400.7 52.0,400.0" fill="none" stroke="#8A93A3" stroke-width="1" stroke-opacity="1.00"/><polyline points="57.3,395.1 57.3,394.4" fill="none" stroke="#8A93A3" stroke-width="1" stroke-opacity="1.00"/><polyline points="52.0,400.0 220.1,394.7" fill="none" stroke="#8A93A3" stroke-width="1" stroke-opacity="1.00"/><polyline points="52.0,400.7 220.1,395.4" fill="none" stroke="#8A93A3" stroke-width="1" stroke-opacity="1.00"/><polyline points="52.0,400.7 52.0,400.0" fill="none" stroke="#8A93A3" stroke-width="1" stroke-opacity="1.00"/><polyline points="220.1,395.4 220.1,394.7" fill="none" stroke="#8A93A3" stroke-width="1" stroke-opacity="1.00"/><polygon points="214.5,389.4 57.3,394.4 52.0,400.0 220.1,394.7" fill="#3a3e46" fill-opacity="1.00" stroke="none" stroke-width="0.9" stroke-opacity="1.00"/><polygon points="214.5,389.4 57.3,394.4 52.0,400.0 220.1,394.7" fill="none" fill-opacity="1.00" stroke="#292e37" stroke-width="0.9" stroke-opacity="1.00"/></g><g opacity="1.00"><rect width="264" height="536" fill="#E7EAF0"/><g transform="translate(0 -499.2)"><rect x="6" y="0.0" width="252" height="525.3" fill="#FFFFFF" stroke="#D5DCEA" stroke-width="1"/><rect x="6" y="0.0" width="252" height="26" fill="#2F6BFF"/><text x="18" y="18.0" font-family="Helvetica" font-size="12" font-weight="bold" fill="#FFFFFF">PLAN — T2, 27 m²</text><g transform="translate(16 40)"><rect width="232" height="273" fill="#FFFFFF"/><polygon points="45.0,28.4 187.0,28.4 187.0,244.6 45.0,244.6" fill="#EEF2FB" fill-opacity="1.00" stroke="#D5DCEA" stroke-width="0.9" stroke-opacity="1.00"/><polygon points="50.4,30.0 107.2,30.0 107.2,103.7 50.4,103.7" fill="#dee2eb" fill-opacity="1.00" stroke="none" stroke-width="0.9" stroke-opacity="1.00"/><polygon points="52.8,32.4 104.8,32.4 104.8,101.4 52.8,101.4" fill="#d0d4dd" fill-opacity="1.00" stroke="none" stroke-width="0.9" stroke-opacity="1.00"/><polygon points="123.3,51.3 102.0,51.3 102.0,30.0 123.3,30.0" fill="#dee2eb" fill-opacity="1.00" stroke="none" stroke-width="0.9" stroke-opacity="1.00"/><polygon points="120.9,49.0 104.3,49.0 104.3,32.4 120.9,32.4" fill="#d0d4dd" fill-opacity="1.00" stroke="none" stroke-width="0.9" stroke-opacity="1.00"/><polygon points="163.0,47.3 188.7,47.3 188.7,114.2 163.0,114.2" fill="#dee2eb" fill-opacity="1.00" stroke="none" stroke-width="0.9" stroke-opacity="1.00"/><polygon points="165.3,49.6 186.3,49.6 186.3,111.8 165.3,111.8" fill="#d0d4dd" fill-opacity="1.00" stroke="none" stroke-width="0.9" stroke-opacity="1.00"/><polygon points="142.7,157.1 62.3,157.1 62.3,121.3 142.7,121.3" fill="#dee2eb" fill-opacity="1.00" stroke="none" stroke-width="0.9" stroke-opacity="1.00"/><polygon points="140.3,154.8 64.6,154.8 64.6,123.7 140.3,123.7" fill="#d0d4dd" fill-opacity="1.00" stroke="none" stroke-width="0.9" stroke-opacity="1.00"/><polygon points="80.9,168.9 124.1,168.9 124.1,195.3 80.9,195.3" fill="#dee2eb" fill-opacity="1.00" stroke="none" stroke-width="0.9" stroke-opacity="1.00"/><polygon points="83.2,171.3 121.7,171.3 121.7,192.9 83.2,192.9" fill="#d0d4dd" fill-opacity="1.00" stroke="none" stroke-width="0.9" stroke-opacity="1.00"/><polygon points="77.5,235.5 127.5,235.5 127.5,246.3 77.5,246.3" fill="#dee2eb" fill-opacity="1.00" stroke="none" stroke-width="0.9" stroke-opacity="1.00"/><polygon points="79.8,237.9 125.1,237.9 125.1,244.0 79.8,244.0" fill="#d0d4dd" fill-opacity="1.00" stroke="none" stroke-width="0.9" stroke-opacity="1.00"/><polygon points="46.7,172.3 67.0,172.3 67.0,232.5 46.7,232.5" fill="#dee2eb" fill-opacity="1.00" stroke="none" stroke-width="0.9" stroke-opacity="1.00"/><polygon points="49.1,174.7 64.6,174.7 64.6,230.1 49.1,230.1" fill="#d0d4dd" fill-opacity="1.00" stroke="none" stroke-width="0.9" stroke-opacity="1.00"/><polygon points="47.4,217.6 47.4,166.9 42.7,166.9 42.7,217.6" fill="#78cded" fill-opacity="1.00" stroke="none" stroke-width="0.9" stroke-opacity="1.00"/><polygon points="47.4,217.6 47.4,166.9 42.7,166.9 42.7,217.6" fill="none" fill-opacity="1.00" stroke="#8A93A3" stroke-width="0.9" stroke-opacity="1.00"/><polygon points="136.3,30.7 176.8,30.7 176.8,26.0 136.3,26.0" fill="#78cded" fill-opacity="1.00" stroke="none" stroke-width="0.9" stroke-opacity="1.00"/><polygon points="136.3,30.7 176.8,30.7 176.8,26.0 136.3,26.0" fill="none" fill-opacity="1.00" stroke="#8A93A3" stroke-width="0.9" stroke-opacity="1.00"/><polygon points="47.4,30.7 184.6,30.7 189.3,26.0 42.7,26.0" fill="#12161d" fill-opacity="1.00" stroke="none" stroke-width="0.9" stroke-opacity="1.00"/><polygon points="184.6,30.7 184.6,197.7 189.3,200.4 189.3,26.0" fill="#12161d" fill-opacity="1.00" stroke="none" stroke-width="0.9" stroke-opacity="1.00"/><polygon points="184.6,227.4 184.6,242.3 189.3,247.0 189.3,231.5" fill="#12161d" fill-opacity="1.00" stroke="none" stroke-width="0.9" stroke-opacity="1.00"/><polygon points="184.6,197.7 184.6,227.4 189.3,231.5 189.3,200.4" fill="#6ecaec" fill-opacity="1.00" stroke="none" stroke-width="0.9" stroke-opacity="1.00"/><polygon points="184.6,242.3 47.4,242.3 42.7,247.0 189.3,247.0" fill="#12161d" fill-opacity="1.00" stroke="none" stroke-width="0.9" stroke-opacity="1.00"/><polygon points="47.4,242.3 47.4,30.7 42.7,26.0 42.7,247.0" fill="#12161d" fill-opacity="1.00" stroke="none" stroke-width="0.9" stroke-opacity="1.00"/><polygon points="42.7,122.0 147.4,122.0 147.4,117.2 42.7,117.2" fill="#12161d" fill-opacity="1.00" stroke="none" stroke-width="0.9" stroke-opacity="1.00"/><polygon points="177.1,122.0 189.3,122.0 189.3,117.2 177.1,117.2" fill="#12161d" fill-opacity="1.00" stroke="none" stroke-width="0.9" stroke-opacity="1.00"/><polygon points="147.4,122.0 177.1,122.0 177.1,117.2 147.4,117.2" fill="#6ecaec" fill-opacity="1.00" stroke="none" stroke-width="0.9" stroke-opacity="1.00"/><polygon points="47.4,30.7 184.6,30.7 189.3,26.0 42.7,26.0" fill="none" fill-opacity="1.00" stroke="#12161d" stroke-width="0.9" stroke-opacity="1.00"/><polygon points="184.6,30.7 184.6,197.7 189.3,200.4 189.3,26.0" fill="none" fill-opacity="1.00" stroke="#12161d" stroke-width="0.9" stroke-opacity="1.00"/><polygon points="184.6,227.4 184.6,242.3 189.3,247.0 189.3,231.5" fill="none" fill-opacity="1.00" stroke="#12161d" stroke-width="0.9" stroke-opacity="1.00"/><polygon points="184.6,197.7 184.6,227.4 189.3,231.5 189.3,200.4" fill="none" fill-opacity="1.00" stroke="#37a2ca" stroke-width="0.9" stroke-opacity="1.00"/><polygon points="184.6,242.3 47.4,242.3 42.7,247.0 189.3,247.0" fill="none" fill-opacity="1.00" stroke="#12161d" stroke-width="0.9" stroke-opacity="1.00"/><polygon points="47.4,242.3 47.4,30.7 42.7,26.0 42.7,247.0" fill="none" fill-opacity="1.00" stroke="#12161d" stroke-width="0.9" stroke-opacity="1.00"/><polygon points="42.7,122.0 147.4,122.0 147.4,117.2 42.7,117.2" fill="none" fill-opacity="1.00" stroke="#12161d" stroke-width="0.9" stroke-opacity="1.00"/><polygon points="177.1,122.0 189.3,122.0 189.3,117.2 177.1,117.2" fill="none" fill-opacity="1.00" stroke="#12161d" stroke-width="0.9" stroke-opacity="1.00"/><polygon points="147.4,122.0 177.1,122.0 177.1,117.2 147.4,117.2" fill="none" fill-opacity="1.00" stroke="#37a2ca" stroke-width="0.9" stroke-opacity="1.00"/><text x="122.8" y="247.6" font-family="Helvetica" font-size="9.0" font-weight="bold" text-anchor="middle" fill="none" stroke="#FFFFFF" stroke-width="3" opacity="1.00">PC</text><text x="122.8" y="247.6" font-family="Helvetica" font-size="9.0" font-weight="bold" text-anchor="middle" fill="#C8770A" opacity="1.00">PC</text><text x="45.0" y="142.9" font-family="Helvetica" font-size="9.0" font-weight="bold" text-anchor="middle" fill="none" stroke="#FFFFFF" stroke-width="3" opacity="1.00">PC</text><text x="45.0" y="142.9" font-family="Helvetica" font-size="9.0" font-weight="bold" text-anchor="middle" fill="#C8770A" opacity="1.00">PC</text><text x="187.0" y="213.9" font-family="Helvetica" font-size="9.0" font-weight="bold" text-anchor="middle" fill="none" stroke="#FFFFFF" stroke-width="3" opacity="1.00">I</text><text x="187.0" y="213.9" font-family="Helvetica" font-size="9.0" font-weight="bold" text-anchor="middle" fill="#1E7FBF" opacity="1.00">I</text><text x="89.0" y="247.6" font-family="Helvetica" font-size="9.0" font-weight="bold" text-anchor="middle" fill="none" stroke="#FFFFFF" stroke-width="3" opacity="1.00">RJ</text><text x="89.0" y="247.6" font-family="Helvetica" font-size="9.0" font-weight="bold" text-anchor="middle" fill="#7B3FC4" opacity="1.00">RJ</text><text x="132.9" y="122.6" font-family="Helvetica" font-size="9.0" font-weight="bold" text-anchor="middle" fill="none" stroke="#FFFFFF" stroke-width="3" opacity="1.00">I</text><text x="132.9" y="122.6" font-family="Helvetica" font-size="9.0" font-weight="bold" text-anchor="middle" fill="#1E7FBF" opacity="1.00">I</text><text x="122.8" y="31.4" font-family="Helvetica" font-size="9.0" font-weight="bold" text-anchor="middle" fill="none" stroke="#FFFFFF" stroke-width="3" opacity="1.00">PC</text><text x="122.8" y="31.4" font-family="Helvetica" font-size="9.0" font-weight="bold" text-anchor="middle" fill="#C8770A" opacity="1.00">PC</text></g><circle cx="24" cy="327.0" r="4" fill="#2F6BFF"/><rect x="34" y="323.5" width="111" height="7" rx="3.5" fill="#C9D0DC"/><circle cx="24" cy="343.0" r="4" fill="#E8A13B"/><rect x="34" y="339.5" width="93" height="7" rx="3.5" fill="#C9D0DC"/><circle cx="24" cy="359.0" r="4" fill="#3EB8E5"/><rect x="34" y="355.5" width="75" height="7" rx="3.5" fill="#C9D0DC"/><rect x="100" y="449.3" width="158" height="56" fill="none" stroke="#C9D0DC" stroke-width="1"/><line x1="100" y1="467.3" x2="258" y2="467.3" stroke="#C9D0DC" stroke-width="1"/><text x="108" y="462.3" font-family="Helvetica" font-size="8" font-weight="bold" fill="#5A6472">ECHOPLAN</text><rect x="108" y="475.3" width="111" height="5" rx="2.5" fill="#D5DCEA"/><rect x="108" y="485.3" width="97" height="5" rx="2.5" fill="#D5DCEA"/><rect x="108" y="495.3" width="83" height="5" rx="2.5" fill="#D5DCEA"/><rect x="6" y="557.4" width="252" height="525.3" fill="#FFFFFF" stroke="#D5DCEA" stroke-width="1"/><rect x="6" y="557.4" width="252" height="26" fill="#2F6BFF"/><text x="18" y="575.4" font-family="Helvetica" font-size="12" font-weight="bold" fill="#FFFFFF">FOURNITURES</text><rect x="18" y="593.4" width="14" height="14" rx="3" fill="#EDF1F8" stroke="#D5DCEA" stroke-width="0.8"/><rect x="38" y="597.9" width="90" height="7" rx="3.5" fill="#C9D0DC"/><rect x="202" y="597.9" width="44" height="7" rx="3.5" fill="#9AA5B5"/><rect x="18" y="613.4" width="14" height="14" rx="3" fill="#EDF1F8" stroke="#D5DCEA" stroke-width="0.8"/><rect x="38" y="617.9" width="127" height="7" rx="3.5" fill="#C9D0DC"/><rect x="202" y="617.9" width="44" height="7" rx="3.5" fill="#9AA5B5"/><rect x="18" y="633.4" width="14" height="14" rx="3" fill="#EDF1F8" stroke="#D5DCEA" stroke-width="0.8"/><rect x="38" y="637.9" width="164" height="7" rx="3.5" fill="#C9D0DC"/><rect x="202" y="637.9" width="44" height="7" rx="3.5" fill="#9AA5B5"/><rect x="18" y="653.4" width="14" height="14" rx="3" fill="#EDF1F8" stroke="#D5DCEA" stroke-width="0.8"/><rect x="38" y="657.9" width="108" height="7" rx="3.5" fill="#C9D0DC"/><rect x="202" y="657.9" width="44" height="7" rx="3.5" fill="#9AA5B5"/><rect x="18" y="673.4" width="14" height="14" rx="3" fill="#EDF1F8" stroke="#D5DCEA" stroke-width="0.8"/><rect x="38" y="677.9" width="145" height="7" rx="3.5" fill="#C9D0DC"/><rect x="202" y="677.9" width="44" height="7" rx="3.5" fill="#9AA5B5"/><rect x="18" y="693.4" width="14" height="14" rx="3" fill="#EDF1F8" stroke="#D5DCEA" stroke-width="0.8"/><rect x="38" y="697.9" width="90" height="7" rx="3.5" fill="#C9D0DC"/><rect x="202" y="697.9" width="44" height="7" rx="3.5" fill="#9AA5B5"/><rect x="18" y="713.4" width="14" height="14" rx="3" fill="#EDF1F8" stroke="#D5DCEA" stroke-width="0.8"/><rect x="38" y="717.9" width="127" height="7" rx="3.5" fill="#C9D0DC"/><rect x="202" y="717.9" width="44" height="7" rx="3.5" fill="#9AA5B5"/><rect x="18" y="733.4" width="14" height="14" rx="3" fill="#EDF1F8" stroke="#D5DCEA" stroke-width="0.8"/><rect x="38" y="737.9" width="164" height="7" rx="3.5" fill="#C9D0DC"/><rect x="202" y="737.9" width="44" height="7" rx="3.5" fill="#9AA5B5"/><rect x="18" y="753.4" width="14" height="14" rx="3" fill="#EDF1F8" stroke="#D5DCEA" stroke-width="0.8"/><rect x="38" y="757.9" width="108" height="7" rx="3.5" fill="#C9D0DC"/><rect x="202" y="757.9" width="44" height="7" rx="3.5" fill="#9AA5B5"/><rect x="18" y="773.4" width="14" height="14" rx="3" fill="#EDF1F8" stroke="#D5DCEA" stroke-width="0.8"/><rect x="38" y="777.9" width="145" height="7" rx="3.5" fill="#C9D0DC"/><rect x="202" y="777.9" width="44" height="7" rx="3.5" fill="#9AA5B5"/><rect x="18" y="793.4" width="14" height="14" rx="3" fill="#EDF1F8" stroke="#D5DCEA" stroke-width="0.8"/><rect x="38" y="797.9" width="90" height="7" rx="3.5" fill="#C9D0DC"/><rect x="202" y="797.9" width="44" height="7" rx="3.5" fill="#9AA5B5"/><rect x="18" y="813.4" width="14" height="14" rx="3" fill="#EDF1F8" stroke="#D5DCEA" stroke-width="0.8"/><rect x="38" y="817.9" width="127" height="7" rx="3.5" fill="#C9D0DC"/><rect x="202" y="817.9" width="44" height="7" rx="3.5" fill="#9AA5B5"/><rect x="18" y="833.4" width="14" height="14" rx="3" fill="#EDF1F8" stroke="#D5DCEA" stroke-width="0.8"/><rect x="38" y="837.9" width="164" height="7" rx="3.5" fill="#C9D0DC"/><rect x="202" y="837.9" width="44" height="7" rx="3.5" fill="#9AA5B5"/><line x1="18" y1="871.4" x2="246" y2="871.4" stroke="#9AA5B5" stroke-width="1" stroke-dasharray="3 3"/><rect x="168" y="881.4" width="78" height="12" rx="6" fill="#2F6BFF"/></g></g><rect x="0" y="478" width="264" height="58" fill="#2F6BFF"/><g opacity="1.00"><text x="132" y="514.0" font-family="Helvetica" font-size="30.0" font-weight="bold" letter-spacing="0.5" text-anchor="middle" fill="#FFFFFF">LE DOSSIER</text></g><rect x="0" y="532" width="264" height="4" fill="#FFFFFF" fill-opacity="0.25"/><rect x="0" y="532" width="230.6" height="4" fill="#FFFFFF"/></svg>