<svg xmlns="http://www.w3.org/2000/svg" width="264" height="536" viewBox="0 0 264 536"><g opacity="1.00"><rect width="264" height="536" fill="#FFFFFF"/><polygon points="31.9,195.6 196.0,175.1 232.1,390.6 68.0,411.0" fill="#EEF2FB" fill-opacity="1.00" stroke="#D5DCEA" stroke-width="0.9" stroke-opacity="1.00"/><polygon points="38.4,196.5 104.1,188.3 116.4,261.7 50.7,269.8" fill="#dee2eb" fill-opacity="1.00" stroke="none" stroke-width="0.9" stroke-opacity="1.00"/><polygon points="41.6,198.5 101.7,191.0 113.2,259.7 53.1,267.1" fill="#d0d4dd" fill-opacity="1.00" stroke="none" stroke-width="0.9" stroke-opacity="1.00"/><polygon points="126.2,207.2 101.6,210.3 98.0,189.0 122.6,186.0" fill="#dee2eb" fill-opacity="1.00" stroke="none" stroke-width="0.9" stroke-opacity="1.00"/><polygon points="123.1,205.2 103.9,207.6 101.1,191.1 120.3,188.7" fill="#d0d4dd" fill-opacity="1.00" stroke="none" stroke-width="0.9" stroke-opacity="1.00"/><polygon points="171.4,197.4 201.1,193.8 212.3,260.4 182.6,264.1" fill="#dee2eb" fill-opacity="1.00" stroke="none" stroke-width="0.9" stroke-opacity="1.00"/><polygon points="174.5,199.5 198.8,196.4 209.1,258.4 184.9,261.4" fill="#d0d4dd" fill-opacity="1.00" stroke="none" stroke-width="0.9" stroke-opacity="1.00"/><polygon points="166.3,309.7 73.3,321.3 67.3,285.6 160.3,274.1" fill="#dee2eb" fill-opacity="1.00" stroke="none" stroke-width="0.9" stroke-opacity="1.00"/><polygon points="163.2,307.7 75.7,318.6 70.5,287.7 158.0,276.8" fill="#d0d4dd" fill-opacity="1.00" stroke="none" stroke-width="0.9" stroke-opacity="1.00"/><polygon points="96.8,330.4 146.8,324.2 151.2,350.5 101.2,356.7" fill="#dee2eb" fill-opacity="1.00" stroke="none" stroke-width="0.9" stroke-opacity="1.00"/><polygon points="99.9,332.4 144.5,326.9 148.1,348.4 103.5,354.0" fill="#d0d4dd" fill-opacity="1.00" stroke="none" stroke-width="0.9" stroke-opacity="1.00"/><polygon points="104.0,397.2 161.8,390.0 163.6,400.8 105.8,408.0" fill="#dee2eb" fill-opacity="1.00" stroke="none" stroke-width="0.9" stroke-opacity="1.00"/><polygon points="107.1,399.2 159.5,392.7 160.5,398.8 108.1,405.3" fill="#d0d4dd" fill-opacity="1.00" stroke="none" stroke-width="0.9" stroke-opacity="1.00"/><polygon points="57.9,338.7 81.3,335.8 91.4,395.7 67.9,398.6" fill="#dee2eb" fill-opacity="1.00" stroke="none" stroke-width="0.9" stroke-opacity="1.00"/><polygon points="61.0,340.7 79.0,338.5 88.2,393.7 70.3,395.9" fill="#d0d4dd" fill-opacity="1.00" stroke="none" stroke-width="0.9" stroke-opacity="1.00"/><polyline points="182.3,159.2 186.2,153.9" fill="none" stroke="#8A93A3" stroke-width="1" stroke-opacity="1.00"/><polyline points="182.3,179.3 186.2,174.0" fill="none" stroke="#8A93A3" stroke-width="1" stroke-opacity="1.00"/><polyline points="182.3,179.3 182.3,159.2" fill="none" stroke="#8A93A3" stroke-width="1" stroke-opacity="1.00"/><polyline points="186.2,174.0 186.2,153.9" fill="none" stroke="#8A93A3" stroke-width="1" stroke-opacity="1.00"/><polyline points="137.0,164.8 182.3,159.2" fill="none" stroke="#8A93A3" stroke-width="1" stroke-opacity="1.00"/><polyline points="137.0,184.9 182.3,179.3" fill="none" stroke="#8A93A3" stroke-width="1" stroke-opacity="1.00"/><polyline points="137.0,184.9 137.0,164.8" fill="none" stroke="#8A93A3" stroke-width="1" stroke-opacity="1.00"/><polyline points="182.3,179.3 182.3,159.2" fill="none" stroke="#8A93A3" stroke-width="1" stroke-opacity="1.00"/><polygon points="193.7,177.8 198.3,172.4 198.3,142.9 193.7,148.3" fill="#fefefe" fill-opacity="1.00" stroke="none" stroke-width="0.9" stroke-opacity="1.00"/><polyline points="193.7,148.3 198.3,142.9" fill="none" stroke="#8A93A3" stroke-width="1" stroke-opacity="1.00"/><polyline points="193.7,177.8 198.3,172.4" fill="none" stroke="#8A93A3" stroke-width="1" stroke-opacity="1.00"/><polyline points="193.7,177.8 193.7,148.3" fill="none" stroke="#8A93A3" stroke-width="1" stroke-opacity="1.00"/><polyline points="198.3,172.4 198.3,142.9" fill="none" stroke="#8A93A3" stroke-width="1" stroke-opacity="1.00"/><polygon points="182.3,179.3 186.2,174.0 186.2,153.9 182.3,159.2" fill="#fefdfd" fill-opacity="1.00" stroke="none" stroke-width="0.9" stroke-opacity="1.00"/><polygon points="182.3,179.3 193.7,177.8 193.7,148.3 182.3,149.7" fill="#fdfdfc" fill-opacity="1.00" stroke="none" stroke-width="0.9" stroke-opacity="1.00"/><polyline points="182.3,149.7 193.7,148.3" fill="none" stroke="#8A93A3" stroke-width="1" stroke-opacity="1.00"/><polyline points="182.3,179.3 193.7,177.8" fill="none" stroke="#8A93A3" stroke-width="1" stroke-opacity="1.00"/><polyline points="182.3,179.3 182.3,149.7" fill="none" stroke="#8A93A3" stroke-width="1" stroke-opacity="1.00"/><polyline points="193.7,177.8 193.7,148.3" fill="none" stroke="#8A93A3" stroke-width="1" stroke-opacity="1.00"/><polygon points="137.1,164.6 182.6,158.9 182.6,149.4 137.1,155.0" fill="#7eceeb" fill-opacity="1.00" stroke="none" stroke-width="0.9" stroke-opacity="1.00"/><polygon points="137.0,184.9 182.3,179.3 182.3,159.2 137.0,164.8" fill="#fdfdfc" fill-opacity="1.00" stroke="none" stroke-width="0.9" stroke-opacity="1.00"/><polygon points="137.0,184.9 137.8,180.0 137.8,150.4 137.0,155.3" fill="#f9f8f6" fill-opacity="1.00" stroke="none" stroke-width="0.9" stroke-opacity="1.00"/><polyline points="137.0,155.3 137.8,150.4" fill="none" stroke="#8A93A3" stroke-width="1" stroke-opacity="1.00"/><polyline points="137.0,184.9 137.8,180.0" fill="none" stroke="#8A93A3" stroke-width="1" stroke-opacity="1.00"/><polyline points="137.0,184.9 137.0,155.3" fill="none" stroke="#8A93A3" stroke-width="1" stroke-opacity="1.00"/><polyline points="137.8,180.0 137.8,150.4" fill="none" stroke="#8A93A3" stroke-width="1" stroke-opacity="1.00"/><polygon points="35.0,197.6 137.0,184.9 137.0,155.3 35.0,168.0" fill="#fdfdfc" fill-opacity="1.00" stroke="none" stroke-width="0.9" stroke-opacity="1.00"/><polyline points="35.0,168.0 137.0,155.3" fill="none" stroke="#8A93A3" stroke-width="1" stroke-opacity="1.00"/><polyline points="35.0,197.6 137.0,184.9" fill="none" stroke="#8A93A3" stroke-width="1" stroke-opacity="1.00"/><polyline points="35.0,197.6 35.0,168.0" fill="none" stroke="#8A93A3" stroke-width="1" stroke-opacity="1.00"/><polyline points="137.0,184.9 137.0,155.3" fill="none" stroke="#8A93A3" stroke-width="1" stroke-opacity="1.00"/><polygon points="137.0,164.8 182.3,159.2 186.2,153.9 137.8,159.9" fill="#e4e9f2" fill-opacity="1.00" stroke="none" stroke-width="0.9" stroke-opacity="1.00"/><polygon points="28.8,193.5 35.0,197.6 35.0,168.0 28.8,164.0" fill="#f3f0ed" fill-opacity="1.00" stroke="none" stroke-width="0.9" stroke-opacity="1.00"/><polygon points="137.0,164.8 182.3,159.2 186.2,153.9 137.8,159.9" fill="none" fill-opacity="1.00" stroke="#8a93a3" stroke-width="0.9" stroke-opacity="1.00"/><polyline points="28.8,164.0 35.0,168.0" fill="none" stroke="#8A93A3" stroke-width="1" stroke-opacity="1.00"/><polyline points="28.8,193.5 35.0,197.6" fill="none" stroke="#8A93A3" stroke-width="1" stroke-opacity="1.00"/><polyline points="28.8,193.5 28.8,164.0" fill="none" stroke="#8A93A3" stroke-width="1" stroke-opacity="1.00"/><polyline points="35.0,197.6 35.0,168.0" fill="none" stroke="#8A93A3" stroke-width="1" stroke-opacity="1.00"/><polyline points="137.1,155.0 182.6,149.4" fill="none" stroke="#3EB8E5" stroke-width="1" stroke-opacity="1.00"/><polyline points="137.1,164.6 182.6,158.9" fill="none" stroke="#3EB8E5" stroke-width="1" stroke-opacity="1.00"/><polyline points="137.1,164.6 137.1,155.0" fill="none" stroke="#3EB8E5" stroke-width="1" stroke-opacity="1.00"/><polyline points="182.6,158.9 182.6,149.4" fill="none" stroke="#3EB8E5" stroke-width="1" stroke-opacity="1.00"/><polygon points="182.3,149.7 193.7,148.3 198.3,142.9 186.2,144.4" fill="#e4e9f2" fill-opacity="1.00" stroke="none" stroke-width="0.9" stroke-opacity="1.00"/><polygon points="182.3,149.7 193.7,148.3 198.3,142.9 186.2,144.4" fill="none" fill-opacity="1.00" stroke="#8a93a3" stroke-width="0.9" stroke-opacity="1.00"/><polygon points="165.9,273.7 200.2,269.4 199.4,264.7 165.1,268.9" fill="#6ecaec" fill-opacity="1.00" stroke="none" stroke-width="0.9" stroke-opacity="1.00"/><polygon points="165.9,273.7 200.2,269.4 199.4,264.7 165.1,268.9" fill="none" fill-opacity="1.00" stroke="#37a2ca" stroke-width="0.9" stroke-opacity="1.00"/><polyline points="165.1,268.9 165.9,273.7" fill="none" stroke="#37a2ca" stroke-width="1" stroke-opacity="1.00"/><polyline points="165.1,269.3 165.9,274.1" fill="none" stroke="#37a2ca" stroke-width="1" stroke-opacity="1.00"/><polyline points="165.1,269.3 165.1,268.9" fill="none" stroke="#37a2ca" stroke-width="1" stroke-opacity="1.00"/><polyline points="165.9,274.1 165.9,273.7" fill="none" stroke="#37a2ca" stroke-width="1" stroke-opacity="1.00"/><polyline points="165.9,273.7 200.2,269.4" fill="none" stroke="#37a2ca" stroke-width="1" stroke-opacity="1.00"/><polyline points="165.9,274.1 200.2,269.8" fill="none" stroke="#37a2ca" stroke-width="1" stroke-opacity="1.00"/><polyline points="165.9,274.1 165.9,273.7" fill="none" stroke="#37a2ca" stroke-width="1" stroke-opacity="1.00"/><polyline points="200.2,269.8 200.2,269.4" fill="none" stroke="#37a2ca" stroke-width="1" stroke-opacity="1.00"/><polygon points="35.0,168.0 137.0,155.3 137.8,150.4 28.8,164.0" fill="#e4e9f2" fill-opacity="1.00" stroke="none" stroke-width="0.9" stroke-opacity="1.00"/><polygon points="35.0,168.0 137.0,155.3 137.8,150.4 28.8,164.0" fill="none" fill-opacity="1.00" stroke="#8a93a3" stroke-width="0.9" stroke-opacity="1.00"/><polygon points="193.7,177.8 221.5,344.1 221.5,314.5 193.7,148.3" fill="#e5e0d9" fill-opacity="1.00" stroke="none" stroke-width="0.9" stroke-opacity="1.00"/><polyline points="193.7,148.3 221.5,314.5" fill="none" stroke="#8A93A3" stroke-width="1" stroke-opacity="1.00"/><polyline points="193.7,177.8 221.5,344.1" fill="none" stroke="#8A93A3" stroke-width="1" stroke-opacity="1.00"/><polyline points="193.7,177.8 193.7,148.3" fill="none" stroke="#8A93A3" stroke-width="1" stroke-opacity="1.00"/><polyline points="221.5,344.1 221.5,314.5" fill="none" stroke="#8A93A3" stroke-width="1" stroke-opacity="1.00"/><polygon points="199.4,265.1 200.2,269.8 200.2,240.2 199.4,235.5" fill="#e5e0d9" fill-opacity="1.00" stroke="none" stroke-width="0.9" stroke-opacity="1.00"/><polyline points="199.4,235.5 200.2,240.2" fill="none" stroke="#8A93A3" stroke-width="1" stroke-opacity="1.00"/><polyline points="199.4,265.1 200.2,269.8" fill="none" stroke="#8A93A3" stroke-width="1" stroke-opacity="1.00"/><polyline points="199.4,265.1 199.4,235.5" fill="none" stroke="#8A93A3" stroke-width="1" stroke-opacity="1.00"/><polyline points="200.2,269.8 200.2,240.2" fill="none" stroke="#8A93A3" stroke-width="1" stroke-opacity="1.00"/><polygon points="200.2,269.8 214.4,268.0 214.4,238.5 200.2,240.2" fill="#fdfdfc" fill-opacity="1.00" stroke="none" stroke-width="0.9" stroke-opacity="1.00"/><polyline points="200.2,240.2 214.4,238.5" fill="none" stroke="#8A93A3" stroke-width="1" stroke-opacity="1.00"/><polyline points="200.2,269.8 214.4,268.0" fill="none" stroke="#8A93A3" stroke-width="1" stroke-opacity="1.00"/><polyline points="200.2,269.8 200.2,240.2" fill="none" stroke="#8A93A3" stroke-width="1" stroke-opacity="1.00"/><polyline points="214.4,268.0 214.4,238.5" fill="none" stroke="#8A93A3" stroke-width="1" stroke-opacity="1.00"/><polygon points="165.1,269.3 165.9,274.1 165.9,273.7 165.1,268.9" fill="#6bb3c8" fill-opacity="1.00" stroke="none" stroke-width="0.9" stroke-opacity="1.00"/><polygon points="165.9,274.1 200.2,269.8 200.2,269.4 165.9,273.7" fill="#7eceeb" fill-opacity="1.00" stroke="none" stroke-width="0.9" stroke-opacity="1.00"/><polygon points="165.9,274.1 200.2,269.8 200.2,240.2 165.9,244.5" fill="none" fill-opacity="1.00" stroke="#E8A13B" stroke-width="0.9" stroke-opacity="1.00"/><polygon points="44.8,289.1 165.9,274.1 165.9,244.5 44.8,259.6" fill="#fdfdfc" fill-opacity="1.00" stroke="none" stroke-width="0.9" stroke-opacity="1.00"/><polyline points="44.8,259.6 165.9,244.5" fill="none" stroke="#8A93A3" stroke-width="1" stroke-opacity="1.00"/><polyline points="44.8,289.1 165.9,274.1" fill="none" stroke="#8A93A3" stroke-width="1" stroke-opacity="1.00"/><polyline points="44.8,289.1 44.8,259.6" fill="none" stroke="#8A93A3" stroke-width="1" stroke-opacity="1.00"/><polyline points="165.9,274.1 165.9,244.5" fill="none" stroke="#8A93A3" stroke-width="1" stroke-opacity="1.00"/><polygon points="44.0,284.4 44.8,289.1 44.8,259.6 44.0,254.8" fill="#e5e0d9" fill-opacity="1.00" stroke="none" stroke-width="0.9" stroke-opacity="1.00"/><polyline points="44.0,254.8 44.8,259.6" fill="none" stroke="#8A93A3" stroke-width="1" stroke-opacity="1.00"/><polyline points="44.0,284.4 44.8,289.1" fill="none" stroke="#8A93A3" stroke-width="1" stroke-opacity="1.00"/><polyline points="44.0,284.4 44.0,254.8" fill="none" stroke="#8A93A3" stroke-width="1" stroke-opacity="1.00"/><polyline points="44.8,289.1 44.8,259.6" fill="none" stroke="#8A93A3" stroke-width="1" stroke-opacity="1.00"/><polygon points="193.7,148.3 221.5,314.5 227.4,316.6 198.3,142.9" fill="#e4e9f2" fill-opacity="1.00" stroke="none" stroke-width="0.9" stroke-opacity="1.00"/><polygon points="193.7,148.3 221.5,314.5 227.4,316.6 198.3,142.9" fill="none" fill-opacity="1.00" stroke="#8a93a3" stroke-width="0.9" stroke-opacity="1.00"/><polygon points="200.2,240.2 214.4,238.5 213.6,233.8 199.4,235.5" fill="#e4e9f2" fill-opacity="1.00" stroke="none" stroke-width="0.9" stroke-opacity="1.00"/><polygon points="200.2,240.2 214.4,238.5 213.6,233.8 199.4,235.5" fill="none" fill-opacity="1.00" stroke="#8a93a3" stroke-width="0.9" stroke-opacity="1.00"/><polyline points="221.5,343.7 226.5,373.3" fill="none" stroke="#37a2ca" stroke-width="1" stroke-opacity="1.00"/><polyline points="221.5,344.1 226.5,373.7" fill="none" stroke="#37a2ca" stroke-width="1" stroke-opacity="1.00"/><polyline points="221.5,344.1 221.5,343.7" fill="none" stroke="#37a2ca" stroke-width="1" stroke-opacity="1.00"/><polyline points="226.5,373.7 226.5,373.3" fill="none" stroke="#37a2ca" stroke-width="1" stroke-opacity="1.00"/><polygon points="221.5,343.7 226.5,373.3 232.6,376.7 227.4,345.7" fill="#6ecaec" fill-opacity="1.00" stroke="none" stroke-width="0.9" stroke-opacity="1.00"/><polygon points="221.5,343.7 226.5,373.3 232.6,376.7 227.4,345.7" fill="none" fill-opacity="1.00" stroke="#37a2ca" stroke-width="0.9" stroke-opacity="1.00"/><polygon points="44.8,259.6 165.9,244.5 165.1,239.8 44.0,254.8" fill="#e4e9f2" fill-opacity="1.00" stroke="none" stroke-width="0.9" stroke-opacity="1.00"/><polygon points="44.8,259.6 165.9,244.5 165.1,239.8 44.0,254.8" fill="none" fill-opacity="1.00" stroke="#8a93a3" stroke-width="0.9" stroke-opacity="1.00"/><polyline points="226.5,373.3 232.6,376.7" fill="none" stroke="#37a2ca" stroke-width="1" stroke-opacity="1.00"/><polyline points="226.5,373.7 232.6,377.1" fill="none" stroke="#37a2ca" stroke-width="1" stroke-opacity="1.00"/><polyline points="226.5,373.7 226.5,373.3" fill="none" stroke="#37a2ca" stroke-width="1" stroke-opacity="1.00"/><polyline points="232.6,377.1 232.6,376.7" fill="none" stroke="#37a2ca" stroke-width="1" stroke-opacity="1.00"/><polygon points="221.5,344.1 227.4,346.1 227.4,316.6 221.5,314.5" fill="#f7f5f3" fill-opacity="1.00" stroke="none" stroke-width="0.9" stroke-opacity="1.00"/><polyline points="221.5,314.5 227.4,316.6" fill="none" stroke="#8A93A3" stroke-width="1" stroke-opacity="1.00"/><polyline points="221.5,344.1 227.4,346.1" fill="none" stroke="#8A93A3" stroke-width="1" stroke-opacity="1.00"/><polyline points="221.5,344.1 221.5,314.5" fill="none" stroke="#8A93A3" stroke-width="1" stroke-opacity="1.00"/><polyline points="227.4,346.1 227.4,316.6" fill="none" stroke="#8A93A3" stroke-width="1" stroke-opacity="1.00"/><polygon points="221.5,344.1 226.5,373.7 226.5,373.3 221.5,343.7" fill="#6bb3c8" fill-opacity="1.00" stroke="none" stroke-width="0.9" stroke-opacity="1.00"/><polygon points="221.5,344.1 226.5,373.7 226.5,344.2 221.5,314.5" fill="none" fill-opacity="1.00" stroke="#E8A13B" stroke-width="0.9" stroke-opacity="1.00"/><polygon points="226.5,373.7 232.6,377.1 232.6,376.7 226.5,373.3" fill="#77c4de" fill-opacity="1.00" stroke="none" stroke-width="0.9" stroke-opacity="1.00"/><polygon points="226.5,373.7 229.0,388.5 229.0,359.0 226.5,344.2" fill="#e5e0d9" fill-opacity="1.00" stroke="none" stroke-width="0.9" stroke-opacity="1.00"/><polyline points="226.5,344.2 229.0,359.0" fill="none" stroke="#8A93A3" stroke-width="1" stroke-opacity="1.00"/><polyline points="226.5,373.7 229.0,388.5" fill="none" stroke="#8A93A3" stroke-width="1" stroke-opacity="1.00"/><polyline points="226.5,373.7 226.5,344.2" fill="none" stroke="#8A93A3" stroke-width="1" stroke-opacity="1.00"/><polyline points="229.0,388.5 229.0,359.0" fill="none" stroke="#8A93A3" stroke-width="1" stroke-opacity="1.00"/><polygon points="229.0,388.5 235.2,392.6 235.2,363.0 229.0,359.0" fill="#f3f0ed" fill-opacity="1.00" stroke="none" stroke-width="0.9" stroke-opacity="1.00"/><polyline points="229.0,359.0 235.2,363.0" fill="none" stroke="#8A93A3" stroke-width="1" stroke-opacity="1.00"/><polyline points="229.0,388.5 235.2,392.6" fill="none" stroke="#8A93A3" stroke-width="1" stroke-opacity="1.00"/><polyline points="229.0,388.5 229.0,359.0" fill="none" stroke="#8A93A3" stroke-width="1" stroke-opacity="1.00"/><polyline points="235.2,392.6 235.2,363.0" fill="none" stroke="#8A93A3" stroke-width="1" stroke-opacity="1.00"/><polygon points="226.5,344.2 229.0,359.0 235.2,363.0 232.6,347.5" fill="#e4e9f2" fill-opacity="1.00" stroke="none" stroke-width="0.9" stroke-opacity="1.00"/><polygon points="226.5,344.2 229.0,359.0 235.2,363.0 232.6,347.5" fill="none" fill-opacity="1.00" stroke="#8a93a3" stroke-width="0.9" stroke-opacity="1.00"/><polygon points="102.3,204.9 119.8,202.7 119.8,192.7 102.3,194.9" fill="#e6edf9" fill-opacity="1.00" stroke="#2F6BFF" stroke-width="0.9" stroke-opacity="1.00"/><polygon points="99.8,190.2 102.3,204.9 102.3,194.9 99.8,180.2" fill="#cfd0d6" fill-opacity="1.00" stroke="#2F6BFF" stroke-width="0.9" stroke-opacity="1.00"/><polygon points="117.4,178.0 99.8,180.2 102.3,194.9 119.8,192.7" fill="#e7eefc" fill-opacity="1.00" stroke="#2F6BFF" stroke-width="0.9" stroke-opacity="1.00"/><polygon points="111.3,204.0 119.6,203.0 119.6,193.7 111.3,194.8" fill="#f0f4fa" fill-opacity="1.00" stroke="#2F6BFF" stroke-width="0.9" stroke-opacity="1.00"/><polygon points="111.2,203.4 111.3,204.0 111.3,194.8 111.2,194.2" fill="#d9d7d7" fill-opacity="1.00" stroke="#2F6BFF" stroke-width="0.9" stroke-opacity="1.00"/><polygon points="119.5,193.1 111.2,194.2 111.3,194.8 119.6,193.7" fill="#f2f5fd" fill-opacity="1.00" stroke="#2F6BFF" stroke-width="0.9" stroke-opacity="1.00"/><polygon points="102.7,205.1 111.0,204.0 111.0,194.8 102.7,195.8" fill="#f0f4fa" fill-opacity="1.00" stroke="#2F6BFF" stroke-width="0.9" stroke-opacity="1.00"/><polygon points="102.6,204.4 102.7,205.1 102.7,195.8 102.6,195.2" fill="#d9d7d7" fill-opacity="1.00" stroke="#2F6BFF" stroke-width="0.9" stroke-opacity="1.00"/><polygon points="110.9,194.2 102.6,195.2 102.7,195.8 111.0,194.8" fill="#f2f5fd" fill-opacity="1.00" stroke="#2F6BFF" stroke-width="0.9" stroke-opacity="1.00"/><polygon points="111.7,200.4 112.3,200.4 112.3,198.8 111.7,198.8" fill="#acb0b9" fill-opacity="1.00" stroke="#2F6BFF" stroke-width="0.9" stroke-opacity="1.00"/><polygon points="111.7,200.0 111.7,200.4 111.7,198.8 111.7,198.4" fill="#989698" fill-opacity="1.00" stroke="#2F6BFF" stroke-width="0.9" stroke-opacity="1.00"/><polygon points="112.2,198.3 111.7,198.4 111.7,198.8 112.3,198.8" fill="#a9aeb8" fill-opacity="1.00" stroke="#2F6BFF" stroke-width="0.9" stroke-opacity="1.00"/><polygon points="110.2,200.6 110.7,200.6 110.7,199.0 110.2,199.0" fill="#acb0b9" fill-opacity="1.00" stroke="#2F6BFF" stroke-width="0.9" stroke-opacity="1.00"/><polygon points="110.1,200.2 110.2,200.6 110.2,199.0 110.1,198.6" fill="#989698" fill-opacity="1.00" stroke="#2F6BFF" stroke-width="0.9" stroke-opacity="1.00"/><polygon points="110.6,198.5 110.1,198.6 110.2,199.0 110.7,199.0" fill="#a9aeb8" fill-opacity="1.00" stroke="#2F6BFF" stroke-width="0.9" stroke-opacity="1.00"/><polygon points="183.4,259.2 206.0,256.4 206.0,214.3 183.4,217.1" fill="#e6edf9" fill-opacity="1.00" stroke="#2F6BFF" stroke-width="0.9" stroke-opacity="1.00"/><polygon points="173.5,200.4 183.4,259.2 183.4,217.1 173.5,158.3" fill="#cfd0d6" fill-opacity="1.00" stroke="#2F6BFF" stroke-width="0.9" stroke-opacity="1.00"/><polygon points="183.4,217.1 206.0,214.3 196.2,155.5 173.5,158.3" fill="#e7eefc" fill-opacity="1.00" stroke="#2F6BFF" stroke-width="0.9" stroke-opacity="1.00"/><polygon points="174.0,198.7 184.6,197.3 184.6,158.6 174.0,159.9" fill="#f0f4fa" fill-opacity="1.00" stroke="#2F6BFF" stroke-width="0.9" stroke-opacity="1.00"/><polygon points="173.6,196.2 174.0,198.7 174.0,159.9 173.6,157.5" fill="#d9d7d7" fill-opacity="1.00" stroke="#2F6BFF" stroke-width="0.9" stroke-opacity="1.00"/><polygon points="174.0,159.9 184.6,158.6 184.2,156.2 173.6,157.5" fill="#f2f5fd" fill-opacity="1.00" stroke="#2F6BFF" stroke-width="0.9" stroke-opacity="1.00"/><polygon points="185.1,197.3 195.7,196.0 195.7,157.2 185.1,158.6" fill="#f0f4fa" fill-opacity="1.00" stroke="#2F6BFF" stroke-width="0.9" stroke-opacity="1.00"/><polygon points="184.7,194.9 185.1,197.3 185.1,158.6 184.7,156.1" fill="#d9d7d7" fill-opacity="1.00" stroke="#2F6BFF" stroke-width="0.9" stroke-opacity="1.00"/><polygon points="185.1,158.6 195.7,157.2 195.3,154.8 184.7,156.1" fill="#f2f5fd" fill-opacity="1.00" stroke="#2F6BFF" stroke-width="0.9" stroke-opacity="1.00"/><polygon points="183.2,179.7 183.9,179.6 183.9,172.9 183.2,172.9" fill="#acb0b9" fill-opacity="1.00" stroke="#2F6BFF" stroke-width="0.9" stroke-opacity="1.00"/><polygon points="182.9,177.9 183.2,179.7 183.2,172.9 182.9,171.1" fill="#989698" fill-opacity="1.00" stroke="#2F6BFF" stroke-width="0.9" stroke-opacity="1.00"/><polygon points="183.2,172.9 183.9,172.9 183.5,171.0 182.9,171.1" fill="#a9aeb8" fill-opacity="1.00" stroke="#2F6BFF" stroke-width="0.9" stroke-opacity="1.00"/><polygon points="185.2,179.4 185.9,179.3 185.9,172.6 185.2,172.7" fill="#acb0b9" fill-opacity="1.00" stroke="#2F6BFF" stroke-width="0.9" stroke-opacity="1.00"/><polygon points="184.9,177.6 185.2,179.4 185.2,172.7 184.9,170.9" fill="#989698" fill-opacity="1.00" stroke="#2F6BFF" stroke-width="0.9" stroke-opacity="1.00"/><polygon points="185.2,172.7 185.9,172.6 185.6,170.8 184.9,170.9" fill="#a9aeb8" fill-opacity="1.00" stroke="#2F6BFF" stroke-width="0.9" stroke-opacity="1.00"/><polygon points="53.0,259.3 106.9,252.5 106.9,248.5 53.0,255.2" fill="#f2d9a3" fill-opacity="1.00" stroke="#2F6BFF" stroke-width="0.9" stroke-opacity="1.00"/><polygon points="43.1,200.7 53.0,259.3 53.0,255.2 43.1,196.7" fill="#dbbd83" fill-opacity="1.00" stroke="#2F6BFF" stroke-width="0.9" stroke-opacity="1.00"/><polygon points="53.0,255.2 106.9,248.5 97.1,190.0 43.1,196.7" fill="#f4d9a1" fill-opacity="1.00" stroke="#2F6BFF" stroke-width="0.9" stroke-opacity="1.00"/><polygon points="50.6,255.5 109.2,248.2 109.2,244.6 50.6,251.9" fill="#f7e9cb" fill-opacity="1.00" stroke="#2F6BFF" stroke-width="0.9" stroke-opacity="1.00"/><polygon points="40.2,193.6 50.6,255.5 50.6,251.9 40.2,190.0" fill="#dfcdaa" fill-opacity="1.00" stroke="#2F6BFF" stroke-width="0.9" stroke-opacity="1.00"/><polygon points="50.6,251.9 109.2,244.6 98.8,182.7 40.2,190.0" fill="#f9eacb" fill-opacity="1.00" stroke="#2F6BFF" stroke-width="0.9" stroke-opacity="1.00"/><polygon points="54.5,250.1 77.9,247.2 77.9,245.5 54.5,248.5" fill="#f7e9cb" fill-opacity="1.00" stroke="#2F6BFF" stroke-width="0.9" stroke-opacity="1.00"/><polygon points="52.0,235.3 54.5,250.1 54.5,248.5 52.0,233.7" fill="#dfcdaa" fill-opacity="1.00" stroke="#2F6BFF" stroke-width="0.9" stroke-opacity="1.00"/><polygon points="54.5,248.5 77.9,245.5 75.4,230.7 52.0,233.7" fill="#f9eacb" fill-opacity="1.00" stroke="#2F6BFF" stroke-width="0.9" stroke-opacity="1.00"/><polygon points="81.4,246.7 104.9,243.8 104.9,242.2 81.4,245.1" fill="#f7e9cb" fill-opacity="1.00" stroke="#2F6BFF" stroke-width="0.9" stroke-opacity="1.00"/><polygon points="79.0,231.9 81.4,246.7 81.4,245.1 79.0,230.3" fill="#dfcdaa" fill-opacity="1.00" stroke="#2F6BFF" stroke-width="0.9" stroke-opacity="1.00"/><polygon points="81.4,245.1 104.9,242.2 102.4,227.4 79.0,230.3" fill="#f9eacb" fill-opacity="1.00" stroke="#2F6BFF" stroke-width="0.9" stroke-opacity="1.00"/><polygon points="51.5,264.9 110.1,257.6 110.1,241.6 51.5,248.9" fill="#f2d9a3" fill-opacity="1.00" stroke="#2F6BFF" stroke-width="0.9" stroke-opacity="1.00"/><polygon points="50.7,260.2 51.5,264.9 51.5,248.9 50.7,244.2" fill="#dbbd83" fill-opacity="1.00" stroke="#2F6BFF" stroke-width="0.9" stroke-opacity="1.00"/><polygon points="51.5,248.9 110.1,241.6 109.3,236.9 50.7,244.2" fill="#f4d9a1" fill-opacity="1.00" stroke="#2F6BFF" stroke-width="0.9" stroke-opacity="1.00"/><polygon points="73.7,314.0 159.6,303.3 159.6,296.1 73.7,306.8" fill="#f2d9a3" fill-opacity="1.00" stroke="#2F6BFF" stroke-width="0.9" stroke-opacity="1.00"/><polygon points="69.1,286.8 73.7,314.0 73.7,306.8 69.1,279.6" fill="#dbbd83" fill-opacity="1.00" stroke="#2F6BFF" stroke-width="0.9" stroke-opacity="1.00"/><polygon points="155.1,268.9 69.1,279.6 73.7,306.8 159.6,296.1" fill="#f4d9a1" fill-opacity="1.00" stroke="#2F6BFF" stroke-width="0.9" stroke-opacity="1.00"/><polygon points="117.3,300.2 146.6,296.5 146.6,293.2 117.3,296.8" fill="#f7e9cb" fill-opacity="1.00" stroke="#2F6BFF" stroke-width="0.9" stroke-opacity="1.00"/><polygon points="113.9,279.5 117.3,300.2 117.3,296.8 113.9,276.1" fill="#dfcdaa" fill-opacity="1.00" stroke="#2F6BFF" stroke-width="0.9" stroke-opacity="1.00"/><polygon points="143.1,272.4 113.9,276.1 117.3,296.8 146.6,293.2" fill="#f9eacb" fill-opacity="1.00" stroke="#2F6BFF" stroke-width="0.9" stroke-opacity="1.00"/><polygon points="86.4,304.0 115.6,300.4 115.6,297.0 86.4,300.7" fill="#f7e9cb" fill-opacity="1.00" stroke="#2F6BFF" stroke-width="0.9" stroke-opacity="1.00"/><polygon points="82.9,283.3 86.4,304.0 86.4,300.7 82.9,279.9" fill="#dfcdaa" fill-opacity="1.00" stroke="#2F6BFF" stroke-width="0.9" stroke-opacity="1.00"/><polygon points="112.1,276.3 82.9,279.9 86.4,300.7 115.6,297.0" fill="#f9eacb" fill-opacity="1.00" stroke="#2F6BFF" stroke-width="0.9" stroke-opacity="1.00"/><polygon points="69.9,284.3 155.9,273.6 155.9,264.8 69.9,275.5" fill="#f2d9a3" fill-opacity="1.00" stroke="#2F6BFF" stroke-width="0.9" stroke-opacity="1.00"/><polygon points="69.1,279.6 69.9,284.3 69.9,275.5 69.1,270.8" fill="#dbbd83" fill-opacity="1.00" stroke="#2F6BFF" stroke-width="0.9" stroke-opacity="1.00"/><polygon points="155.1,260.1 69.1,270.8 69.9,275.5 155.9,264.8" fill="#f4d9a1" fill-opacity="1.00" stroke="#2F6BFF" stroke-width="0.9" stroke-opacity="1.00"/><polygon points="148.7,298.7 159.8,297.3 159.8,291.7 148.7,293.1" fill="#f2d9a3" fill-opacity="1.00" stroke="#2F6BFF" stroke-width="0.9" stroke-opacity="1.00"/><polygon points="144.8,275.6 148.7,298.7 148.7,293.1 144.8,270.0" fill="#dbbd83" fill-opacity="1.00" stroke="#2F6BFF" stroke-width="0.9" stroke-opacity="1.00"/><polygon points="156.0,268.6 144.8,270.0 148.7,293.1 159.8,291.7" fill="#f4d9a1" fill-opacity="1.00" stroke="#2F6BFF" stroke-width="0.9" stroke-opacity="1.00"/><polygon points="73.9,308.0 85.1,306.6 85.1,301.0 73.9,302.4" fill="#f2d9a3" fill-opacity="1.00" stroke="#2F6BFF" stroke-width="0.9" stroke-opacity="1.00"/><polygon points="70.0,284.9 73.9,308.0 73.9,302.4 70.0,279.3" fill="#dbbd83" fill-opacity="1.00" stroke="#2F6BFF" stroke-width="0.9" stroke-opacity="1.00"/><polygon points="81.2,277.9 70.0,279.3 73.9,302.4 85.1,301.0" fill="#f4d9a1" fill-opacity="1.00" stroke="#2F6BFF" stroke-width="0.9" stroke-opacity="1.00"/><polygon points="102.0,344.0 144.9,338.7 144.9,338.1 102.0,343.4" fill="#f0f4fa" fill-opacity="0.99" stroke="#2F6BFF" stroke-width="0.9" stroke-opacity="0.99"/><polygon points="98.6,323.8 102.0,344.0 102.0,343.4 98.6,323.2" fill="#d9d7d7" fill-opacity="0.99" stroke="#2F6BFF" stroke-width="0.9" stroke-opacity="0.99"/><polygon points="102.0,343.4 144.9,338.1 141.5,317.9 98.6,323.2" fill="#f2f5fd" fill-opacity="0.99" stroke="#2F6BFF" stroke-width="0.9" stroke-opacity="0.99"/><polygon points="99.8,333.5 103.2,333.1 103.2,325.3 99.8,325.7" fill="#acb0b9" fill-opacity="0.99" stroke="#2F6BFF" stroke-width="0.9" stroke-opacity="0.99"/><polygon points="99.5,331.9 99.8,333.5 99.8,325.7 99.5,324.1" fill="#989698" fill-opacity="0.99" stroke="#2F6BFF" stroke-width="0.9" stroke-opacity="0.99"/><polygon points="99.8,325.7 103.2,325.3 102.9,323.7 99.5,324.1" fill="#a9aeb8" fill-opacity="0.99" stroke="#2F6BFF" stroke-width="0.9" stroke-opacity="0.99"/><polygon points="137.6,328.8 141.0,328.4 141.0,320.6 137.6,321.0" fill="#acb0b9" fill-opacity="0.99" stroke="#2F6BFF" stroke-width="0.9" stroke-opacity="0.99"/><polygon points="137.3,327.2 137.6,328.8 137.6,321.0 137.3,319.4" fill="#989698" fill-opacity="0.99" stroke="#2F6BFF" stroke-width="0.9" stroke-opacity="0.99"/><polygon points="137.6,321.0 141.0,320.6 140.8,319.0 137.3,319.4" fill="#a9aeb8" fill-opacity="0.99" stroke="#2F6BFF" stroke-width="0.9" stroke-opacity="0.99"/><polygon points="102.7,351.3 106.2,350.8 106.2,343.1 102.7,343.5" fill="#acb0b9" fill-opacity="0.99" stroke="#2F6BFF" stroke-width="0.9" stroke-opacity="0.99"/><polygon points="102.5,349.6 102.7,351.3 102.7,343.5 102.5,341.9" fill="#989698" fill-opacity="0.99" stroke="#2F6BFF" stroke-width="0.9" stroke-opacity="0.99"/><polygon points="102.7,343.5 106.2,343.1 105.9,341.5 102.5,341.9" fill="#a9aeb8" fill-opacity="0.99" stroke="#2F6BFF" stroke-width="0.9" stroke-opacity="0.99"/><polygon points="140.6,346.6 144.0,346.1 144.0,338.4 140.6,338.8" fill="#acb0b9" fill-opacity="0.99" stroke="#2F6BFF" stroke-width="0.9" stroke-opacity="0.99"/><polygon points="140.3,344.9 140.6,346.6 140.6,338.8 140.3,337.2" fill="#989698" fill-opacity="0.99" stroke="#2F6BFF" stroke-width="0.9" stroke-opacity="0.99"/><polygon points="140.6,338.8 144.0,338.4 143.7,336.8 140.3,337.2" fill="#a9aeb8" fill-opacity="0.99" stroke="#2F6BFF" stroke-width="0.9" stroke-opacity="0.99"/><polygon points="68.7,393.7 85.1,391.7 85.1,355.2 68.7,357.2" fill="#e6edf9" fill-opacity="0.96" stroke="#2F6BFF" stroke-width="0.9" stroke-opacity="0.96"/><polygon points="59.9,341.5 68.7,393.7 68.7,357.2 59.9,305.0" fill="#cfd0d6" fill-opacity="0.96" stroke="#2F6BFF" stroke-width="0.9" stroke-opacity="0.96"/><polygon points="68.7,357.2 85.1,355.2 76.4,303.0 59.9,305.0" fill="#e7eefc" fill-opacity="0.96" stroke="#2F6BFF" stroke-width="0.9" stroke-opacity="0.96"/><polygon points="60.3,340.0 68.0,339.0 68.0,305.5 60.3,306.4" fill="#f0f4fa" fill-opacity="0.96" stroke="#2F6BFF" stroke-width="0.9" stroke-opacity="0.96"/><polygon points="59.9,337.8 60.3,340.0 60.3,306.4 59.9,304.3" fill="#d9d7d7" fill-opacity="0.96" stroke="#2F6BFF" stroke-width="0.9" stroke-opacity="0.96"/><polygon points="60.3,306.4 68.0,305.5 67.6,303.3 59.9,304.3" fill="#f2f5fd" fill-opacity="0.96" stroke="#2F6BFF" stroke-width="0.9" stroke-opacity="0.96"/><polygon points="68.3,339.0 76.0,338.0 76.0,304.5 68.3,305.4" fill="#f0f4fa" fill-opacity="0.96" stroke="#2F6BFF" stroke-width="0.9" stroke-opacity="0.96"/><polygon points="68.0,336.8 68.3,339.0 68.3,305.4 68.0,303.3" fill="#d9d7d7" fill-opacity="0.96" stroke="#2F6BFF" stroke-width="0.9" stroke-opacity="0.96"/><polygon points="68.3,305.4 76.0,304.5 75.7,302.3 68.0,303.3" fill="#f2f5fd" fill-opacity="0.96" stroke="#2F6BFF" stroke-width="0.9" stroke-opacity="0.96"/><polygon points="66.9,323.6 67.4,323.6 67.4,317.7 66.9,317.8" fill="#acb0b9" fill-opacity="0.96" stroke="#2F6BFF" stroke-width="0.9" stroke-opacity="0.96"/><polygon points="66.6,322.0 66.9,323.6 66.9,317.8 66.6,316.2" fill="#989698" fill-opacity="0.96" stroke="#2F6BFF" stroke-width="0.9" stroke-opacity="0.96"/><polygon points="66.9,317.8 67.4,317.7 67.1,316.1 66.6,316.2" fill="#a9aeb8" fill-opacity="0.96" stroke="#2F6BFF" stroke-width="0.9" stroke-opacity="0.96"/><polygon points="68.4,323.5 68.9,323.4 68.9,317.6 68.4,317.6" fill="#acb0b9" fill-opacity="0.96" stroke="#2F6BFF" stroke-width="0.9" stroke-opacity="0.96"/><polygon points="68.1,321.8 68.4,323.5 68.4,317.6 68.1,316.0" fill="#989698" fill-opacity="0.96" stroke="#2F6BFF" stroke-width="0.9" stroke-opacity="0.96"/><polygon points="68.4,317.6 68.9,317.6 68.6,315.9 68.1,316.0" fill="#a9aeb8" fill-opacity="0.96" stroke="#2F6BFF" stroke-width="0.9" stroke-opacity="0.96"/><polygon points="106.4,401.9 157.2,395.6 157.2,385.1 106.4,391.5" fill="#acb0b9" fill-opacity="0.84" stroke="#2F6BFF" stroke-width="0.9" stroke-opacity="0.84"/><polygon points="105.8,398.4 106.4,401.9 106.4,391.5 105.8,387.9" fill="#989698" fill-opacity="0.84" stroke="#2F6BFF" stroke-width="0.9" stroke-opacity="0.84"/><polygon points="106.4,391.5 157.2,385.1 156.6,381.6 105.8,387.9" fill="#a9aeb8" fill-opacity="0.84" stroke="#2F6BFF" stroke-width="0.9" stroke-opacity="0.84"/><polygon points="121.8,398.3 142.1,395.7 142.1,391.1 121.8,393.7" fill="#e6edf9" fill-opacity="0.84" stroke="#2F6BFF" stroke-width="0.9" stroke-opacity="0.84"/><polygon points="121.6,397.1 121.8,398.3 121.8,393.7 121.6,392.5" fill="#cfd0d6" fill-opacity="0.84" stroke="#2F6BFF" stroke-width="0.9" stroke-opacity="0.84"/><polygon points="121.8,393.7 142.1,391.1 141.9,390.0 121.6,392.5" fill="#e7eefc" fill-opacity="0.84" stroke="#2F6BFF" stroke-width="0.9" stroke-opacity="0.84"/><polygon points="28.8,193.5 52.4,334.6 52.4,305.0 28.8,164.0" fill="#e5e0d9" fill-opacity="1.00" stroke="none" stroke-width="0.9" stroke-opacity="1.00"/><polyline points="28.8,164.0 52.4,305.0" fill="none" stroke="#8A93A3" stroke-width="1" stroke-opacity="1.00"/><polyline points="28.8,193.5 52.4,334.6" fill="none" stroke="#8A93A3" stroke-width="1" stroke-opacity="1.00"/><polyline points="28.8,193.5 28.8,164.0" fill="none" stroke="#8A93A3" stroke-width="1" stroke-opacity="1.00"/><polyline points="52.4,334.6 52.4,305.0" fill="none" stroke="#8A93A3" stroke-width="1" stroke-opacity="1.00"/><polygon points="57.7,303.0 35.0,168.0 28.8,164.0 52.4,305.0" fill="#e4e9f2" fill-opacity="1.00" stroke="none" stroke-width="0.9" stroke-opacity="1.00"/><polygon points="57.7,303.0 35.0,168.0 28.8,164.0 52.4,305.0" fill="none" fill-opacity="1.00" stroke="#8a93a3" stroke-width="0.9" stroke-opacity="1.00"/><polygon points="52.4,334.6 57.7,332.5 57.7,303.0 52.4,305.0" fill="#ffffff" fill-opacity="1.00" stroke="none" stroke-width="0.9" stroke-opacity="1.00"/><polyline points="52.4,305.0 57.7,303.0" fill="none" stroke="#8A93A3" stroke-width="1" stroke-opacity="1.00"/><polyline points="52.4,334.6 57.7,332.5" fill="none" stroke="#8A93A3" stroke-width="1" stroke-opacity="1.00"/><polyline points="52.4,334.6 52.4,305.0" fill="none" stroke="#8A93A3" stroke-width="1" stroke-opacity="1.00"/><polyline points="57.7,332.5 57.7,303.0" fill="none" stroke="#8A93A3" stroke-width="1" stroke-opacity="1.00"/><polyline points="52.4,315.5 61.1,367.1" fill="none" stroke="#8A93A3" stroke-width="1" stroke-opacity="1.00"/><polyline points="52.4,334.6 61.1,386.1" fill="none" stroke="#8A93A3" stroke-width="1" stroke-opacity="1.00"/><polyline points="52.4,334.6 52.4,315.5" fill="none" stroke="#8A93A3" stroke-width="1" stroke-opacity="1.00"/><polyline points="61.1,386.1 61.1,367.1" fill="none" stroke="#8A93A3" stroke-width="1" stroke-opacity="1.00"/><polygon points="52.7,315.4 61.3,366.8 61.3,356.3 52.7,304.9" fill="#6bb3c8" fill-opacity="1.00" stroke="none" stroke-width="0.9" stroke-opacity="1.00"/><polygon points="52.4,334.6 61.1,386.1 61.1,367.1 52.4,315.5" fill="#e5e0d9" fill-opacity="1.00" stroke="none" stroke-width="0.9" stroke-opacity="1.00"/><polyline points="61.1,367.1 65.9,362.9" fill="none" stroke="#8A93A3" stroke-width="1" stroke-opacity="1.00"/><polyline points="61.1,386.1 65.9,381.9" fill="none" stroke="#8A93A3" stroke-width="1" stroke-opacity="1.00"/><polyline points="61.1,386.1 61.1,367.1" fill="none" stroke="#8A93A3" stroke-width="1" stroke-opacity="1.00"/><polyline points="65.9,381.9 65.9,362.9" fill="none" stroke="#8A93A3" stroke-width="1" stroke-opacity="1.00"/><polygon points="65.9,362.9 57.7,313.5 52.4,315.5 61.1,367.1" fill="#e4e9f2" fill-opacity="1.00" stroke="none" stroke-width="0.9" stroke-opacity="1.00"/><polygon points="65.9,362.9 57.7,313.5 52.4,315.5 61.1,367.1" fill="none" fill-opacity="1.00" stroke="#8a93a3" stroke-width="0.9" stroke-opacity="1.00"/><polygon points="61.1,386.1 65.9,381.9 65.9,362.9 61.1,367.1" fill="#ffffff" fill-opacity="1.00" stroke="none" stroke-width="0.9" stroke-opacity="1.00"/><polyline points="52.7,304.9 61.3,356.3" fill="none" stroke="#3EB8E5" stroke-width="1" stroke-opacity="1.00"/><polyline points="52.7,315.4 61.3,366.8" fill="none" stroke="#3EB8E5" stroke-width="1" stroke-opacity="1.00"/><polyline points="52.7,315.4 52.7,304.9" fill="none" stroke="#3EB8E5" stroke-width="1" stroke-opacity="1.00"/><polyline points="61.3,366.8 61.3,356.3" fill="none" stroke="#3EB8E5" stroke-width="1" stroke-opacity="1.00"/><polygon points="61.1,386.1 65.7,413.7 65.7,384.1 61.1,356.6" fill="#e5e0d9" fill-opacity="1.00" stroke="none" stroke-width="0.9" stroke-opacity="1.00"/><polyline points="61.1,356.6 65.7,384.1" fill="none" stroke="#8A93A3" stroke-width="1" stroke-opacity="1.00"/><polyline points="61.1,386.1 65.7,413.7" fill="none" stroke="#8A93A3" stroke-width="1" stroke-opacity="1.00"/><polyline points="61.1,386.1 61.1,356.6" fill="none" stroke="#8A93A3" stroke-width="1" stroke-opacity="1.00"/><polyline points="65.7,413.7 65.7,384.1" fill="none" stroke="#8A93A3" stroke-width="1" stroke-opacity="1.00"/><polygon points="65.7,413.7 235.2,392.6 235.2,363.0 65.7,384.1" fill="#fdfdfc" fill-opacity="0.20" stroke="none" stroke-width="0.9" stroke-opacity="0.44"/><polyline points="65.7,384.1 235.2,363.0" fill="none" stroke="#8A93A3" stroke-width="1" stroke-opacity="1.00"/><polyline points="65.7,413.7 235.2,392.6" fill="none" stroke="#8A93A3" stroke-width="1" stroke-opacity="1.00"/><polyline points="65.7,413.7 65.7,384.1" fill="none" stroke="#8A93A3" stroke-width="1" stroke-opacity="1.00"/><polyline points="235.2,392.6 235.2,363.0" fill="none" stroke="#8A93A3" stroke-width="1" stroke-opacity="1.00"/><polygon points="65.7,413.7 70.3,408.3 70.3,378.7 65.7,384.1" fill="#fefefe" fill-opacity="1.00" stroke="none" stroke-width="0.9" stroke-opacity="1.00"/><polyline points="65.7,384.1 70.3,378.7" fill="none" stroke="#8A93A3" stroke-width="1" stroke-opacity="1.00"/><polyline points="65.7,413.7 70.3,408.3" fill="none" stroke="#8A93A3" stroke-width="1" stroke-opacity="1.00"/><polyline points="65.7,413.7 65.7,384.1" fill="none" stroke="#8A93A3" stroke-width="1" stroke-opacity="1.00"/><polyline points="70.3,408.3 70.3,378.7" fill="none" stroke="#8A93A3" stroke-width="1" stroke-opacity="1.00"/><polygon points="70.3,378.7 65.9,352.4 61.1,356.6 65.7,384.1" fill="#e4e9f2" fill-opacity="1.00" stroke="none" stroke-width="0.9" stroke-opacity="1.00"/><polygon points="70.3,378.7 65.9,352.4 61.1,356.6 65.7,384.1" fill="none" fill-opacity="1.00" stroke="#8a93a3" stroke-width="0.9" stroke-opacity="1.00"/><polygon points="229.0,359.0 70.3,378.7 65.7,384.1 235.2,363.0" fill="#e4e9f2" fill-opacity="1.00" stroke="none" stroke-width="0.9" stroke-opacity="1.00"/><polygon points="229.0,359.0 70.3,378.7 65.7,384.1 235.2,363.0" fill="none" fill-opacity="1.00" stroke="#8a93a3" stroke-width="0.9" stroke-opacity="1.00"/></g><rect x="0" y="478" width="264" height="58" fill="#2F6BFF"/><g opacity="1.00"><text x="132" y="514.0" font-family="Helvetica" font-size="30.0" font-weight="bold" letter-spacing="0.5" text-anchor="middle" fill="#FFFFFF">EN VOLUME</text></g><rect x="0" y="532" width="264" height="4" fill="#FFFFFF" fill-opacity="0.25"/><rect x="0" y="532" width="60.2" height="4" fill="#FFFFFF"/></svg>