<svg xmlns="http://www.w3.org/2000/svg" width="264" height="536" viewBox="0 0 264 536"><rect width="264" height="536" fill="#080B12"/><g opacity="0.22" transform="translate(0 -46.0) translate(132.0 268.0) scale(0.900) translate(-132.0 -268.0)"><line x1="-94.2" y1="29.7" x2="-69.1" y2="538.8" stroke="#2B3E63" stroke-width="0.8" opacity="0.43"/><line x1="-55.4" y1="27.9" x2="-30.3" y2="536.9" stroke="#2B3E63" stroke-width="0.8" opacity="0.49"/><line x1="-16.5" y1="26.0" x2="8.6" y2="535.0" stroke="#2B3E63" stroke-width="0.8" opacity="0.54"/><line x1="22.3" y1="24.1" x2="47.4" y2="533.1" stroke="#2B3E63" stroke-width="0.8" opacity="0.60"/><line x1="61.2" y1="22.2" x2="86.3" y2="531.2" stroke="#2B3E63" stroke-width="0.8" opacity="0.62"/><line x1="100.0" y1="20.3" x2="125.1" y2="529.3" stroke="#2B3E63" stroke-width="0.8" opacity="0.62"/><line x1="138.9" y1="18.4" x2="164.0" y2="527.4" stroke="#2B3E63" stroke-width="0.8" opacity="0.62"/><line x1="177.7" y1="16.5" x2="202.8" y2="525.6" stroke="#2B3E63" stroke-width="0.8" opacity="0.62"/><line x1="216.6" y1="14.6" x2="241.7" y2="523.7" stroke="#2B3E63" stroke-width="0.8" opacity="0.60"/><line x1="255.4" y1="12.8" x2="280.5" y2="521.8" stroke="#2B3E63" stroke-width="0.8" opacity="0.54"/><line x1="294.3" y1="10.9" x2="319.4" y2="519.9" stroke="#2B3E63" stroke-width="0.8" opacity="0.49"/><line x1="333.1" y1="9.0" x2="358.2" y2="518.0" stroke="#2B3E63" stroke-width="0.8" opacity="0.43"/><line x1="-94.2" y1="29.7" x2="333.1" y2="9.0" stroke="#2B3E63" stroke-width="0.8" opacity="0.43"/><line x1="-92.3" y1="68.3" x2="335.0" y2="47.5" stroke="#2B3E63" stroke-width="0.8" opacity="0.49"/><line x1="-90.4" y1="106.9" x2="336.9" y2="86.1" stroke="#2B3E63" stroke-width="0.8" opacity="0.54"/><line x1="-88.5" y1="145.4" x2="338.8" y2="124.7" stroke="#2B3E63" stroke-width="0.8" opacity="0.60"/><line x1="-86.6" y1="184.0" x2="340.7" y2="163.2" stroke="#2B3E63" stroke-width="0.8" opacity="0.62"/><line x1="-84.7" y1="222.6" x2="342.6" y2="201.8" stroke="#2B3E63" stroke-width="0.8" opacity="0.62"/><line x1="-82.8" y1="261.1" x2="344.5" y2="240.4" stroke="#2B3E63" stroke-width="0.8" opacity="0.62"/><line x1="-80.9" y1="299.7" x2="346.4" y2="278.9" stroke="#2B3E63" stroke-width="0.8" opacity="0.62"/><line x1="-79.0" y1="338.2" x2="348.3" y2="317.5" stroke="#2B3E63" stroke-width="0.8" opacity="0.62"/><line x1="-77.1" y1="376.8" x2="350.2" y2="356.0" stroke="#2B3E63" stroke-width="0.8" opacity="0.62"/><line x1="-75.2" y1="415.4" x2="352.1" y2="394.6" stroke="#2B3E63" stroke-width="0.8" opacity="0.61"/><line x1="-73.3" y1="453.9" x2="354.0" y2="433.2" stroke="#2B3E63" stroke-width="0.8" opacity="0.55"/><line x1="-71.4" y1="492.5" x2="355.9" y2="471.7" stroke="#2B3E63" stroke-width="0.8" opacity="0.50"/><line x1="-69.5" y1="531.1" x2="357.8" y2="510.3" stroke="#2B3E63" stroke-width="0.8" opacity="0.44"/><polygon points="44.3,154.4 207.5,146.5 219.7,393.3 56.5,401.2" fill="#1C2D4B" fill-opacity="0.70" stroke="#2E4166" stroke-width="0.9" stroke-opacity="0.79"/><polygon points="50.6,156.1 115.9,152.9 120.1,237.0 54.8,240.1" fill="#1b2b47" fill-opacity="0.70" stroke="none" stroke-width="0.9" stroke-opacity="0.79"/><polygon points="53.5,158.6 113.3,155.7 117.2,234.4 57.4,237.3" fill="#1a2944" fill-opacity="0.70" stroke="none" stroke-width="0.9" stroke-opacity="0.79"/><polygon points="135.6,176.3 111.1,177.5 109.9,153.2 134.4,152.0" fill="#1b2b47" fill-opacity="0.70" stroke="none" stroke-width="0.9" stroke-opacity="0.79"/><polygon points="132.7,173.7 113.7,174.6 112.7,155.8 131.8,154.8" fill="#1a2944" fill-opacity="0.70" stroke="none" stroke-width="0.9" stroke-opacity="0.79"/><polygon points="181.0,169.4 210.5,168.0 214.3,244.4 184.7,245.8" fill="#1b2b47" fill-opacity="0.70" stroke="none" stroke-width="0.9" stroke-opacity="0.79"/><polygon points="183.8,172.0 207.9,170.8 211.4,241.8 187.3,243.0" fill="#1a2944" fill-opacity="0.70" stroke="none" stroke-width="0.9" stroke-opacity="0.79"/><polygon points="163.8,295.9 71.4,300.4 69.4,259.5 161.8,255.0" fill="#1b2b47" fill-opacity="0.70" stroke="none" stroke-width="0.9" stroke-opacity="0.79"/><polygon points="161.0,293.3 74.0,297.6 72.2,262.1 159.2,257.9" fill="#1a2944" fill-opacity="0.70" stroke="none" stroke-width="0.9" stroke-opacity="0.79"/><polygon points="93.4,312.9 143.1,310.4 144.6,340.5 94.9,342.9" fill="#1b2b47" fill-opacity="0.70" stroke="none" stroke-width="0.9" stroke-opacity="0.79"/><polygon points="96.3,315.4 140.6,313.3 141.8,338.0 97.5,340.1" fill="#1a2944" fill-opacity="0.70" stroke="none" stroke-width="0.9" stroke-opacity="0.79"/><polygon points="93.3,389.0 150.8,386.2 151.4,398.6 93.9,401.4" fill="#1b2b47" fill-opacity="0.70" stroke="none" stroke-width="0.9" stroke-opacity="0.79"/><polygon points="96.1,391.6 148.2,389.1 148.5,396.0 96.5,398.5" fill="#1a2944" fill-opacity="0.70" stroke="none" stroke-width="0.9" stroke-opacity="0.79"/><polygon points="54.4,318.6 77.7,317.5 81.1,386.1 57.8,387.3" fill="#1b2b47" fill-opacity="0.70" stroke="none" stroke-width="0.9" stroke-opacity="0.79"/><polygon points="57.2,321.2 75.1,320.3 78.2,383.6 60.3,384.4" fill="#1a2944" fill-opacity="0.70" stroke="none" stroke-width="0.9" stroke-opacity="0.79"/><polygon points="204.9,149.3 210.1,143.7 210.1,142.0 204.9,147.7" fill="#425371" fill-opacity="1.00" stroke="none" stroke-width="0.9" stroke-opacity="1.00"/><polyline points="204.9,147.7 210.1,142.0" fill="none" stroke="#3E5375" stroke-width="1" stroke-opacity="1.00"/><polyline points="204.9,149.3 210.1,143.7" fill="none" stroke="#3E5375" stroke-width="1" stroke-opacity="1.00"/><polyline points="204.9,149.3 204.9,147.7" fill="none" stroke="#3E5375" stroke-width="1" stroke-opacity="1.00"/><polyline points="210.1,143.7 210.1,142.0" fill="none" stroke="#3E5375" stroke-width="1" stroke-opacity="1.00"/><polygon points="47.2,157.0 204.9,149.3 204.9,147.7 47.2,155.4" fill="#3f4f6c" fill-opacity="1.00" stroke="none" stroke-width="0.9" stroke-opacity="1.00"/><polygon points="41.5,151.9 47.2,157.0 47.2,155.4 41.5,150.2" fill="#2d3a52" fill-opacity="1.00" stroke="none" stroke-width="0.9" stroke-opacity="1.00"/><polyline points="47.2,155.4 204.9,147.7" fill="none" stroke="#3E5375" stroke-width="1" stroke-opacity="1.00"/><polyline points="47.2,157.0 204.9,149.3" fill="none" stroke="#3E5375" stroke-width="1" stroke-opacity="1.00"/><polyline points="47.2,157.0 47.2,155.4" fill="none" stroke="#3E5375" stroke-width="1" stroke-opacity="1.00"/><polyline points="204.9,149.3 204.9,147.7" fill="none" stroke="#3E5375" stroke-width="1" stroke-opacity="1.00"/><polyline points="41.5,150.2 47.2,155.4" fill="none" stroke="#3E5375" stroke-width="1" stroke-opacity="1.00"/><polyline points="41.5,151.9 47.2,157.0" fill="none" stroke="#3E5375" stroke-width="1" stroke-opacity="1.00"/><polyline points="41.5,151.9 41.5,150.2" fill="none" stroke="#3E5375" stroke-width="1" stroke-opacity="1.00"/><polyline points="47.2,157.0 47.2,155.4" fill="none" stroke="#3E5375" stroke-width="1" stroke-opacity="1.00"/><polygon points="167.3,255.4 201.4,253.8 201.2,248.4 167.0,250.0" fill="#59def2" fill-opacity="1.00" stroke="none" stroke-width="0.9" stroke-opacity="1.00"/><polygon points="47.2,155.4 204.9,147.7 210.1,142.0 41.5,150.2" fill="#c9d4ea" fill-opacity="1.00" stroke="none" stroke-width="0.9" stroke-opacity="1.00"/><polyline points="167.0,250.0 167.3,255.4" fill="none" stroke="#1ebad1" stroke-width="1" stroke-opacity="1.00"/><polyline points="167.0,250.1 167.3,255.5" fill="none" stroke="#1ebad1" stroke-width="1" stroke-opacity="1.00"/><polyline points="167.0,250.1 167.0,250.0" fill="none" stroke="#1ebad1" stroke-width="1" stroke-opacity="1.00"/><polyline points="167.3,255.5 167.3,255.4" fill="none" stroke="#1ebad1" stroke-width="1" stroke-opacity="1.00"/><polyline points="167.3,255.4 201.4,253.8" fill="none" stroke="#1ebad1" stroke-width="1" stroke-opacity="1.00"/><polyline points="167.3,255.5 201.4,253.9" fill="none" stroke="#1ebad1" stroke-width="1" stroke-opacity="1.00"/><polyline points="167.3,255.5 167.3,255.4" fill="none" stroke="#1ebad1" stroke-width="1" stroke-opacity="1.00"/><polyline points="201.4,253.9 201.4,253.8" fill="none" stroke="#1ebad1" stroke-width="1" stroke-opacity="1.00"/><polygon points="167.3,255.4 201.4,253.8 201.2,248.4 167.0,250.0" fill="none" fill-opacity="1.00" stroke="#1ebad1" stroke-width="0.9" stroke-opacity="1.00"/><polygon points="47.2,155.4 204.9,147.7 210.1,142.0 41.5,150.2" fill="none" fill-opacity="1.00" stroke="#e6ebf5" stroke-width="0.9" stroke-opacity="1.00"/><polygon points="204.9,149.3 214.3,339.8 214.3,338.2 204.9,147.7" fill="#182133" fill-opacity="1.00" stroke="none" stroke-width="0.9" stroke-opacity="1.00"/><polyline points="204.9,147.7 214.3,338.2" fill="none" stroke="#3E5375" stroke-width="1" stroke-opacity="1.00"/><polyline points="204.9,149.3 214.3,339.8" fill="none" stroke="#3E5375" stroke-width="1" stroke-opacity="1.00"/><polyline points="204.9,149.3 204.9,147.7" fill="none" stroke="#3E5375" stroke-width="1" stroke-opacity="1.00"/><polyline points="214.3,339.8 214.3,338.2" fill="none" stroke="#3E5375" stroke-width="1" stroke-opacity="1.00"/><polygon points="201.2,248.5 201.4,253.9 201.4,252.2 201.2,246.8" fill="#182133" fill-opacity="1.00" stroke="none" stroke-width="0.9" stroke-opacity="1.00"/><polygon points="167.0,250.1 167.3,255.5 167.3,255.4 167.0,250.0" fill="#2496af" fill-opacity="1.00" stroke="none" stroke-width="0.9" stroke-opacity="1.00"/><polygon points="201.4,253.9 215.5,253.2 215.5,251.5 201.4,252.2" fill="#3f4f6c" fill-opacity="1.00" stroke="none" stroke-width="0.9" stroke-opacity="1.00"/><polygon points="167.3,255.5 201.4,253.9 201.4,253.8 167.3,255.4" fill="#4cc9ed" fill-opacity="1.00" stroke="none" stroke-width="0.9" stroke-opacity="1.00"/><polygon points="167.3,255.5 201.4,253.9 201.4,252.2 167.3,253.9" fill="none" fill-opacity="1.00" stroke="#FFB020" stroke-width="0.9" stroke-opacity="1.00"/><polyline points="201.2,246.8 201.4,252.2" fill="none" stroke="#3E5375" stroke-width="1" stroke-opacity="1.00"/><polyline points="201.2,248.5 201.4,253.9" fill="none" stroke="#3E5375" stroke-width="1" stroke-opacity="1.00"/><polyline points="201.2,248.5 201.2,246.8" fill="none" stroke="#3E5375" stroke-width="1" stroke-opacity="1.00"/><polyline points="201.4,253.9 201.4,252.2" fill="none" stroke="#3E5375" stroke-width="1" stroke-opacity="1.00"/><polygon points="46.9,261.4 167.3,255.5 167.3,253.9 46.9,259.7" fill="#3f4f6c" fill-opacity="1.00" stroke="none" stroke-width="0.9" stroke-opacity="1.00"/><polygon points="46.6,256.0 46.9,261.4 46.9,259.7 46.6,254.3" fill="#182133" fill-opacity="1.00" stroke="none" stroke-width="0.9" stroke-opacity="1.00"/><polyline points="201.4,252.2 215.5,251.5" fill="none" stroke="#3E5375" stroke-width="1" stroke-opacity="1.00"/><polyline points="201.4,253.9 215.5,253.2" fill="none" stroke="#3E5375" stroke-width="1" stroke-opacity="1.00"/><polyline points="201.4,253.9 201.4,252.2" fill="none" stroke="#3E5375" stroke-width="1" stroke-opacity="1.00"/><polyline points="215.5,253.2 215.5,251.5" fill="none" stroke="#3E5375" stroke-width="1" stroke-opacity="1.00"/><polyline points="46.9,259.7 167.3,253.9" fill="none" stroke="#3E5375" stroke-width="1" stroke-opacity="1.00"/><polyline points="46.9,261.4 167.3,255.5" fill="none" stroke="#3E5375" stroke-width="1" stroke-opacity="1.00"/><polyline points="46.9,261.4 46.9,259.7" fill="none" stroke="#3E5375" stroke-width="1" stroke-opacity="1.00"/><polyline points="167.3,255.5 167.3,253.9" fill="none" stroke="#3E5375" stroke-width="1" stroke-opacity="1.00"/><polyline points="46.6,254.3 46.9,259.7" fill="none" stroke="#3E5375" stroke-width="1" stroke-opacity="1.00"/><polyline points="46.6,256.0 46.9,261.4" fill="none" stroke="#3E5375" stroke-width="1" stroke-opacity="1.00"/><polyline points="46.6,256.0 46.6,254.3" fill="none" stroke="#3E5375" stroke-width="1" stroke-opacity="1.00"/><polyline points="46.9,261.4 46.9,259.7" fill="none" stroke="#3E5375" stroke-width="1" stroke-opacity="1.00"/><polygon points="204.9,147.7 214.3,338.2 219.9,341.0 210.1,142.0" fill="#c9d4ea" fill-opacity="1.00" stroke="none" stroke-width="0.9" stroke-opacity="1.00"/><polygon points="204.9,147.7 214.3,338.2 219.9,341.0 210.1,142.0" fill="none" fill-opacity="1.00" stroke="#e6ebf5" stroke-width="0.9" stroke-opacity="1.00"/><polygon points="201.4,252.2 215.5,251.5 215.2,246.1 201.2,246.8" fill="#c9d4ea" fill-opacity="1.00" stroke="none" stroke-width="0.9" stroke-opacity="1.00"/><polygon points="214.3,339.7 216.0,373.7 221.6,378.1 219.9,342.6" fill="#59def2" fill-opacity="1.00" stroke="none" stroke-width="0.9" stroke-opacity="1.00"/><polyline points="214.3,339.7 216.0,373.7" fill="none" stroke="#1ebad1" stroke-width="1" stroke-opacity="1.00"/><polyline points="214.3,339.8 216.0,373.8" fill="none" stroke="#1ebad1" stroke-width="1" stroke-opacity="1.00"/><polyline points="214.3,339.8 214.3,339.7" fill="none" stroke="#1ebad1" stroke-width="1" stroke-opacity="1.00"/><polyline points="216.0,373.8 216.0,373.7" fill="none" stroke="#1ebad1" stroke-width="1" stroke-opacity="1.00"/><polygon points="46.9,259.7 167.3,253.9 167.0,248.5 46.6,254.3" fill="#c9d4ea" fill-opacity="1.00" stroke="none" stroke-width="0.9" stroke-opacity="1.00"/><polygon points="201.4,252.2 215.5,251.5 215.2,246.1 201.2,246.8" fill="none" fill-opacity="1.00" stroke="#e6ebf5" stroke-width="0.9" stroke-opacity="1.00"/><polygon points="214.3,339.7 216.0,373.7 221.6,378.1 219.9,342.6" fill="none" fill-opacity="1.00" stroke="#1ebad1" stroke-width="0.9" stroke-opacity="1.00"/><polygon points="46.9,259.7 167.3,253.9 167.0,248.5 46.6,254.3" fill="none" fill-opacity="1.00" stroke="#e6ebf5" stroke-width="0.9" stroke-opacity="1.00"/><polyline points="216.0,373.7 221.6,378.1" fill="none" stroke="#1ebad1" stroke-width="1" stroke-opacity="1.00"/><polyline points="216.0,373.8 221.6,378.1" fill="none" stroke="#1ebad1" stroke-width="1" stroke-opacity="1.00"/><polyline points="216.0,373.8 216.0,373.7" fill="none" stroke="#1ebad1" stroke-width="1" stroke-opacity="1.00"/><polyline points="221.6,378.1 221.6,378.1" fill="none" stroke="#1ebad1" stroke-width="1" stroke-opacity="1.00"/><polygon points="214.3,339.8 219.9,342.7 219.9,341.0 214.3,338.2" fill="#34425c" fill-opacity="1.00" stroke="none" stroke-width="0.9" stroke-opacity="1.00"/><polyline points="214.3,338.2 219.9,341.0" fill="none" stroke="#3E5375" stroke-width="1" stroke-opacity="1.00"/><polyline points="214.3,339.8 219.9,342.7" fill="none" stroke="#3E5375" stroke-width="1" stroke-opacity="1.00"/><polyline points="214.3,339.8 214.3,338.2" fill="none" stroke="#3E5375" stroke-width="1" stroke-opacity="1.00"/><polyline points="219.9,342.7 219.9,341.0" fill="none" stroke="#3E5375" stroke-width="1" stroke-opacity="1.00"/><polygon points="214.3,339.8 216.0,373.8 216.0,373.7 214.3,339.7" fill="#2496af" fill-opacity="1.00" stroke="none" stroke-width="0.9" stroke-opacity="1.00"/><polygon points="214.3,339.8 216.0,373.8 216.0,372.1 214.3,338.2" fill="none" fill-opacity="1.00" stroke="#FFB020" stroke-width="0.9" stroke-opacity="1.00"/><polygon points="216.0,373.8 221.6,378.1 221.6,378.1 216.0,373.7" fill="#3cb5d4" fill-opacity="1.00" stroke="none" stroke-width="0.9" stroke-opacity="1.00"/><polygon points="216.0,373.8 216.8,390.7 216.8,389.1 216.0,372.1" fill="#182133" fill-opacity="1.00" stroke="none" stroke-width="0.9" stroke-opacity="1.00"/><polyline points="216.0,372.1 216.8,389.1" fill="none" stroke="#3E5375" stroke-width="1" stroke-opacity="1.00"/><polyline points="216.0,373.8 216.8,390.7" fill="none" stroke="#3E5375" stroke-width="1" stroke-opacity="1.00"/><polyline points="216.0,373.8 216.0,372.1" fill="none" stroke="#3E5375" stroke-width="1" stroke-opacity="1.00"/><polyline points="216.8,390.7 216.8,389.1" fill="none" stroke="#3E5375" stroke-width="1" stroke-opacity="1.00"/><polygon points="216.8,390.7 222.5,395.9 222.5,394.2 216.8,389.1" fill="#2d3a52" fill-opacity="1.00" stroke="none" stroke-width="0.9" stroke-opacity="1.00"/><polyline points="216.8,389.1 222.5,394.2" fill="none" stroke="#3E5375" stroke-width="1" stroke-opacity="1.00"/><polyline points="216.8,390.7 222.5,395.9" fill="none" stroke="#3E5375" stroke-width="1" stroke-opacity="1.00"/><polyline points="216.8,390.7 216.8,389.1" fill="none" stroke="#3E5375" stroke-width="1" stroke-opacity="1.00"/><polyline points="222.5,395.9 222.5,394.2" fill="none" stroke="#3E5375" stroke-width="1" stroke-opacity="1.00"/><polygon points="216.0,372.1 216.8,389.1 222.5,394.2 221.6,376.5" fill="#c9d4ea" fill-opacity="1.00" stroke="none" stroke-width="0.9" stroke-opacity="1.00"/><polygon points="216.0,372.1 216.8,389.1 222.5,394.2 221.6,376.5" fill="none" fill-opacity="1.00" stroke="#e6ebf5" stroke-width="0.9" stroke-opacity="1.00"/><polygon points="112.3,171.5 129.8,170.6 129.8,170.4 112.3,171.3" fill="#445678" fill-opacity="0.09" stroke="#3D7BFF" stroke-width="0.9" stroke-opacity="0.09"/><polygon points="111.5,154.7 112.3,171.5 112.3,171.3 111.5,154.4" fill="#1d283f" fill-opacity="0.09" stroke="#3D7BFF" stroke-width="0.9" stroke-opacity="0.09"/><polygon points="129.0,153.6 111.5,154.4 112.3,171.3 129.8,170.4" fill="#5d6577" fill-opacity="0.09" stroke="#3D7BFF" stroke-width="0.9" stroke-opacity="0.09"/><polygon points="121.3,171.7 129.5,171.3 129.5,171.1 121.3,171.5" fill="#8897b1" fill-opacity="0.09" stroke="#3D7BFF" stroke-width="0.9" stroke-opacity="0.09"/><polygon points="121.3,171.0 121.3,171.7 121.3,171.5 121.3,170.9" fill="#5e6676" fill-opacity="0.09" stroke="#3D7BFF" stroke-width="0.9" stroke-opacity="0.09"/><polygon points="129.5,170.5 121.3,170.9 121.3,171.5 129.5,171.1" fill="#a5aab4" fill-opacity="0.09" stroke="#3D7BFF" stroke-width="0.9" stroke-opacity="0.09"/><polygon points="112.7,172.2 120.9,171.8 120.9,171.6 112.7,172.0" fill="#8897b1" fill-opacity="0.09" stroke="#3D7BFF" stroke-width="0.9" stroke-opacity="0.09"/><polygon points="112.7,171.5 112.7,172.2 112.7,172.0 112.7,171.3" fill="#5e6676" fill-opacity="0.09" stroke="#3D7BFF" stroke-width="0.9" stroke-opacity="0.09"/><polygon points="120.9,170.9 112.7,171.3 112.7,172.0 120.9,171.6" fill="#a5aab4" fill-opacity="0.09" stroke="#3D7BFF" stroke-width="0.9" stroke-opacity="0.09"/><polygon points="122.2,171.4 121.6,171.4 121.7,172.0 122.2,171.9" fill="#595f6a" fill-opacity="0.09" stroke="#3D7BFF" stroke-width="0.9" stroke-opacity="0.09"/><polygon points="120.6,171.5 120.1,171.5 120.1,172.0 120.6,172.0" fill="#595f6a" fill-opacity="0.09" stroke="#3D7BFF" stroke-width="0.9" stroke-opacity="0.09"/><polygon points="58.1,228.4 111.7,225.8 111.7,225.7 58.1,228.3" fill="#d2c39f" fill-opacity="0.03" stroke="#3D7BFF" stroke-width="0.9" stroke-opacity="0.03"/><polygon points="54.8,161.3 58.1,228.4 58.1,228.3 54.8,161.2" fill="#a59065" fill-opacity="0.03" stroke="#3D7BFF" stroke-width="0.9" stroke-opacity="0.03"/><polygon points="58.1,228.3 111.7,225.7 108.4,158.6 54.8,161.2" fill="#f4d9a1" fill-opacity="0.03" stroke="#3D7BFF" stroke-width="0.9" stroke-opacity="0.03"/><polygon points="55.8,228.4 114.0,225.6 114.0,225.6 55.8,228.4" fill="#d6d3c7" fill-opacity="0.03" stroke="#3D7BFF" stroke-width="0.9" stroke-opacity="0.03"/><polygon points="52.3,157.5 55.8,228.4 55.8,228.4 52.3,157.5" fill="#a9a08b" fill-opacity="0.03" stroke="#3D7BFF" stroke-width="0.9" stroke-opacity="0.03"/><polygon points="55.8,228.4 114.0,225.6 110.5,154.6 52.3,157.5" fill="#f9eacb" fill-opacity="0.03" stroke="#3D7BFF" stroke-width="0.9" stroke-opacity="0.03"/><polygon points="59.8,226.7 83.1,225.5 83.1,225.5 59.8,226.7" fill="#d6d3c7" fill-opacity="0.03" stroke="#3D7BFF" stroke-width="0.9" stroke-opacity="0.03"/><polygon points="58.9,209.7 59.8,226.7 59.8,226.7 58.9,209.7" fill="#a9a08b" fill-opacity="0.03" stroke="#3D7BFF" stroke-width="0.9" stroke-opacity="0.03"/><polygon points="59.8,226.7 83.1,225.5 82.2,208.6 58.9,209.7" fill="#f9eacb" fill-opacity="0.03" stroke="#3D7BFF" stroke-width="0.9" stroke-opacity="0.03"/><polygon points="86.6,225.4 109.9,224.2 109.9,224.2 86.6,225.4" fill="#d6d3c7" fill-opacity="0.03" stroke="#3D7BFF" stroke-width="0.9" stroke-opacity="0.03"/><polygon points="85.7,208.4 86.6,225.4 86.6,225.4 85.7,208.4" fill="#a9a08b" fill-opacity="0.03" stroke="#3D7BFF" stroke-width="0.9" stroke-opacity="0.03"/><polygon points="86.6,225.4 109.9,224.2 109.1,207.3 85.7,208.4" fill="#f9eacb" fill-opacity="0.03" stroke="#3D7BFF" stroke-width="0.9" stroke-opacity="0.03"/><polygon points="56.1,234.7 114.3,231.8 114.3,231.7 56.1,234.5" fill="#d2c39f" fill-opacity="0.03" stroke="#3D7BFF" stroke-width="0.9" stroke-opacity="0.03"/><polygon points="55.8,229.3 56.1,234.7 56.1,234.5 55.8,229.1" fill="#a59065" fill-opacity="0.03" stroke="#3D7BFF" stroke-width="0.9" stroke-opacity="0.03"/><polygon points="56.1,234.5 114.3,231.7 114.1,226.3 55.8,229.1" fill="#f4d9a1" fill-opacity="0.03" stroke="#3D7BFF" stroke-width="0.9" stroke-opacity="0.03"/><polygon points="149.1,141.9 149.4,147.3 149.4,147.2 149.1,141.8" fill="#2496af" fill-opacity="1.00" stroke="none" stroke-width="0.9" stroke-opacity="1.00"/><polygon points="149.4,147.3 196.0,145.1 196.0,145.0 149.4,147.2" fill="#4cc9ed" fill-opacity="1.00" stroke="none" stroke-width="0.9" stroke-opacity="1.00"/><polygon points="149.4,147.2 196.0,145.0 195.7,139.6 149.1,141.8" fill="#64e0f3" fill-opacity="1.00" stroke="none" stroke-width="0.9" stroke-opacity="1.00"/><polyline points="149.1,141.8 149.4,147.2" fill="none" stroke="#3E5375" stroke-width="1" stroke-opacity="1.00"/><polyline points="149.1,141.9 149.4,147.3" fill="none" stroke="#3E5375" stroke-width="1" stroke-opacity="1.00"/><polyline points="149.1,141.9 149.1,141.8" fill="none" stroke="#3E5375" stroke-width="1" stroke-opacity="1.00"/><polyline points="149.4,147.3 149.4,147.2" fill="none" stroke="#3E5375" stroke-width="1" stroke-opacity="1.00"/><polyline points="149.4,147.2 196.0,145.0" fill="none" stroke="#3E5375" stroke-width="1" stroke-opacity="1.00"/><polyline points="149.4,147.3 196.0,145.1" fill="none" stroke="#3E5375" stroke-width="1" stroke-opacity="1.00"/><polyline points="149.4,147.3 149.4,147.2" fill="none" stroke="#3E5375" stroke-width="1" stroke-opacity="1.00"/><polyline points="196.0,145.1 196.0,145.0" fill="none" stroke="#3E5375" stroke-width="1" stroke-opacity="1.00"/><polygon points="149.4,147.2 196.0,145.0 195.7,139.6 149.1,141.8" fill="none" fill-opacity="1.00" stroke="#3E5375" stroke-width="0.9" stroke-opacity="1.00"/><polygon points="49.4,308.2 52.3,366.1 52.3,366.0 49.4,308.1" fill="#2496af" fill-opacity="1.00" stroke="none" stroke-width="0.9" stroke-opacity="1.00"/><polygon points="57.7,365.7 54.9,307.9 49.4,308.1 52.3,366.0" fill="#64e0f3" fill-opacity="1.00" stroke="none" stroke-width="0.9" stroke-opacity="1.00"/><polyline points="49.4,308.1 52.3,366.0" fill="none" stroke="#3E5375" stroke-width="1" stroke-opacity="1.00"/><polyline points="49.4,308.2 52.3,366.1" fill="none" stroke="#3E5375" stroke-width="1" stroke-opacity="1.00"/><polyline points="49.4,308.2 49.4,308.1" fill="none" stroke="#3E5375" stroke-width="1" stroke-opacity="1.00"/><polyline points="52.3,366.1 52.3,366.0" fill="none" stroke="#3E5375" stroke-width="1" stroke-opacity="1.00"/><polygon points="57.7,365.7 54.9,307.9 49.4,308.1 52.3,366.0" fill="none" fill-opacity="1.00" stroke="#3E5375" stroke-width="0.9" stroke-opacity="1.00"/><polygon points="52.3,366.1 57.7,365.8 57.7,365.7 52.3,366.0" fill="#4cc9ed" fill-opacity="1.00" stroke="none" stroke-width="0.9" stroke-opacity="1.00"/><polyline points="52.3,366.0 57.7,365.7" fill="none" stroke="#3E5375" stroke-width="1" stroke-opacity="1.00"/><polyline points="52.3,366.1 57.7,365.8" fill="none" stroke="#3E5375" stroke-width="1" stroke-opacity="1.00"/><polyline points="52.3,366.1 52.3,366.0" fill="none" stroke="#3E5375" stroke-width="1" stroke-opacity="1.00"/><polyline points="57.7,365.8 57.7,365.7" fill="none" stroke="#3E5375" stroke-width="1" stroke-opacity="1.00"/><polygon points="41.5,151.9 53.9,404.1 53.9,402.4 41.5,150.2" fill="#182133" fill-opacity="1.00" stroke="none" stroke-width="0.9" stroke-opacity="1.00"/><polyline points="41.5,150.2 53.9,402.4" fill="none" stroke="#3E5375" stroke-width="1" stroke-opacity="1.00"/><polyline points="41.5,151.9 53.9,404.1" fill="none" stroke="#3E5375" stroke-width="1" stroke-opacity="1.00"/><polyline points="41.5,151.9 41.5,150.2" fill="none" stroke="#3E5375" stroke-width="1" stroke-opacity="1.00"/><polyline points="53.9,404.1 53.9,402.4" fill="none" stroke="#3E5375" stroke-width="1" stroke-opacity="1.00"/><polygon points="59.1,396.8 47.2,155.4 41.5,150.2 53.9,402.4" fill="#c9d4ea" fill-opacity="1.00" stroke="none" stroke-width="0.9" stroke-opacity="1.00"/><polygon points="59.1,396.8 47.2,155.4 41.5,150.2 53.9,402.4" fill="none" fill-opacity="1.00" stroke="#e6ebf5" stroke-width="0.9" stroke-opacity="1.00"/><polygon points="53.9,404.1 222.5,395.9 222.5,394.2 53.9,402.4" fill="#3f4f6c" fill-opacity="1.00" stroke="none" stroke-width="0.9" stroke-opacity="1.00"/><polygon points="53.9,404.1 59.1,398.4 59.1,396.8 53.9,402.4" fill="#425371" fill-opacity="1.00" stroke="none" stroke-width="0.9" stroke-opacity="1.00"/><polyline points="53.9,402.4 222.5,394.2" fill="none" stroke="#3E5375" stroke-width="1" stroke-opacity="1.00"/><polyline points="53.9,404.1 222.5,395.9" fill="none" stroke="#3E5375" stroke-width="1" stroke-opacity="1.00"/><polyline points="53.9,404.1 53.9,402.4" fill="none" stroke="#3E5375" stroke-width="1" stroke-opacity="1.00"/><polyline points="222.5,395.9 222.5,394.2" fill="none" stroke="#3E5375" stroke-width="1" stroke-opacity="1.00"/><polyline points="53.9,402.4 59.1,396.8" fill="none" stroke="#3E5375" stroke-width="1" stroke-opacity="1.00"/><polyline points="53.9,404.1 59.1,398.4" fill="none" stroke="#3E5375" stroke-width="1" stroke-opacity="1.00"/><polyline points="53.9,404.1 53.9,402.4" fill="none" stroke="#3E5375" stroke-width="1" stroke-opacity="1.00"/><polyline points="59.1,398.4 59.1,396.8" fill="none" stroke="#3E5375" stroke-width="1" stroke-opacity="1.00"/><polygon points="216.8,389.1 59.1,396.8 53.9,402.4 222.5,394.2" fill="#c9d4ea" fill-opacity="1.00" stroke="none" stroke-width="0.9" stroke-opacity="1.00"/><polygon points="216.8,389.1 59.1,396.8 53.9,402.4 222.5,394.2" fill="none" fill-opacity="1.00" stroke="#e6ebf5" stroke-width="0.9" stroke-opacity="1.00"/></g><g transform="translate(0 0.0)"><rect x="16.5" y="25.0" width="231.0" height="412.0" rx="8.5" fill="#000000" opacity="0.5"/><rect x="15.0" y="28.0" width="234.0" height="412.0" rx="10.0" fill="#000000" opacity="0.3"/><rect x="13.5" y="31.0" width="237.0" height="412.0" rx="11.5" fill="#000000" opacity="0.16"/><rect x="18" y="22" width="228" height="412.0" rx="5" fill="#FFFFFF"/><svg x="18" y="22" width="228" height="412.0" viewBox="0 412.0 228 412.0"><rect x="0" y="0.0" width="228" height="436.7" fill="#FFFFFF"/><rect x="0" y="0.0" width="228" height="24" fill="#2F6BFF"/><text x="10" y="16.5" font-family="Helvetica Neue, Helvetica, Arial, sans-serif" font-size="11" font-weight="bold" letter-spacing="0.6" fill="#FFFFFF">PLAN — T2, 27 m²</text><g transform="translate(12 34)"><polygon points="40.5,6.8 163.5,6.8 163.5,194.2 40.5,194.2" fill="#F3F6FC" fill-opacity="1.00" stroke="#D9E0EC" stroke-width="0.9" stroke-opacity="1.00"/><polygon points="45.2,8.3 94.4,8.3 94.4,72.1 45.2,72.1" fill="#e3e6ec" fill-opacity="1.00" stroke="none" stroke-width="0.9" stroke-opacity="1.00"/><polygon points="47.2,10.3 92.3,10.3 92.3,70.0 47.2,70.0" fill="#d5d8de" fill-opacity="1.00" stroke="none" stroke-width="0.9" stroke-opacity="1.00"/><polygon points="108.3,26.7 89.8,26.7 89.8,8.3 108.3,8.3" fill="#e3e6ec" fill-opacity="1.00" stroke="none" stroke-width="0.9" stroke-opacity="1.00"/><polygon points="106.2,24.7 91.9,24.7 91.9,10.3 106.2,10.3" fill="#d5d8de" fill-opacity="1.00" stroke="none" stroke-width="0.9" stroke-opacity="1.00"/><polygon points="142.7,23.2 165.0,23.2 165.0,81.2 142.7,81.2" fill="#e3e6ec" fill-opacity="1.00" stroke="none" stroke-width="0.9" stroke-opacity="1.00"/><polygon points="144.7,25.2 162.9,25.2 162.9,79.1 144.7,79.1" fill="#d5d8de" fill-opacity="1.00" stroke="none" stroke-width="0.9" stroke-opacity="1.00"/><polygon points="125.1,118.4 55.4,118.4 55.4,87.3 125.1,87.3" fill="#e3e6ec" fill-opacity="1.00" stroke="none" stroke-width="0.9" stroke-opacity="1.00"/><polygon points="123.1,116.3 57.5,116.3 57.5,89.4 123.1,89.4" fill="#d5d8de" fill-opacity="1.00" stroke="none" stroke-width="0.9" stroke-opacity="1.00"/><polygon points="71.5,128.6 109.0,128.6 109.0,151.4 71.5,151.4" fill="#e3e6ec" fill-opacity="1.00" stroke="none" stroke-width="0.9" stroke-opacity="1.00"/><polygon points="73.6,130.7 107.0,130.7 107.0,149.4 73.6,149.4" fill="#d5d8de" fill-opacity="1.00" stroke="none" stroke-width="0.9" stroke-opacity="1.00"/><polygon points="68.6,186.3 112.0,186.3 112.0,195.7 68.6,195.7" fill="#e3e6ec" fill-opacity="1.00" stroke="none" stroke-width="0.9" stroke-opacity="1.00"/><polygon points="70.7,188.3 109.9,188.3 109.9,193.6 70.7,193.6" fill="#d5d8de" fill-opacity="1.00" stroke="none" stroke-width="0.9" stroke-opacity="1.00"/><polygon points="42.0,131.5 59.5,131.5 59.5,183.7 42.0,183.7" fill="#e3e6ec" fill-opacity="1.00" stroke="none" stroke-width="0.9" stroke-opacity="1.00"/><polygon points="44.0,133.6 57.5,133.6 57.5,181.6 44.0,181.6" fill="#d5d8de" fill-opacity="1.00" stroke="none" stroke-width="0.9" stroke-opacity="1.00"/><polygon points="42.6,170.8 42.6,126.9 38.5,126.9 38.5,170.8" fill="#78cded" fill-opacity="1.00" stroke="none" stroke-width="0.9" stroke-opacity="1.00"/><polygon points="42.6,170.8 42.6,126.9 38.5,126.9 38.5,170.8" fill="none" fill-opacity="1.00" stroke="#8A93A3" stroke-width="0.9" stroke-opacity="1.00"/><polygon points="119.6,8.9 154.7,8.9 154.7,4.8 119.6,4.8" fill="#78cded" fill-opacity="1.00" stroke="none" stroke-width="0.9" stroke-opacity="1.00"/><polygon points="119.6,8.9 154.7,8.9 154.7,4.8 119.6,4.8" fill="none" fill-opacity="1.00" stroke="#8A93A3" stroke-width="0.9" stroke-opacity="1.00"/><polygon points="42.6,8.9 161.4,8.9 165.5,4.8 38.5,4.8" fill="#12161d" fill-opacity="1.00" stroke="none" stroke-width="0.9" stroke-opacity="1.00"/><polygon points="161.4,8.9 161.4,153.5 165.5,155.9 165.5,4.8" fill="#12161d" fill-opacity="1.00" stroke="none" stroke-width="0.9" stroke-opacity="1.00"/><polygon points="161.4,179.3 161.4,192.1 165.5,196.2 165.5,182.8" fill="#12161d" fill-opacity="1.00" stroke="none" stroke-width="0.9" stroke-opacity="1.00"/><polygon points="161.4,153.5 161.4,179.3 165.5,182.8 165.5,155.9" fill="#6ecaec" fill-opacity="1.00" stroke="none" stroke-width="0.9" stroke-opacity="1.00"/><polygon points="161.4,192.1 42.6,192.1 38.5,196.2 165.5,196.2" fill="#12161d" fill-opacity="1.00" stroke="none" stroke-width="0.9" stroke-opacity="1.00"/><polygon points="42.6,192.1 42.6,8.9 38.5,4.8 38.5,196.2" fill="#12161d" fill-opacity="1.00" stroke="none" stroke-width="0.9" stroke-opacity="1.00"/><polygon points="38.5,87.9 129.2,87.9 129.2,83.8 38.5,83.8" fill="#12161d" fill-opacity="1.00" stroke="none" stroke-width="0.9" stroke-opacity="1.00"/><polygon points="154.9,87.9 165.5,87.9 165.5,83.8 154.9,83.8" fill="#12161d" fill-opacity="1.00" stroke="none" stroke-width="0.9" stroke-opacity="1.00"/><polygon points="129.2,87.9 154.9,87.9 154.9,83.8 129.2,83.8" fill="#6ecaec" fill-opacity="1.00" stroke="none" stroke-width="0.9" stroke-opacity="1.00"/><polygon points="42.6,8.9 161.4,8.9 165.5,4.8 38.5,4.8" fill="none" fill-opacity="1.00" stroke="#12161d" stroke-width="0.9" stroke-opacity="1.00"/><polygon points="161.4,8.9 161.4,153.5 165.5,155.9 165.5,4.8" fill="none" fill-opacity="1.00" stroke="#12161d" stroke-width="0.9" stroke-opacity="1.00"/><polygon points="161.4,179.3 161.4,192.1 165.5,196.2 165.5,182.8" fill="none" fill-opacity="1.00" stroke="#12161d" stroke-width="0.9" stroke-opacity="1.00"/><polygon points="161.4,153.5 161.4,179.3 165.5,182.8 165.5,155.9" fill="none" fill-opacity="1.00" stroke="#37a2ca" stroke-width="0.9" stroke-opacity="1.00"/><polygon points="161.4,192.1 42.6,192.1 38.5,196.2 165.5,196.2" fill="none" fill-opacity="1.00" stroke="#12161d" stroke-width="0.9" stroke-opacity="1.00"/><polygon points="42.6,192.1 42.6,8.9 38.5,4.8 38.5,196.2" fill="none" fill-opacity="1.00" stroke="#12161d" stroke-width="0.9" stroke-opacity="1.00"/><polygon points="38.5,87.9 129.2,87.9 129.2,83.8 38.5,83.8" fill="none" fill-opacity="1.00" stroke="#12161d" stroke-width="0.9" stroke-opacity="1.00"/><polygon points="154.9,87.9 165.5,87.9 165.5,83.8 154.9,83.8" fill="none" fill-opacity="1.00" stroke="#12161d" stroke-width="0.9" stroke-opacity="1.00"/><polygon points="129.2,87.9 154.9,87.9 154.9,83.8 129.2,83.8" fill="none" fill-opacity="1.00" stroke="#37a2ca" stroke-width="0.9" stroke-opacity="1.00"/><text x="107.9" y="197.2" font-family="Helvetica Neue, Helvetica, Arial, sans-serif" font-size="9.0" font-weight="bold" text-anchor="middle" fill="none" stroke="#FFFFFF" stroke-width="3" opacity="1.00">PC</text><text x="107.9" y="197.2" font-family="Helvetica Neue, Helvetica, Arial, sans-serif" font-size="9.0" font-weight="bold" text-anchor="middle" fill="#C8770A" opacity="1.00">PC</text><text x="40.5" y="106.4" font-family="Helvetica Neue, Helvetica, Arial, sans-serif" font-size="9.0" font-weight="bold" text-anchor="middle" fill="none" stroke="#FFFFFF" stroke-width="3" opacity="1.00">PC</text><text x="40.5" y="106.4" font-family="Helvetica Neue, Helvetica, Arial, sans-serif" font-size="9.0" font-weight="bold" text-anchor="middle" fill="#C8770A" opacity="1.00">PC</text><text x="163.5" y="167.9" font-family="Helvetica Neue, Helvetica, Arial, sans-serif" font-size="9.0" font-weight="bold" text-anchor="middle" fill="none" stroke="#FFFFFF" stroke-width="3" opacity="1.00">I</text><text x="163.5" y="167.9" font-family="Helvetica Neue, Helvetica, Arial, sans-serif" font-size="9.0" font-weight="bold" text-anchor="middle" fill="#1E7FBF" opacity="1.00">I</text><text x="78.6" y="197.2" font-family="Helvetica Neue, Helvetica, Arial, sans-serif" font-size="9.0" font-weight="bold" text-anchor="middle" fill="none" stroke="#FFFFFF" stroke-width="3" opacity="1.00">RJ</text><text x="78.6" y="197.2" font-family="Helvetica Neue, Helvetica, Arial, sans-serif" font-size="9.0" font-weight="bold" text-anchor="middle" fill="#7B3FC4" opacity="1.00">RJ</text><text x="116.6" y="88.9" font-family="Helvetica Neue, Helvetica, Arial, sans-serif" font-size="9.0" font-weight="bold" text-anchor="middle" fill="none" stroke="#FFFFFF" stroke-width="3" opacity="1.00">I</text><text x="116.6" y="88.9" font-family="Helvetica Neue, Helvetica, Arial, sans-serif" font-size="9.0" font-weight="bold" text-anchor="middle" fill="#1E7FBF" opacity="1.00">I</text><text x="107.9" y="9.8" font-family="Helvetica Neue, Helvetica, Arial, sans-serif" font-size="9.0" font-weight="bold" text-anchor="middle" fill="none" stroke="#FFFFFF" stroke-width="3" opacity="1.00">PC</text><text x="107.9" y="9.8" font-family="Helvetica Neue, Helvetica, Arial, sans-serif" font-size="9.0" font-weight="bold" text-anchor="middle" fill="#C8770A" opacity="1.00">PC</text></g><circle cx="18" cy="251.0" r="4" fill="#2F6BFF"/><rect x="28" y="247.5" width="105" height="7" rx="3.5" fill="#C9D0DC"/><circle cx="18" cy="267.0" r="4" fill="#E8A13B"/><rect x="28" y="263.5" width="87" height="7" rx="3.5" fill="#C9D0DC"/><circle cx="18" cy="283.0" r="4" fill="#3EB8E5"/><rect x="28" y="279.5" width="69" height="7" rx="3.5" fill="#C9D0DC"/><rect x="82" y="368.7" width="134" height="54" fill="none" stroke="#C9D0DC" stroke-width="1"/><line x1="82" y1="385.7" x2="216" y2="385.7" stroke="#C9D0DC" stroke-width="1"/><text x="90" y="381.2" font-family="Helvetica Neue, Helvetica, Arial, sans-serif" font-size="8.5" font-weight="bold" letter-spacing="1" fill="#5A6472">ECHOPLAN</text><rect x="90" y="393.7" width="100" height="5" rx="2.5" fill="#D5DCEA"/><rect x="90" y="403.7" width="86" height="5" rx="2.5" fill="#D5DCEA"/><rect x="90" y="413.7" width="72" height="5" rx="2.5" fill="#D5DCEA"/><rect x="0" y="450.7" width="228" height="436.7" fill="#FFFFFF"/><rect x="0" y="450.7" width="228" height="24" fill="#2F6BFF"/><text x="10" y="467.2" font-family="Helvetica Neue, Helvetica, Arial, sans-serif" font-size="11" font-weight="bold" letter-spacing="0.6" fill="#FFFFFF">FOURNITURES</text><rect x="12" y="484.7" width="14" height="14" rx="3" fill="#EDF1F8" stroke="#D5DCEA" stroke-width="0.8"/><rect x="32" y="489.2" width="73" height="7" rx="3.5" fill="#C9D0DC"/><rect x="172" y="489.2" width="44" height="7" rx="3.5" fill="#9AA5B5"/><rect x="12" y="504.7" width="14" height="14" rx="3" fill="#EDF1F8" stroke="#D5DCEA" stroke-width="0.8"/><rect x="32" y="509.2" width="105" height="7" rx="3.5" fill="#C9D0DC"/><rect x="172" y="509.2" width="44" height="7" rx="3.5" fill="#9AA5B5"/><rect x="12" y="524.7" width="14" height="14" rx="3" fill="#EDF1F8" stroke="#D5DCEA" stroke-width="0.8"/><rect x="32" y="529.2" width="137" height="7" rx="3.5" fill="#C9D0DC"/><rect x="172" y="529.2" width="44" height="7" rx="3.5" fill="#9AA5B5"/><rect x="12" y="544.7" width="14" height="14" rx="3" fill="#EDF1F8" stroke="#D5DCEA" stroke-width="0.8"/><rect x="32" y="549.2" width="89" height="7" rx="3.5" fill="#C9D0DC"/><rect x="172" y="549.2" width="44" height="7" rx="3.5" fill="#9AA5B5"/><rect x="12" y="564.7" width="14" height="14" rx="3" fill="#EDF1F8" stroke="#D5DCEA" stroke-width="0.8"/><rect x="32" y="569.2" width="121" height="7" rx="3.5" fill="#C9D0DC"/><rect x="172" y="569.2" width="44" height="7" rx="3.5" fill="#9AA5B5"/><rect x="12" y="584.7" width="14" height="14" rx="3" fill="#EDF1F8" stroke="#D5DCEA" stroke-width="0.8"/><rect x="32" y="589.2" width="73" height="7" rx="3.5" fill="#C9D0DC"/><rect x="172" y="589.2" width="44" height="7" rx="3.5" fill="#9AA5B5"/><rect x="12" y="604.7" width="14" height="14" rx="3" fill="#EDF1F8" stroke="#D5DCEA" stroke-width="0.8"/><rect x="32" y="609.2" width="105" height="7" rx="3.5" fill="#C9D0DC"/><rect x="172" y="609.2" width="44" height="7" rx="3.5" fill="#9AA5B5"/><rect x="12" y="624.7" width="14" height="14" rx="3" fill="#EDF1F8" stroke="#D5DCEA" stroke-width="0.8"/><rect x="32" y="629.2" width="137" height="7" rx="3.5" fill="#C9D0DC"/><rect x="172" y="629.2" width="44" height="7" rx="3.5" fill="#9AA5B5"/><rect x="12" y="644.7" width="14" height="14" rx="3" fill="#EDF1F8" stroke="#D5DCEA" stroke-width="0.8"/><rect x="32" y="649.2" width="89" height="7" rx="3.5" fill="#C9D0DC"/><rect x="172" y="649.2" width="44" height="7" rx="3.5" fill="#9AA5B5"/><rect x="12" y="664.7" width="14" height="14" rx="3" fill="#EDF1F8" stroke="#D5DCEA" stroke-width="0.8"/><rect x="32" y="669.2" width="121" height="7" rx="3.5" fill="#C9D0DC"/><rect x="172" y="669.2" width="44" height="7" rx="3.5" fill="#9AA5B5"/><rect x="12" y="684.7" width="14" height="14" rx="3" fill="#EDF1F8" stroke="#D5DCEA" stroke-width="0.8"/><rect x="32" y="689.2" width="73" height="7" rx="3.5" fill="#C9D0DC"/><rect x="172" y="689.2" width="44" height="7" rx="3.5" fill="#9AA5B5"/><rect x="12" y="704.7" width="14" height="14" rx="3" fill="#EDF1F8" stroke="#D5DCEA" stroke-width="0.8"/><rect x="32" y="709.2" width="105" height="7" rx="3.5" fill="#C9D0DC"/><rect x="172" y="709.2" width="44" height="7" rx="3.5" fill="#9AA5B5"/><rect x="12" y="724.7" width="14" height="14" rx="3" fill="#EDF1F8" stroke="#D5DCEA" stroke-width="0.8"/><rect x="32" y="729.2" width="137" height="7" rx="3.5" fill="#C9D0DC"/><rect x="172" y="729.2" width="44" height="7" rx="3.5" fill="#9AA5B5"/><rect x="12" y="744.7" width="14" height="14" rx="3" fill="#EDF1F8" stroke="#D5DCEA" stroke-width="0.8"/><rect x="32" y="749.2" width="89" height="7" rx="3.5" fill="#C9D0DC"/><rect x="172" y="749.2" width="44" height="7" rx="3.5" fill="#9AA5B5"/><rect x="12" y="764.7" width="14" height="14" rx="3" fill="#EDF1F8" stroke="#D5DCEA" stroke-width="0.8"/><rect x="32" y="769.2" width="121" height="7" rx="3.5" fill="#C9D0DC"/><rect x="172" y="769.2" width="44" height="7" rx="3.5" fill="#9AA5B5"/><rect x="12" y="784.7" width="14" height="14" rx="3" fill="#EDF1F8" stroke="#D5DCEA" stroke-width="0.8"/><rect x="32" y="789.2" width="73" height="7" rx="3.5" fill="#C9D0DC"/><rect x="172" y="789.2" width="44" height="7" rx="3.5" fill="#9AA5B5"/><rect x="12" y="804.7" width="14" height="14" rx="3" fill="#EDF1F8" stroke="#D5DCEA" stroke-width="0.8"/><rect x="32" y="809.2" width="105" height="7" rx="3.5" fill="#C9D0DC"/><rect x="172" y="809.2" width="44" height="7" rx="3.5" fill="#9AA5B5"/><line x1="12" y1="840.7" x2="216" y2="840.7" stroke="#9AA5B5" stroke-width="1" stroke-dasharray="3 3"/><rect x="138" y="850.7" width="78" height="12" rx="6" fill="#2F6BFF"/></svg><rect x="18" y="22" width="228" height="412.0" rx="5" fill="none" stroke="#080B12" stroke-width="4"/><rect x="17.5" y="21.5" width="229" height="413.0" rx="5.5" fill="none" stroke="#FFFFFF" stroke-opacity="0.22" stroke-width="1"/></g><text x="18" y="462" font-family="Helvetica, Arial, sans-serif" font-size="9.5" font-weight="bold" letter-spacing="2.2" fill="#3D7BFF" opacity="0.95">05 / 05</text><defs><clipPath id="f102"><rect x="0" y="474.0" width="264" height="34"/></clipPath></defs><g clip-path="url(#f102)"><text x="18" y="502.0" font-family="Helvetica, Arial, sans-serif" font-size="34.0" font-weight="bold" letter-spacing="-0.9" fill="#FFFFFF" opacity="1.00">LE DOSSIER</text></g><rect x="18" y="511.0" width="38.0" height="3" fill="#3D7BFF"/><rect x="0" y="534.5" width="264" height="1.5" fill="#FFFFFF" fill-opacity="0.12"/><rect x="0" y="534.5" width="226.3" height="1.5" fill="#3D7BFF"/></svg>