<svg xmlns="http://www.w3.org/2000/svg" width="264" height="536" viewBox="0 0 264 536"><rect width="264" height="536" fill="#FFFFFF"/><polygon points="28.3,214.1 186.6,188.6 235.7,380.2 77.4,405.8" fill="#EEF2FB" fill-opacity="1.00" stroke="#D5DCEA" stroke-width="0.9" stroke-opacity="1.00"/><polygon points="105.8,361.8 191.7,347.9 199.6,378.7 113.7,392.6" fill="#dee2eb" fill-opacity="1.00" stroke="none" stroke-width="0.9" stroke-opacity="1.00"/><polygon points="108.9,363.4 189.6,350.4 196.4,377.1 115.8,390.1" fill="#d0d4dd" fill-opacity="1.00" stroke="none" stroke-width="0.9" stroke-opacity="1.00"/><polygon points="112.2,317.9 164.2,309.4 171.7,338.8 119.7,347.2" fill="#dee2eb" fill-opacity="1.00" stroke="none" stroke-width="0.9" stroke-opacity="1.00"/><polygon points="115.3,319.5 162.1,312.0 168.5,337.1 121.8,344.7" fill="#d0d4dd" fill-opacity="1.00" stroke="none" stroke-width="0.9" stroke-opacity="1.00"/><polygon points="201.9,301.8 213.2,300.0 224.5,344.3 213.2,346.1" fill="#dee2eb" fill-opacity="1.00" stroke="none" stroke-width="0.9" stroke-opacity="1.00"/><polygon points="205.0,303.5 211.1,302.5 221.3,342.6 215.3,343.6" fill="#d0d4dd" fill-opacity="1.00" stroke="none" stroke-width="0.9" stroke-opacity="1.00"/><polygon points="58.3,321.9 80.1,318.4 93.0,368.7 71.1,372.2" fill="#dee2eb" fill-opacity="1.00" stroke="none" stroke-width="0.9" stroke-opacity="1.00"/><polygon points="61.4,323.6 78.0,320.9 89.8,367.0 73.2,369.7" fill="#d0d4dd" fill-opacity="1.00" stroke="none" stroke-width="0.9" stroke-opacity="1.00"/><polygon points="63.1,218.2 122.7,208.6 138.6,270.9 79.1,280.5" fill="#dee2eb" fill-opacity="1.00" stroke="none" stroke-width="0.9" stroke-opacity="1.00"/><polygon points="66.3,219.9 120.6,211.1 135.4,269.2 81.2,278.0" fill="#d0d4dd" fill-opacity="1.00" stroke="none" stroke-width="0.9" stroke-opacity="1.00"/><polygon points="59.6,230.6 37.8,234.1 33.3,216.8 55.2,213.2" fill="#dee2eb" fill-opacity="1.00" stroke="none" stroke-width="0.9" stroke-opacity="1.00"/><polygon points="56.4,228.9 39.9,231.6 36.5,218.4 53.1,215.8" fill="#d0d4dd" fill-opacity="1.00" stroke="none" stroke-width="0.9" stroke-opacity="1.00"/><polygon points="146.4,206.3 175.8,201.5 187.9,248.8 158.5,253.6" fill="#dee2eb" fill-opacity="1.00" stroke="none" stroke-width="0.9" stroke-opacity="1.00"/><polygon points="149.6,207.9 173.7,204.0 184.7,247.2 160.6,251.1" fill="#d0d4dd" fill-opacity="1.00" stroke="none" stroke-width="0.9" stroke-opacity="1.00"/><polygon points="184.5,191.1 188.7,186.0 188.7,143.9 184.5,149.0" fill="#fefefe" fill-opacity="1.00" stroke="none" stroke-width="0.9" stroke-opacity="1.00"/><polyline points="184.5,149.0 188.7,143.9" fill="none" stroke="#8A93A3" stroke-width="1" stroke-opacity="1.00"/><polyline points="184.5,191.1 188.7,186.0" fill="none" stroke="#8A93A3" stroke-width="1" stroke-opacity="1.00"/><polyline points="184.5,191.1 184.5,149.0" fill="none" stroke="#8A93A3" stroke-width="1" stroke-opacity="1.00"/><polyline points="188.7,186.0 188.7,143.9" fill="none" stroke="#8A93A3" stroke-width="1" stroke-opacity="1.00"/><polygon points="31.5,215.8 184.5,191.1 184.5,149.0 31.5,173.7" fill="#fdfdfe" fill-opacity="1.00" stroke="none" stroke-width="0.9" stroke-opacity="1.00"/><polyline points="31.5,173.7 184.5,149.0" fill="none" stroke="#8A93A3" stroke-width="1" stroke-opacity="1.00"/><polyline points="31.5,215.8 184.5,191.1" fill="none" stroke="#8A93A3" stroke-width="1" stroke-opacity="1.00"/><polyline points="31.5,215.8 31.5,173.7" fill="none" stroke="#8A93A3" stroke-width="1" stroke-opacity="1.00"/><polyline points="184.5,191.1 184.5,149.0" fill="none" stroke="#8A93A3" stroke-width="1" stroke-opacity="1.00"/><polygon points="184.5,191.1 194.3,229.2 194.3,187.1 184.5,149.0" fill="#e2e5e9" fill-opacity="1.00" stroke="none" stroke-width="0.9" stroke-opacity="1.00"/><polyline points="184.5,149.0 194.3,187.1" fill="none" stroke="#8A93A3" stroke-width="1" stroke-opacity="1.00"/><polyline points="184.5,191.1 194.3,229.2" fill="none" stroke="#8A93A3" stroke-width="1" stroke-opacity="1.00"/><polyline points="184.5,191.1 184.5,149.0" fill="none" stroke="#8A93A3" stroke-width="1" stroke-opacity="1.00"/><polyline points="194.3,229.2 194.3,187.1" fill="none" stroke="#8A93A3" stroke-width="1" stroke-opacity="1.00"/><polygon points="25.1,212.5 31.5,215.8 31.5,173.7 25.1,170.4" fill="#f2f3f5" fill-opacity="1.00" stroke="none" stroke-width="0.9" stroke-opacity="1.00"/><polyline points="25.1,170.4 31.5,173.7" fill="none" stroke="#8A93A3" stroke-width="1" stroke-opacity="1.00"/><polyline points="25.1,212.5 31.5,215.8" fill="none" stroke="#8A93A3" stroke-width="1" stroke-opacity="1.00"/><polyline points="25.1,212.5 25.1,170.4" fill="none" stroke="#8A93A3" stroke-width="1" stroke-opacity="1.00"/><polyline points="31.5,215.8 31.5,173.7" fill="none" stroke="#8A93A3" stroke-width="1" stroke-opacity="1.00"/><polygon points="194.3,229.2 198.9,225.8 198.9,183.7 194.3,187.1" fill="#ffffff" fill-opacity="1.00" stroke="none" stroke-width="0.9" stroke-opacity="1.00"/><polyline points="194.3,187.1 198.9,183.7" fill="none" stroke="#8A93A3" stroke-width="1" stroke-opacity="1.00"/><polyline points="194.3,229.2 198.9,225.8" fill="none" stroke="#8A93A3" stroke-width="1" stroke-opacity="1.00"/><polyline points="194.3,229.2 194.3,187.1" fill="none" stroke="#8A93A3" stroke-width="1" stroke-opacity="1.00"/><polyline points="198.9,225.8 198.9,183.7" fill="none" stroke="#8A93A3" stroke-width="1" stroke-opacity="1.00"/><polygon points="31.5,173.7 184.5,149.0 188.7,143.9 25.1,170.4" fill="#e4e9f2" fill-opacity="1.00" stroke="none" stroke-width="0.9" stroke-opacity="1.00"/><polygon points="31.5,173.7 184.5,149.0 188.7,143.9 25.1,170.4" fill="none" fill-opacity="1.00" stroke="#8a93a3" stroke-width="0.9" stroke-opacity="1.00"/><polygon points="194.5,229.0 202.1,258.3 202.1,216.2 194.5,186.9" fill="#65b6d8" fill-opacity="1.00" stroke="none" stroke-width="0.9" stroke-opacity="1.00"/><polygon points="184.5,149.0 194.3,187.1 198.9,183.7 188.7,143.9" fill="#e4e9f2" fill-opacity="1.00" stroke="none" stroke-width="0.9" stroke-opacity="1.00"/><polyline points="194.5,186.9 202.1,216.2" fill="none" stroke="#3EB8E5" stroke-width="1" stroke-opacity="1.00"/><polyline points="194.5,229.0 202.1,258.3" fill="none" stroke="#3EB8E5" stroke-width="1" stroke-opacity="1.00"/><polyline points="194.5,229.0 194.5,186.9" fill="none" stroke="#3EB8E5" stroke-width="1" stroke-opacity="1.00"/><polyline points="202.1,258.3 202.1,216.2" fill="none" stroke="#3EB8E5" stroke-width="1" stroke-opacity="1.00"/><polygon points="184.5,149.0 194.3,187.1 198.9,183.7 188.7,143.9" fill="none" fill-opacity="1.00" stroke="#8a93a3" stroke-width="0.9" stroke-opacity="1.00"/><polygon points="46.9,297.5 147.5,281.3 147.5,239.2 46.9,255.4" fill="#fdfdfe" fill-opacity="1.00" stroke="none" stroke-width="0.9" stroke-opacity="1.00"/><polyline points="46.9,255.4 147.5,239.2" fill="none" stroke="#8A93A3" stroke-width="1" stroke-opacity="1.00"/><polyline points="46.9,297.5 147.5,281.3" fill="none" stroke="#8A93A3" stroke-width="1" stroke-opacity="1.00"/><polyline points="46.9,297.5 46.9,255.4" fill="none" stroke="#8A93A3" stroke-width="1" stroke-opacity="1.00"/><polyline points="147.5,281.3 147.5,239.2" fill="none" stroke="#8A93A3" stroke-width="1" stroke-opacity="1.00"/><polygon points="45.9,293.3 46.9,297.5 46.9,255.4 45.9,251.3" fill="#e2e5e9" fill-opacity="1.00" stroke="none" stroke-width="0.9" stroke-opacity="1.00"/><polyline points="45.9,251.3 46.9,255.4" fill="none" stroke="#8A93A3" stroke-width="1" stroke-opacity="1.00"/><polyline points="45.9,293.3 46.9,297.5" fill="none" stroke="#8A93A3" stroke-width="1" stroke-opacity="1.00"/><polyline points="45.9,293.3 45.9,251.3" fill="none" stroke="#8A93A3" stroke-width="1" stroke-opacity="1.00"/><polyline points="46.9,297.5 46.9,255.4" fill="none" stroke="#8A93A3" stroke-width="1" stroke-opacity="1.00"/><polygon points="201.8,258.4 232.5,378.6 232.5,336.5 201.8,216.4" fill="#e2e5e9" fill-opacity="1.00" stroke="none" stroke-width="0.9" stroke-opacity="1.00"/><polyline points="201.8,216.4 232.5,336.5" fill="none" stroke="#8A93A3" stroke-width="1" stroke-opacity="1.00"/><polyline points="201.8,258.4 232.5,378.6" fill="none" stroke="#8A93A3" stroke-width="1" stroke-opacity="1.00"/><polyline points="201.8,258.4 201.8,216.4" fill="none" stroke="#8A93A3" stroke-width="1" stroke-opacity="1.00"/><polyline points="232.5,378.6 232.5,336.5" fill="none" stroke="#8A93A3" stroke-width="1" stroke-opacity="1.00"/><polygon points="46.9,255.4 147.5,239.2 146.5,235.0 45.9,251.3" fill="#e4e9f2" fill-opacity="1.00" stroke="none" stroke-width="0.9" stroke-opacity="1.00"/><polygon points="46.9,255.4 147.5,239.2 146.5,235.0 45.9,251.3" fill="none" fill-opacity="1.00" stroke="#8a93a3" stroke-width="0.9" stroke-opacity="1.00"/><polygon points="201.8,216.4 232.5,336.5 238.9,339.8 206.7,214.3" fill="#e4e9f2" fill-opacity="1.00" stroke="none" stroke-width="0.9" stroke-opacity="1.00"/><polygon points="201.8,216.4 232.5,336.5 238.9,339.8 206.7,214.3" fill="none" fill-opacity="1.00" stroke="#8a93a3" stroke-width="0.9" stroke-opacity="1.00"/><polygon points="232.5,378.6 238.9,381.9 238.9,339.8 232.5,336.5" fill="#f2f3f5" fill-opacity="1.00" stroke="none" stroke-width="0.9" stroke-opacity="1.00"/><polyline points="232.5,336.5 238.9,339.8" fill="none" stroke="#8A93A3" stroke-width="1" stroke-opacity="1.00"/><polyline points="232.5,378.6 238.9,381.9" fill="none" stroke="#8A93A3" stroke-width="1" stroke-opacity="1.00"/><polyline points="232.5,378.6 232.5,336.5" fill="none" stroke="#8A93A3" stroke-width="1" stroke-opacity="1.00"/><polyline points="238.9,381.9 238.9,339.8" fill="none" stroke="#8A93A3" stroke-width="1" stroke-opacity="1.00"/><polygon points="38.1,229.3 53.2,226.9 53.2,217.1 38.1,219.5" fill="#e6edfb" fill-opacity="1.00" stroke="#2F6BFF" stroke-width="0.9" stroke-opacity="1.00"/><polygon points="35.1,217.7 38.1,229.3 38.1,219.5 35.1,207.9" fill="#cbd4e6" fill-opacity="1.00" stroke="#2F6BFF" stroke-width="0.9" stroke-opacity="1.00"/><polygon points="50.2,205.5 35.1,207.9 38.1,219.5 53.2,217.1" fill="#e7eefc" fill-opacity="1.00" stroke="#2F6BFF" stroke-width="0.9" stroke-opacity="1.00"/><polygon points="45.9,228.2 53.0,227.0 53.0,218.0 45.9,219.1" fill="#f1f4fc" fill-opacity="1.00" stroke="#2F6BFF" stroke-width="0.9" stroke-opacity="1.00"/><polygon points="45.8,227.7 45.9,228.2 45.9,219.1 45.8,218.7" fill="#d6dbe7" fill-opacity="1.00" stroke="#2F6BFF" stroke-width="0.9" stroke-opacity="1.00"/><polygon points="52.9,217.5 45.8,218.7 45.9,219.1 53.0,218.0" fill="#f2f5fd" fill-opacity="1.00" stroke="#2F6BFF" stroke-width="0.9" stroke-opacity="1.00"/><polygon points="38.5,229.4 45.6,228.2 45.6,219.2 38.5,220.3" fill="#f1f4fc" fill-opacity="1.00" stroke="#2F6BFF" stroke-width="0.9" stroke-opacity="1.00"/><polygon points="38.4,228.9 38.5,229.4 38.5,220.3 38.4,219.9" fill="#d6dbe7" fill-opacity="1.00" stroke="#2F6BFF" stroke-width="0.9" stroke-opacity="1.00"/><polygon points="45.5,218.7 38.4,219.9 38.5,220.3 45.6,219.2" fill="#f2f5fd" fill-opacity="1.00" stroke="#2F6BFF" stroke-width="0.9" stroke-opacity="1.00"/><polygon points="46.3,224.6 46.7,224.6 46.7,223.0 46.3,223.1" fill="#adb2bc" fill-opacity="1.00" stroke="#2F6BFF" stroke-width="0.9" stroke-opacity="1.00"/><polygon points="46.2,224.3 46.3,224.6 46.3,223.1 46.2,222.7" fill="#9299a7" fill-opacity="1.00" stroke="#2F6BFF" stroke-width="0.9" stroke-opacity="1.00"/><polygon points="46.6,222.6 46.2,222.7 46.3,223.1 46.7,223.0" fill="#a9aeb8" fill-opacity="1.00" stroke="#2F6BFF" stroke-width="0.9" stroke-opacity="1.00"/><polygon points="44.9,224.9 45.4,224.8 45.4,223.2 44.9,223.3" fill="#adb2bc" fill-opacity="1.00" stroke="#2F6BFF" stroke-width="0.9" stroke-opacity="1.00"/><polygon points="44.8,224.5 44.9,224.9 44.9,223.3 44.8,222.9" fill="#9299a7" fill-opacity="1.00" stroke="#2F6BFF" stroke-width="0.9" stroke-opacity="1.00"/><polygon points="45.3,222.9 44.8,222.9 44.9,223.3 45.4,223.2" fill="#a9aeb8" fill-opacity="1.00" stroke="#2F6BFF" stroke-width="0.9" stroke-opacity="1.00"/><polygon points="159.0,249.2 181.6,245.5 181.6,206.2 159.0,209.9" fill="#e6edfb" fill-opacity="1.00" stroke="#2F6BFF" stroke-width="0.9" stroke-opacity="1.00"/><polygon points="148.5,208.5 159.0,249.2 159.0,209.9 148.5,169.2" fill="#cbd4e6" fill-opacity="1.00" stroke="#2F6BFF" stroke-width="0.9" stroke-opacity="1.00"/><polygon points="159.0,209.9 181.6,206.2 171.2,165.5 148.5,169.2" fill="#e7eefc" fill-opacity="1.00" stroke="#2F6BFF" stroke-width="0.9" stroke-opacity="1.00"/><polygon points="149.0,206.8 159.6,205.1 159.6,169.0 149.0,170.7" fill="#f1f4fc" fill-opacity="1.00" stroke="#2F6BFF" stroke-width="0.9" stroke-opacity="1.00"/><polygon points="148.6,205.2 149.0,206.8 149.0,170.7 148.6,169.0" fill="#d6dbe7" fill-opacity="1.00" stroke="#2F6BFF" stroke-width="0.9" stroke-opacity="1.00"/><polygon points="149.0,170.7 159.6,169.0 159.2,167.3 148.6,169.0" fill="#f2f5fd" fill-opacity="1.00" stroke="#2F6BFF" stroke-width="0.9" stroke-opacity="1.00"/><polygon points="160.1,205.1 170.7,203.3 170.7,167.2 160.1,168.9" fill="#f1f4fc" fill-opacity="1.00" stroke="#2F6BFF" stroke-width="0.9" stroke-opacity="1.00"/><polygon points="159.6,203.4 160.1,205.1 160.1,168.9 159.6,167.2" fill="#d6dbe7" fill-opacity="1.00" stroke="#2F6BFF" stroke-width="0.9" stroke-opacity="1.00"/><polygon points="160.1,168.9 170.7,167.2 170.3,165.5 159.6,167.2" fill="#f2f5fd" fill-opacity="1.00" stroke="#2F6BFF" stroke-width="0.9" stroke-opacity="1.00"/><polygon points="158.2,189.1 158.8,189.0 158.8,182.7 158.2,182.8" fill="#adb2bc" fill-opacity="1.00" stroke="#2F6BFF" stroke-width="0.9" stroke-opacity="1.00"/><polygon points="157.8,187.9 158.2,189.1 158.2,182.8 157.8,181.6" fill="#9299a7" fill-opacity="1.00" stroke="#2F6BFF" stroke-width="0.9" stroke-opacity="1.00"/><polygon points="158.2,182.8 158.8,182.7 158.5,181.5 157.8,181.6" fill="#a9aeb8" fill-opacity="1.00" stroke="#2F6BFF" stroke-width="0.9" stroke-opacity="1.00"/><polygon points="160.2,188.8 160.9,188.7 160.9,182.4 160.2,182.5" fill="#adb2bc" fill-opacity="1.00" stroke="#2F6BFF" stroke-width="0.9" stroke-opacity="1.00"/><polygon points="159.9,187.5 160.2,188.8 160.2,182.5 159.9,181.2" fill="#9299a7" fill-opacity="1.00" stroke="#2F6BFF" stroke-width="0.9" stroke-opacity="1.00"/><polygon points="160.2,182.5 160.9,182.4 160.6,181.1 159.9,181.2" fill="#a9aeb8" fill-opacity="1.00" stroke="#2F6BFF" stroke-width="0.9" stroke-opacity="1.00"/><polygon points="80.4,271.1 129.0,263.3 129.0,259.4 80.4,267.2" fill="#e6edfb" fill-opacity="1.00" stroke="#2F6BFF" stroke-width="0.9" stroke-opacity="1.00"/><polygon points="67.8,221.6 80.4,271.1 80.4,267.2 67.8,217.7" fill="#cbd4e6" fill-opacity="1.00" stroke="#2F6BFF" stroke-width="0.9" stroke-opacity="1.00"/><polygon points="80.4,267.2 129.0,259.4 116.3,209.9 67.8,217.7" fill="#e7eefc" fill-opacity="1.00" stroke="#2F6BFF" stroke-width="0.9" stroke-opacity="1.00"/><polygon points="78.3,267.6 131.1,259.0 131.1,255.5 78.3,264.0" fill="#f1f4fc" fill-opacity="1.00" stroke="#2F6BFF" stroke-width="0.9" stroke-opacity="1.00"/><polygon points="64.9,215.2 78.3,267.6 78.3,264.0 64.9,211.7" fill="#d6dbe7" fill-opacity="1.00" stroke="#2F6BFF" stroke-width="0.9" stroke-opacity="1.00"/><polygon points="78.3,264.0 131.1,255.5 117.7,203.1 64.9,211.7" fill="#f2f5fd" fill-opacity="1.00" stroke="#2F6BFF" stroke-width="0.9" stroke-opacity="1.00"/><polygon points="81.7,262.3 102.8,258.9 102.8,257.3 81.7,260.7" fill="#f1f4fc" fill-opacity="1.00" stroke="#2F6BFF" stroke-width="0.9" stroke-opacity="1.00"/><polygon points="78.5,249.8 81.7,262.3 81.7,260.7 78.5,248.2" fill="#d6dbe7" fill-opacity="1.00" stroke="#2F6BFF" stroke-width="0.9" stroke-opacity="1.00"/><polygon points="81.7,260.7 102.8,257.3 99.6,244.8 78.5,248.2" fill="#f2f5fd" fill-opacity="1.00" stroke="#2F6BFF" stroke-width="0.9" stroke-opacity="1.00"/><polygon points="106.0,258.4 127.1,255.0 127.1,253.4 106.0,256.8" fill="#f1f4fc" fill-opacity="1.00" stroke="#2F6BFF" stroke-width="0.9" stroke-opacity="1.00"/><polygon points="102.8,245.8 106.0,258.4 106.0,256.8 102.8,244.3" fill="#d6dbe7" fill-opacity="1.00" stroke="#2F6BFF" stroke-width="0.9" stroke-opacity="1.00"/><polygon points="106.0,256.8 127.1,253.4 123.9,240.9 102.8,244.3" fill="#f2f5fd" fill-opacity="1.00" stroke="#2F6BFF" stroke-width="0.9" stroke-opacity="1.00"/><polygon points="79.5,276.0 132.3,267.5 132.3,251.8 79.5,260.3" fill="#e6edfb" fill-opacity="1.00" stroke="#2F6BFF" stroke-width="0.9" stroke-opacity="1.00"/><polygon points="78.5,272.1 79.5,276.0 79.5,260.3 78.5,256.3" fill="#cbd4e6" fill-opacity="1.00" stroke="#2F6BFF" stroke-width="0.9" stroke-opacity="1.00"/><polygon points="79.5,260.3 132.3,251.8 131.2,247.8 78.5,256.3" fill="#e7eefc" fill-opacity="1.00" stroke="#2F6BFF" stroke-width="0.9" stroke-opacity="1.00"/><polygon points="211.2,331.9 215.7,331.2 215.7,320.4 211.2,321.1" fill="#adb2bc" fill-opacity="1.00" stroke="#2F6BFF" stroke-width="0.9" stroke-opacity="1.00"/><polygon points="203.7,302.7 211.2,331.9 211.2,321.1 203.7,291.9" fill="#9299a7" fill-opacity="1.00" stroke="#2F6BFF" stroke-width="0.9" stroke-opacity="1.00"/><polygon points="211.2,321.1 215.7,320.4 208.2,291.2 203.7,291.9" fill="#a9aeb8" fill-opacity="1.00" stroke="#2F6BFF" stroke-width="0.9" stroke-opacity="1.00"/><polygon points="215.0,338.4 216.8,338.1 216.8,333.4 215.0,333.7" fill="#e6edfb" fill-opacity="1.00" stroke="#2F6BFF" stroke-width="0.9" stroke-opacity="1.00"/><polygon points="212.5,328.7 215.0,338.4 215.0,333.7 212.5,323.9" fill="#cbd4e6" fill-opacity="1.00" stroke="#2F6BFF" stroke-width="0.9" stroke-opacity="1.00"/><polygon points="215.0,333.7 216.8,333.4 214.3,323.7 212.5,323.9" fill="#e7eefc" fill-opacity="1.00" stroke="#2F6BFF" stroke-width="0.9" stroke-opacity="1.00"/><polygon points="120.1,329.1 165.3,321.7 165.3,320.7 120.1,328.0" fill="#f1f4fc" fill-opacity="1.00" stroke="#2F6BFF" stroke-width="0.9" stroke-opacity="1.00"/><polygon points="114.0,305.1 120.1,329.1 120.1,328.0 114.0,304.1" fill="#d6dbe7" fill-opacity="1.00" stroke="#2F6BFF" stroke-width="0.9" stroke-opacity="1.00"/><polygon points="120.1,328.0 165.3,320.7 159.2,296.8 114.0,304.1" fill="#f2f5fd" fill-opacity="1.00" stroke="#2F6BFF" stroke-width="0.9" stroke-opacity="1.00"/><polygon points="115.5,321.1 119.1,320.5 119.1,306.8 115.5,307.3" fill="#adb2bc" fill-opacity="1.00" stroke="#2F6BFF" stroke-width="0.9" stroke-opacity="1.00"/><polygon points="115.0,319.1 115.5,321.1 115.5,307.3 115.0,305.4" fill="#9299a7" fill-opacity="1.00" stroke="#2F6BFF" stroke-width="0.9" stroke-opacity="1.00"/><polygon points="115.5,307.3 119.1,306.8 118.6,304.8 115.0,305.4" fill="#a9aeb8" fill-opacity="1.00" stroke="#2F6BFF" stroke-width="0.9" stroke-opacity="1.00"/><polygon points="155.3,314.6 158.9,314.0 158.9,300.3 155.3,300.9" fill="#adb2bc" fill-opacity="1.00" stroke="#2F6BFF" stroke-width="0.9" stroke-opacity="1.00"/><polygon points="154.8,312.7 155.3,314.6 155.3,300.9 154.8,299.0" fill="#9299a7" fill-opacity="1.00" stroke="#2F6BFF" stroke-width="0.9" stroke-opacity="1.00"/><polygon points="155.3,300.9 158.9,300.3 158.4,298.4 154.8,299.0" fill="#a9aeb8" fill-opacity="1.00" stroke="#2F6BFF" stroke-width="0.9" stroke-opacity="1.00"/><polygon points="120.9,342.1 124.5,341.6 124.5,327.8 120.9,328.4" fill="#adb2bc" fill-opacity="1.00" stroke="#2F6BFF" stroke-width="0.9" stroke-opacity="1.00"/><polygon points="120.4,340.2 120.9,342.1 120.9,328.4 120.4,326.5" fill="#9299a7" fill-opacity="1.00" stroke="#2F6BFF" stroke-width="0.9" stroke-opacity="1.00"/><polygon points="120.9,328.4 124.5,327.8 124.0,325.9 120.4,326.5" fill="#a9aeb8" fill-opacity="1.00" stroke="#2F6BFF" stroke-width="0.9" stroke-opacity="1.00"/><polygon points="160.7,335.7 164.3,335.1 164.3,321.4 160.7,322.0" fill="#adb2bc" fill-opacity="1.00" stroke="#2F6BFF" stroke-width="0.9" stroke-opacity="1.00"/><polygon points="160.2,333.8 160.7,335.7 160.7,322.0 160.2,320.1" fill="#9299a7" fill-opacity="1.00" stroke="#2F6BFF" stroke-width="0.9" stroke-opacity="1.00"/><polygon points="160.7,322.0 164.3,321.4 163.8,319.5 160.2,320.1" fill="#a9aeb8" fill-opacity="1.00" stroke="#2F6BFF" stroke-width="0.9" stroke-opacity="1.00"/><polygon points="71.6,367.8 86.7,365.3 86.7,328.0 71.6,330.4" fill="#e6edfb" fill-opacity="1.00" stroke="#2F6BFF" stroke-width="0.9" stroke-opacity="1.00"/><polygon points="60.4,324.2 71.6,367.8 71.6,330.4 60.4,286.9" fill="#cbd4e6" fill-opacity="1.00" stroke="#2F6BFF" stroke-width="0.9" stroke-opacity="1.00"/><polygon points="71.6,330.4 86.7,328.0 75.5,284.4 60.4,286.9" fill="#e7eefc" fill-opacity="1.00" stroke="#2F6BFF" stroke-width="0.9" stroke-opacity="1.00"/><polygon points="60.7,322.6 67.8,321.5 67.8,287.2 60.7,288.3" fill="#f1f4fc" fill-opacity="1.00" stroke="#2F6BFF" stroke-width="0.9" stroke-opacity="1.00"/><polygon points="60.3,320.9 60.7,322.6 60.7,288.3 60.3,286.5" fill="#d6dbe7" fill-opacity="1.00" stroke="#2F6BFF" stroke-width="0.9" stroke-opacity="1.00"/><polygon points="60.7,288.3 67.8,287.2 67.3,285.4 60.3,286.5" fill="#f2f5fd" fill-opacity="1.00" stroke="#2F6BFF" stroke-width="0.9" stroke-opacity="1.00"/><polygon points="68.1,321.5 75.2,320.3 75.2,286.0 68.1,287.1" fill="#f1f4fc" fill-opacity="1.00" stroke="#2F6BFF" stroke-width="0.9" stroke-opacity="1.00"/><polygon points="67.7,319.7 68.1,321.5 68.1,287.1 67.7,285.3" fill="#d6dbe7" fill-opacity="1.00" stroke="#2F6BFF" stroke-width="0.9" stroke-opacity="1.00"/><polygon points="68.1,287.1 75.2,286.0 74.7,284.2 67.7,285.3" fill="#f2f5fd" fill-opacity="1.00" stroke="#2F6BFF" stroke-width="0.9" stroke-opacity="1.00"/><polygon points="66.7,306.1 67.2,306.0 67.2,300.0 66.7,300.1" fill="#adb2bc" fill-opacity="1.00" stroke="#2F6BFF" stroke-width="0.9" stroke-opacity="1.00"/><polygon points="66.4,304.7 66.7,306.1 66.7,300.1 66.4,298.8" fill="#9299a7" fill-opacity="1.00" stroke="#2F6BFF" stroke-width="0.9" stroke-opacity="1.00"/><polygon points="66.7,300.1 67.2,300.0 66.8,298.7 66.4,298.8" fill="#a9aeb8" fill-opacity="1.00" stroke="#2F6BFF" stroke-width="0.9" stroke-opacity="1.00"/><polygon points="68.1,305.9 68.5,305.8 68.5,299.8 68.1,299.9" fill="#adb2bc" fill-opacity="1.00" stroke="#2F6BFF" stroke-width="0.9" stroke-opacity="1.00"/><polygon points="67.7,304.5 68.1,305.9 68.1,299.9 67.7,298.5" fill="#9299a7" fill-opacity="1.00" stroke="#2F6BFF" stroke-width="0.9" stroke-opacity="1.00"/><polygon points="68.1,299.9 68.5,299.8 68.2,298.5 67.7,298.5" fill="#a9aeb8" fill-opacity="1.00" stroke="#2F6BFF" stroke-width="0.9" stroke-opacity="1.00"/><polygon points="114.1,388.2 193.2,375.4 193.2,368.3 114.1,381.1" fill="#e6edfb" fill-opacity="1.00" stroke="#2F6BFF" stroke-width="0.9" stroke-opacity="1.00"/><polygon points="108.1,364.8 114.1,388.2 114.1,381.1 108.1,357.7" fill="#cbd4e6" fill-opacity="1.00" stroke="#2F6BFF" stroke-width="0.9" stroke-opacity="1.00"/><polygon points="114.1,381.1 193.2,368.3 187.2,344.9 108.1,357.7" fill="#e7eefc" fill-opacity="1.00" stroke="#2F6BFF" stroke-width="0.9" stroke-opacity="1.00"/><polygon points="124.8,374.6 151.7,370.3 151.7,367.0 124.8,371.3" fill="#f1f4fc" fill-opacity="1.00" stroke="#2F6BFF" stroke-width="0.9" stroke-opacity="1.00"/><polygon points="120.2,356.8 124.8,374.6 124.8,371.3 120.2,353.5" fill="#d6dbe7" fill-opacity="1.00" stroke="#2F6BFF" stroke-width="0.9" stroke-opacity="1.00"/><polygon points="124.8,371.3 151.7,367.0 147.1,349.1 120.2,353.5" fill="#f2f5fd" fill-opacity="1.00" stroke="#2F6BFF" stroke-width="0.9" stroke-opacity="1.00"/><polygon points="153.3,370.0 180.2,365.7 180.2,362.3 153.3,366.7" fill="#f1f4fc" fill-opacity="1.00" stroke="#2F6BFF" stroke-width="0.9" stroke-opacity="1.00"/><polygon points="148.7,352.2 153.3,370.0 153.3,366.7 148.7,348.9" fill="#d6dbe7" fill-opacity="1.00" stroke="#2F6BFF" stroke-width="0.9" stroke-opacity="1.00"/><polygon points="153.3,366.7 180.2,362.3 175.6,344.5 148.7,348.9" fill="#f2f5fd" fill-opacity="1.00" stroke="#2F6BFF" stroke-width="0.9" stroke-opacity="1.00"/><polygon points="114.1,381.1 193.2,368.3 193.2,359.7 114.1,372.5" fill="#e6edfb" fill-opacity="1.00" stroke="#2F6BFF" stroke-width="0.9" stroke-opacity="1.00"/><polygon points="113.0,377.0 114.1,381.1 114.1,372.5 113.0,368.4" fill="#cbd4e6" fill-opacity="1.00" stroke="#2F6BFF" stroke-width="0.9" stroke-opacity="1.00"/><polygon points="114.1,372.5 193.2,359.7 192.2,355.6 113.0,368.4" fill="#e7eefc" fill-opacity="1.00" stroke="#2F6BFF" stroke-width="0.9" stroke-opacity="1.00"/><polygon points="112.9,376.5 123.2,374.9 123.2,369.4 112.9,371.0" fill="#e6edfb" fill-opacity="1.00" stroke="#2F6BFF" stroke-width="0.9" stroke-opacity="1.00"/><polygon points="107.8,356.7 112.9,376.5 112.9,371.0 107.8,351.2" fill="#cbd4e6" fill-opacity="1.00" stroke="#2F6BFF" stroke-width="0.9" stroke-opacity="1.00"/><polygon points="112.9,371.0 123.2,369.4 118.1,349.5 107.8,351.2" fill="#e7eefc" fill-opacity="1.00" stroke="#2F6BFF" stroke-width="0.9" stroke-opacity="1.00"/><polygon points="181.8,365.4 192.1,363.7 192.1,358.2 181.8,359.9" fill="#e6edfb" fill-opacity="1.00" stroke="#2F6BFF" stroke-width="0.9" stroke-opacity="1.00"/><polygon points="176.7,345.5 181.8,365.4 181.8,359.9 176.7,340.0" fill="#cbd4e6" fill-opacity="1.00" stroke="#2F6BFF" stroke-width="0.9" stroke-opacity="1.00"/><polygon points="181.8,359.9 192.1,358.2 187.0,338.4 176.7,340.0" fill="#e7eefc" fill-opacity="1.00" stroke="#2F6BFF" stroke-width="0.9" stroke-opacity="1.00"/><polygon points="25.1,212.5 75.3,408.3 75.3,366.3 25.1,170.4" fill="#e2e5e9" fill-opacity="1.00" stroke="none" stroke-width="0.9" stroke-opacity="1.00"/><polyline points="25.1,170.4 75.3,366.3" fill="none" stroke="#8A93A3" stroke-width="1" stroke-opacity="1.00"/><polyline points="25.1,212.5 75.3,408.3" fill="none" stroke="#8A93A3" stroke-width="1" stroke-opacity="1.00"/><polyline points="25.1,212.5 25.1,170.4" fill="none" stroke="#8A93A3" stroke-width="1" stroke-opacity="1.00"/><polyline points="75.3,408.3 75.3,366.3" fill="none" stroke="#8A93A3" stroke-width="1" stroke-opacity="1.00"/><polygon points="79.5,361.2 31.5,173.7 25.1,170.4 75.3,366.3" fill="#e4e9f2" fill-opacity="1.00" stroke="none" stroke-width="0.9" stroke-opacity="1.00"/><polygon points="79.5,361.2 31.5,173.7 25.1,170.4 75.3,366.3" fill="none" fill-opacity="1.00" stroke="#8a93a3" stroke-width="0.9" stroke-opacity="1.00"/><polyline points="118.1,395.8 196.0,383.2" fill="none" stroke="#8A93A3" stroke-width="1" stroke-opacity="1.00"/><polyline points="118.1,401.4 196.0,388.8" fill="none" stroke="#8A93A3" stroke-width="1" stroke-opacity="1.00"/><polyline points="118.1,401.4 118.1,395.8" fill="none" stroke="#8A93A3" stroke-width="1" stroke-opacity="1.00"/><polyline points="196.0,388.8 196.0,383.2" fill="none" stroke="#8A93A3" stroke-width="1" stroke-opacity="1.00"/><polygon points="192.4,379.4 119.6,391.2 118.1,395.8 196.0,383.2" fill="#e4e9f2" fill-opacity="1.00" stroke="none" stroke-width="0.9" stroke-opacity="1.00"/><polygon points="192.4,379.4 119.6,391.2 118.1,395.8 196.0,383.2" fill="none" fill-opacity="1.00" stroke="#8a93a3" stroke-width="0.9" stroke-opacity="1.00"/><polygon points="196.0,388.8 238.9,381.9 238.9,339.8 196.0,346.7" fill="#fdfdfe" fill-opacity="0.15" stroke="none" stroke-width="0.9" stroke-opacity="0.41"/><polyline points="196.0,346.7 238.9,339.8" fill="none" stroke="#8A93A3" stroke-width="1" stroke-opacity="1.00"/><polyline points="196.0,388.8 238.9,381.9" fill="none" stroke="#8A93A3" stroke-width="1" stroke-opacity="1.00"/><polyline points="196.0,388.8 196.0,346.7" fill="none" stroke="#8A93A3" stroke-width="1" stroke-opacity="1.00"/><polyline points="238.9,381.9 238.9,339.8" fill="none" stroke="#8A93A3" stroke-width="1" stroke-opacity="1.00"/><polygon points="192.4,385.0 196.0,388.8 196.0,346.7 192.4,342.9" fill="#ebedf0" fill-opacity="1.00" stroke="none" stroke-width="0.9" stroke-opacity="1.00"/><polyline points="192.4,342.9 196.0,346.7" fill="none" stroke="#8A93A3" stroke-width="1" stroke-opacity="1.00"/><polyline points="192.4,385.0 196.0,388.8" fill="none" stroke="#8A93A3" stroke-width="1" stroke-opacity="1.00"/><polyline points="192.4,385.0 192.4,342.9" fill="none" stroke="#8A93A3" stroke-width="1" stroke-opacity="1.00"/><polyline points="196.0,388.8 196.0,346.7" fill="none" stroke="#8A93A3" stroke-width="1" stroke-opacity="1.00"/><polygon points="118.2,395.5 195.8,383.0 195.8,347.9 118.2,360.5" fill="#80cfed" fill-opacity="1.00" stroke="none" stroke-width="0.9" stroke-opacity="1.00"/><polygon points="118.1,401.4 196.0,388.8 196.0,383.2 118.1,395.8" fill="#fdfdfe" fill-opacity="0.15" stroke="none" stroke-width="0.9" stroke-opacity="0.41"/><polygon points="118.1,360.8 196.0,348.2 196.0,346.7 118.1,359.3" fill="#fdfdfe" fill-opacity="0.15" stroke="none" stroke-width="0.9" stroke-opacity="0.41"/><polygon points="118.1,401.4 119.6,396.8 119.6,354.7 118.1,359.3" fill="#fafafb" fill-opacity="1.00" stroke="none" stroke-width="0.9" stroke-opacity="1.00"/><polyline points="118.2,360.5 195.8,347.9" fill="none" stroke="#3EB8E5" stroke-width="1" stroke-opacity="1.00"/><polyline points="118.2,395.5 195.8,383.0" fill="none" stroke="#3EB8E5" stroke-width="1" stroke-opacity="1.00"/><polyline points="118.2,395.5 118.2,360.5" fill="none" stroke="#3EB8E5" stroke-width="1" stroke-opacity="1.00"/><polyline points="195.8,383.0 195.8,347.9" fill="none" stroke="#3EB8E5" stroke-width="1" stroke-opacity="1.00"/><polyline points="118.1,359.3 119.6,354.7" fill="none" stroke="#8A93A3" stroke-width="1" stroke-opacity="1.00"/><polyline points="118.1,401.4 119.6,396.8" fill="none" stroke="#8A93A3" stroke-width="1" stroke-opacity="1.00"/><polyline points="118.1,401.4 118.1,359.3" fill="none" stroke="#8A93A3" stroke-width="1" stroke-opacity="1.00"/><polyline points="119.6,396.8 119.6,354.7" fill="none" stroke="#8A93A3" stroke-width="1" stroke-opacity="1.00"/><polygon points="75.3,408.3 118.1,401.4 118.1,359.3 75.3,366.3" fill="#fdfdfe" fill-opacity="0.15" stroke="none" stroke-width="0.9" stroke-opacity="0.41"/><polygon points="75.3,408.3 79.5,403.3 79.5,361.2 75.3,366.3" fill="#fefefe" fill-opacity="1.00" stroke="none" stroke-width="0.9" stroke-opacity="1.00"/><polyline points="75.3,366.3 118.1,359.3" fill="none" stroke="#8A93A3" stroke-width="1" stroke-opacity="1.00"/><polyline points="75.3,408.3 118.1,401.4" fill="none" stroke="#8A93A3" stroke-width="1" stroke-opacity="1.00"/><polyline points="75.3,408.3 75.3,366.3" fill="none" stroke="#8A93A3" stroke-width="1" stroke-opacity="1.00"/><polyline points="118.1,401.4 118.1,359.3" fill="none" stroke="#8A93A3" stroke-width="1" stroke-opacity="1.00"/><polyline points="75.3,366.3 79.5,361.2" fill="none" stroke="#8A93A3" stroke-width="1" stroke-opacity="1.00"/><polyline points="75.3,408.3 79.5,403.3" fill="none" stroke="#8A93A3" stroke-width="1" stroke-opacity="1.00"/><polyline points="75.3,408.3 75.3,366.3" fill="none" stroke="#8A93A3" stroke-width="1" stroke-opacity="1.00"/><polyline points="79.5,403.3 79.5,361.2" fill="none" stroke="#8A93A3" stroke-width="1" stroke-opacity="1.00"/><polygon points="232.5,336.5 192.4,342.9 196.0,346.7 238.9,339.8" fill="#e4e9f2" fill-opacity="1.00" stroke="none" stroke-width="0.9" stroke-opacity="1.00"/><polygon points="232.5,336.5 192.4,342.9 196.0,346.7 238.9,339.8" fill="none" fill-opacity="1.00" stroke="#8a93a3" stroke-width="0.9" stroke-opacity="1.00"/><polygon points="192.4,342.9 119.6,354.7 118.1,359.3 196.0,346.7" fill="#e4e9f2" fill-opacity="1.00" stroke="none" stroke-width="0.9" stroke-opacity="1.00"/><polygon points="192.4,342.9 119.6,354.7 118.1,359.3 196.0,346.7" fill="none" fill-opacity="1.00" stroke="#8a93a3" stroke-width="0.9" stroke-opacity="1.00"/><polyline points="118.1,359.3 196.0,346.7" fill="none" stroke="#8A93A3" stroke-width="1" stroke-opacity="1.00"/><polyline points="118.1,360.8 196.0,348.2" fill="none" stroke="#8A93A3" stroke-width="1" stroke-opacity="1.00"/><polyline points="118.1,360.8 118.1,359.3" fill="none" stroke="#8A93A3" stroke-width="1" stroke-opacity="1.00"/><polyline points="196.0,348.2 196.0,346.7" fill="none" stroke="#8A93A3" stroke-width="1" stroke-opacity="1.00"/><polygon points="119.6,354.7 79.5,361.2 75.3,366.3 118.1,359.3" fill="#e4e9f2" fill-opacity="1.00" stroke="none" stroke-width="0.9" stroke-opacity="1.00"/><polygon points="119.6,354.7 79.5,361.2 75.3,366.3 118.1,359.3" fill="none" fill-opacity="1.00" stroke="#8a93a3" stroke-width="0.9" stroke-opacity="1.00"/><text x="43.7" y="271.2" font-family="Helvetica" font-size="9" font-weight="bold" text-anchor="middle" fill="none" stroke="#FFFFFF" stroke-width="3">PC</text><text x="43.7" y="271.2" font-family="Helvetica" font-size="9" font-weight="bold" text-anchor="middle" fill="#C8770A">PC</text><text x="152.8" y="390.8" font-family="Helvetica" font-size="9" font-weight="bold" text-anchor="middle" fill="none" stroke="#FFFFFF" stroke-width="3">PC</text><text x="152.8" y="390.8" font-family="Helvetica" font-size="9" font-weight="bold" text-anchor="middle" fill="#C8770A">PC</text><text x="69.8" y="204.6" font-family="Helvetica" font-size="9" font-weight="bold" text-anchor="middle" fill="none" stroke="#FFFFFF" stroke-width="3">PC</text><text x="69.8" y="204.6" font-family="Helvetica" font-size="9" font-weight="bold" text-anchor="middle" fill="#C8770A">PC</text><text x="128.2" y="259.5" font-family="Helvetica" font-size="9" font-weight="bold" text-anchor="middle" fill="none" stroke="#FFFFFF" stroke-width="3">I</text><text x="128.2" y="259.5" font-family="Helvetica" font-size="9" font-weight="bold" text-anchor="middle" fill="#1E7FBF">I</text><text x="226.5" y="321.6" font-family="Helvetica" font-size="9" font-weight="bold" text-anchor="middle" fill="none" stroke="#FFFFFF" stroke-width="3">I</text><text x="226.5" y="321.6" font-family="Helvetica" font-size="9" font-weight="bold" text-anchor="middle" fill="#1E7FBF">I</text><text x="218.0" y="308.5" font-family="Helvetica" font-size="9" font-weight="bold" text-anchor="middle" fill="none" stroke="#FFFFFF" stroke-width="3">RJ</text><text x="218.0" y="308.5" font-family="Helvetica" font-size="9" font-weight="bold" text-anchor="middle" fill="#7B3FC4">RJ</text></svg>