<svg xmlns="http://www.w3.org/2000/svg" width="264" height="536" viewBox="0 0 264 536"><g opacity="1.00"><rect width="264" height="536" fill="#FFFFFF"/><polygon points="13.6,245.9 177.4,216.5 250.4,370.1 86.6,399.6" fill="#EEF2FB" fill-opacity="1.00" stroke="#D5DCEA" stroke-width="0.9" stroke-opacity="1.00"/><polygon points="20.5,246.0 86.0,234.2 110.8,286.6 45.3,298.3" fill="#dee2eb" fill-opacity="1.00" stroke="none" stroke-width="0.9" stroke-opacity="1.00"/><polygon points="24.0,247.2 84.0,236.4 107.3,285.4 47.2,296.2" fill="#d0d4dd" fill-opacity="1.00" stroke="none" stroke-width="0.9" stroke-opacity="1.00"/><polygon points="111.7,246.0 87.1,250.4 79.9,235.3 104.5,230.9" fill="#dee2eb" fill-opacity="1.00" stroke="none" stroke-width="0.9" stroke-opacity="1.00"/><polygon points="108.1,244.8 89.0,248.3 83.5,236.5 102.6,233.1" fill="#d0d4dd" fill-opacity="1.00" stroke="none" stroke-width="0.9" stroke-opacity="1.00"/><polygon points="156.1,234.9 185.8,229.6 208.3,277.1 178.7,282.4" fill="#dee2eb" fill-opacity="1.00" stroke="none" stroke-width="0.9" stroke-opacity="1.00"/><polygon points="159.7,236.1 183.8,231.7 204.8,275.9 180.6,280.3" fill="#d0d4dd" fill-opacity="1.00" stroke="none" stroke-width="0.9" stroke-opacity="1.00"/><polygon points="169.8,317.1 76.9,333.8 64.9,308.4 157.7,291.7" fill="#dee2eb" fill-opacity="1.00" stroke="none" stroke-width="0.9" stroke-opacity="1.00"/><polygon points="166.2,315.9 78.9,331.6 68.4,309.6 155.7,293.8" fill="#d0d4dd" fill-opacity="1.00" stroke="none" stroke-width="0.9" stroke-opacity="1.00"/><polygon points="102.4,338.4 152.3,329.4 161.2,348.1 111.3,357.1" fill="#dee2eb" fill-opacity="1.00" stroke="none" stroke-width="0.9" stroke-opacity="1.00"/><polygon points="105.9,339.6 150.4,331.6 157.7,346.9 113.2,354.9" fill="#d0d4dd" fill-opacity="1.00" stroke="none" stroke-width="0.9" stroke-opacity="1.00"/><polygon points="120.9,386.4 178.6,376.0 182.3,383.7 124.6,394.0" fill="#dee2eb" fill-opacity="1.00" stroke="none" stroke-width="0.9" stroke-opacity="1.00"/><polygon points="124.4,387.6 176.7,378.2 178.8,382.5 126.5,391.9" fill="#d0d4dd" fill-opacity="1.00" stroke="none" stroke-width="0.9" stroke-opacity="1.00"/><polygon points="64.1,347.8 87.5,343.6 107.8,386.4 84.4,390.6" fill="#dee2eb" fill-opacity="1.00" stroke="none" stroke-width="0.9" stroke-opacity="1.00"/><polygon points="67.7,349.0 85.6,345.8 104.3,385.2 86.3,388.4" fill="#d0d4dd" fill-opacity="1.00" stroke="none" stroke-width="0.9" stroke-opacity="1.00"/><polyline points="164.2,188.6 167.3,184.4" fill="none" stroke="#8A93A3" stroke-width="1" stroke-opacity="1.00"/><polyline points="164.2,220.7 167.3,216.5" fill="none" stroke="#8A93A3" stroke-width="1" stroke-opacity="1.00"/><polyline points="164.2,220.7 164.2,188.6" fill="none" stroke="#8A93A3" stroke-width="1" stroke-opacity="1.00"/><polyline points="167.3,216.5 167.3,184.4" fill="none" stroke="#8A93A3" stroke-width="1" stroke-opacity="1.00"/><polyline points="119.0,196.8 164.2,188.6" fill="none" stroke="#8A93A3" stroke-width="1" stroke-opacity="1.00"/><polyline points="119.0,228.8 164.2,220.7" fill="none" stroke="#8A93A3" stroke-width="1" stroke-opacity="1.00"/><polyline points="119.0,228.8 119.0,196.8" fill="none" stroke="#8A93A3" stroke-width="1" stroke-opacity="1.00"/><polyline points="164.2,220.7 164.2,188.6" fill="none" stroke="#8A93A3" stroke-width="1" stroke-opacity="1.00"/><polyline points="118.9,193.1 119.0,196.8" fill="none" stroke="#8A93A3" stroke-width="1" stroke-opacity="1.00"/><polyline points="118.9,225.2 119.0,228.8" fill="none" stroke="#8A93A3" stroke-width="1" stroke-opacity="1.00"/><polyline points="118.9,225.2 118.9,193.1" fill="none" stroke="#8A93A3" stroke-width="1" stroke-opacity="1.00"/><polyline points="119.0,228.8 119.0,196.8" fill="none" stroke="#8A93A3" stroke-width="1" stroke-opacity="1.00"/><polygon points="175.5,218.6 179.4,214.3 179.4,134.2 175.5,138.6" fill="#fdfdfc" fill-opacity="1.00" stroke="none" stroke-width="0.9" stroke-opacity="1.00"/><polyline points="175.5,138.6 179.4,134.2" fill="none" stroke="#8A93A3" stroke-width="1" stroke-opacity="1.00"/><polyline points="175.5,218.6 179.4,214.3" fill="none" stroke="#8A93A3" stroke-width="1" stroke-opacity="1.00"/><polyline points="175.5,218.6 175.5,138.6" fill="none" stroke="#8A93A3" stroke-width="1" stroke-opacity="1.00"/><polyline points="179.4,214.3 179.4,134.2" fill="none" stroke="#8A93A3" stroke-width="1" stroke-opacity="1.00"/><polygon points="119.0,196.8 164.2,188.6 167.3,184.4 118.9,193.1" fill="#e4e9f2" fill-opacity="1.00" stroke="none" stroke-width="0.9" stroke-opacity="1.00"/><polygon points="119.0,196.8 164.2,188.6 167.3,184.4 118.9,193.1" fill="none" fill-opacity="1.00" stroke="#8a93a3" stroke-width="0.9" stroke-opacity="1.00"/><polygon points="164.2,220.7 167.3,216.5 167.3,184.4 164.2,188.6" fill="#fcfcfb" fill-opacity="1.00" stroke="none" stroke-width="0.9" stroke-opacity="1.00"/><polygon points="164.2,145.4 167.3,141.2 167.3,136.4 164.2,140.6" fill="#fcfcfb" fill-opacity="1.00" stroke="none" stroke-width="0.9" stroke-opacity="1.00"/><polygon points="164.2,220.7 175.5,218.6 175.5,138.6 164.2,140.6" fill="#fefefe" fill-opacity="1.00" stroke="none" stroke-width="0.9" stroke-opacity="1.00"/><polyline points="164.2,140.6 175.5,138.6" fill="none" stroke="#8A93A3" stroke-width="1" stroke-opacity="1.00"/><polyline points="164.2,220.7 175.5,218.6" fill="none" stroke="#8A93A3" stroke-width="1" stroke-opacity="1.00"/><polyline points="164.2,220.7 164.2,140.6" fill="none" stroke="#8A93A3" stroke-width="1" stroke-opacity="1.00"/><polyline points="175.5,218.6 175.5,138.6" fill="none" stroke="#8A93A3" stroke-width="1" stroke-opacity="1.00"/><polygon points="119.0,196.6 164.4,188.4 164.4,145.2 119.0,153.3" fill="#7fcfed" fill-opacity="1.00" stroke="none" stroke-width="0.9" stroke-opacity="1.00"/><polygon points="119.0,228.8 164.2,220.7 164.2,188.6 119.0,196.8" fill="#fefefe" fill-opacity="1.00" stroke="none" stroke-width="0.9" stroke-opacity="1.00"/><polygon points="119.0,153.6 164.2,145.4 164.2,140.6 119.0,148.8" fill="#fefefe" fill-opacity="1.00" stroke="none" stroke-width="0.9" stroke-opacity="1.00"/><polygon points="118.9,225.2 119.0,228.8 119.0,196.8 118.9,193.1" fill="#e3ddd5" fill-opacity="1.00" stroke="none" stroke-width="0.9" stroke-opacity="1.00"/><polygon points="118.9,149.9 119.0,153.6 119.0,148.8 118.9,145.1" fill="#e3ddd5" fill-opacity="1.00" stroke="none" stroke-width="0.9" stroke-opacity="1.00"/><polyline points="119.0,153.3 164.4,145.2" fill="none" stroke="#3EB8E5" stroke-width="1" stroke-opacity="1.00"/><polyline points="119.0,196.6 164.4,188.4" fill="none" stroke="#3EB8E5" stroke-width="1" stroke-opacity="1.00"/><polyline points="119.0,196.6 119.0,153.3" fill="none" stroke="#3EB8E5" stroke-width="1" stroke-opacity="1.00"/><polyline points="164.4,188.4 164.4,145.2" fill="none" stroke="#3EB8E5" stroke-width="1" stroke-opacity="1.00"/><polygon points="17.2,247.1 119.0,228.8 119.0,148.8 17.2,167.1" fill="#fefefe" fill-opacity="1.00" stroke="none" stroke-width="0.9" stroke-opacity="1.00"/><polyline points="17.2,167.1 119.0,148.8" fill="none" stroke="#8A93A3" stroke-width="1" stroke-opacity="1.00"/><polyline points="17.2,247.1 119.0,228.8" fill="none" stroke="#8A93A3" stroke-width="1" stroke-opacity="1.00"/><polyline points="17.2,247.1 17.2,167.1" fill="none" stroke="#8A93A3" stroke-width="1" stroke-opacity="1.00"/><polyline points="119.0,228.8 119.0,148.8" fill="none" stroke="#8A93A3" stroke-width="1" stroke-opacity="1.00"/><polygon points="164.2,140.6 175.5,138.6 179.4,134.2 167.3,136.4" fill="#e4e9f2" fill-opacity="1.00" stroke="none" stroke-width="0.9" stroke-opacity="1.00"/><polyline points="164.2,140.6 167.3,136.4" fill="none" stroke="#8A93A3" stroke-width="1" stroke-opacity="1.00"/><polyline points="164.2,145.4 167.3,141.2" fill="none" stroke="#8A93A3" stroke-width="1" stroke-opacity="1.00"/><polyline points="164.2,145.4 164.2,140.6" fill="none" stroke="#8A93A3" stroke-width="1" stroke-opacity="1.00"/><polyline points="167.3,141.2 167.3,136.4" fill="none" stroke="#8A93A3" stroke-width="1" stroke-opacity="1.00"/><polygon points="164.2,140.6 175.5,138.6 179.4,134.2 167.3,136.4" fill="none" fill-opacity="1.00" stroke="#8a93a3" stroke-width="0.9" stroke-opacity="1.00"/><polygon points="10.1,244.7 17.2,247.1 17.2,167.1 10.1,164.7" fill="#f5f3f0" fill-opacity="1.00" stroke="none" stroke-width="0.9" stroke-opacity="1.00"/><polyline points="10.1,164.7 17.2,167.1" fill="none" stroke="#8A93A3" stroke-width="1" stroke-opacity="1.00"/><polyline points="10.1,244.7 17.2,247.1" fill="none" stroke="#8A93A3" stroke-width="1" stroke-opacity="1.00"/><polyline points="10.1,244.7 10.1,164.7" fill="none" stroke="#8A93A3" stroke-width="1" stroke-opacity="1.00"/><polyline points="17.2,247.1 17.2,167.1" fill="none" stroke="#8A93A3" stroke-width="1" stroke-opacity="1.00"/><polygon points="119.0,148.8 164.2,140.6 167.3,136.4 118.9,145.1" fill="#e4e9f2" fill-opacity="1.00" stroke="none" stroke-width="0.9" stroke-opacity="1.00"/><polygon points="119.0,148.8 164.2,140.6 167.3,136.4 118.9,145.1" fill="none" fill-opacity="1.00" stroke="#8a93a3" stroke-width="0.9" stroke-opacity="1.00"/><polyline points="119.0,148.8 164.2,140.6" fill="none" stroke="#8A93A3" stroke-width="1" stroke-opacity="1.00"/><polyline points="119.0,153.6 164.2,145.4" fill="none" stroke="#8A93A3" stroke-width="1" stroke-opacity="1.00"/><polyline points="119.0,153.6 119.0,148.8" fill="none" stroke="#8A93A3" stroke-width="1" stroke-opacity="1.00"/><polyline points="164.2,145.4 164.2,140.6" fill="none" stroke="#8A93A3" stroke-width="1" stroke-opacity="1.00"/><polyline points="118.9,145.1 119.0,148.8" fill="none" stroke="#8A93A3" stroke-width="1" stroke-opacity="1.00"/><polyline points="118.9,149.9 119.0,153.6" fill="none" stroke="#8A93A3" stroke-width="1" stroke-opacity="1.00"/><polyline points="118.9,149.9 118.9,145.1" fill="none" stroke="#8A93A3" stroke-width="1" stroke-opacity="1.00"/><polyline points="119.0,153.6 119.0,148.8" fill="none" stroke="#8A93A3" stroke-width="1" stroke-opacity="1.00"/><polygon points="17.2,167.1 119.0,148.8 118.9,145.1 10.1,164.7" fill="#e4e9f2" fill-opacity="1.00" stroke="none" stroke-width="0.9" stroke-opacity="1.00"/><polygon points="17.2,167.1 119.0,148.8 118.9,145.1 10.1,164.7" fill="none" fill-opacity="1.00" stroke="#8a93a3" stroke-width="0.9" stroke-opacity="1.00"/><polygon points="163.4,290.5 197.6,284.4 196.0,281.0 161.8,287.2" fill="#6ecaec" fill-opacity="1.00" stroke="none" stroke-width="0.9" stroke-opacity="1.00"/><polygon points="163.4,290.5 197.6,284.4 196.0,281.0 161.8,287.2" fill="none" fill-opacity="1.00" stroke="#37a2ca" stroke-width="0.9" stroke-opacity="1.00"/><polyline points="163.4,290.5 197.6,284.4" fill="none" stroke="#37a2ca" stroke-width="1" stroke-opacity="1.00"/><polyline points="163.4,291.2 197.6,285.0" fill="none" stroke="#37a2ca" stroke-width="1" stroke-opacity="1.00"/><polyline points="163.4,291.2 163.4,290.5" fill="none" stroke="#37a2ca" stroke-width="1" stroke-opacity="1.00"/><polyline points="197.6,285.0 197.6,284.4" fill="none" stroke="#37a2ca" stroke-width="1" stroke-opacity="1.00"/><polyline points="161.8,287.2 163.4,290.5" fill="none" stroke="#37a2ca" stroke-width="1" stroke-opacity="1.00"/><polyline points="161.8,287.8 163.4,291.2" fill="none" stroke="#37a2ca" stroke-width="1" stroke-opacity="1.00"/><polyline points="161.8,287.8 161.8,287.2" fill="none" stroke="#37a2ca" stroke-width="1" stroke-opacity="1.00"/><polyline points="163.4,291.2 163.4,290.5" fill="none" stroke="#37a2ca" stroke-width="1" stroke-opacity="1.00"/><polygon points="175.5,218.6 231.8,337.2 231.8,257.2 175.5,138.6" fill="#e7e3dc" fill-opacity="1.00" stroke="none" stroke-width="0.9" stroke-opacity="1.00"/><polyline points="175.5,138.6 231.8,257.2" fill="none" stroke="#8A93A3" stroke-width="1" stroke-opacity="1.00"/><polyline points="175.5,218.6 231.8,337.2" fill="none" stroke="#8A93A3" stroke-width="1" stroke-opacity="1.00"/><polyline points="175.5,218.6 175.5,138.6" fill="none" stroke="#8A93A3" stroke-width="1" stroke-opacity="1.00"/><polyline points="231.8,337.2 231.8,257.2" fill="none" stroke="#8A93A3" stroke-width="1" stroke-opacity="1.00"/><polygon points="196.0,281.7 197.6,285.0 197.6,205.0 196.0,201.6" fill="#e7e3dc" fill-opacity="1.00" stroke="none" stroke-width="0.9" stroke-opacity="1.00"/><polygon points="197.6,285.0 211.7,282.5 211.7,202.4 197.6,205.0" fill="#fefefe" fill-opacity="1.00" stroke="none" stroke-width="0.9" stroke-opacity="1.00"/><polygon points="163.4,291.2 197.6,285.0 197.6,219.4 163.4,225.5" fill="none" fill-opacity="1.00" stroke="#E8A13B" stroke-width="0.9" stroke-opacity="1.00"/><polyline points="196.0,201.6 197.6,205.0" fill="none" stroke="#8A93A3" stroke-width="1" stroke-opacity="1.00"/><polyline points="196.0,281.7 197.6,285.0" fill="none" stroke="#8A93A3" stroke-width="1" stroke-opacity="1.00"/><polyline points="196.0,281.7 196.0,201.6" fill="none" stroke="#8A93A3" stroke-width="1" stroke-opacity="1.00"/><polyline points="197.6,285.0 197.6,205.0" fill="none" stroke="#8A93A3" stroke-width="1" stroke-opacity="1.00"/><polyline points="197.6,205.0 211.7,202.4" fill="none" stroke="#8A93A3" stroke-width="1" stroke-opacity="1.00"/><polyline points="197.6,285.0 211.7,282.5" fill="none" stroke="#8A93A3" stroke-width="1" stroke-opacity="1.00"/><polyline points="197.6,285.0 197.6,205.0" fill="none" stroke="#8A93A3" stroke-width="1" stroke-opacity="1.00"/><polyline points="211.7,282.5 211.7,202.4" fill="none" stroke="#8A93A3" stroke-width="1" stroke-opacity="1.00"/><polygon points="163.4,225.5 197.6,219.4 197.6,205.0 163.4,211.1" fill="#fefefe" fill-opacity="1.00" stroke="none" stroke-width="0.9" stroke-opacity="1.00"/><polygon points="163.4,291.2 197.6,285.0 197.6,284.4 163.4,290.5" fill="#7fcfed" fill-opacity="1.00" stroke="none" stroke-width="0.9" stroke-opacity="1.00"/><polygon points="161.8,222.2 163.4,225.5 163.4,211.1 161.8,207.8" fill="#e7e3dc" fill-opacity="1.00" stroke="none" stroke-width="0.9" stroke-opacity="1.00"/><polygon points="161.8,287.8 163.4,291.2 163.4,290.5 161.8,287.2" fill="#6db6cc" fill-opacity="1.00" stroke="none" stroke-width="0.9" stroke-opacity="1.00"/><polygon points="175.5,138.6 231.8,257.2 238.2,258.2 179.4,134.2" fill="#e4e9f2" fill-opacity="1.00" stroke="none" stroke-width="0.9" stroke-opacity="1.00"/><polygon points="42.5,312.9 163.4,291.2 163.4,211.1 42.5,232.9" fill="#fefefe" fill-opacity="1.00" stroke="none" stroke-width="0.9" stroke-opacity="1.00"/><polygon points="175.5,138.6 231.8,257.2 238.2,258.2 179.4,134.2" fill="none" fill-opacity="1.00" stroke="#8a93a3" stroke-width="0.9" stroke-opacity="1.00"/><polyline points="42.5,232.9 163.4,211.1" fill="none" stroke="#8A93A3" stroke-width="1" stroke-opacity="1.00"/><polyline points="42.5,312.9 163.4,291.2" fill="none" stroke="#8A93A3" stroke-width="1" stroke-opacity="1.00"/><polyline points="42.5,312.9 42.5,232.9" fill="none" stroke="#8A93A3" stroke-width="1" stroke-opacity="1.00"/><polyline points="163.4,291.2 163.4,211.1" fill="none" stroke="#8A93A3" stroke-width="1" stroke-opacity="1.00"/><polygon points="197.6,205.0 211.7,202.4 210.1,199.1 196.0,201.6" fill="#e4e9f2" fill-opacity="1.00" stroke="none" stroke-width="0.9" stroke-opacity="1.00"/><polygon points="197.6,205.0 211.7,202.4 210.1,199.1 196.0,201.6" fill="none" fill-opacity="1.00" stroke="#8a93a3" stroke-width="0.9" stroke-opacity="1.00"/><polyline points="163.4,211.1 197.6,205.0" fill="none" stroke="#8A93A3" stroke-width="1" stroke-opacity="1.00"/><polyline points="163.4,225.5 197.6,219.4" fill="none" stroke="#8A93A3" stroke-width="1" stroke-opacity="1.00"/><polyline points="163.4,225.5 163.4,211.1" fill="none" stroke="#8A93A3" stroke-width="1" stroke-opacity="1.00"/><polyline points="197.6,219.4 197.6,205.0" fill="none" stroke="#8A93A3" stroke-width="1" stroke-opacity="1.00"/><polyline points="161.8,207.8 163.4,211.1" fill="none" stroke="#8A93A3" stroke-width="1" stroke-opacity="1.00"/><polyline points="161.8,222.2 163.4,225.5" fill="none" stroke="#8A93A3" stroke-width="1" stroke-opacity="1.00"/><polyline points="161.8,222.2 161.8,207.8" fill="none" stroke="#8A93A3" stroke-width="1" stroke-opacity="1.00"/><polyline points="163.4,225.5 163.4,211.1" fill="none" stroke="#8A93A3" stroke-width="1" stroke-opacity="1.00"/><polygon points="163.4,211.1 197.6,205.0 196.0,201.6 161.8,207.8" fill="#e4e9f2" fill-opacity="1.00" stroke="none" stroke-width="0.9" stroke-opacity="1.00"/><polygon points="40.9,309.6 42.5,312.9 42.5,232.9 40.9,229.5" fill="#e7e3dc" fill-opacity="1.00" stroke="none" stroke-width="0.9" stroke-opacity="1.00"/><polygon points="163.4,211.1 197.6,205.0 196.0,201.6 161.8,207.8" fill="none" fill-opacity="1.00" stroke="#8a93a3" stroke-width="0.9" stroke-opacity="1.00"/><polyline points="40.9,229.5 42.5,232.9" fill="none" stroke="#8A93A3" stroke-width="1" stroke-opacity="1.00"/><polyline points="40.9,309.6 42.5,312.9" fill="none" stroke="#8A93A3" stroke-width="1" stroke-opacity="1.00"/><polyline points="40.9,309.6 40.9,229.5" fill="none" stroke="#8A93A3" stroke-width="1" stroke-opacity="1.00"/><polyline points="42.5,312.9 42.5,232.9" fill="none" stroke="#8A93A3" stroke-width="1" stroke-opacity="1.00"/><polyline points="231.8,336.6 241.8,357.7" fill="none" stroke="#37a2ca" stroke-width="1" stroke-opacity="1.00"/><polyline points="231.8,337.2 241.8,358.4" fill="none" stroke="#37a2ca" stroke-width="1" stroke-opacity="1.00"/><polyline points="231.8,337.2 231.8,336.6" fill="none" stroke="#37a2ca" stroke-width="1" stroke-opacity="1.00"/><polyline points="241.8,358.4 241.8,357.7" fill="none" stroke="#37a2ca" stroke-width="1" stroke-opacity="1.00"/><polygon points="231.8,336.6 241.8,357.7 248.6,359.6 238.2,337.5" fill="#6ecaec" fill-opacity="1.00" stroke="none" stroke-width="0.9" stroke-opacity="1.00"/><polygon points="42.5,232.9 163.4,211.1 161.8,207.8 40.9,229.5" fill="#e4e9f2" fill-opacity="1.00" stroke="none" stroke-width="0.9" stroke-opacity="1.00"/><polygon points="231.8,336.6 241.8,357.7 248.6,359.6 238.2,337.5" fill="none" fill-opacity="1.00" stroke="#37a2ca" stroke-width="0.9" stroke-opacity="1.00"/><polygon points="42.5,232.9 163.4,211.1 161.8,207.8 40.9,229.5" fill="none" fill-opacity="1.00" stroke="#8a93a3" stroke-width="0.9" stroke-opacity="1.00"/><polyline points="241.8,357.7 248.6,359.6" fill="none" stroke="#37a2ca" stroke-width="1" stroke-opacity="1.00"/><polyline points="241.8,358.4 248.6,360.3" fill="none" stroke="#37a2ca" stroke-width="1" stroke-opacity="1.00"/><polyline points="241.8,358.4 241.8,357.7" fill="none" stroke="#37a2ca" stroke-width="1" stroke-opacity="1.00"/><polyline points="248.6,360.3 248.6,359.6" fill="none" stroke="#37a2ca" stroke-width="1" stroke-opacity="1.00"/><polygon points="231.8,337.2 238.2,338.2 238.2,258.2 231.8,257.2" fill="#f9f8f6" fill-opacity="1.00" stroke="none" stroke-width="0.9" stroke-opacity="1.00"/><polyline points="231.8,257.2 238.2,258.2" fill="none" stroke="#8A93A3" stroke-width="1" stroke-opacity="1.00"/><polyline points="231.8,337.2 238.2,338.2" fill="none" stroke="#8A93A3" stroke-width="1" stroke-opacity="1.00"/><polyline points="231.8,337.2 231.8,257.2" fill="none" stroke="#8A93A3" stroke-width="1" stroke-opacity="1.00"/><polyline points="238.2,338.2 238.2,258.2" fill="none" stroke="#8A93A3" stroke-width="1" stroke-opacity="1.00"/><polygon points="231.8,337.2 241.8,358.4 241.8,292.7 231.8,271.6" fill="none" fill-opacity="1.00" stroke="#E8A13B" stroke-width="0.9" stroke-opacity="1.00"/><polygon points="231.8,271.6 241.8,292.7 241.8,278.3 231.8,257.2" fill="#e7e3dc" fill-opacity="1.00" stroke="none" stroke-width="0.9" stroke-opacity="1.00"/><polygon points="231.8,337.2 241.8,358.4 241.8,357.7 231.8,336.6" fill="#6db6cc" fill-opacity="1.00" stroke="none" stroke-width="0.9" stroke-opacity="1.00"/><polygon points="241.8,292.7 248.6,294.6 248.6,280.2 241.8,278.3" fill="#f6f4f2" fill-opacity="1.00" stroke="none" stroke-width="0.9" stroke-opacity="1.00"/><polygon points="241.8,358.4 248.6,360.3 248.6,359.6 241.8,357.7" fill="#79c6e1" fill-opacity="1.00" stroke="none" stroke-width="0.9" stroke-opacity="1.00"/><polygon points="241.8,358.4 246.8,368.9 246.8,288.9 241.8,278.3" fill="#e7e3dc" fill-opacity="1.00" stroke="none" stroke-width="0.9" stroke-opacity="1.00"/><polyline points="241.8,278.3 246.8,288.9" fill="none" stroke="#8A93A3" stroke-width="1" stroke-opacity="1.00"/><polyline points="241.8,358.4 246.8,368.9" fill="none" stroke="#8A93A3" stroke-width="1" stroke-opacity="1.00"/><polyline points="241.8,358.4 241.8,278.3" fill="none" stroke="#8A93A3" stroke-width="1" stroke-opacity="1.00"/><polyline points="246.8,368.9 246.8,288.9" fill="none" stroke="#8A93A3" stroke-width="1" stroke-opacity="1.00"/><polyline points="231.8,257.2 241.8,278.3" fill="none" stroke="#8A93A3" stroke-width="1" stroke-opacity="1.00"/><polyline points="231.8,271.6 241.8,292.7" fill="none" stroke="#8A93A3" stroke-width="1" stroke-opacity="1.00"/><polyline points="231.8,271.6 231.8,257.2" fill="none" stroke="#8A93A3" stroke-width="1" stroke-opacity="1.00"/><polyline points="241.8,292.7 241.8,278.3" fill="none" stroke="#8A93A3" stroke-width="1" stroke-opacity="1.00"/><polygon points="246.8,368.9 253.9,371.3 253.9,291.3 246.8,288.9" fill="#f5f3f0" fill-opacity="1.00" stroke="none" stroke-width="0.9" stroke-opacity="1.00"/><polyline points="246.8,288.9 253.9,291.3" fill="none" stroke="#8A93A3" stroke-width="1" stroke-opacity="1.00"/><polyline points="246.8,368.9 253.9,371.3" fill="none" stroke="#8A93A3" stroke-width="1" stroke-opacity="1.00"/><polyline points="246.8,368.9 246.8,288.9" fill="none" stroke="#8A93A3" stroke-width="1" stroke-opacity="1.00"/><polyline points="253.9,371.3 253.9,291.3" fill="none" stroke="#8A93A3" stroke-width="1" stroke-opacity="1.00"/><polygon points="231.8,257.2 241.8,278.3 248.6,280.2 238.2,258.2" fill="#e4e9f2" fill-opacity="1.00" stroke="none" stroke-width="0.9" stroke-opacity="1.00"/><polygon points="231.8,257.2 241.8,278.3 248.6,280.2 238.2,258.2" fill="none" fill-opacity="1.00" stroke="#8a93a3" stroke-width="0.9" stroke-opacity="1.00"/><polyline points="241.8,278.3 248.6,280.2" fill="none" stroke="#8A93A3" stroke-width="1" stroke-opacity="1.00"/><polyline points="241.8,292.7 248.6,294.6" fill="none" stroke="#8A93A3" stroke-width="1" stroke-opacity="1.00"/><polyline points="241.8,292.7 241.8,278.3" fill="none" stroke="#8A93A3" stroke-width="1" stroke-opacity="1.00"/><polyline points="248.6,294.6 248.6,280.2" fill="none" stroke="#8A93A3" stroke-width="1" stroke-opacity="1.00"/><polygon points="241.8,278.3 246.8,288.9 253.9,291.3 248.6,280.2" fill="#e4e9f2" fill-opacity="1.00" stroke="none" stroke-width="0.9" stroke-opacity="1.00"/><polygon points="241.8,278.3 246.8,288.9 253.9,291.3 248.6,280.2" fill="none" fill-opacity="1.00" stroke="#8a93a3" stroke-width="0.9" stroke-opacity="1.00"/><polygon points="86.9,246.5 104.5,243.3 104.5,227.3 86.9,230.5" fill="#e7eefb" fill-opacity="1.00" stroke="#2F6BFF" stroke-width="0.9" stroke-opacity="1.00"/><polygon points="81.9,236.0 86.9,246.5 86.9,230.5 81.9,220.0" fill="#d1d3d9" fill-opacity="1.00" stroke="#2F6BFF" stroke-width="0.9" stroke-opacity="1.00"/><polygon points="99.5,216.8 81.9,220.0 86.9,230.5 104.5,227.3" fill="#e7eefc" fill-opacity="1.00" stroke="#2F6BFF" stroke-width="0.9" stroke-opacity="1.00"/><polygon points="96.1,244.6 104.3,243.2 104.3,228.4 96.1,229.9" fill="#f1f5fc" fill-opacity="1.00" stroke="#2F6BFF" stroke-width="0.9" stroke-opacity="1.00"/><polygon points="95.9,244.2 96.1,244.6 96.1,229.9 95.9,229.5" fill="#dbdada" fill-opacity="1.00" stroke="#2F6BFF" stroke-width="0.9" stroke-opacity="1.00"/><polygon points="104.1,228.0 95.9,229.5 96.1,229.9 104.3,228.4" fill="#f2f5fd" fill-opacity="1.00" stroke="#2F6BFF" stroke-width="0.9" stroke-opacity="1.00"/><polygon points="87.5,246.2 95.7,244.7 95.7,230.0 87.5,231.5" fill="#f1f5fc" fill-opacity="1.00" stroke="#2F6BFF" stroke-width="0.9" stroke-opacity="1.00"/><polygon points="87.3,245.8 87.5,246.2 87.5,231.5 87.3,231.0" fill="#dbdada" fill-opacity="1.00" stroke="#2F6BFF" stroke-width="0.9" stroke-opacity="1.00"/><polygon points="95.5,229.5 87.3,231.0 87.5,231.5 95.7,230.0" fill="#f2f5fd" fill-opacity="1.00" stroke="#2F6BFF" stroke-width="0.9" stroke-opacity="1.00"/><polygon points="96.5,238.7 97.1,238.6 97.1,236.1 96.5,236.2" fill="#adb1bb" fill-opacity="1.00" stroke="#2F6BFF" stroke-width="0.9" stroke-opacity="1.00"/><polygon points="96.4,238.4 96.5,238.7 96.5,236.2 96.4,235.8" fill="#9a999c" fill-opacity="1.00" stroke="#2F6BFF" stroke-width="0.9" stroke-opacity="1.00"/><polygon points="96.9,235.7 96.4,235.8 96.5,236.2 97.1,236.1" fill="#a9aeb8" fill-opacity="1.00" stroke="#2F6BFF" stroke-width="0.9" stroke-opacity="1.00"/><polygon points="94.9,239.0 95.5,238.9 95.5,236.3 94.9,236.4" fill="#adb1bb" fill-opacity="1.00" stroke="#2F6BFF" stroke-width="0.9" stroke-opacity="1.00"/><polygon points="94.8,238.7 94.9,239.0 94.9,236.4 94.8,236.1" fill="#9a999c" fill-opacity="1.00" stroke="#2F6BFF" stroke-width="0.9" stroke-opacity="1.00"/><polygon points="95.3,236.0 94.8,236.1 94.9,236.4 95.5,236.3" fill="#a9aeb8" fill-opacity="1.00" stroke="#2F6BFF" stroke-width="0.9" stroke-opacity="1.00"/><polygon points="178.7,278.8 201.3,274.7 201.3,207.5 178.7,211.5" fill="#e7eefb" fill-opacity="1.00" stroke="#2F6BFF" stroke-width="0.9" stroke-opacity="1.00"/><polygon points="158.8,236.9 178.7,278.8 178.7,211.5 158.8,169.6" fill="#d1d3d9" fill-opacity="1.00" stroke="#2F6BFF" stroke-width="0.9" stroke-opacity="1.00"/><polygon points="178.7,211.5 201.3,207.5 181.4,165.6 158.8,169.6" fill="#e7eefc" fill-opacity="1.00" stroke="#2F6BFF" stroke-width="0.9" stroke-opacity="1.00"/><polygon points="159.2,234.1 169.8,232.2 169.8,170.3 159.2,172.2" fill="#f1f5fc" fill-opacity="1.00" stroke="#2F6BFF" stroke-width="0.9" stroke-opacity="1.00"/><polygon points="158.4,232.4 159.2,234.1 159.2,172.2 158.4,170.5" fill="#dbdada" fill-opacity="1.00" stroke="#2F6BFF" stroke-width="0.9" stroke-opacity="1.00"/><polygon points="159.2,172.2 169.8,170.3 169.0,168.6 158.4,170.5" fill="#f2f5fd" fill-opacity="1.00" stroke="#2F6BFF" stroke-width="0.9" stroke-opacity="1.00"/><polygon points="170.3,232.1 180.9,230.2 180.9,168.3 170.3,170.2" fill="#f1f5fc" fill-opacity="1.00" stroke="#2F6BFF" stroke-width="0.9" stroke-opacity="1.00"/><polygon points="169.5,230.4 170.3,232.1 170.3,170.2 169.5,168.5" fill="#dbdada" fill-opacity="1.00" stroke="#2F6BFF" stroke-width="0.9" stroke-opacity="1.00"/><polygon points="170.3,170.2 180.9,168.3 180.1,166.6 169.5,168.5" fill="#f2f5fd" fill-opacity="1.00" stroke="#2F6BFF" stroke-width="0.9" stroke-opacity="1.00"/><polygon points="168.1,205.5 168.8,205.4 168.8,194.7 168.1,194.8" fill="#adb1bb" fill-opacity="1.00" stroke="#2F6BFF" stroke-width="0.9" stroke-opacity="1.00"/><polygon points="167.5,204.2 168.1,205.5 168.1,194.8 167.5,193.5" fill="#9a999c" fill-opacity="1.00" stroke="#2F6BFF" stroke-width="0.9" stroke-opacity="1.00"/><polygon points="168.1,194.8 168.8,194.7 168.2,193.4 167.5,193.5" fill="#a9aeb8" fill-opacity="1.00" stroke="#2F6BFF" stroke-width="0.9" stroke-opacity="1.00"/><polygon points="170.1,205.2 170.8,205.0 170.8,194.3 170.1,194.4" fill="#adb1bb" fill-opacity="1.00" stroke="#2F6BFF" stroke-width="0.9" stroke-opacity="1.00"/><polygon points="169.5,203.9 170.1,205.2 170.1,194.4 169.5,193.1" fill="#9a999c" fill-opacity="1.00" stroke="#2F6BFF" stroke-width="0.9" stroke-opacity="1.00"/><polygon points="170.1,194.4 170.8,194.3 170.2,193.0 169.5,193.1" fill="#a9aeb8" fill-opacity="1.00" stroke="#2F6BFF" stroke-width="0.9" stroke-opacity="1.00"/><polygon points="45.8,290.4 99.6,280.8 99.6,274.4 45.8,284.0" fill="#f3daa5" fill-opacity="1.00" stroke="#2F6BFF" stroke-width="0.9" stroke-opacity="1.00"/><polygon points="26.0,248.7 45.8,290.4 45.8,284.0 26.0,242.3" fill="#ddc086" fill-opacity="1.00" stroke="#2F6BFF" stroke-width="0.9" stroke-opacity="1.00"/><polygon points="45.8,284.0 99.6,274.4 79.8,232.6 26.0,242.3" fill="#f4d9a1" fill-opacity="1.00" stroke="#2F6BFF" stroke-width="0.9" stroke-opacity="1.00"/><polygon points="43.4,284.5 101.9,273.9 101.9,268.2 43.4,278.7" fill="#f8eacd" fill-opacity="1.00" stroke="#2F6BFF" stroke-width="0.9" stroke-opacity="1.00"/><polygon points="22.5,240.3 43.4,284.5 43.4,278.7 22.5,234.5" fill="#e1cfad" fill-opacity="1.00" stroke="#2F6BFF" stroke-width="0.9" stroke-opacity="1.00"/><polygon points="43.4,278.7 101.9,268.2 81.0,224.0 22.5,234.5" fill="#f9eacb" fill-opacity="1.00" stroke="#2F6BFF" stroke-width="0.9" stroke-opacity="1.00"/><polygon points="47.1,277.0 70.5,272.8 70.5,270.2 47.1,274.4" fill="#f8eacd" fill-opacity="1.00" stroke="#2F6BFF" stroke-width="0.9" stroke-opacity="1.00"/><polygon points="42.1,266.4 47.1,277.0 47.1,274.4 42.1,263.9" fill="#e1cfad" fill-opacity="1.00" stroke="#2F6BFF" stroke-width="0.9" stroke-opacity="1.00"/><polygon points="47.1,274.4 70.5,270.2 65.5,259.7 42.1,263.9" fill="#f9eacb" fill-opacity="1.00" stroke="#2F6BFF" stroke-width="0.9" stroke-opacity="1.00"/><polygon points="74.0,272.2 97.4,267.9 97.4,265.4 74.0,269.6" fill="#f8eacd" fill-opacity="1.00" stroke="#2F6BFF" stroke-width="0.9" stroke-opacity="1.00"/><polygon points="69.0,261.6 74.0,272.2 74.0,269.6 69.0,259.0" fill="#e1cfad" fill-opacity="1.00" stroke="#2F6BFF" stroke-width="0.9" stroke-opacity="1.00"/><polygon points="74.0,269.6 97.4,265.4 92.4,254.8 69.0,259.0" fill="#f9eacb" fill-opacity="1.00" stroke="#2F6BFF" stroke-width="0.9" stroke-opacity="1.00"/><polygon points="45.3,294.7 103.8,284.2 103.8,258.6 45.3,269.1" fill="#f3daa5" fill-opacity="1.00" stroke="#2F6BFF" stroke-width="0.9" stroke-opacity="1.00"/><polygon points="43.7,291.3 45.3,294.7 45.3,269.1 43.7,265.7" fill="#ddc086" fill-opacity="1.00" stroke="#2F6BFF" stroke-width="0.9" stroke-opacity="1.00"/><polygon points="45.3,269.1 103.8,258.6 102.2,255.2 43.7,265.7" fill="#f4d9a1" fill-opacity="1.00" stroke="#2F6BFF" stroke-width="0.9" stroke-opacity="1.00"/><polygon points="76.1,328.5 161.9,313.1 161.9,301.5 76.1,317.0" fill="#f3daa5" fill-opacity="1.00" stroke="#2F6BFF" stroke-width="0.9" stroke-opacity="1.00"/><polygon points="66.9,309.0 76.1,328.5 76.1,317.0 66.9,297.5" fill="#ddc086" fill-opacity="1.00" stroke="#2F6BFF" stroke-width="0.9" stroke-opacity="1.00"/><polygon points="152.7,282.1 66.9,297.5 76.1,317.0 161.9,301.5" fill="#f4d9a1" fill-opacity="1.00" stroke="#2F6BFF" stroke-width="0.9" stroke-opacity="1.00"/><polygon points="119.5,308.2 148.6,303.0 148.6,297.6 119.5,302.9" fill="#f8eacd" fill-opacity="1.00" stroke="#2F6BFF" stroke-width="0.9" stroke-opacity="1.00"/><polygon points="112.4,293.5 119.5,308.2 119.5,302.9 112.4,288.1" fill="#e1cfad" fill-opacity="1.00" stroke="#2F6BFF" stroke-width="0.9" stroke-opacity="1.00"/><polygon points="141.6,282.8 112.4,288.1 119.5,302.9 148.6,297.6" fill="#f9eacb" fill-opacity="1.00" stroke="#2F6BFF" stroke-width="0.9" stroke-opacity="1.00"/><polygon points="88.6,313.8 117.7,308.6 117.7,303.2 88.6,308.4" fill="#f8eacd" fill-opacity="1.00" stroke="#2F6BFF" stroke-width="0.9" stroke-opacity="1.00"/><polygon points="81.6,299.0 88.6,313.8 88.6,308.4 81.6,293.6" fill="#e1cfad" fill-opacity="1.00" stroke="#2F6BFF" stroke-width="0.9" stroke-opacity="1.00"/><polygon points="110.7,288.4 81.6,293.6 88.6,308.4 117.7,303.2" fill="#f9eacb" fill-opacity="1.00" stroke="#2F6BFF" stroke-width="0.9" stroke-opacity="1.00"/><polygon points="68.5,300.9 154.3,285.5 154.3,271.4 68.5,286.8" fill="#f3daa5" fill-opacity="1.00" stroke="#2F6BFF" stroke-width="0.9" stroke-opacity="1.00"/><polygon points="66.9,297.5 68.5,300.9 68.5,286.8 66.9,283.4" fill="#ddc086" fill-opacity="1.00" stroke="#2F6BFF" stroke-width="0.9" stroke-opacity="1.00"/><polygon points="152.7,268.0 66.9,283.4 68.5,286.8 154.3,271.4" fill="#f4d9a1" fill-opacity="1.00" stroke="#2F6BFF" stroke-width="0.9" stroke-opacity="1.00"/><polygon points="151.1,304.4 162.3,302.4 162.3,293.4 151.1,295.4" fill="#f3daa5" fill-opacity="1.00" stroke="#2F6BFF" stroke-width="0.9" stroke-opacity="1.00"/><polygon points="143.3,287.9 151.1,304.4 151.1,295.4 143.3,278.9" fill="#ddc086" fill-opacity="1.00" stroke="#2F6BFF" stroke-width="0.9" stroke-opacity="1.00"/><polygon points="154.5,276.9 143.3,278.9 151.1,295.4 162.3,293.4" fill="#f4d9a1" fill-opacity="1.00" stroke="#2F6BFF" stroke-width="0.9" stroke-opacity="1.00"/><polygon points="76.5,317.8 87.7,315.8 87.7,306.8 76.5,308.8" fill="#f3daa5" fill-opacity="1.00" stroke="#2F6BFF" stroke-width="0.9" stroke-opacity="1.00"/><polygon points="68.7,301.3 76.5,317.8 76.5,308.8 68.7,292.4" fill="#ddc086" fill-opacity="1.00" stroke="#2F6BFF" stroke-width="0.9" stroke-opacity="1.00"/><polygon points="79.8,290.4 68.7,292.4 76.5,308.8 87.7,306.8" fill="#f4d9a1" fill-opacity="1.00" stroke="#2F6BFF" stroke-width="0.9" stroke-opacity="1.00"/><polygon points="111.2,340.9 154.1,333.2 154.1,332.3 111.2,340.0" fill="#f1f5fc" fill-opacity="1.00" stroke="#2F6BFF" stroke-width="0.9" stroke-opacity="1.00"/><polygon points="104.4,326.5 111.2,340.9 111.2,340.0 104.4,325.6" fill="#dbdada" fill-opacity="1.00" stroke="#2F6BFF" stroke-width="0.9" stroke-opacity="1.00"/><polygon points="111.2,340.0 154.1,332.3 147.3,317.9 104.4,325.6" fill="#f2f5fd" fill-opacity="1.00" stroke="#2F6BFF" stroke-width="0.9" stroke-opacity="1.00"/><polygon points="105.9,340.3 109.4,339.7 109.4,327.2 105.9,327.8" fill="#adb1bb" fill-opacity="1.00" stroke="#2F6BFF" stroke-width="0.9" stroke-opacity="1.00"/><polygon points="105.4,339.2 105.9,340.3 105.9,327.8 105.4,326.7" fill="#9a999c" fill-opacity="1.00" stroke="#2F6BFF" stroke-width="0.9" stroke-opacity="1.00"/><polygon points="105.9,327.8 109.4,327.2 108.8,326.1 105.4,326.7" fill="#a9aeb8" fill-opacity="1.00" stroke="#2F6BFF" stroke-width="0.9" stroke-opacity="1.00"/><polygon points="143.7,333.5 147.1,332.9 147.1,320.4 143.7,321.0" fill="#adb1bb" fill-opacity="1.00" stroke="#2F6BFF" stroke-width="0.9" stroke-opacity="1.00"/><polygon points="143.1,332.4 143.7,333.5 143.7,321.0 143.1,319.9" fill="#9a999c" fill-opacity="1.00" stroke="#2F6BFF" stroke-width="0.9" stroke-opacity="1.00"/><polygon points="143.7,321.0 147.1,320.4 146.6,319.3 143.1,319.9" fill="#a9aeb8" fill-opacity="1.00" stroke="#2F6BFF" stroke-width="0.9" stroke-opacity="1.00"/><polygon points="112.0,353.0 115.4,352.4 115.4,339.9 112.0,340.5" fill="#adb1bb" fill-opacity="1.00" stroke="#2F6BFF" stroke-width="0.9" stroke-opacity="1.00"/><polygon points="111.4,351.9 112.0,353.0 112.0,340.5 111.4,339.3" fill="#9a999c" fill-opacity="1.00" stroke="#2F6BFF" stroke-width="0.9" stroke-opacity="1.00"/><polygon points="112.0,340.5 115.4,339.9 114.8,338.7 111.4,339.3" fill="#a9aeb8" fill-opacity="1.00" stroke="#2F6BFF" stroke-width="0.9" stroke-opacity="1.00"/><polygon points="149.7,346.2 153.1,345.6 153.1,333.1 149.7,333.7" fill="#adb1bb" fill-opacity="1.00" stroke="#2F6BFF" stroke-width="0.9" stroke-opacity="1.00"/><polygon points="149.2,345.1 149.7,346.2 149.7,333.7 149.2,332.6" fill="#9a999c" fill-opacity="1.00" stroke="#2F6BFF" stroke-width="0.9" stroke-opacity="1.00"/><polygon points="149.7,333.7 153.1,333.1 152.6,331.9 149.2,332.6" fill="#a9aeb8" fill-opacity="1.00" stroke="#2F6BFF" stroke-width="0.9" stroke-opacity="1.00"/><polygon points="84.4,386.9 100.8,384.0 100.8,323.2 84.4,326.1" fill="#e7eefb" fill-opacity="1.00" stroke="#2F6BFF" stroke-width="0.9" stroke-opacity="1.00"/><polygon points="66.7,349.7 84.4,386.9 84.4,326.1 66.7,288.9" fill="#d1d3d9" fill-opacity="1.00" stroke="#2F6BFF" stroke-width="0.9" stroke-opacity="1.00"/><polygon points="84.4,326.1 100.8,323.2 83.1,285.9 66.7,288.9" fill="#e7eefc" fill-opacity="1.00" stroke="#2F6BFF" stroke-width="0.9" stroke-opacity="1.00"/><polygon points="67.0,347.2 74.7,345.8 74.7,289.8 67.0,291.2" fill="#f1f5fc" fill-opacity="1.00" stroke="#2F6BFF" stroke-width="0.9" stroke-opacity="1.00"/><polygon points="66.3,345.7 67.0,347.2 67.0,291.2 66.3,289.7" fill="#dbdada" fill-opacity="1.00" stroke="#2F6BFF" stroke-width="0.9" stroke-opacity="1.00"/><polygon points="67.0,291.2 74.7,289.8 74.0,288.3 66.3,289.7" fill="#f2f5fd" fill-opacity="1.00" stroke="#2F6BFF" stroke-width="0.9" stroke-opacity="1.00"/><polygon points="75.0,345.7 82.7,344.4 82.7,288.4 75.0,289.8" fill="#f1f5fc" fill-opacity="1.00" stroke="#2F6BFF" stroke-width="0.9" stroke-opacity="1.00"/><polygon points="74.3,344.2 75.0,345.7 75.0,289.8 74.3,288.2" fill="#dbdada" fill-opacity="1.00" stroke="#2F6BFF" stroke-width="0.9" stroke-opacity="1.00"/><polygon points="75.0,289.8 82.7,288.4 82.0,286.9 74.3,288.2" fill="#f2f5fd" fill-opacity="1.00" stroke="#2F6BFF" stroke-width="0.9" stroke-opacity="1.00"/><polygon points="73.4,321.7 73.8,321.6 73.8,311.9 73.4,312.0" fill="#adb1bb" fill-opacity="1.00" stroke="#2F6BFF" stroke-width="0.9" stroke-opacity="1.00"/><polygon points="72.8,320.5 73.4,321.7 73.4,312.0 72.8,310.8" fill="#9a999c" fill-opacity="1.00" stroke="#2F6BFF" stroke-width="0.9" stroke-opacity="1.00"/><polygon points="73.4,312.0 73.8,311.9 73.3,310.7 72.8,310.8" fill="#a9aeb8" fill-opacity="1.00" stroke="#2F6BFF" stroke-width="0.9" stroke-opacity="1.00"/><polygon points="74.8,321.4 75.3,321.3 75.3,311.6 74.8,311.7" fill="#adb1bb" fill-opacity="1.00" stroke="#2F6BFF" stroke-width="0.9" stroke-opacity="1.00"/><polygon points="74.3,320.3 74.8,321.4 74.8,311.7 74.3,310.5" fill="#9a999c" fill-opacity="1.00" stroke="#2F6BFF" stroke-width="0.9" stroke-opacity="1.00"/><polygon points="74.8,311.7 75.3,311.6 74.8,310.4 74.3,310.5" fill="#a9aeb8" fill-opacity="1.00" stroke="#2F6BFF" stroke-width="0.9" stroke-opacity="1.00"/><polygon points="124.1,389.6 174.8,380.4 174.8,360.6 124.1,369.7" fill="#adb1bb" fill-opacity="1.00" stroke="#2F6BFF" stroke-width="0.9" stroke-opacity="1.00"/><polygon points="122.9,387.0 124.1,389.6 124.1,369.7 122.9,367.2" fill="#9a999c" fill-opacity="1.00" stroke="#2F6BFF" stroke-width="0.9" stroke-opacity="1.00"/><polygon points="124.1,369.7 174.8,360.6 173.6,358.1 122.9,367.2" fill="#a9aeb8" fill-opacity="1.00" stroke="#2F6BFF" stroke-width="0.9" stroke-opacity="1.00"/><polygon points="139.7,382.1 160.0,378.5 160.0,369.7 139.7,373.4" fill="#e7eefb" fill-opacity="1.00" stroke="#2F6BFF" stroke-width="0.9" stroke-opacity="1.00"/><polygon points="139.3,381.3 139.7,382.1 139.7,373.4 139.3,372.5" fill="#d1d3d9" fill-opacity="1.00" stroke="#2F6BFF" stroke-width="0.9" stroke-opacity="1.00"/><polygon points="139.7,373.4 160.0,369.7 159.6,368.9 139.3,372.5" fill="#e7eefc" fill-opacity="1.00" stroke="#2F6BFF" stroke-width="0.9" stroke-opacity="1.00"/><polygon points="10.1,244.7 57.9,345.3 57.9,265.3 10.1,164.7" fill="#e7e3dc" fill-opacity="0.89" stroke="none" stroke-width="0.9" stroke-opacity="0.92"/><polyline points="10.1,164.7 57.9,265.3" fill="none" stroke="#8A93A3" stroke-width="1" stroke-opacity="1.00"/><polyline points="10.1,244.7 57.9,345.3" fill="none" stroke="#8A93A3" stroke-width="1" stroke-opacity="1.00"/><polyline points="10.1,244.7 10.1,164.7" fill="none" stroke="#8A93A3" stroke-width="1" stroke-opacity="1.00"/><polyline points="57.9,345.3 57.9,265.3" fill="none" stroke="#8A93A3" stroke-width="1" stroke-opacity="1.00"/><polygon points="62.9,263.4 17.2,167.1 10.1,164.7 57.9,265.3" fill="#e4e9f2" fill-opacity="1.00" stroke="none" stroke-width="0.9" stroke-opacity="1.00"/><polygon points="62.9,263.4 17.2,167.1 10.1,164.7 57.9,265.3" fill="none" fill-opacity="1.00" stroke="#8a93a3" stroke-width="0.9" stroke-opacity="1.00"/><polygon points="57.9,345.3 62.9,343.4 62.9,263.4 57.9,265.3" fill="#ffffff" fill-opacity="1.00" stroke="none" stroke-width="0.9" stroke-opacity="1.00"/><polyline points="57.9,265.3 62.9,263.4" fill="none" stroke="#8A93A3" stroke-width="1" stroke-opacity="1.00"/><polyline points="57.9,345.3 62.9,343.4" fill="none" stroke="#8A93A3" stroke-width="1" stroke-opacity="1.00"/><polyline points="57.9,345.3 57.9,265.3" fill="none" stroke="#8A93A3" stroke-width="1" stroke-opacity="1.00"/><polyline points="62.9,343.4 62.9,263.4" fill="none" stroke="#8A93A3" stroke-width="1" stroke-opacity="1.00"/><polyline points="57.9,314.9 75.3,351.7" fill="none" stroke="#8A93A3" stroke-width="1" stroke-opacity="1.00"/><polyline points="57.9,345.3 75.3,382.1" fill="none" stroke="#8A93A3" stroke-width="1" stroke-opacity="1.00"/><polyline points="57.9,345.3 57.9,314.9" fill="none" stroke="#8A93A3" stroke-width="1" stroke-opacity="1.00"/><polyline points="75.3,382.1 75.3,351.7" fill="none" stroke="#8A93A3" stroke-width="1" stroke-opacity="1.00"/><polygon points="79.6,348.2 62.9,313.0 57.9,314.9 75.3,351.7" fill="#e4e9f2" fill-opacity="1.00" stroke="none" stroke-width="0.9" stroke-opacity="1.00"/><polygon points="79.6,348.2 62.9,313.0 57.9,314.9 75.3,351.7" fill="none" fill-opacity="1.00" stroke="#8a93a3" stroke-width="0.9" stroke-opacity="1.00"/><polygon points="58.2,314.8 75.6,351.5 75.6,305.1 58.2,268.4" fill="#6db6cc" fill-opacity="1.00" stroke="none" stroke-width="0.9" stroke-opacity="1.00"/><polygon points="57.9,345.3 75.3,382.1 75.3,351.7 57.9,314.9" fill="#e7e3dc" fill-opacity="0.89" stroke="none" stroke-width="0.9" stroke-opacity="0.92"/><polygon points="57.9,268.5 75.3,305.3 75.3,302.1 57.9,265.3" fill="#e7e3dc" fill-opacity="0.89" stroke="none" stroke-width="0.9" stroke-opacity="0.92"/><polyline points="75.3,351.7 79.6,348.2" fill="none" stroke="#8A93A3" stroke-width="1" stroke-opacity="1.00"/><polyline points="75.3,382.1 79.6,378.6" fill="none" stroke="#8A93A3" stroke-width="1" stroke-opacity="1.00"/><polyline points="75.3,382.1 75.3,351.7" fill="none" stroke="#8A93A3" stroke-width="1" stroke-opacity="1.00"/><polyline points="79.6,378.6 79.6,348.2" fill="none" stroke="#8A93A3" stroke-width="1" stroke-opacity="1.00"/><polyline points="58.2,268.4 75.6,305.1" fill="none" stroke="#3EB8E5" stroke-width="1" stroke-opacity="1.00"/><polyline points="58.2,314.8 75.6,351.5" fill="none" stroke="#3EB8E5" stroke-width="1" stroke-opacity="1.00"/><polyline points="58.2,314.8 58.2,268.4" fill="none" stroke="#3EB8E5" stroke-width="1" stroke-opacity="1.00"/><polyline points="75.6,351.5 75.6,305.1" fill="none" stroke="#3EB8E5" stroke-width="1" stroke-opacity="1.00"/><polygon points="75.3,382.1 79.6,378.6 79.6,348.2 75.3,351.7" fill="#fefefe" fill-opacity="1.00" stroke="none" stroke-width="0.9" stroke-opacity="1.00"/><polygon points="75.3,305.3 79.6,301.8 79.6,298.6 75.3,302.1" fill="#fefefe" fill-opacity="1.00" stroke="none" stroke-width="0.9" stroke-opacity="1.00"/><polygon points="84.6,401.8 253.9,371.3 253.9,291.3 84.6,321.7" fill="#fefefe" fill-opacity="0.15" stroke="none" stroke-width="0.9" stroke-opacity="0.41"/><polygon points="79.6,298.6 62.9,263.4 57.9,265.3 75.3,302.1" fill="#e4e9f2" fill-opacity="1.00" stroke="none" stroke-width="0.9" stroke-opacity="1.00"/><polyline points="84.6,321.7 253.9,291.3" fill="none" stroke="#8A93A3" stroke-width="1" stroke-opacity="1.00"/><polyline points="84.6,401.8 253.9,371.3" fill="none" stroke="#8A93A3" stroke-width="1" stroke-opacity="1.00"/><polyline points="84.6,401.8 84.6,321.7" fill="none" stroke="#8A93A3" stroke-width="1" stroke-opacity="1.00"/><polyline points="253.9,371.3 253.9,291.3" fill="none" stroke="#8A93A3" stroke-width="1" stroke-opacity="1.00"/><polygon points="79.6,298.6 62.9,263.4 57.9,265.3 75.3,302.1" fill="none" fill-opacity="1.00" stroke="#8a93a3" stroke-width="0.9" stroke-opacity="1.00"/><polyline points="57.9,265.3 75.3,302.1" fill="none" stroke="#8A93A3" stroke-width="1" stroke-opacity="1.00"/><polyline points="57.9,268.5 75.3,305.3" fill="none" stroke="#8A93A3" stroke-width="1" stroke-opacity="1.00"/><polyline points="57.9,268.5 57.9,265.3" fill="none" stroke="#8A93A3" stroke-width="1" stroke-opacity="1.00"/><polyline points="75.3,305.3 75.3,302.1" fill="none" stroke="#8A93A3" stroke-width="1" stroke-opacity="1.00"/><polygon points="75.3,382.1 84.6,401.8 84.6,321.7 75.3,302.1" fill="#e7e3dc" fill-opacity="0.89" stroke="none" stroke-width="0.9" stroke-opacity="0.92"/><polyline points="75.3,302.1 84.6,321.7" fill="none" stroke="#8A93A3" stroke-width="1" stroke-opacity="1.00"/><polyline points="75.3,382.1 84.6,401.8" fill="none" stroke="#8A93A3" stroke-width="1" stroke-opacity="1.00"/><polyline points="75.3,382.1 75.3,302.1" fill="none" stroke="#8A93A3" stroke-width="1" stroke-opacity="1.00"/><polyline points="84.6,401.8 84.6,321.7" fill="none" stroke="#8A93A3" stroke-width="1" stroke-opacity="1.00"/><polygon points="84.6,401.8 88.5,397.4 88.5,317.4 84.6,321.7" fill="#fdfdfc" fill-opacity="1.00" stroke="none" stroke-width="0.9" stroke-opacity="1.00"/><polyline points="84.6,321.7 88.5,317.4" fill="none" stroke="#8A93A3" stroke-width="1" stroke-opacity="1.00"/><polyline points="84.6,401.8 88.5,397.4" fill="none" stroke="#8A93A3" stroke-width="1" stroke-opacity="1.00"/><polyline points="84.6,401.8 84.6,321.7" fill="none" stroke="#8A93A3" stroke-width="1" stroke-opacity="1.00"/><polyline points="88.5,397.4 88.5,317.4" fill="none" stroke="#8A93A3" stroke-width="1" stroke-opacity="1.00"/><polyline points="75.3,302.1 79.6,298.6" fill="none" stroke="#8A93A3" stroke-width="1" stroke-opacity="1.00"/><polyline points="75.3,305.3 79.6,301.8" fill="none" stroke="#8A93A3" stroke-width="1" stroke-opacity="1.00"/><polyline points="75.3,305.3 75.3,302.1" fill="none" stroke="#8A93A3" stroke-width="1" stroke-opacity="1.00"/><polyline points="79.6,301.8 79.6,298.6" fill="none" stroke="#8A93A3" stroke-width="1" stroke-opacity="1.00"/><polygon points="246.8,288.9 88.5,317.4 84.6,321.7 253.9,291.3" fill="#e4e9f2" fill-opacity="1.00" stroke="none" stroke-width="0.9" stroke-opacity="1.00"/><polygon points="246.8,288.9 88.5,317.4 84.6,321.7 253.9,291.3" fill="none" fill-opacity="1.00" stroke="#8a93a3" stroke-width="0.9" stroke-opacity="1.00"/><polygon points="88.5,317.4 79.6,298.6 75.3,302.1 84.6,321.7" fill="#e4e9f2" fill-opacity="1.00" stroke="none" stroke-width="0.9" stroke-opacity="1.00"/><polygon points="88.5,317.4 79.6,298.6 75.3,302.1 84.6,321.7" fill="none" fill-opacity="1.00" stroke="#8a93a3" stroke-width="0.9" stroke-opacity="1.00"/><text x="176.3" y="378.4" font-family="Helvetica" font-size="9.0" font-weight="bold" text-anchor="middle" fill="none" stroke="#FFFFFF" stroke-width="3" opacity="1.00">PC</text><text x="176.3" y="378.4" font-family="Helvetica" font-size="9.0" font-weight="bold" text-anchor="middle" fill="#C8770A" opacity="1.00">PC</text><text x="51.2" y="320.1" font-family="Helvetica" font-size="9.0" font-weight="bold" text-anchor="middle" fill="none" stroke="#FFFFFF" stroke-width="3" opacity="1.00">PC</text><text x="51.2" y="320.1" font-family="Helvetica" font-size="9.0" font-weight="bold" text-anchor="middle" fill="#C8770A" opacity="1.00">PC</text><text x="239.0" y="313.9" font-family="Helvetica" font-size="8.8" font-weight="bold" text-anchor="middle" fill="none" stroke="#FFFFFF" stroke-width="3" opacity="0.95">I</text><text x="239.0" y="313.9" font-family="Helvetica" font-size="8.8" font-weight="bold" text-anchor="middle" fill="#1E7FBF" opacity="0.95">I</text><circle cx="239.0" cy="309.9" r="18.0" fill="none" stroke="#1E7FBF" stroke-width="0.00" opacity="0.00"/><text x="137.3" y="385.5" font-family="Helvetica" font-size="8.1" font-weight="bold" text-anchor="middle" fill="none" stroke="#FFFFFF" stroke-width="3" opacity="0.74">RJ</text><text x="137.3" y="385.5" font-family="Helvetica" font-size="8.1" font-weight="bold" text-anchor="middle" fill="#7B3FC4" opacity="0.74">RJ</text><circle cx="137.3" cy="381.5" r="16.2" fill="none" stroke="#7B3FC4" stroke-width="0.29" opacity="0.10"/><text x="145.8" y="260.3" font-family="Helvetica" font-size="6.9" font-weight="bold" text-anchor="middle" fill="none" stroke="#FFFFFF" stroke-width="3" opacity="0.43">I</text><text x="145.8" y="260.3" font-family="Helvetica" font-size="6.9" font-weight="bold" text-anchor="middle" fill="#1E7FBF" opacity="0.43">I</text><circle cx="145.8" cy="256.3" r="11.1" fill="none" stroke="#1E7FBF" stroke-width="1.09" opacity="0.37"/><text x="103.3" y="224.8" font-family="Helvetica" font-size="5.9" font-weight="bold" text-anchor="middle" fill="none" stroke="#FFFFFF" stroke-width="3" opacity="0.15">PC</text><text x="103.3" y="224.8" font-family="Helvetica" font-size="5.9" font-weight="bold" text-anchor="middle" fill="#C8770A" opacity="0.15">PC</text><circle cx="103.3" cy="220.8" r="6.4" fill="none" stroke="#C8770A" stroke-width="1.82" opacity="0.62"/></g><rect x="0" y="478" width="264" height="58" fill="#2F6BFF"/><g opacity="1.00"><text x="132" y="514.0" font-family="Helvetica" font-size="30.0" font-weight="bold" letter-spacing="0.5" text-anchor="middle" fill="#FFFFFF">LES PRISES</text></g><rect x="0" y="532" width="264" height="4" fill="#FFFFFF" fill-opacity="0.25"/><rect x="0" y="532" width="106.9" height="4" fill="#FFFFFF"/></svg>