<svg xmlns="http://www.w3.org/2000/svg" width="264" height="536" viewBox="0 0 264 536"><rect width="264" height="536" fill="#FFFFFF"/><polygon points="51.2,144.9 212.8,144.9 212.8,391.1 51.2,391.1" fill="#EEF2FB" fill-opacity="1.00" stroke="#D5DCEA" stroke-width="0.9" stroke-opacity="1.00"/><polygon points="57.4,146.9 122.0,146.9 122.0,230.7 57.4,230.7" fill="#dee2eb" fill-opacity="1.00" stroke="none" stroke-width="0.9" stroke-opacity="1.00"/><polygon points="60.1,149.5 119.3,149.5 119.3,228.0 60.1,228.0" fill="#d0d4dd" fill-opacity="1.00" stroke="none" stroke-width="0.9" stroke-opacity="1.00"/><polygon points="140.3,171.1 116.0,171.1 116.0,146.9 140.3,146.9" fill="#dee2eb" fill-opacity="1.00" stroke="none" stroke-width="0.9" stroke-opacity="1.00"/><polygon points="137.6,168.4 118.7,168.4 118.7,149.5 137.6,149.5" fill="#d0d4dd" fill-opacity="1.00" stroke="none" stroke-width="0.9" stroke-opacity="1.00"/><polygon points="185.5,166.5 214.7,166.5 214.7,242.6 185.5,242.6" fill="#dee2eb" fill-opacity="1.00" stroke="none" stroke-width="0.9" stroke-opacity="1.00"/><polygon points="188.1,169.2 212.0,169.2 212.0,239.9 188.1,239.9" fill="#d0d4dd" fill-opacity="1.00" stroke="none" stroke-width="0.9" stroke-opacity="1.00"/><polygon points="162.4,291.5 70.9,291.5 70.9,250.7 162.4,250.7" fill="#dee2eb" fill-opacity="1.00" stroke="none" stroke-width="0.9" stroke-opacity="1.00"/><polygon points="159.7,288.8 73.5,288.8 73.5,253.4 159.7,253.4" fill="#d0d4dd" fill-opacity="1.00" stroke="none" stroke-width="0.9" stroke-opacity="1.00"/><polygon points="92.0,304.9 141.2,304.9 141.2,334.9 92.0,334.9" fill="#dee2eb" fill-opacity="1.00" stroke="none" stroke-width="0.9" stroke-opacity="1.00"/><polygon points="94.7,307.6 138.5,307.6 138.5,332.2 94.7,332.2" fill="#d0d4dd" fill-opacity="1.00" stroke="none" stroke-width="0.9" stroke-opacity="1.00"/><polygon points="88.2,380.7 145.1,380.7 145.1,393.0 88.2,393.0" fill="#dee2eb" fill-opacity="1.00" stroke="none" stroke-width="0.9" stroke-opacity="1.00"/><polygon points="90.8,383.4 142.4,383.4 142.4,390.3 90.8,390.3" fill="#d0d4dd" fill-opacity="1.00" stroke="none" stroke-width="0.9" stroke-opacity="1.00"/><polygon points="53.2,308.8 76.2,308.8 76.2,377.2 53.2,377.2" fill="#dee2eb" fill-opacity="1.00" stroke="none" stroke-width="0.9" stroke-opacity="1.00"/><polygon points="55.9,311.5 73.5,311.5 73.5,374.5 55.9,374.5" fill="#d0d4dd" fill-opacity="1.00" stroke="none" stroke-width="0.9" stroke-opacity="1.00"/><polygon points="53.9,360.3 53.9,302.6 48.5,302.6 48.5,360.3" fill="#78cded" fill-opacity="1.00" stroke="none" stroke-width="0.9" stroke-opacity="1.00"/><polygon points="53.9,360.3 53.9,302.6 48.5,302.6 48.5,360.3" fill="none" fill-opacity="1.00" stroke="#8A93A3" stroke-width="0.9" stroke-opacity="1.00"/><polygon points="155.1,147.6 201.2,147.6 201.2,142.2 155.1,142.2" fill="#78cded" fill-opacity="1.00" stroke="none" stroke-width="0.9" stroke-opacity="1.00"/><polygon points="155.1,147.6 201.2,147.6 201.2,142.2 155.1,142.2" fill="none" fill-opacity="1.00" stroke="#8A93A3" stroke-width="0.9" stroke-opacity="1.00"/><polygon points="53.9,147.6 210.1,147.6 215.5,142.2 48.5,142.2" fill="#12161d" fill-opacity="1.00" stroke="none" stroke-width="0.9" stroke-opacity="1.00"/><polygon points="210.1,147.6 210.1,337.6 215.5,340.7 215.5,142.2" fill="#12161d" fill-opacity="1.00" stroke="none" stroke-width="0.9" stroke-opacity="1.00"/><polygon points="210.1,371.4 210.1,388.4 215.5,393.8 215.5,376.1" fill="#12161d" fill-opacity="1.00" stroke="none" stroke-width="0.9" stroke-opacity="1.00"/><polygon points="210.1,388.4 53.9,388.4 48.5,393.8 215.5,393.8" fill="#12161d" fill-opacity="1.00" stroke="none" stroke-width="0.9" stroke-opacity="1.00"/><polygon points="53.9,388.4 53.9,147.6 48.5,142.2 48.5,393.8" fill="#12161d" fill-opacity="1.00" stroke="none" stroke-width="0.9" stroke-opacity="1.00"/><polygon points="48.5,251.5 167.8,251.5 167.8,246.1 48.5,246.1" fill="#12161d" fill-opacity="1.00" stroke="none" stroke-width="0.9" stroke-opacity="1.00"/><polygon points="201.5,251.5 215.5,251.5 215.5,246.1 201.5,246.1" fill="#12161d" fill-opacity="1.00" stroke="none" stroke-width="0.9" stroke-opacity="1.00"/><polygon points="53.9,147.6 210.1,147.6 215.5,142.2 48.5,142.2" fill="none" fill-opacity="1.00" stroke="#12161d" stroke-width="0.9" stroke-opacity="1.00"/><polygon points="210.1,147.6 210.1,337.6 215.5,340.7 215.5,142.2" fill="none" fill-opacity="1.00" stroke="#12161d" stroke-width="0.9" stroke-opacity="1.00"/><polygon points="210.1,371.4 210.1,388.4 215.5,393.8 215.5,376.1" fill="none" fill-opacity="1.00" stroke="#12161d" stroke-width="0.9" stroke-opacity="1.00"/><polygon points="210.1,388.4 53.9,388.4 48.5,393.8 215.5,393.8" fill="none" fill-opacity="1.00" stroke="#12161d" stroke-width="0.9" stroke-opacity="1.00"/><polygon points="53.9,388.4 53.9,147.6 48.5,142.2 48.5,393.8" fill="none" fill-opacity="1.00" stroke="#12161d" stroke-width="0.9" stroke-opacity="1.00"/><polygon points="48.5,251.5 167.8,251.5 167.8,246.1 48.5,246.1" fill="none" fill-opacity="1.00" stroke="#12161d" stroke-width="0.9" stroke-opacity="1.00"/><polygon points="201.5,251.5 215.5,251.5 215.5,246.1 201.5,246.1" fill="none" fill-opacity="1.00" stroke="#12161d" stroke-width="0.9" stroke-opacity="1.00"/><text x="139.7" y="394.1" font-family="Helvetica" font-size="9" font-weight="bold" text-anchor="middle" fill="none" stroke="#FFFFFF" stroke-width="3">PC</text><text x="139.7" y="394.1" font-family="Helvetica" font-size="9" font-weight="bold" text-anchor="middle" fill="#C8770A">PC</text><text x="51.2" y="274.8" font-family="Helvetica" font-size="9" font-weight="bold" text-anchor="middle" fill="none" stroke="#FFFFFF" stroke-width="3">PC</text><text x="51.2" y="274.8" font-family="Helvetica" font-size="9" font-weight="bold" text-anchor="middle" fill="#C8770A">PC</text><text x="212.8" y="355.6" font-family="Helvetica" font-size="9" font-weight="bold" text-anchor="middle" fill="none" stroke="#FFFFFF" stroke-width="3">I</text><text x="212.8" y="355.6" font-family="Helvetica" font-size="9" font-weight="bold" text-anchor="middle" fill="#1E7FBF">I</text><text x="101.2" y="394.1" font-family="Helvetica" font-size="9" font-weight="bold" text-anchor="middle" fill="none" stroke="#FFFFFF" stroke-width="3">RJ</text><text x="101.2" y="394.1" font-family="Helvetica" font-size="9" font-weight="bold" text-anchor="middle" fill="#7B3FC4">RJ</text><text x="151.2" y="251.8" font-family="Helvetica" font-size="9" font-weight="bold" text-anchor="middle" fill="none" stroke="#FFFFFF" stroke-width="3">I</text><text x="151.2" y="251.8" font-family="Helvetica" font-size="9" font-weight="bold" text-anchor="middle" fill="#1E7FBF">I</text><text x="139.7" y="147.9" font-family="Helvetica" font-size="9" font-weight="bold" text-anchor="middle" fill="none" stroke="#FFFFFF" stroke-width="3">PC</text><text x="139.7" y="147.9" font-family="Helvetica" font-size="9" font-weight="bold" text-anchor="middle" fill="#C8770A">PC</text></svg>